<svg width="216" height="216" viewBox="0 0 216 216" fill="none" xmlns="http://www.w3.org/2000/svg">
<path fill-rule="evenodd" clip-rule="evenodd" d="M172.812 54.3392C173.612 52.7392 173.112 60.9392 173.212 64.4392C173.612 66.1392 173.412 71.5392 173.512 74.5392C173.412 79.3392 173.412 85.5392 172.912 88.0392C172.412 90.5392 173.012 94.2392 172.912 97.6392C172.812 101.039 172.612 104.639 172.512 108.239C172.412 111.839 172.512 114.539 172.412 118.339C172.312 122.139 172.012 125.839 171.912 130.139C171.512 138.539 170.812 149.439 169.712 160.839C168.612 172.239 167.012 183.839 165.012 193.939L164.712 196.239V197.239H163.612L164.812 196.039C164.735 197.885 164.029 199.649 162.812 201.039C161.61 202.397 160.19 203.546 158.612 204.439C154.345 206.608 149.804 208.189 145.112 209.139C140.964 210.146 136.755 210.881 132.512 211.339C124.648 212.289 116.733 212.757 108.812 212.74C100.82 212.688 92.8392 212.153 84.9121 211.139C80.5743 210.558 76.2688 209.757 72.0121 208.739C69.8121 208.139 67.5121 207.539 65.2121 206.739C62.8635 205.896 60.5891 204.859 58.4121 203.639C56.9838 202.7 55.6743 201.592 54.5121 200.339C53.4747 199.14 52.8753 197.624 52.8121 196.039L53.8121 197.139H52.9121V196.239C52.2664 193.01 51.8984 189.731 51.8121 186.439C49.4066 172.003 47.771 157.449 46.9121 142.839C45.9121 137.439 45.2121 132.239 44.5121 126.139C42.9121 111.239 43.0121 98.9392 42.2121 80.6392C42.3121 81.1392 42.6121 79.7392 42.4121 78.9392C41.7121 75.2392 41.7121 62.7392 41.7121 55.3392C41.7333 55.0026 41.6996 54.6649 41.6121 54.3392C41.6121 53.9392 41.7121 53.4392 41.7121 52.9392C41.7996 52.4931 41.9336 52.0574 42.1121 51.6392C42.2512 51.1803 42.4531 50.7428 42.7121 50.3392C43.6492 48.673 44.9477 47.2379 46.5121 46.1392C49.8128 43.7446 53.453 41.857 57.3121 40.5392C65.7492 37.65 74.462 35.6393 83.3121 34.5392C93.4856 33.6343 103.7 33.2671 113.912 33.4392C124.996 33.8843 136.029 35.1882 146.912 37.3392C152.494 38.5227 157.951 40.2303 163.212 42.4392C165.772 43.5448 168.19 44.955 170.412 46.6392C171.529 47.5214 172.506 48.5664 173.312 49.7392C174.172 50.9384 174.659 52.3646 174.712 53.8392C174.512 54.2392 174.412 54.1392 174.212 53.7392C174.164 53.5082 174.131 53.2744 174.112 53.0392L173.712 52.1392C173.584 51.8194 173.416 51.517 173.212 51.2392L172.712 50.4392L171.712 49.5392C171.012 49.1392 172.712 50.8392 173.212 52.4392C173.341 52.9629 173.408 53.4999 173.412 54.0392C173.412 54.1392 173.412 54.0392 173.312 53.8392C173.32 53.6345 173.286 53.4303 173.212 53.2392C173.17 52.967 173.103 52.6992 173.012 52.4392C172.712 53.2392 172.212 51.4392 170.512 49.8392C169.136 48.5214 167.628 47.3486 166.012 46.3392C163.512 45.0392 161.312 44.1392 159.412 43.3392L153.712 41.3392C137.912 37.3392 118.212 35.5392 100.412 35.9392C95.4121 36.0392 91.9121 36.4392 88.7121 36.7392L78.6121 37.8392C75.4121 38.4392 71.8121 39.2392 67.8121 40.2392C63.6548 41.3197 59.5781 42.6897 55.6121 44.3392C53.5118 45.2063 51.5021 46.2781 49.6121 47.5392C47.7884 48.6429 46.2745 50.1912 45.2121 52.0392L44.9121 52.7392V54.9392C45.0121 56.0392 45.0121 57.2392 45.1121 58.4392C45.2121 59.6392 45.2121 63.1392 45.3121 65.4392C45.1121 84.2392 46.2121 92.1392 46.0121 105.839C47.1121 116.239 48.0121 126.439 49.1121 137.739C50.2121 149.039 51.4121 161.339 53.3121 176.039C54.1121 182.739 55.0121 189.339 56.0121 195.739L54.0121 194.039H56.0121V196.039C56.0728 196.997 56.5031 197.893 57.2121 198.539C58.0416 199.492 59.0212 200.302 60.1121 200.939C62.4443 202.319 64.9272 203.426 67.5121 204.239C72.8152 206.011 78.2723 207.283 83.8121 208.039C95.3006 209.685 106.921 210.221 118.512 209.639C122.492 209.636 126.467 209.369 130.412 208.839C134.612 208.439 138.412 207.839 140.212 207.839C144.574 206.755 148.88 205.454 153.112 203.939C155.359 203.116 157.505 202.043 159.512 200.739C161.312 199.439 162.812 197.739 162.812 196.039V195.139H163.712L162.912 195.739C163.012 194.939 163.212 194.239 163.312 193.539C163.412 189.539 163.812 189.039 164.112 185.139C165.512 176.339 166.612 168.439 167.412 160.339C168.212 152.239 168.812 144.239 169.312 134.939C169.612 130.439 169.812 126.739 170.112 123.439C170.412 120.139 170.512 117.539 170.612 114.939C170.912 109.939 171.012 105.539 171.012 99.6392C171.012 93.7392 171.812 90.2392 171.612 84.4392C171.712 81.6392 171.312 80.1392 171.712 79.4392C172.112 72.1392 171.712 70.1392 172.412 67.6392C172.412 62.7392 172.012 54.6392 172.812 54.3392Z" fill="#2E316A"/>
<path d="M56.6123 172.139C34.4123 172.139 16.3123 150.539 16.3123 124.039C16.3123 97.5392 34.4123 76.0392 56.6123 76.0392C78.8123 76.0392 96.8123 97.5392 96.8123 124.039C96.8123 150.539 78.8123 172.139 56.6123 172.139ZM56.6123 93.0392C43.8123 93.0392 33.3123 106.939 33.3123 124.039C33.3123 141.139 43.8123 155.139 56.6123 155.139C69.4123 155.139 79.8123 141.139 79.8123 124.039C79.8123 106.939 69.4123 93.0392 56.6123 93.0392Z" fill="#AF64FF"/>
<path fill-rule="evenodd" clip-rule="evenodd" d="M56.6122 94.2392C56.4122 93.7392 56.9122 93.7392 57.6122 93.8392H61.1122C61.6254 94.0432 62.1635 94.1777 62.7122 94.2392C64.1122 94.7392 65.9122 95.5392 66.3122 96.3392C68.2122 96.8392 69.7122 98.5392 71.4122 100.039L72.5122 101.039C72.9832 101.361 73.3901 101.768 73.7122 102.239L74.9122 103.639C75.2092 104.194 75.5433 104.729 75.9122 105.239C77.7609 108.009 79.1772 111.043 80.1122 114.239C81.1142 117.713 81.3866 121.356 80.9122 124.939C80.9128 125.578 80.9798 126.215 81.1122 126.839C81.2123 127.502 81.2123 128.176 81.1122 128.839C80.9122 130.339 80.5122 131.839 80.2122 133.239L79.6122 135.239C79.4122 135.939 79.1122 136.539 78.9122 137.139L78.1122 138.939C77.8875 139.557 77.6202 140.158 77.3122 140.739C76.7721 141.838 76.1711 142.907 75.5122 143.939L74.4122 145.539L73.3122 147.039L72.0122 148.739L70.6122 150.139C68.4731 152.22 65.9632 153.882 63.2122 155.039L61.3122 155.539L59.8122 155.839L59.1122 156.039H58.5122L57.1122 155.739H53.5122L51.6122 155.339L49.9122 154.739C47.7645 153.891 45.8216 152.595 44.2122 150.939L43.0122 150.339L41.9122 149.539L40.7122 148.739L39.7122 147.739C38.9179 146.856 38.1829 145.92 37.5122 144.939C36.8809 143.96 36.3451 142.921 35.9122 141.839C35.3855 140.732 34.9181 139.597 34.5122 138.439L33.9122 136.539C33.7242 135.825 33.4904 135.123 33.2122 134.439C33.3122 134.639 33.5122 134.139 33.3122 133.839C32.6966 132.875 32.3195 131.778 32.2122 130.639C31.989 129.216 31.8554 127.78 31.8122 126.339C31.5691 124.081 31.5356 121.804 31.7122 119.539C31.852 116.629 32.3216 113.744 33.1122 110.939C34.3407 107.793 35.8818 104.778 37.7122 101.939C39.9901 98.9736 42.8058 96.4633 46.0122 94.5392C49.1517 92.6116 52.863 91.834 56.5122 92.3392C57.0122 93.0392 55.1122 92.9392 54.9122 93.3392C54.7122 93.7392 57.9122 93.3392 56.0122 93.8392C56.2122 94.2392 55.6122 94.3392 54.9122 94.4392H53.0122L50.9122 94.9392L50.0122 95.2392L49.2122 95.4392C46.832 96.687 44.643 98.2698 42.7122 100.139C40.7027 102.119 38.9854 104.375 37.6122 106.839C37.0022 107.908 36.5317 109.051 36.2122 110.239C35.902 111.259 35.5347 112.261 35.1122 113.239C35.0887 113.777 35.0219 114.312 34.9122 114.839C34.9122 115.439 34.8122 116.039 34.8122 116.639C34.8122 117.239 34.6122 119.239 34.5122 120.639C34.5093 123.496 34.811 126.346 35.4122 129.139C35.4242 129.81 35.4911 130.479 35.6122 131.139L35.9122 132.839C36.2122 133.839 36.5122 134.739 36.7122 135.639L37.6122 138.139C37.9518 139.016 38.2194 139.919 38.4122 140.839C40.2969 143.389 42.4052 145.765 44.7122 147.939C47.3844 150.429 50.7174 152.095 54.3122 152.739C56.3325 153.105 58.405 153.071 60.4122 152.639L61.9122 152.239C62.4029 152.101 62.8734 151.899 63.3122 151.639C63.807 151.467 64.2776 151.232 64.7122 150.939L66.1122 150.139C67.8645 148.923 69.4453 147.477 70.8122 145.839C72.2163 144.091 73.455 142.216 74.5122 140.239C75.7122 138.639 76.5122 135.139 77.5122 134.239C78.5122 133.339 77.9122 131.339 78.2122 129.739C78.5122 128.139 78.5122 128.039 78.7122 127.239C78.9122 126.439 78.9122 125.739 79.0122 125.139C79.1122 124.539 78.8122 123.739 78.5122 122.539C78.6812 117.381 77.2869 112.291 74.5122 107.939L73.6122 106.339C73.3911 105.879 73.123 105.444 72.8122 105.039C72.3924 104.309 71.9247 103.608 71.4122 102.939L69.9122 101.339C69.351 100.825 68.749 100.357 68.1122 99.9392C67.4778 99.4828 66.9062 98.9449 66.4122 98.3392C65.8898 97.9042 65.2737 97.5961 64.6122 97.4392C63.9122 97.0392 63.3122 97.2392 63.4122 96.7392C62.7847 96.3836 62.1119 96.1145 61.4122 95.9392C61.0075 95.8295 60.6539 95.5819 60.4122 95.2392C59.0122 94.7392 56.7122 95.0392 56.6122 94.2392Z" fill="#2E316A"/>
<path fill-rule="evenodd" clip-rule="evenodd" d="M56.7122 173.339C56.3122 172.939 57.1122 172.839 58.3122 172.739C59.5189 172.751 60.7241 172.651 61.9122 172.439C62.7122 171.939 65.5122 171.439 66.9122 170.739C68.3122 170.039 72.1122 168.639 73.3122 168.339C75.8122 166.439 78.9122 164.539 81.4122 161.839C82.5512 160.565 83.6195 159.23 84.6122 157.839C85.7122 156.239 86.9122 154.739 87.9122 152.939C88.9122 151.139 90.0122 148.839 91.0122 146.439C91.9905 143.932 92.7924 141.359 93.4122 138.739C94.7069 133.363 95.4441 127.867 95.6122 122.339C95.4175 120.391 95.1171 118.455 94.7122 116.539C93.9203 108.204 90.9928 100.213 86.2122 93.3392C83.9744 90.1308 81.2791 87.2672 78.2122 84.8392C74.7151 82.0315 70.7083 79.9262 66.4122 78.6392C64.7906 78.0704 63.1153 77.6683 61.4122 77.4392L59.4122 77.1392L57.4122 76.7392C53.681 76.751 49.9728 77.3241 46.4122 78.4392C43.0239 79.4543 39.793 80.9352 36.8122 82.8392C34.7545 84.7506 32.8175 86.7879 31.0122 88.9392C28.7693 91.6397 26.6985 94.4786 24.8122 97.4392C22.6863 100.817 21.069 104.49 20.0122 108.339C20.1122 108.039 19.5122 108.639 19.6122 109.039C19.7122 109.439 19.2122 112.039 18.9122 114.239C18.4732 116.347 18.2057 118.488 18.1122 120.639C18.0004 124.084 18.2012 127.531 18.7122 130.939C19.3518 135.171 20.528 139.304 22.2122 143.239C23.7714 147.906 26.1783 152.246 29.3122 156.039C32.4082 160.443 36.4811 164.071 41.2122 166.639C45.9444 169.236 51.1449 170.867 56.5122 171.439C57.2122 172.139 54.2122 171.839 53.9122 172.239C53.6122 172.639 58.8122 172.539 55.6122 172.839C56.0122 173.239 54.8122 173.439 53.4122 173.239C52.3563 173.12 51.3167 172.885 50.3122 172.539C47.9783 172.158 45.7179 171.416 43.6122 170.339C39.3412 168.722 35.4328 166.275 32.1122 163.139C28.685 159.872 25.784 156.094 23.5122 151.939C22.3122 149.739 21.4122 148.139 20.7122 146.639C19.9007 145.092 19.2955 143.444 18.9122 141.739C17.2693 137.943 16.1588 133.939 15.6122 129.839C14.9131 125.003 14.8123 120.1 15.3122 115.239C16.057 111.442 17.0593 107.7 18.3122 104.039C19.3516 100.985 20.8706 98.1158 22.8122 95.5392C25.2464 90.3875 28.7993 85.8437 33.2122 82.2392C38.569 77.7867 45.0967 74.9742 52.0122 74.1392C59.9837 73.3161 68.0092 75.0684 74.9122 79.1392C81.8003 83.1937 87.4663 89.0324 91.3122 96.0392C91.9122 97.6392 93.1122 99.7392 93.9122 101.839C94.6497 103.412 95.0905 105.107 95.2122 106.839C96.2341 109.265 96.9074 111.824 97.2122 114.439C97.5479 117.025 97.6483 119.635 97.5122 122.239C98.1122 124.239 97.8122 124.639 98.0122 126.639C97.6455 130.954 96.9434 135.234 95.9122 139.439C94.7582 143.736 93.2186 147.919 91.3122 151.939C89.5961 155.018 87.5507 157.902 85.2122 160.539C83.4122 162.539 81.8122 164.139 79.5122 166.339C78.3721 167.247 77.1305 168.019 75.8122 168.639L74.3122 169.539L72.5122 170.639C71.1122 171.239 70.5122 171.939 70.0122 171.739L66.1122 172.939C65.3756 173.216 64.57 173.251 63.8122 173.039C62.3318 173.385 60.8276 173.619 59.3122 173.739C57.9122 173.839 56.8122 173.639 56.7122 173.339Z" fill="#2E316A"/>
<path d="M174.012 54.1392C174.012 43.8392 144.712 35.4392 108.612 35.4392C72.5123 35.4392 43.3123 43.8392 43.3123 54.1392C43.3123 106.439 47.2123 155.139 53.8123 196.039C53.8123 204.639 78.4123 211.639 108.612 211.639C138.812 211.639 163.512 204.639 163.512 196.039C170.112 155.139 174.012 106.439 174.012 54.1392Z" fill="#AF64FF"/>
<path d="M108.612 72.7392C144.676 72.7392 173.912 64.4117 173.912 54.1392C173.912 43.8667 144.676 35.5392 108.612 35.5392C72.5481 35.5392 43.3123 43.8667 43.3123 54.1392C43.3123 64.4117 72.5481 72.7392 108.612 72.7392Z" fill="#BA9CFF"/>
<path fill-rule="evenodd" clip-rule="evenodd" d="M175.212 53.9392C175.012 54.2392 174.912 54.0392 174.812 53.7392C174.732 53.5098 174.665 53.2761 174.612 53.0392C174.583 52.732 174.516 52.4297 174.412 52.1392C174.021 50.8941 173.335 49.762 172.412 48.8392C172.07 48.7103 171.763 48.5051 171.512 48.2392L170.312 47.3392C169.917 47.0154 169.479 46.7464 169.012 46.5392L167.812 45.8392C165.612 44.5392 162.612 43.4392 161.512 42.6392C158.512 41.9392 155.012 40.6392 151.312 39.9392L146.112 39.2392L140.012 38.4392C135.612 38.0392 130.012 37.6392 124.112 37.3392L106.912 36.6392C104.412 36.7392 103.212 37.1392 100.812 37.2392C92.1396 37.2213 83.4792 37.89 74.9122 39.2392C70.8571 39.8286 66.8475 40.6973 62.9122 41.8392C58.4309 43.0349 54.127 44.817 50.1122 47.1392C48.6004 47.9191 47.2446 48.9698 46.1122 50.2392C45.3068 51.1761 44.6338 52.2192 44.1122 53.3392C43.9605 54.1838 44.0649 55.0545 44.4122 55.8392C44.7229 56.6608 45.1995 57.4097 45.8122 58.0392C47.0961 59.4187 48.5792 60.5984 50.2122 61.5392C53.3834 63.3358 56.694 64.8741 60.1122 66.1392L68.8122 67.4392L79.7122 69.3392C83.7792 70.0599 87.8871 70.5275 92.0122 70.7392C91.7122 70.7392 92.4122 71.1392 92.9122 71.0392C93.4122 70.9392 101.312 71.1392 105.112 71.0392C113.237 70.9951 121.352 70.4607 129.412 69.4392C134.617 69.1103 139.794 68.4422 144.912 67.4392C150.477 66.7117 155.943 65.3702 161.212 63.4392C163.847 62.5443 166.366 61.3356 168.712 59.8392C171.012 58.4392 173.012 56.5392 173.312 54.2392C173.712 53.8392 173.812 54.3392 173.812 55.1392C173.812 55.9392 173.712 55.8392 173.612 56.1392C173.512 56.4392 173.512 56.7392 173.612 56.8392C173.712 56.9392 174.212 56.2392 174.512 55.1392C174.812 54.0392 174.712 53.3392 174.612 55.2392C174.912 55.0392 175.012 55.2392 175.012 55.7392C174.896 56.4098 174.659 57.0537 174.312 57.6392C173.696 58.6594 172.88 59.544 171.912 60.2392C170.927 61.1858 169.816 61.9932 168.612 62.6392L167.112 63.4392L165.712 64.0392C161.564 66.1361 157.16 67.6825 152.612 68.6392C147.929 69.6896 143.187 70.4577 138.412 70.9392C133.212 71.6392 131.212 72.3392 127.012 72.2392C120.412 73.5392 109.412 74.1392 99.7122 74.2392L88.1122 73.4392C84.9095 73.2021 81.732 72.7004 78.6122 71.9392C72.972 71.6382 67.3768 70.7671 61.9122 69.3392C58.7725 68.4951 55.6979 67.4257 52.7122 66.1392C51.0528 65.4251 49.4485 64.5895 47.9122 63.6392C46.0823 62.526 44.4584 61.1051 43.1122 59.4392C42.722 58.9795 42.3864 58.4762 42.1122 57.9392C41.8529 57.3261 41.6521 56.69 41.5122 56.0392C41.3635 55.4145 41.2632 54.7793 41.2122 54.1392C41.2557 53.4653 41.3561 52.7962 41.5122 52.1392C41.7122 51.4392 42.0122 50.9392 42.2122 50.3392L43.2122 48.9392L44.4122 47.6392L45.6122 46.5392C47.2455 45.289 48.9855 44.1847 50.8122 43.2392C52.601 42.3701 54.4372 41.6023 56.3122 40.9392C60.0056 39.629 63.7802 38.5601 67.6122 37.7392C71.5406 36.8622 75.5129 36.1946 79.5122 35.7392C82.8122 35.5392 89.1122 34.5392 91.0122 35.1392C95.2122 34.2392 102.612 34.4392 106.812 34.7392C108.912 34.1392 109.212 34.5392 111.212 34.2392L124.312 34.9392L137.712 35.6392C142.412 36.2392 145.512 36.9392 148.112 37.4392L156.112 39.0392C159.812 40.1392 160.812 40.9392 163.812 41.7392C165.212 42.4392 166.212 42.3392 166.312 42.8392C169.812 44.8392 171.012 45.4392 171.612 46.8392C172.988 47.8778 174.116 49.2101 174.912 50.7392C175.272 51.4191 175.477 52.1705 175.512 52.9392C175.512 53.5392 175.412 53.9392 175.212 53.9392Z" fill="#2E316A"/>
<path fill-rule="evenodd" clip-rule="evenodd" d="M44.5121 87.3392C43.7121 88.6392 44.1121 81.7392 44.0121 78.7392C43.5121 77.3392 43.7121 72.6392 43.5121 70.1392C43.5121 66.0392 43.4121 60.8392 43.8121 58.7392C44.2121 56.6392 43.6121 56.1392 43.6121 54.7392C43.5118 54.4134 43.5118 54.065 43.6121 53.7392C43.601 53.4029 43.6346 53.0667 43.7121 52.7392V52.2392L43.9121 51.8392C44.0168 51.4783 44.1862 51.1395 44.4121 50.8392C45.9121 48.4392 48.6121 46.7392 51.2121 45.2392C53.7033 43.7885 56.3126 42.5508 59.0121 41.5392C62.1804 40.3672 65.4204 39.3985 68.7121 38.6392C77.1767 36.5258 85.8093 35.154 94.5121 34.5392C103.999 33.7515 113.537 33.8184 123.012 34.7392C127.112 35.0392 129.012 34.7392 133.112 35.1392C140.69 36.1205 148.179 37.692 155.512 39.8392C158.81 40.8022 162.021 42.0399 165.112 43.5392C166.644 44.2528 168.115 45.0889 169.512 46.0392C170.996 47.0236 172.312 48.239 173.412 49.6392L174.112 50.8392C174.306 51.2618 174.473 51.6959 174.612 52.1392L174.812 52.8392C174.812 53.1392 174.912 53.3392 174.912 53.6392V59.9392C174.812 63.2392 174.812 66.6392 174.812 70.2392C174.712 77.2392 174.512 84.8392 174.312 93.2392C174.012 96.9392 174.012 99.6392 173.912 102.139C173.855 104.459 173.587 106.768 173.112 109.039C172.712 121.839 171.612 134.639 170.212 146.139C170.112 150.839 170.012 155.239 169.612 160.439C168.712 172.339 166.812 182.139 164.712 196.239V197.339H163.512L164.812 196.039C164.785 197.12 164.511 198.18 164.012 199.139C164.312 198.739 163.212 199.739 162.812 200.439C162.167 201.588 161.237 202.552 160.112 203.239C158.624 204.353 157.014 205.292 155.312 206.039C151.773 207.48 148.129 208.65 144.412 209.539C138.554 210.99 132.608 212.059 126.612 212.739C119.14 213.551 111.628 213.952 104.112 213.939C95.4278 213.56 86.7768 212.625 78.2121 211.139C73.3745 210.164 68.6251 208.792 64.0121 207.039C61.5411 206.086 59.1914 204.844 57.0121 203.339C55.8383 202.535 54.7932 201.557 53.9121 200.439C52.8966 199.196 52.3326 197.645 52.3121 196.039L53.8121 197.539H52.4121V196.239C51.2121 187.239 50.2121 178.239 49.5121 170.039C50.1121 168.739 50.5121 173.639 51.1121 174.139C51.7121 174.639 50.1121 166.039 51.1121 171.239C51.8121 169.839 52.6121 178.639 52.6121 179.739C53.4121 184.539 53.6121 187.639 54.0121 191.039C54.2121 192.639 54.5121 194.139 54.7121 195.839L53.9121 195.239H54.7121V196.039C54.774 196.708 54.9786 197.356 55.3121 197.939C55.6439 198.606 56.0831 199.214 56.6121 199.739C57.7658 200.861 59.0802 201.805 60.5121 202.539C63.4697 204.13 66.587 205.403 69.8121 206.339C76.4161 208.28 83.1741 209.652 90.0121 210.439C93.2963 210.846 96.6028 211.046 99.9121 211.039L108.612 211.339C114.112 211.039 121.212 210.639 128.912 209.539C136.612 208.439 144.712 206.739 151.712 203.939C154.288 203.13 156.719 201.914 158.912 200.339C160.812 199.039 162.012 197.439 162.012 196.039V194.439H163.712L162.112 195.739C163.112 189.239 163.812 184.039 165.212 177.239C165.912 168.339 166.712 159.639 167.512 150.039C168.312 140.439 169.212 130.039 170.012 117.439C170.812 104.839 171.712 92.3392 172.012 79.9392C172.212 73.6392 172.312 67.4392 172.312 61.0392C172.312 59.5392 172.312 57.9392 172.412 56.3392V53.9392C172.312 53.7392 172.412 53.4392 172.312 53.1392C172.212 52.8392 172.212 52.9392 172.112 52.7392V52.3392C171.455 51.1471 170.572 50.0942 169.512 49.2392C168.312 48.3392 167.012 47.5392 165.712 46.7392C162.823 45.1515 159.772 43.8776 156.612 42.9392C153.212 41.8392 150.012 41.0392 148.612 40.3392L136.012 38.3392L123.012 36.6392C119.712 37.0392 119.212 36.6392 115.912 36.8392C108.848 36.4522 101.767 36.519 94.7121 37.0392C87.5455 37.5471 80.4261 38.5832 73.4121 40.1392C67.9494 41.1851 62.5688 42.6221 57.3121 44.4392C55.4121 45.2392 53.6121 46.0392 51.9121 46.9392C50.0932 47.9439 48.4679 49.2646 47.1121 50.8392C46.4711 51.5041 45.9621 52.2846 45.6121 53.1392C45.5121 53.5392 45.5121 53.8392 45.4121 54.1392C45.4286 54.6081 45.3951 55.0774 45.3121 55.5392C45.3121 57.4392 45.3121 59.1392 45.5121 61.5392C45.7121 63.9392 45.8121 65.3392 45.4121 65.8392C45.2121 72.1392 45.6121 73.8392 44.9121 75.9392C44.8121 80.2392 45.3121 86.9392 44.5121 87.3392Z" fill="#2E316A"/>
<path fill-rule="evenodd" clip-rule="evenodd" d="M49.5122 160.639C48.6122 160.939 49.0122 159.839 48.9122 159.439C48.8122 159.039 48.5122 158.639 48.3122 158.239C48.1122 157.839 48.0122 156.939 48.3122 156.639C48.6122 156.339 47.9122 155.039 47.6122 154.139C47.4511 153.753 47.25 153.384 47.0122 153.039C46.951 152.532 46.8507 152.031 46.7122 151.539C46.0122 149.539 45.1122 146.339 45.6122 143.839C45.5122 143.239 45.1122 143.039 45.0122 142.439C45.3611 138.307 45.2605 134.15 44.7122 130.039C44.9122 129.039 44.3122 128.439 45.0122 127.739C44.6806 125.991 44.6468 124.199 44.9122 122.439C44.4996 121.815 44.1638 121.144 43.9122 120.439C43.3122 118.639 44.0122 117.039 43.6122 114.839C43.6122 114.939 44.0122 114.739 43.8122 114.639C43.6122 114.539 43.3122 112.639 43.2122 111.739C43.1122 110.839 42.6122 108.139 42.2122 106.039C42.4002 104.815 42.4338 103.572 42.3122 102.339C42.8122 99.7392 42.4122 96.8392 43.4122 94.2392C44.2122 94.0392 43.9122 94.7392 44.4122 94.8392C44.9122 94.9392 44.5122 93.6392 44.8122 94.4392C45.1122 95.2392 45.3122 95.4392 45.1122 95.6392C45.2567 96.2112 45.1855 96.8164 44.9122 97.3392C45.3122 99.2392 44.9122 101.739 44.7122 103.839C44.5122 105.939 45.2122 105.539 44.9122 106.539C45.6008 108.604 46.1684 110.708 46.6122 112.839C46.3122 115.139 47.1122 116.139 46.4122 117.839C47.6122 120.339 47.6122 122.739 47.8122 126.339C48.0122 129.939 48.0122 133.439 48.0122 137.239C47.7122 138.039 48.2122 139.539 47.5122 139.939C46.8122 140.339 47.7122 142.639 47.5122 143.639C47.3122 144.639 47.8122 144.239 48.1122 144.639C47.9186 146.715 48.2273 148.807 49.0122 150.739C49.4122 152.939 49.1122 153.639 49.9122 155.039C50.7122 156.439 49.5122 156.239 50.0122 156.839C50.5122 157.439 50.5122 157.339 50.1122 157.439C49.7122 157.539 50.4122 158.539 49.8122 158.939C49.2122 159.339 50.2122 160.539 49.5122 160.639Z" fill="#2E316A"/>
<path d="M108.612 65.8392C137.662 65.8392 161.212 60.7352 161.212 54.4392C161.212 48.1431 137.662 43.0392 108.612 43.0392C79.562 43.0392 56.0122 48.1431 56.0122 54.4392C56.0122 60.7352 79.562 65.8392 108.612 65.8392Z" fill="#DFDFF2"/>
<path fill-rule="evenodd" clip-rule="evenodd" d="M162.512 54.2392C162.312 54.5392 162.212 54.3392 162.112 54.0392L161.612 52.7392C161.065 51.8138 160.312 51.0268 159.412 50.4392C158.783 50.2889 158.177 50.0534 157.612 49.7392C156.942 49.3731 156.239 49.0717 155.512 48.8392C153.612 48.0392 151.212 47.5392 150.312 46.8392C147.812 46.7392 145.112 45.8392 142.112 45.5392L138.012 45.3392L133.212 44.9392C126.312 44.6392 115.512 44.7392 107.212 44.1392C105.312 44.1392 104.412 44.6392 102.512 44.6392C95.7338 44.5507 88.956 44.8511 82.2121 45.5392C79.1121 45.9392 76.0121 46.3392 72.7121 47.0392C69.1416 47.7334 65.6553 48.8061 62.3121 50.2392C61.0491 50.6298 59.8645 51.2391 58.8121 52.0392C58.0988 52.6216 57.4303 53.2567 56.8121 53.9392C56.5121 55.0392 57.4121 56.1392 58.6121 56.9392C59.7777 57.7823 61.0572 58.4557 62.4121 58.9392C65.0519 60.0665 67.7567 61.0349 70.5121 61.8392L77.4121 62.1392C83.3121 62.6392 88.2121 63.9392 95.6121 64.0392C95.4121 64.0392 96.0121 64.4392 96.3121 64.3392C96.6121 64.2392 102.912 64.2392 105.912 64.1392C108.912 64.0392 117.912 63.7392 124.912 62.9392C128.998 62.8399 133.074 62.4724 137.112 61.8392C141.494 61.5421 145.843 60.873 150.112 59.8392C152.216 59.293 154.286 58.6252 156.312 57.8392C157.252 57.4537 158.155 56.9851 159.012 56.4392C159.761 55.9778 160.326 55.2709 160.612 54.4392C161.012 54.2392 161.112 54.6392 161.112 55.1392C161.033 55.2565 160.997 55.3982 161.012 55.5392C160.912 55.7392 160.912 55.8392 160.812 55.9392C160.745 56.1321 160.711 56.335 160.712 56.5392C160.712 56.7392 160.812 56.6392 161.112 56.4392C161.37 56.1073 161.573 55.7358 161.712 55.3392C161.812 54.8392 161.812 54.4392 161.912 54.4392C162.012 54.4392 162.012 54.5392 161.912 55.3392C161.812 56.1392 162.212 55.4392 162.112 55.9392C161.945 56.4864 161.674 56.996 161.312 57.4392C160.651 58.133 159.825 58.6489 158.912 58.9392C157.316 59.9624 155.558 60.7063 153.712 61.1392C147.312 63.5392 139.212 64.4392 131.912 64.9392C127.912 65.2392 126.312 65.8392 123.012 65.6392C117.812 66.6392 109.212 67.1392 101.712 67.4392C94.2121 67.7392 90.7121 67.2392 85.2121 65.8392C80.7519 65.9584 76.2921 65.5896 71.9121 64.7392C69.4433 64.2937 67.0051 63.6925 64.6121 62.9392C63.2381 62.5552 61.8998 62.0533 60.6121 61.4392C59.0677 60.8136 57.6199 59.9719 56.3121 58.9392C55.4687 58.2241 54.7869 57.3378 54.3121 56.3392L54.0121 55.4392C54.0285 55.0697 53.9949 54.6997 53.9121 54.3392C54.0121 54.0392 54.0121 53.7392 54.1121 53.3392L54.4121 52.4392C54.8865 51.4968 55.5707 50.6758 56.4121 50.0392C57.0972 49.4719 57.8337 48.9697 58.6121 48.5392C61.4247 47.166 64.3744 46.0934 67.4121 45.3392C73.4598 43.8706 79.6111 42.8676 85.8121 42.3392C88.4121 42.4392 93.4121 41.6392 94.8121 42.3392C98.2121 41.6392 103.912 41.9392 107.212 42.2392C108.812 41.6392 109.112 42.0392 110.712 41.7392C118.012 42.1392 123.712 42.2392 131.412 42.3392C135.112 42.6392 137.512 43.0392 139.612 43.3392L145.912 44.0392C148.812 44.7392 149.712 45.4392 152.112 45.6392C154.512 45.8392 154.012 45.8392 154.212 46.3392C157.012 47.6392 158.012 47.7392 158.712 48.8392C159.919 49.518 161.001 50.3973 161.912 51.4392C162.285 51.9862 162.556 52.5959 162.712 53.2392C162.812 53.8392 162.712 54.2392 162.512 54.2392Z" fill="#2E316A"/>
<path d="M62.9121 60.0392C72.0121 63.5392 89.0121 65.8392 108.612 65.8392C128.212 65.8392 145.312 63.5392 154.412 60.0392C145.312 54.9392 128.312 51.5392 108.612 51.5392C88.9121 51.5392 72.0121 54.9392 62.9121 60.0392Z" fill="#00D9F5"/>
<path fill-rule="evenodd" clip-rule="evenodd" d="M64.2123 59.9392C63.5123 60.0392 64.0123 59.9392 64.5123 59.9392C65.0123 59.9392 64.9123 59.8392 65.4123 59.6392C65.7731 59.5345 66.112 59.3651 66.4123 59.1392C66.7123 58.5392 68.5123 58.0392 69.4123 57.4392C70.3123 56.8392 72.9123 56.1392 73.8123 56.3392C74.7123 56.5392 78.0123 54.9392 80.4123 54.2392C81.4859 53.7979 82.5885 53.4303 83.7123 53.1392C84.9953 52.77 86.2972 52.4696 87.6123 52.2392C91.045 51.4576 94.5165 50.8568 98.0123 50.4392C101.835 50.0576 105.684 50.0241 109.512 50.3392C111.212 50.3392 111.912 49.9392 113.612 49.9392C119.344 50.3499 125.051 51.0508 130.712 52.0392C136.535 52.905 142.285 54.2087 147.912 55.9392C150.512 57.2392 152.312 57.3392 153.612 58.8392L154.812 59.4392L156.212 60.1392L154.712 60.7392C150.383 62.4105 145.837 63.4544 141.212 63.8392C139.391 64.5728 137.52 65.1744 135.612 65.6392C130.512 66.7392 126.312 66.3392 120.012 66.9392C120.212 66.9392 119.712 66.6392 119.412 66.7392C119.112 66.8392 113.912 67.3392 111.312 67.4392C108.712 67.5392 101.112 67.8392 95.1123 67.8392C92.0123 67.4392 88.5123 67.0392 84.7123 66.7392L73.5123 64.5392L67.9123 62.9392L65.2123 61.9392L63.7123 61.2392C63.2084 60.9226 62.7391 60.5539 62.3123 60.1392C62.4123 59.9392 62.9123 60.1392 63.5123 60.3392C63.8996 60.4624 64.3098 60.4966 64.7123 60.4392C64.9123 60.3392 64.8123 60.2392 64.6123 60.1392H64.2123L64.7123 59.8392C64.8123 59.7392 64.9123 59.7392 64.9123 59.6392H65.2123C65.8725 59.8369 66.5095 60.1051 67.1123 60.4392C68.5863 60.7701 70.026 61.2388 71.4123 61.8392C76.9123 62.7392 83.5123 64.1392 89.5123 64.8392C92.9123 65.2392 94.3123 64.8392 97.0123 65.3392C101.412 64.9392 108.512 64.8392 114.712 64.1392C120.912 63.4392 123.812 63.4392 128.412 63.8392L139.112 61.6392C143.329 60.9449 147.502 60.01 151.612 58.8392L153.612 58.1392L153.412 61.9392C149.47 59.7595 145.271 58.0799 140.912 56.9392C136.412 55.8392 131.912 55.0392 127.112 54.3392C125.012 53.6392 120.912 53.7392 119.812 52.9392C117.012 53.2392 112.312 52.5392 109.512 52.2392C108.212 52.8392 108.012 52.5392 106.712 52.7392C100.961 52.5158 95.2068 53.0879 89.6123 54.4392L83.0123 55.4392L80.6123 56.0392L78.0123 56.9392L75.4123 57.4392C74.6293 57.5418 73.8783 57.8149 73.2123 58.2392C72.3123 58.4392 71.9123 59.0392 71.6123 58.7392C69.2123 59.3392 68.8123 59.9392 67.8123 59.6392L66.5123 60.1392L65.9123 60.4392L65.4123 60.6392C65.3315 60.4366 65.1922 60.2625 65.0123 60.1392L64.2123 59.9392Z" fill="#2E316A"/>
<path fill-rule="evenodd" clip-rule="evenodd" d="M181.412 157.339C180.712 157.339 181.312 156.439 181.312 155.939C181.312 155.439 181.412 154.939 181.312 154.539C181.212 154.139 181.612 153.039 181.912 152.839C181.868 151.896 181.969 150.952 182.212 150.039C182.212 149.639 182.112 149.239 182.112 148.639C182.112 148.039 182.212 147.639 182.212 147.139C182.225 144.257 182.663 141.393 183.512 138.639C183.612 138.039 183.312 137.639 183.412 137.039C184.613 132.7 185.318 128.238 185.512 123.739C185.912 122.639 185.512 121.939 186.212 121.239C186.154 119.288 186.356 117.337 186.812 115.439C186.507 114.704 186.305 113.93 186.212 113.139C186.012 111.139 186.612 109.539 186.512 107.139C186.512 107.139 186.812 107.039 186.712 106.839C186.612 106.639 186.512 104.739 186.412 103.739C186.36 101.632 186.194 99.5285 185.912 97.4392C186.084 96.1131 186.15 94.7757 186.112 93.4392C186.281 91.9789 186.348 90.5087 186.312 89.0392C186.325 87.5591 186.492 86.0844 186.812 84.6392C187.312 84.3392 187.212 85.1392 187.512 85.2392C187.812 85.3392 187.612 83.9392 187.912 84.7392C188.212 85.5392 188.312 85.9392 188.112 86.1392C188.182 86.7405 188.148 87.3493 188.012 87.9392C188.228 90.3362 188.194 92.7491 187.912 95.1392C187.812 96.5392 188.212 97.0392 187.912 98.1392C188.4 100.448 188.734 102.786 188.912 105.139C188.512 107.639 189.012 108.739 188.412 110.539C187.812 112.339 188.812 116.139 188.412 120.139C188.012 124.139 187.512 127.939 186.712 132.039C186.312 132.839 186.412 134.539 185.712 134.839C185.012 135.139 185.312 137.839 184.912 138.839C184.512 139.839 185.012 139.539 185.112 140.039C184.465 142.248 184.128 144.537 184.112 146.839C183.812 149.239 183.412 149.839 183.512 151.539C183.612 153.239 182.912 152.739 183.012 153.539C183.112 154.339 183.212 154.139 182.912 154.239C182.612 154.339 182.712 155.439 182.112 155.639C181.512 155.839 181.912 157.439 181.412 157.339Z" fill="#CCCFDB"/>
<path fill-rule="evenodd" clip-rule="evenodd" d="M196.412 139.939C195.812 139.739 196.312 139.639 196.212 139.439C196.112 139.239 196.112 139.239 196.012 139.039C195.912 138.839 196.012 138.639 196.312 138.639C196.612 138.639 196.312 138.239 196.212 137.939C196.112 137.639 196.112 137.639 196.012 137.439C195.912 137.239 196.012 137.239 196.012 137.039C196.012 136.839 195.612 135.439 196.312 134.939C197.012 134.439 196.012 134.639 196.012 134.439C196.776 133.587 197.203 132.484 197.212 131.339C197.512 131.139 197.112 130.839 197.612 130.839C197.582 130.324 197.762 129.819 198.112 129.439C197.858 129.259 197.652 129.018 197.512 128.739C197.212 128.239 197.812 127.939 197.712 127.339C197.612 126.739 197.912 127.339 197.812 127.239C197.712 127.139 197.612 126.739 197.612 126.439C197.612 126.139 197.312 125.439 197.112 124.939C197.315 124.646 197.42 124.296 197.412 123.939C197.512 123.739 197.612 123.639 197.612 123.439V123.239H197.712L197.912 123.039H198.312L198.612 122.739C198.012 122.439 198.212 122.439 198.112 122.139C198.012 121.839 197.912 122.039 197.812 122.139C197.712 122.239 197.612 122.339 197.712 122.139C197.812 121.939 197.412 121.939 197.512 121.839C197.612 121.739 197.612 121.539 197.912 121.439H198.612L198.812 121.739C199.212 121.939 199.212 122.139 199.212 122.339C199.386 122.493 199.493 122.708 199.512 122.939C199.512 123.339 199.512 123.339 199.412 123.539L199.112 124.439C199.012 124.739 199.312 124.939 199.012 125.239C198.712 125.539 199.612 126.339 199.912 127.039C200.212 127.739 200.112 128.039 199.412 128.339C198.712 128.639 199.912 129.839 199.712 130.939C199.512 132.039 199.212 132.839 198.712 133.839C198.212 134.839 198.612 134.439 198.012 134.439C197.412 134.439 197.812 135.139 197.512 135.339C197.212 135.539 197.712 135.539 197.812 135.739C197.444 136.229 197.368 136.878 197.612 137.439C197.512 138.139 197.212 138.239 197.512 138.739C197.812 139.239 197.112 138.939 197.412 139.239C197.712 139.539 197.612 139.539 197.312 139.439C197.012 139.339 197.312 139.739 196.812 139.639C196.312 139.539 196.912 140.139 196.412 139.939Z" fill="#CCCFDB"/>
<path fill-rule="evenodd" clip-rule="evenodd" d="M25.4121 136.839C24.7121 137.339 24.7121 136.239 24.5121 135.939C24.3121 135.639 23.9121 135.239 23.6121 135.039C23.3121 134.839 23.1121 133.839 23.4121 133.439C23.7121 133.039 22.7121 132.039 22.4121 131.239L21.7121 130.139C21.5121 129.639 21.5121 129.239 21.3121 128.739C21.1121 128.239 21.2121 128.139 21.1121 127.839C21.0291 127.411 20.9956 126.975 21.0121 126.539C21.1004 125.984 21.2688 125.446 21.5121 124.939C21.792 124.638 22.1328 124.399 22.5121 124.239C22.8915 123.976 23.371 123.902 23.8121 124.039L25.1121 124.239V125.539C25.0356 126.443 24.6466 127.291 24.0121 127.939L23.3121 128.539C22.9719 128.709 22.5903 128.778 22.2121 128.739C21.8226 128.761 21.4365 128.656 21.1121 128.439C20.8581 128.218 20.6537 127.945 20.5121 127.639C20.2605 127.34 20.0579 127.002 19.9121 126.639C19.7234 126.376 19.6188 126.063 19.6121 125.739C19.6839 124.633 19.8174 123.531 20.0121 122.439C20.2121 121.439 20.3121 120.539 20.5121 119.639C20.7121 118.739 20.8121 117.839 20.9121 116.839C21.0121 115.839 21.2121 114.739 21.4121 113.539C21.6121 112.339 21.5121 111.939 22.4121 111.539C22.6656 109.783 23.3153 108.107 24.3121 106.639C24.1812 105.914 24.1475 105.174 24.2121 104.439C24.5121 102.539 25.8121 101.539 26.5121 99.4392C26.5121 99.4392 26.9121 99.5392 26.9121 99.3392C26.9121 99.1392 27.4121 97.4392 27.8121 96.6392L28.9121 94.3392C29.3121 93.4392 29.8121 92.3392 30.3121 91.4392C31.2134 90.5611 32.018 89.5889 32.7121 88.5392C34.7121 86.9392 36.4121 84.5392 38.9121 83.4392C39.6121 83.8392 38.9121 84.1392 39.2121 84.5392C39.5121 84.9392 40.1121 83.8392 39.8121 84.5392C39.5121 85.2392 39.4121 85.6392 39.2121 85.6392C38.8925 86.0587 38.4823 86.4005 38.0121 86.6392C37.3697 87.4879 36.6679 88.2899 35.9121 89.0392C35.2121 89.7392 34.3121 90.5392 33.6121 91.3392C32.9121 92.1392 33.0121 92.8392 32.1121 93.4392C31.9058 94.4001 31.6043 95.3381 31.2121 96.2392C30.9121 97.2392 30.4121 98.3392 30.1121 99.3392C29.5962 100.021 29.16 100.759 28.8121 101.539C28.6453 102.239 28.2156 102.848 27.6121 103.239C27.5121 105.939 26.5121 107.939 25.5121 111.239C24.5121 114.539 23.7121 117.539 23.1121 121.039C22.7121 121.739 23.0121 123.139 22.2121 123.539C22.4767 124.065 22.5475 124.667 22.4121 125.239C22.3121 125.939 22.1121 126.439 22.1121 126.639C22.1673 126.639 22.2121 126.594 22.2121 126.539V126.739L22.0121 126.439C22.1225 126.439 22.2121 126.35 22.2121 126.239C22.4158 126.024 22.5239 125.735 22.5121 125.439L23.3121 126.639H23.4121C23.4121 126.639 23.3121 126.539 23.3121 126.639L23.5121 126.839C23.4389 126.921 23.4028 127.03 23.4121 127.139C23.4058 127.311 23.44 127.483 23.5121 127.639C23.5028 127.749 23.5389 127.857 23.6121 127.939C23.6121 128.039 23.7121 128.139 23.7121 128.339C24.0121 130.239 23.8121 130.939 24.7121 132.039C25.6121 133.139 24.5121 133.139 25.1121 133.639C25.7121 134.139 25.6121 133.939 25.2121 134.139C24.8121 134.339 25.8121 135.039 25.2121 135.539C24.6121 136.039 26.0121 136.439 25.4121 136.839Z" fill="#D6C2FF"/>
<path fill-rule="evenodd" clip-rule="evenodd" d="M27.7122 140.739V141.239C27.7122 141.639 27.7122 141.539 27.6122 141.739V141.539C27.6122 142.039 27.6122 141.739 27.5122 141.939V142.439C27.5122 142.639 27.4122 142.539 27.4122 142.739C27.4122 142.939 27.0122 143.839 27.0122 143.139V143.639C26.8122 142.939 26.8122 142.739 26.5122 143.039C26.2122 143.339 26.3122 143.239 26.5122 142.539C26.7122 141.839 26.3122 142.639 26.4122 142.239C26.5122 141.839 26.1122 142.939 26.0122 143.039C25.9122 143.139 25.9122 142.739 25.7122 142.939V142.739C25.4122 143.339 25.4122 143.039 25.3122 143.039L24.7122 143.539C24.8122 143.239 24.7122 143.139 24.6122 143.139C24.5122 143.139 24.6122 142.739 25.2122 141.839L25.9122 141.139L26.2122 140.739L26.4122 140.539L26.2122 140.739C26.4122 140.639 26.2122 141.039 26.1122 141.239C26.0122 141.439 26.4122 140.939 26.2122 141.339L27.0122 140.139C26.8122 140.539 27.2122 139.939 26.9122 140.639C27.4122 139.739 27.3122 139.739 27.3122 139.739C27.3122 139.739 27.3122 139.939 27.3122 140.239C27.3122 140.539 27.4122 140.239 27.2122 140.939C27.0122 141.639 27.3122 140.939 27.3122 141.239C27.3122 141.539 27.3122 141.039 27.4122 140.739C27.5122 140.439 27.4122 140.939 27.5122 140.339V139.839C27.5122 139.739 27.6122 140.239 27.6122 139.839V140.339C27.6122 140.339 27.6122 140.039 27.7122 140.739Z" fill="#D6C2FF"/>
<path fill-rule="evenodd" clip-rule="evenodd" d="M161.412 69.6392C162.112 70.2392 160.312 70.5392 159.812 71.0392C159.312 71.5392 158.612 71.9392 158.112 72.4392C157.317 72.9159 156.432 73.2223 155.512 73.3392C154.612 74.3392 153.112 74.5392 151.712 75.3392L149.912 76.4392L147.612 77.4392C145.639 78.3283 143.599 79.0638 141.512 79.6392C140.335 80.0006 139.132 80.2681 137.912 80.4392L134.512 80.6392C133.512 80.8392 133.112 81.2392 132.112 81.4392H110.812C109.012 81.1392 108.012 81.6392 106.912 80.8392C103.861 81.0196 100.8 80.7841 97.8123 80.1392C96.6599 80.5724 95.443 80.809 94.2123 80.8392C91.0123 81.1392 88.5123 80.2392 84.7123 80.0392C84.8123 80.0392 84.5123 79.6392 84.3123 79.7392C84.1123 79.8392 80.9123 79.7392 79.3123 79.5392L69.4123 78.4392L66.4123 77.4392L63.2123 76.5392C59.1123 74.6392 54.1123 72.8392 50.8123 69.8392C50.9123 69.0392 51.9123 69.8392 52.2123 69.4392C52.5123 69.0392 50.5123 68.4392 51.8123 68.7392C53.1123 69.0392 53.6123 69.1392 53.8123 69.4392C54.6611 69.8167 55.4659 70.2862 56.2123 70.8392C59.4123 71.9392 63.0123 73.7392 66.6123 74.9392C68.5123 75.6392 69.5123 75.3392 71.0123 76.1392C72.5123 76.9392 78.1123 76.5392 81.9123 76.5392C85.7123 76.5392 87.4123 76.8392 90.2123 77.9392C94.6123 77.2392 98.7123 77.5392 104.912 77.9392C111.062 78.4919 117.239 78.6922 123.412 78.5392C124.712 78.8392 127.212 78.2392 127.912 78.9392C128.952 78.6403 130.031 78.5054 131.112 78.5392H134.212C135.012 77.8392 135.112 78.2392 135.912 77.8392C137.628 77.6858 139.332 77.4185 141.012 77.0392L143.412 76.2392L145.912 75.2392C149.412 74.0392 150.612 73.9392 152.612 72.4392C154.612 70.9392 154.612 72.2392 155.412 71.3392C156.212 70.4392 156.112 70.5392 156.412 70.9392C156.712 71.3392 158.012 69.9392 158.712 70.2392C159.412 70.5392 160.912 69.0392 161.412 69.6392Z" fill="#D6C2FF"/>
<path fill-rule="evenodd" clip-rule="evenodd" d="M161.812 78.1392C162.612 78.4392 161.612 78.9392 161.512 79.3392C161.412 79.7392 161.312 80.2392 161.312 80.6392C161.312 81.0392 160.712 81.8392 160.312 81.9392C159.912 82.0392 159.712 83.3392 159.412 84.1392C159.112 84.9392 159.312 85.0392 159.112 85.4392C158.912 85.8392 158.712 86.2392 158.612 86.7392C157.912 88.7392 156.712 91.7392 154.712 93.3392C154.412 93.8392 154.612 94.3392 154.312 94.8392C151.465 97.7154 148.949 100.902 146.812 104.339C145.912 104.939 146.112 105.739 145.112 105.739C144.254 107.284 143.098 108.643 141.712 109.739C141.666 110.474 141.462 111.191 141.112 111.839C140.412 113.539 138.912 114.239 137.712 116.039H137.412C137.612 116.839 136.412 117.839 135.912 118.539L132.712 123.239C131.725 123.976 130.849 124.852 130.112 125.839C127.912 127.239 126.112 129.539 123.712 130.539C123.012 130.139 123.712 129.839 123.412 129.439C123.112 129.039 122.512 130.139 122.812 129.339C123.112 128.539 123.212 128.339 123.412 128.339C123.612 128.339 124.312 127.639 124.712 127.339C126.132 125.723 127.706 124.249 129.412 122.939C130.312 122.139 130.212 121.439 131.112 121.039C132.012 120.639 133.112 117.439 134.112 115.439C135.112 113.439 135.912 112.839 137.612 112.039C138.412 109.539 139.912 107.739 142.112 104.939C144.312 102.139 146.412 99.6392 148.812 96.7392C149.512 96.4392 150.012 94.9392 150.912 95.1392C151.812 95.3392 152.412 92.9392 153.112 92.2392C153.812 91.5392 153.312 91.7392 153.312 91.1392C154.751 89.7152 155.757 87.912 156.212 85.9392C157.312 84.0392 157.912 83.7392 158.112 82.1392C158.312 80.5392 159.112 81.4392 159.112 80.6392C159.112 79.8392 159.012 80.0392 159.412 80.1392C159.812 80.2392 159.812 79.1392 160.512 79.2392C161.212 79.3392 161.112 77.7392 161.812 78.1392Z" fill="#D6C2FF"/>
<path fill-rule="evenodd" clip-rule="evenodd" d="M171.412 82.4392C172.112 82.8392 171.312 83.1392 171.212 83.4392C171.112 83.7392 171.012 84.1392 171.112 84.4392C171.212 84.7392 170.612 85.3392 170.112 85.3392C169.612 85.3392 169.712 86.3392 169.512 87.0392C169.312 87.7392 169.512 87.6392 169.412 88.0392C169.312 88.4392 169.112 88.6392 169.012 89.0392C168.912 89.4392 168.012 92.8392 166.512 94.0392C165.012 95.2392 166.612 94.8392 166.412 95.1392C164.394 97.3652 162.74 99.8965 161.512 102.639C160.912 103.139 161.212 103.839 160.312 103.839C159.914 105.076 159.188 106.182 158.212 107.039C158.313 107.635 158.313 108.243 158.212 108.839C157.912 110.239 156.712 110.739 156.012 112.239H155.712C156.112 112.939 155.212 113.639 154.912 114.239L153.012 118.139C152.226 118.675 151.548 119.353 151.012 120.139C150.171 120.683 149.369 121.284 148.612 121.939C147.789 122.6 146.835 123.078 145.812 123.339C145.212 122.939 145.812 122.739 145.512 122.339C145.212 121.939 144.812 122.839 145.012 122.239C145.212 121.639 145.212 121.339 145.412 121.439C145.67 121.134 146.021 120.923 146.412 120.839C146.893 120.225 147.428 119.656 148.012 119.139C148.683 118.689 149.318 118.187 149.912 117.639C150.612 117.039 150.412 116.439 151.212 116.139C152.012 115.839 152.212 113.239 152.712 111.639C153.212 110.039 153.712 109.539 155.012 108.939C156.312 108.339 156.012 105.439 157.412 103.139C158.812 100.839 160.112 98.8392 161.712 96.5392C162.312 96.3392 162.412 95.1392 163.312 95.2392C164.212 95.3392 164.312 93.5392 164.812 93.0392C165.312 92.5392 164.912 92.6392 164.812 92.1392C165.845 91.0231 166.539 89.6355 166.812 88.1392C167.512 86.6392 168.112 86.4392 168.212 85.1392C168.312 83.8392 169.012 84.7392 169.012 84.0392C169.012 83.3392 168.912 83.5392 169.212 83.7392C169.512 83.9392 169.612 82.9392 170.312 83.1392C171.012 83.3392 170.812 82.0392 171.412 82.4392Z" fill="#D6C2FF"/>
<path fill-rule="evenodd" clip-rule="evenodd" d="M75.1122 156.039C75.9122 156.439 75.2122 156.439 75.3122 156.639C75.4122 156.839 75.3122 157.039 75.4122 157.339C75.5122 157.639 75.3122 157.739 74.9122 157.639C74.5122 157.539 74.8122 158.239 74.8122 158.639C74.8122 159.039 74.9122 159.039 74.9122 159.239C74.9122 159.439 74.8122 159.639 74.8122 159.839C74.8122 160.039 74.6122 162.039 73.5122 162.339C72.4122 162.639 73.6122 162.839 73.5122 163.039C72.1772 163.708 71.0654 164.75 70.3122 166.039C69.8122 166.139 70.1122 166.739 69.4122 166.339C69.1496 166.969 68.5841 167.421 67.9122 167.539C68.0389 167.926 68.0732 168.337 68.0122 168.739C67.9122 169.539 67.0122 169.439 66.6122 170.139C66.2122 170.839 66.3122 169.839 66.4122 170.039C66.5122 170.239 66.1122 170.839 65.9122 171.039C65.5384 171.685 65.2044 172.353 64.9122 173.039C64.4468 173.066 64.013 173.283 63.7122 173.639C62.6122 173.739 61.9122 174.639 60.5122 174.339C59.1122 174.039 60.4122 173.839 60.1122 173.439C59.8122 173.039 59.7122 173.639 59.7122 173.139C59.7122 172.639 59.7122 172.639 59.9122 172.739C60.1122 172.839 60.3122 172.539 60.5122 172.539C60.7122 172.539 61.8122 171.739 62.6122 171.439C63.4122 171.139 62.8122 170.739 63.3122 170.839C63.4652 169.985 63.6996 169.148 64.0122 168.339C64.9122 168.039 64.6122 167.339 65.6122 167.439C66.6122 167.539 66.1122 165.539 67.0122 164.639C67.9122 163.739 68.8122 163.039 69.8122 162.239C70.8122 161.439 70.3122 161.539 71.0122 161.939C71.7122 162.339 71.6122 161.239 72.0122 161.139C72.4122 161.039 71.9122 160.839 71.8122 160.539C72.5218 160.139 72.9174 159.347 72.8122 158.539C73.1122 157.839 73.5122 157.839 73.2122 157.039C72.9122 156.239 73.8122 157.039 73.6122 156.539C73.4122 156.039 73.4122 156.139 73.7122 156.439C74.0122 156.739 73.8122 155.939 74.4122 156.239C75.0122 156.539 74.5122 155.639 75.1122 156.039Z" fill="#D6C2FF"/>
<path fill-rule="evenodd" clip-rule="evenodd" d="M83.1123 164.139C83.8123 164.639 83.0123 164.739 83.0123 164.939C83.0123 165.139 82.9123 165.539 83.0123 165.739C83.1123 165.939 82.6123 166.439 82.2123 166.239C81.8123 166.039 81.9123 167.039 81.8123 167.539C81.7123 168.039 81.8123 168.139 81.7123 168.339C81.6123 168.539 81.5123 168.839 81.4123 169.139C81.3123 169.439 80.6123 172.039 79.2123 172.539C77.8123 173.039 79.2123 173.139 79.1123 173.439C77.2777 174.605 75.7376 176.179 74.6123 178.039C74.0123 178.239 74.3123 178.839 73.5123 178.639C73.1154 179.507 72.3989 180.187 71.5123 180.539C71.6401 181.028 71.674 181.537 71.6123 182.039C71.3123 183.039 70.3123 183.139 69.7123 184.239C69.1123 185.339 69.4123 184.039 69.5123 184.139C69.6123 184.239 69.1123 185.239 68.9123 185.639C68.3824 186.505 67.9146 187.407 67.5123 188.339C66.9758 188.691 66.5025 189.13 66.1123 189.639C64.8123 190.239 64.0123 191.639 62.3123 191.939C60.6123 192.239 62.1123 191.439 61.8123 191.139C61.5123 190.839 61.3123 191.439 61.3123 190.939C61.3123 190.439 61.3123 190.239 61.5123 190.339C61.7123 190.439 61.9123 189.939 62.2123 189.839C62.5123 189.739 63.9123 188.239 64.8123 187.539C65.7123 186.839 65.0123 186.539 65.7123 186.439C66.4123 186.339 66.4123 184.239 66.7123 182.939C67.0123 181.639 67.5123 181.439 68.7123 181.339C68.8123 179.639 69.6123 178.639 70.9123 177.239C72.2123 175.839 73.4123 174.539 74.9123 173.239C76.4123 171.939 75.6123 172.239 76.3123 172.639C77.0123 173.039 77.2123 171.539 77.7123 171.239C78.2123 170.939 77.8123 170.939 77.7123 170.539C78.6578 169.942 79.2827 168.95 79.4123 167.839C80.0123 166.739 80.5123 166.739 80.5123 165.739C80.5123 164.739 81.2123 165.539 81.1123 165.039C81.0123 164.539 81.0123 164.539 81.3123 164.739C81.6123 164.939 81.5123 164.139 82.2123 164.539C82.9123 164.939 82.5123 163.739 83.1123 164.139Z" fill="#D6C2FF"/>
</svg>
