<svg width="216" height="216" viewBox="0 0 216 216" fill="none" xmlns="http://www.w3.org/2000/svg">
<path d="M108.48 45.0012C109.39 32.8412 117.65 29.8412 123.71 28.5812C129.77 27.3212 136.21 28.8012 141.65 31.5812C147.09 34.3612 151.65 38.3312 156.1 42.3712C159.74 45.7112 163.43 49.3112 164.91 53.8512C166.39 58.3912 164.91 64.1212 160.34 66.2412C159.903 65.9623 159.613 65.5032 159.549 64.9888C159.486 64.4744 159.654 63.9584 160.01 63.5812C160.816 62.8091 161.894 62.3853 163.01 62.4012C167.26 62.1012 171.15 64.4912 174.38 67.0612C179.38 71.0612 183.84 75.9512 185.72 81.8112C187.6 87.6712 186.42 94.6512 181.57 98.8112C181.41 97.5112 183.2 96.6012 184.57 96.9712C185.845 97.4675 186.907 98.3944 187.57 99.5912C192.92 107.451 194.76 118.511 188.29 125.591C187.676 126.109 187.245 126.81 187.06 127.591C187.068 128.217 187.255 128.828 187.6 129.351C190.28 134.621 191.24 140.791 189.4 146.351C187.429 152.219 182.558 156.646 176.53 158.051C176.96 157.111 178.42 158.191 178.69 159.191C180.289 165.409 178.713 172.015 174.48 176.841C169.933 181.822 163.43 184.557 156.69 184.321C157.42 189.241 154.25 194.151 149.81 196.931C145.37 199.711 139.87 200.671 134.52 200.931C128.68 201.191 122.52 200.561 117.73 197.461C112.54 194.101 109.73 188.281 108.88 182.461C108.03 176.641 107.88 50.8012 108.5 44.9712" fill="#FF9CAE"/>
<path fill-rule="evenodd" clip-rule="evenodd" d="M107.24 45.0612C107.71 44.4012 107.71 45.8812 107.63 47.8712C107.55 49.8612 107.44 52.3512 107.5 53.8712C107.88 55.3312 107.69 60.0212 107.9 62.5512C107.84 66.7012 107.98 72.0012 107.6 74.1012C108.09 79.1512 107.84 85.2012 108.05 91.4412C108.15 94.3512 108.39 96.8212 108.53 100.101C108.67 103.381 108.65 106.551 108.78 110.221C109.31 124.651 110.07 147.551 109.57 165.081C109.66 169.181 110.11 171.081 110.21 175.181C110.21 176.941 110.23 178.661 110.27 180.341C110.33 181.131 110.27 181.911 110.41 182.691C110.55 183.471 110.68 184.241 110.86 184.991C111.526 187.896 112.808 190.625 114.62 192.991C116.342 195.193 118.601 196.915 121.18 197.991C123.755 199.033 126.479 199.657 129.25 199.841C132.058 200.048 134.879 200.004 137.68 199.711C140.518 199.462 143.307 198.822 145.97 197.811C148.698 196.78 151.11 195.057 152.97 192.811C154.98 190.536 155.938 187.519 155.61 184.501L155.42 183.261H156.68C160.781 183.346 164.826 182.309 168.38 180.261C170.914 178.981 173.086 177.087 174.7 174.751C175.338 173.838 175.919 172.886 176.44 171.901C176.96 170.951 177.44 169.991 177.9 168.961C178.426 166.922 178.612 164.811 178.45 162.711C178.351 161.675 178.171 160.649 177.91 159.641C177.892 159.539 177.865 159.439 177.83 159.341C177.796 159.265 177.756 159.191 177.71 159.121C177.611 158.967 177.486 158.832 177.34 158.721C177.246 158.633 177.133 158.568 177.01 158.531H177.12C177.2 158.481 177.23 158.441 177.22 158.441L176.3 157.291C180.222 156.386 183.704 154.136 186.14 150.931C188.494 147.84 189.794 144.076 189.85 140.191C189.617 137.926 189.058 135.706 188.19 133.601C187.765 132.529 187.267 131.486 186.7 130.481C186.32 129.871 186.008 129.22 185.77 128.541C185.616 128.002 185.616 127.43 185.77 126.891C185.906 126.417 186.13 125.972 186.43 125.581C186.72 125.181 187 124.881 187.22 124.581L187.84 123.761L188.15 123.351L188.41 122.921L188.93 122.061C189.552 120.89 190.02 119.643 190.32 118.351C190.927 115.724 190.975 112.998 190.46 110.351C189.931 107.471 188.916 104.702 187.46 102.161C186.815 100.843 185.929 99.656 184.85 98.6612C184.626 98.4997 184.376 98.3779 184.11 98.3012C183.896 98.2564 183.674 98.2564 183.46 98.3012C183.252 98.3549 183.06 98.4578 182.9 98.6012C182.79 98.7212 182.9 98.7012 182.84 98.6712L180.57 97.7912C180.89 97.4612 181.32 97.1012 181.68 96.6612C181.4 96.9812 182.44 96.4112 182.68 95.7912C183.954 93.3797 184.697 90.7236 184.86 88.0012C184.973 84.5242 184.058 81.091 182.23 78.1312C179.799 74.3198 176.667 71.0045 173 68.3612C170.911 66.627 168.477 65.3557 165.86 64.6312C165.223 64.489 164.573 64.4152 163.92 64.4112C163.336 64.3881 162.752 64.459 162.19 64.6212C162.018 64.669 161.855 64.7469 161.71 64.8512L161.63 64.9412C161.63 64.9412 161.63 64.9412 161.68 64.8812C161.73 64.8212 161.68 64.8812 161.68 64.7312C161.627 64.527 161.489 64.3556 161.3 64.2612H159.39C160.133 63.8692 160.792 63.3358 161.33 62.6912C161.991 61.8824 162.462 60.9359 162.71 59.9212C163.213 58.3911 163.296 56.7542 162.95 55.1812C162.486 53.4019 161.685 51.7283 160.59 50.2512C159.341 48.5618 157.939 46.9917 156.4 45.5612C154.8 44.0412 153.06 42.4712 151.3 40.9612C148.091 37.8546 144.479 35.194 140.56 33.0512C136.561 30.9038 132.099 29.761 127.56 29.7212C126.44 29.7371 125.323 29.8441 124.22 30.0412C123.09 30.2386 121.971 30.499 120.87 30.8212C118.741 31.4139 116.739 32.3898 114.96 33.7012C113.265 35.0431 111.897 36.7529 110.96 38.7012C110.05 40.6596 109.437 42.7424 109.14 44.8812C108.69 45.4612 108.67 44.5412 108.72 43.3712C108.72 42.7812 108.87 42.1612 108.91 41.6212C108.963 41.2431 108.963 40.8593 108.91 40.4812C108.91 40.1312 108.71 40.4812 108.54 41.0512C108.317 41.8112 108.15 42.5867 108.04 43.3712C107.83 44.9512 107.7 46.0512 107.85 43.2812C107.6 43.5912 107.49 43.2812 107.51 42.5512C107.599 41.564 107.804 40.5907 108.12 39.6512C108.667 37.8537 109.591 36.1935 110.83 34.7812C112.122 32.9261 113.835 31.4043 115.83 30.3412C117.442 29.5102 119.152 28.8853 120.92 28.4812C122.686 27.9285 124.507 27.5697 126.35 27.4112C128.276 27.2585 130.213 27.3351 132.12 27.6412C136.053 28.3033 139.83 29.6865 143.26 31.7212C146.696 33.7762 149.907 36.186 152.84 38.9112C155.791 41.4905 158.573 44.2561 161.17 47.1912C163.9 50.5112 165.32 53.3512 165.69 56.1912C165.882 57.609 165.786 59.0509 165.41 60.4312C165.006 61.985 164.191 63.4012 163.05 64.5312C162.334 65.4059 161.445 66.1241 160.44 66.6412L160.27 66.7212L160.06 66.6312C159.222 66.1965 158.779 65.2538 158.98 64.3312C159.063 63.8688 159.274 63.439 159.59 63.0912C159.894 62.7574 160.256 62.4827 160.66 62.2812C161.445 61.9157 162.295 61.7117 163.16 61.6812C164.018 61.6183 164.88 61.6552 165.73 61.7912C169.24 62.3312 172.47 64.3212 175.37 66.5712C178.414 68.8558 181.129 71.5476 183.44 74.5712C185.908 77.6919 187.524 81.3993 188.13 85.3312C188.693 90.8283 186.624 96.2681 182.55 100.001L180.27 102.001L179.96 99.0012C179.903 98.517 179.965 98.0262 180.14 97.5712C180.297 97.1728 180.535 96.8117 180.84 96.5112C181.339 96.0324 181.952 95.6883 182.62 95.5112C183.268 95.3157 183.952 95.2712 184.62 95.3812C185.217 95.4962 185.79 95.7162 186.31 96.0312C187.169 96.5706 187.911 97.2781 188.49 98.1112C189.03 98.8312 189.42 99.5212 189.88 100.241C190.743 101.704 191.46 103.248 192.02 104.851C192.647 106.579 193.066 108.375 193.27 110.201C193.798 112.386 193.987 114.639 193.83 116.881C193.676 119.213 193.05 121.489 191.99 123.571C191.72 124.101 191.39 124.571 191.09 125.121C190.79 125.671 190.38 126.121 190.02 126.561C189.66 127.001 189.25 127.451 189.11 127.691C189.078 127.735 189.052 127.782 189.03 127.831H188.96C188.87 127.798 188.776 127.778 188.68 127.771C188.806 127.784 188.934 127.784 189.06 127.771C189.09 127.861 189.127 127.948 189.17 128.031L189.51 128.691C189.79 129.211 190.05 129.691 190.29 130.291C190.784 131.398 191.202 132.537 191.54 133.701C192.263 136.137 192.601 138.671 192.54 141.211C192.466 143.953 191.843 146.653 190.71 149.151C189.475 151.818 187.673 154.183 185.43 156.081C183.013 158.147 180.125 159.586 177.02 160.271L172.56 161.271L174.56 157.271C174.63 157.131 174.71 157.001 174.79 156.861C174.89 156.714 175.003 156.576 175.13 156.451C175.431 156.149 175.797 155.92 176.2 155.781C176.827 155.573 177.504 155.573 178.13 155.781C178.83 156.047 179.45 156.487 179.93 157.061C180.166 157.334 180.371 157.632 180.54 157.951C180.636 158.145 180.72 158.346 180.79 158.551V158.711V158.801V158.961C180.88 159.381 181 159.811 181.07 160.251C182.217 167.236 179.902 174.343 174.86 179.311C169.946 184.011 163.346 186.534 156.55 186.311L158.47 184.161C158.728 186.037 158.547 187.947 157.94 189.741C157.359 191.475 156.472 193.091 155.32 194.511C153.046 197.276 150.068 199.377 146.7 200.591C143.448 201.771 140.043 202.478 136.59 202.691C133.126 202.983 129.64 202.875 126.2 202.371C124.539 202.025 122.902 201.571 121.3 201.011C119.449 200.331 117.707 199.384 116.13 198.201C113.608 196.45 111.693 193.959 110.65 191.071C109.534 189.27 108.705 187.307 108.19 185.251C107.644 182.902 107.412 180.491 107.5 178.081C107.5 173.311 107.59 168.571 107.67 165.081C107.1 161.741 107.41 161.221 107.11 157.871C107.29 142.561 107.11 130.481 106.41 114.531C106.19 99.0312 106.54 94.4212 105.92 84.1912C105.92 78.1312 106.37 76.1212 105.92 71.1912C105.98 68.7312 105.53 67.4512 105.92 66.8612C106.17 60.5712 105.77 58.8612 106.48 56.7412C106.54 54.5612 106.48 51.7412 106.57 49.4312C106.66 47.1212 106.87 45.1612 107.24 45.0612Z" fill="#2E316A"/>
<path fill-rule="evenodd" clip-rule="evenodd" d="M174.13 115.091C173.68 115.091 173.67 114.821 173.72 114.491C173.805 114.163 173.805 113.819 173.72 113.491C173.3 113.321 173.2 112.591 172.79 112.371C172.49 111.801 171.79 111.371 171.73 110.951C171.302 110.932 170.877 110.875 170.46 110.781C170.035 110.688 169.595 110.688 169.17 110.781C168.785 110.953 168.417 111.161 168.07 111.401C167.68 111.651 167.26 111.691 166.85 111.971C165.924 112.605 165.054 113.318 164.25 114.101C163.427 114.935 162.555 115.72 161.64 116.451C161.38 116.901 161.58 117.301 161.4 117.751C160.828 118.475 160.382 119.289 160.08 120.161C159.94 120.558 159.832 120.966 159.76 121.381C159.7 121.782 159.67 122.186 159.67 122.591C159.725 124.421 160.435 126.17 161.67 127.521C161.99 128.461 162.77 128.401 162.67 129.361C164.06 130.361 165.4 131.291 166.67 132.271C167.35 132.11 168.042 132.006 168.74 131.961C169.496 131.973 170.248 132.073 170.98 132.261C171.826 132.451 172.704 132.451 173.55 132.261C173.49 132.261 173.69 132.631 173.76 132.481C174.07 131.771 175.41 131.801 176.16 131.481C177.731 130.799 179.185 129.874 180.47 128.741C181.514 128.369 182.473 127.791 183.29 127.041C184.383 126.502 185.394 125.808 186.29 124.981C187.23 124.181 188.08 123.381 189.07 122.611C189.84 122.801 189.29 123.281 189.64 123.611C189.99 123.941 190.33 122.611 190.26 123.471C191.16 123.691 190.08 124.711 189.82 124.701C189.552 125.22 189.129 125.643 188.61 125.911C187.48 127.641 185.34 128.911 183.48 129.911C182.48 130.491 182.31 131.191 181.28 131.331C180.28 132.671 178.03 134.051 175.83 135.061C174.59 135.131 173.75 135.291 172.96 135.391C172.153 135.526 171.324 135.393 170.6 135.011C169.181 135.413 167.675 135.389 166.27 134.941C164.584 134.411 163.02 133.551 161.67 132.411C160.227 130.99 159.013 129.354 158.07 127.561C157.086 125.695 156.676 123.58 156.89 121.481C157.078 120.958 157.219 120.419 157.31 119.871C157.46 119.321 157.67 118.821 158.13 118.731C158.082 118.054 158.281 117.383 158.69 116.841C158.91 116.551 159.14 116.271 159.37 116.021C159.6 115.771 159.85 115.581 160.05 115.401C159.89 114.681 160.22 114.821 160.32 114.261C161.19 113.471 161.96 112.811 162.76 112.131C163.56 111.451 164.38 110.761 165.44 109.991C165.91 109.762 166.403 109.581 166.91 109.451C167.288 109.346 167.672 109.263 168.06 109.201C168.78 109.081 169.4 108.931 170.51 108.771C171.023 108.86 171.509 109.065 171.93 109.371C172.301 109.636 172.713 109.839 173.15 109.971C173.53 110.351 174.06 110.271 173.84 110.651C174.116 111.057 174.37 111.478 174.6 111.911C174.762 112.188 174.721 112.539 174.5 112.771C174.65 113.278 174.727 113.803 174.73 114.331C174.72 114.771 174.51 115.151 174.13 115.091Z" fill="#2E316A"/>
<path fill-rule="evenodd" clip-rule="evenodd" d="M144.75 86.3212C144.44 86.7012 144.21 86.2512 143.85 85.8512C143.538 85.455 143.133 85.1423 142.67 84.9412C142.19 85.1312 141.32 84.6012 140.73 84.6512C139.88 84.3412 138.73 84.3412 138.33 83.9212C137.22 84.3312 135.95 84.1212 134.68 84.5912C134.123 84.8521 133.591 85.1634 133.09 85.5212C130.917 86.5176 129.162 88.2444 128.13 90.4012C127.316 91.9705 126.647 93.6106 126.13 95.3012C126.13 96.0812 126.45 96.4612 126.52 97.2012C126.216 99.8654 127.183 102.517 129.13 104.361C131 106.021 133.6 106.991 136.99 107.361C138.4 107.891 139.25 107.361 140.14 108.171C142.79 108.101 145.4 108.031 147.83 108.021C148.67 107.436 149.549 106.908 150.46 106.441C151.554 105.937 152.675 105.496 153.82 105.121C155.106 104.682 156.297 104.003 157.33 103.121C157.26 103.191 157.67 103.351 157.69 103.121C157.82 102.241 159.53 101.121 160.29 100.121C161 99.2478 161.617 98.3027 162.13 97.3012C162.754 96.032 163.211 94.6875 163.49 93.3012C164.195 91.8585 164.538 90.2661 164.49 88.6612C164.806 86.8926 164.751 85.0777 164.33 83.3312C163.95 81.5112 163.33 79.7512 162.82 77.9712C163.32 77.3312 163.64 78.3512 164.11 78.2212C164.58 78.0912 163.29 76.6412 164.18 77.4412C164.48 77.0812 164.8 77.3812 165.03 77.8112C165.221 78.1654 165.327 78.559 165.34 78.9612C165.788 79.6881 166.059 80.5103 166.13 81.3612C166.799 82.8645 167.163 84.486 167.2 86.1312C167.253 87.8131 167.082 89.4947 166.69 91.1312C166.28 92.8712 166.55 93.7312 165.69 94.9612C165.506 96.4636 165.052 97.9203 164.35 99.2612C163.537 100.87 162.551 102.386 161.41 103.781C159.93 104.851 158.94 105.651 157.98 106.321C157.024 107.018 155.911 107.468 154.74 107.631C151.51 110.161 147.5 111.111 141.88 111.061C139.075 110.842 136.295 110.38 133.57 109.681C132.152 109.293 130.785 108.736 129.5 108.021C128.114 107.273 126.893 106.252 125.91 105.021C125.62 104.401 125.07 103.611 124.7 102.821C124.323 102.226 124.221 101.497 124.42 100.821C123.894 99.963 123.64 98.9663 123.69 97.9612C123.701 96.9765 123.86 95.999 124.16 95.0612C123.75 94.2512 124.08 94.1812 123.99 93.3812C124.542 91.8479 125.26 90.3793 126.13 89.0012C127.009 87.5279 128.086 86.182 129.33 85.0012C130.445 84.2058 131.685 83.604 133 83.2212C134 82.9112 134.83 82.6712 136 82.2212C136.566 82.1672 137.136 82.2043 137.69 82.3312C138.184 82.4365 138.696 82.4365 139.19 82.3312C139.78 82.4712 140.19 82.1012 140.25 82.5212C140.99 82.8112 141.48 82.9212 141.82 83.0612C142.16 83.148 142.414 83.433 142.46 83.7812C143.079 84.0348 143.661 84.3712 144.19 84.7812C144.8 85.3012 145.13 86.1312 144.75 86.3212Z" fill="#2E316A"/>
<path fill-rule="evenodd" clip-rule="evenodd" d="M151.48 122.911C151.86 123.691 151.42 123.301 151.36 123.451C151.36 123.851 151.17 123.761 151.07 123.981C150.88 123.981 150.6 124.101 150.55 123.731C150.25 124.211 149.98 123.901 149.63 124.021C149.46 124.021 149.25 124.261 149.04 124.321C148.83 124.381 148.67 124.321 148.43 124.321C147.43 124.451 146.06 124.441 145.62 123.321C145.41 123.241 145.11 123.531 144.9 123.441C143.989 122.128 142.805 121.026 141.43 120.211C141.37 119.701 140.79 119.981 141.15 119.211C140.498 118.908 140.059 118.278 140 117.561C139.593 117.664 139.167 117.664 138.76 117.561C137.96 117.221 138.23 116.331 137.58 115.691C137.58 115.691 137.9 115.471 137.76 115.511C137.09 115.661 137.03 114.981 136.83 114.681C136.63 114.381 135.89 113.451 135.37 112.621C135.471 112.083 135.447 111.529 135.3 111.001C135.78 109.881 135.52 108.561 136.76 107.731C137.53 107.731 137.23 108.001 137.68 108.091C138.13 108.181 137.88 107.711 138.18 108.021C139.06 108.091 138.57 108.421 138.36 108.451C138.45 108.691 138.24 108.821 138.09 108.981C138.3 109.641 137.88 110.451 137.78 111.271C137.78 111.721 138.28 111.771 137.99 112.191C138.75 112.561 139.29 113.281 140.07 113.701C140 114.571 140.83 114.451 140.43 115.331C141.77 115.471 142.14 116.061 142.92 116.941C143.39 118.141 144.46 118.681 145.31 119.651C145.31 120.121 145.97 120.041 145.65 120.771C146.23 120.531 146.45 121.261 146.65 121.671C147.07 121.311 146.93 121.591 147.21 121.451C147.682 122.102 148.539 122.342 149.28 122.031C149.94 122.131 150.03 122.521 150.5 122.031C150.66 122.031 150.67 122.511 150.82 122.031C150.88 122.091 150.89 121.621 150.9 122.031C151.03 122.241 150.98 121.821 151.12 122.501C151.21 122.581 151.18 122.231 151.48 122.911Z" fill="#2E316A"/>
<path fill-rule="evenodd" clip-rule="evenodd" d="M131.82 131.061C132.22 131.331 131.89 131.631 131.39 131.941C130.861 132.231 130.379 132.598 129.96 133.031C129.88 133.591 128.86 134.531 128.62 135.271C127.88 136.271 127.38 137.681 126.83 138.121C126.76 139.651 126.15 141.281 126.25 143.121C126.355 143.94 126.536 144.746 126.79 145.531C126.88 145.981 126.97 146.411 127.08 146.861C127.175 147.326 127.312 147.781 127.49 148.221C128.374 150.418 129.57 152.475 131.04 154.331C131.84 155.331 132.73 156.331 133.61 157.241C134.49 158.151 135.43 159.001 136.3 159.811C137.129 160.179 137.981 160.493 138.85 160.751C140.598 161.776 142.489 162.534 144.46 163.001C146.238 163.427 148.062 163.626 149.89 163.591C153.859 163.513 157.717 162.264 160.98 160.001C161.696 159.67 162.343 159.209 162.89 158.641C163.312 158.176 163.836 157.813 164.42 157.581C166.34 154.741 166.35 151.121 166.47 147.841C165.97 146.601 165.47 145.441 164.94 144.111C164.468 142.73 163.761 141.442 162.85 140.301C162.349 139.748 161.744 139.3 161.07 138.981C160.347 138.631 159.531 138.519 158.74 138.661C158.84 138.661 158.53 138.301 158.4 138.471C157.949 138.909 157.464 139.31 156.95 139.671C156.365 140.182 155.923 140.837 155.67 141.571C155.376 142.877 155.516 144.243 156.07 145.461C156.754 147.176 157.797 148.724 159.13 150.001C160.412 151.789 162.134 153.215 164.13 154.141C166.191 155.487 168.523 156.364 170.96 156.711C173.44 157.078 175.955 157.142 178.45 156.901C179.02 157.541 177.59 157.641 177.53 158.131C177.25 158.671 179.9 157.651 178.47 158.381C178.79 158.751 178.27 159.001 177.61 159.151C177.082 159.259 176.538 159.259 176.01 159.151C175.399 159.304 174.768 159.362 174.14 159.321C173.619 159.308 173.1 159.248 172.59 159.141C170.382 159.198 168.185 158.811 166.13 158.001C163.997 157.172 162.015 156 160.26 154.531C159.32 153.741 158.59 153.271 157.99 152.731C157.32 152.191 156.78 151.508 156.41 150.731C155.716 150.105 155.104 149.392 154.59 148.611C153.932 147.694 153.417 146.682 153.06 145.611C152.622 144.371 152.455 143.051 152.57 141.741C152.713 140.308 153.254 138.944 154.13 137.801C155.074 136.888 156.239 136.233 157.51 135.901C158.509 135.645 159.551 135.597 160.57 135.761C162.382 136.032 163.989 137.07 164.98 138.611C166.185 139.534 167.135 140.749 167.74 142.141C168.32 143.495 168.713 144.922 168.91 146.381C169.151 147.913 169.271 149.461 169.27 151.011C169.306 152.964 168.967 154.906 168.27 156.731C167.316 158.681 165.898 160.367 164.14 161.641C162.566 162.801 160.852 163.758 159.04 164.491C155.406 165.993 151.47 166.616 147.55 166.311C146.74 166.081 145.55 165.991 144.49 165.771C143.611 165.708 142.778 165.356 142.12 164.771C140.819 164.669 139.558 164.276 138.43 163.621C137.296 163.004 136.239 162.256 135.28 161.391C134.18 161.251 134.22 160.921 133.28 160.501C131.734 159.035 130.312 157.443 129.03 155.741C127.686 153.98 126.53 152.083 125.58 150.081C124.993 148.406 124.656 146.654 124.58 144.881C124.51 143.511 124.47 142.351 124.45 140.681C124.586 139.944 124.818 139.228 125.14 138.551C125.417 137.947 125.609 137.308 125.71 136.651C126.1 135.951 125.9 135.361 126.36 135.391C126.97 134.541 127.36 133.981 127.65 133.601C127.881 133.233 128.285 133.01 128.72 133.011C129.262 132.43 129.854 131.898 130.49 131.421C131.03 131.001 131.61 130.771 131.82 131.061Z" fill="#2E316A"/>
<path fill-rule="evenodd" clip-rule="evenodd" d="M126.82 174.111C126.47 173.301 127.39 173.641 127.72 173.481C127.85 173.061 128.44 173.171 128.72 172.971C129.23 172.971 129.93 172.971 130.11 173.361C130.83 172.981 131.52 173.441 132.32 173.591C132.733 173.611 133.144 173.661 133.55 173.741C133.991 173.924 134.41 174.156 134.8 174.431C135.962 175.068 136.909 176.035 137.52 177.211C137.87 177.896 138.078 178.644 138.13 179.411C138.215 180.281 137.973 181.151 137.45 181.851C137.09 182.571 136.98 183.241 136.12 183.691C135.639 183.861 135.126 183.915 134.62 183.851C134.097 183.794 133.601 183.59 133.19 183.261C132.548 182.731 132.151 181.962 132.09 181.131C132.028 180.593 132.028 180.049 132.09 179.511C132.16 179.031 132.24 178.561 132.35 178.091C132.573 177.135 132.909 176.208 133.35 175.331C133.859 174.293 134.554 173.358 135.4 172.571C135.81 172.381 136.202 172.154 136.57 171.891C136.889 171.657 137.317 171.634 137.66 171.831C139.225 171.019 141.056 170.889 142.72 171.471C143.357 171.089 144.071 170.853 144.81 170.781C146.7 170.721 147.92 171.851 149.95 172.641C149.89 172.641 149.86 173.031 150.01 172.951C150.73 172.581 151.9 173.651 152.63 174.191C153.357 174.69 154.048 175.238 154.7 175.831C155.544 176.612 156.299 177.484 156.95 178.431C157.29 179.601 157.68 180.851 158.03 182.251C158.05 183.665 157.937 185.078 157.69 186.471C157.464 187.846 156.801 189.112 155.8 190.081C155.04 189.911 155.54 189.411 155.13 189.171C154.72 188.931 154.61 190.061 154.56 189.321C153.7 189.111 154.48 188.321 154.69 188.321C154.782 187.857 154.976 187.42 155.26 187.041C155.491 185.152 155.491 183.241 155.26 181.351C155 180.281 154.34 180.131 154.26 179.191C153.63 178.741 152.95 178.191 152.16 177.581C151.381 177.009 150.526 176.548 149.62 176.211C149.116 175.669 148.488 175.257 147.79 175.011C147.188 174.802 146.65 174.44 146.23 173.961C145.135 174.095 144.033 174.152 142.93 174.131C141.746 174.067 140.559 174.134 139.39 174.331C136.82 174.381 135.33 176.771 134.88 179.531C134.707 179.834 134.633 180.184 134.67 180.531C134.67 180.841 134.67 180.931 134.36 181.211C134.45 181.206 134.537 181.186 134.62 181.151C134.62 181.151 134.62 181.151 134.78 181.151C135.079 181.213 135.391 181.148 135.64 180.971C135.26 180.521 135.56 180.621 135.34 180.291C135.524 179.563 135.427 178.792 135.07 178.131C134.689 177.416 134.085 176.844 133.35 176.501C132.922 176.126 132.46 175.791 131.97 175.501C131.568 175.258 131.082 175.193 130.63 175.321C130.08 175.171 129.96 174.661 129.4 175.011C129.16 174.921 128.99 175.371 128.98 174.961C128.36 174.701 128.21 175.141 127.98 174.461C127.63 174.351 127.02 174.831 126.82 174.111Z" fill="#2E316A"/>
<path fill-rule="evenodd" clip-rule="evenodd" d="M131.62 56.5512C131.17 56.5512 131.16 56.2612 131.33 55.9412C131.5 55.6212 131.87 55.3512 132.01 55.1112C131.92 54.6212 132.79 54.1112 133.21 53.7912C134.01 53.4612 135.16 53.1712 135.59 53.5712C136.67 53.0412 137.96 53.6512 139.17 54.2512C139.802 54.5106 140.4 54.8464 140.95 55.2512C141.544 55.7907 142.056 56.4139 142.47 57.1012C143.696 58.8888 144.281 61.0387 144.13 63.2012C144.058 64.4493 143.717 65.6672 143.13 66.7712C142.559 67.8199 141.746 68.7178 140.76 69.3912C140.04 70.0912 139.88 70.7112 138.97 71.2912C137.199 72.1237 135.239 72.4689 133.29 72.2912C131.64 72.1618 130.029 71.7243 128.54 71.0012C125.376 69.4218 122.91 66.7244 121.62 63.4312C121.36 61.7112 120.62 60.8912 121.22 59.7012C120.626 56.8505 121.003 53.8831 122.29 51.2712C122.203 50.1062 122.339 48.9353 122.69 47.8212C123.185 46.4445 123.954 45.1825 124.95 44.1112C125.95 43.0312 127.04 41.9512 128.38 40.6612C128.3 40.7412 128.75 40.8412 128.79 40.6612C129.064 39.9611 129.568 39.3755 130.22 39.0012C130.97 38.4512 131.89 38.0012 132.54 37.6212C135.404 36.0155 138.558 34.9958 141.82 34.6212C143.919 34.7821 146.008 35.0492 148.08 35.4212C150.226 36.1603 152.288 37.1257 154.23 38.3012C156.166 39.4591 157.747 41.1264 158.8 43.1212C158.42 43.8312 157.85 42.8312 157.43 43.0612C157.01 43.2912 158.54 44.4512 157.5 43.8412C157.04 44.6212 156.12 43.0012 156.04 42.7312C155.69 42.465 155.356 42.1778 155.04 41.8712C154.76 41.6112 154.54 41.3112 154.27 41.0612C151.43 39.3348 148.325 38.0881 145.08 37.3712C143.21 37.0712 142.47 37.6312 140.98 37.3012C139.8 37.7412 138.29 38.1712 136.77 38.8612C135.237 39.5443 133.809 40.4434 132.53 41.5312C131.351 42.0845 130.288 42.8584 129.4 43.8112C129.056 44.2 128.689 44.5673 128.3 44.9112C127.889 45.3063 127.444 45.6644 126.97 45.9812C126.26 47.7912 125.6 49.4412 124.97 51.2912C124.293 53.3545 123.935 55.5095 123.91 57.6812C123.718 60.1307 124.298 62.5788 125.57 64.6812C126.192 65.6866 126.988 66.5736 127.92 67.3012C128.891 68.0375 129.975 68.6116 131.13 69.0012C131.703 69.323 132.344 69.5046 133 69.5312C133.69 69.6212 134.31 69.6212 134.66 69.9812C135.43 69.6317 136.222 69.3311 137.03 69.0812C137.868 68.8118 138.673 68.4495 139.43 68.0012C139.54 67.1612 139.83 67.3012 140.03 66.6212C142.002 64.486 142.254 61.2781 140.64 58.8612C140.239 57.9287 139.666 57.0805 138.95 56.3612C138.427 55.8196 137.703 55.5191 136.95 55.5312C136.51 55.3712 136.31 55.2512 136.03 55.1412C135.725 55.0263 135.382 55.0835 135.13 55.2912C134.75 55.2912 134.68 55.7712 134.51 55.3912C134.189 55.4031 133.876 55.496 133.6 55.6612C133.41 55.7512 133.28 55.7612 132.95 55.5712C132.682 55.7604 132.451 55.9977 132.27 56.2712C132.15 56.51 131.876 56.6281 131.62 56.5512Z" fill="#2E316A"/>
<path fill-rule="evenodd" clip-rule="evenodd" d="M126.34 130.001C126.34 130.891 125.51 130.171 125.11 130.151C124.78 130.461 124.21 130.071 123.8 130.081C123.28 129.771 122.55 129.431 122.57 128.941C121.68 128.851 121.24 128.011 120.57 127.331C120.205 127.031 119.871 126.696 119.57 126.331C119.305 125.848 119.101 125.334 118.96 124.801C118.453 123.341 118.453 121.752 118.96 120.291C119.239 119.435 119.707 118.652 120.33 118.001C120.945 117.36 121.734 116.911 122.6 116.711C123.29 116.381 123.6 115.881 124.39 115.711C125.846 115.728 127.264 116.181 128.46 117.011C129.505 117.713 130.325 118.703 130.82 119.861C131.76 122.349 131.252 125.151 129.5 127.151C129.069 127.461 128.655 127.795 128.26 128.151C127.934 128.452 127.469 128.548 127.05 128.401C125.31 129.53 123.144 129.785 121.19 129.091C120.398 129.425 119.534 129.549 118.68 129.451C117.649 129.284 116.682 128.841 115.88 128.171C115.05 127.531 114.27 126.801 113.27 125.981C113.33 125.981 113.45 125.631 113.27 125.651C112.86 125.651 112.4 125.331 111.95 124.871C111.5 124.411 111.13 123.871 110.84 123.391C109.463 121.646 108.289 119.751 107.34 117.741C107.18 116.461 106.88 115.091 106.56 113.611C106.63 110.731 106.19 107.451 107.4 104.771C108.17 104.611 107.88 105.361 108.34 105.461C108.8 105.561 108.52 104.241 108.83 105.041C109.72 104.881 109.23 106.161 109.04 106.321C109.099 106.896 109.027 107.477 108.83 108.021C109.14 110.071 108.97 112.581 109.27 114.861C109.48 116.131 110.11 116.461 110.06 117.531C110.63 118.201 111.26 119.091 111.94 120.001C112.631 120.911 113.426 121.737 114.31 122.461C114.71 123.228 115.282 123.892 115.98 124.401C116.569 124.814 117.069 125.341 117.45 125.951C118.77 126.141 119.87 126.331 121.04 126.461C122.318 126.636 123.618 126.548 124.86 126.201C125.579 126.107 126.264 125.843 126.86 125.431C127.398 125.046 127.828 124.53 128.11 123.931C128.697 122.804 128.632 121.448 127.94 120.381C127.94 120.051 127.59 119.771 127.27 119.531C126.95 119.291 126.64 119.061 126.6 118.631C126.075 118.681 125.545 118.647 125.03 118.531C124.507 118.427 123.971 118.4 123.44 118.451C123.31 119.101 123.12 118.851 122.94 119.301C121.306 120.232 120.63 122.242 121.37 123.971C121.46 124.615 121.624 125.246 121.86 125.851C122.073 126.318 122.467 126.679 122.95 126.851C123.38 127.311 123.25 127.851 123.95 127.851C124.14 128.061 124.52 127.741 124.35 128.131C124.85 128.691 125.21 128.371 125.16 129.131C125.58 129.461 126.45 129.311 126.34 130.001Z" fill="#2E316A"/>
<path d="M108.03 45.0011C107.13 32.8511 98.8501 29.8511 92.7901 28.5911C86.7301 27.3311 80.3001 28.8111 74.8601 31.5911C69.4201 34.3711 64.8601 38.3411 60.4001 42.3811C56.7601 45.7211 53.0801 49.3211 51.5901 53.8611C50.1001 58.4011 51.5901 64.1311 56.1601 66.2511C56.597 65.9722 56.8868 65.5131 56.9506 64.9987C57.0144 64.4844 56.8456 63.9683 56.4901 63.5911C55.6839 62.8191 54.6063 62.3952 53.4901 62.4111C49.2501 62.1111 45.3501 64.5011 42.1301 67.0711C37.1301 71.0711 32.6601 75.9611 30.7901 81.8211C28.9201 87.6811 30.0901 94.6611 34.9301 98.8211C35.0901 97.5211 33.3001 96.6111 31.9301 96.9811C30.6522 97.473 29.5895 98.4011 28.9301 99.6011C23.5801 107.461 21.7301 118.521 28.2001 125.601C28.8168 126.118 29.2514 126.819 29.4401 127.601C29.4228 128.226 29.2362 128.834 28.9001 129.361C26.2101 134.631 25.2501 140.801 27.1001 146.361C29.0646 152.233 33.9379 156.664 39.9701 158.061C39.5301 157.121 38.0701 158.201 37.8001 159.201C36.1987 165.42 37.7788 172.029 42.0201 176.851C46.5644 181.829 53.0637 184.564 59.8001 184.331C59.0801 189.251 62.2501 194.161 66.6901 196.941C71.1301 199.721 76.6201 200.681 81.9801 200.941C87.8101 201.201 93.9801 200.571 98.7701 197.471C103.95 194.111 106.77 188.291 107.61 182.471C108.45 176.651 108.61 50.8111 108 44.9811" fill="#FF9CAE"/>
<path opacity="0.2" d="M108.168 44.9113C108.1 43.5206 107.95 42.1418 107.719 40.7912C105.706 43.0093 103.786 45.4149 101.973 47.994C99.5998 51.2724 97.1816 54.7955 96.2455 59.2385C95.6457 61.9959 95.7904 64.9979 96.6485 67.596C94.2238 67.8113 92.0005 69.9154 90.1478 72.1663C86.8975 76.0808 83.9917 80.8566 82.7761 86.6012C81.723 91.5628 82.126 97.3662 84.3167 101.418C84.0556 101.33 83.7848 101.33 83.5236 101.418C82.6933 101.905 82.0031 102.816 81.5734 103.992C78.0956 111.684 76.8995 122.498 81.0989 129.436C81.4998 129.942 81.7823 130.628 81.905 131.393C81.8936 132.002 81.7722 132.594 81.5539 133.106C79.8053 138.273 79.1812 144.302 80.3838 149.743C81.5789 155.157 84.4507 159.357 88.0806 160.997C87.7111 161.272 87.4301 161.758 87.3005 162.348C86.2513 168.431 87.2741 174.901 90.0308 179.621C92.9849 184.492 97.2099 187.168 101.589 186.941C101.384 189.316 101.711 191.727 102.519 193.791C105.658 190.464 107.362 184.983 107.908 179.513C108.48 173.798 108.59 50.6265 108.168 44.9113Z" fill="#232357"/>
<path opacity="0.2" d="M107.531 45.9113C107.598 44.5206 107.749 43.1418 107.979 41.7912C109.993 44.0093 111.912 46.4149 113.726 48.994C116.098 52.2724 118.517 55.7955 119.453 60.2385C120.053 62.9959 119.908 65.9979 119.05 68.596C121.474 68.8113 123.698 70.9154 125.55 73.1663C128.801 77.0808 131.707 81.8566 132.922 87.6012C133.975 92.5628 133.572 98.3662 131.382 102.418C131.643 102.33 131.913 102.33 132.175 102.418C133.005 102.905 133.695 103.816 134.125 104.992C137.603 112.684 138.799 123.498 134.599 130.436C134.198 130.942 133.916 131.628 133.793 132.393C133.805 133.002 133.926 133.594 134.144 134.106C135.893 139.273 136.517 145.302 135.314 150.743C134.119 156.157 131.248 160.357 127.618 161.997C127.987 162.272 128.268 162.758 128.398 163.348C129.447 169.431 128.424 175.901 125.667 180.621C122.713 185.492 118.488 188.168 114.109 187.941C114.314 190.316 113.987 192.727 113.18 194.791C110.04 191.464 108.337 185.983 107.791 180.513C107.218 174.798 107.108 51.6265 107.531 45.9113Z" fill="#232357"/>
<path fill-rule="evenodd" clip-rule="evenodd" d="M106.8 45.3212C107.2 44.6112 107.36 45.9712 107.42 47.9112C107.48 49.8512 107.42 52.3712 107.49 53.9112C107.91 55.3612 107.82 60.0512 108.05 62.5812C108.05 66.7312 108.23 72.0212 107.87 74.1312C108.4 79.1312 108.16 85.2212 108.39 91.4612C108.49 94.3712 108.73 96.8412 108.87 100.121C109.01 103.401 108.97 106.581 109.09 110.241C109.58 124.671 110.2 147.591 109.26 165.131C109.26 169.231 109.61 171.131 109.58 175.271C109.49 177.061 109.41 178.811 109.32 180.531C109.23 181.431 109.22 182.341 109.06 183.211C108.9 184.081 108.71 184.921 108.47 185.751C107.599 189.005 106.045 192.036 103.91 194.641C101.864 197.114 99.2205 199.024 96.2301 200.191C93.4007 201.256 90.4205 201.867 87.4001 202.001C84.4647 202.165 81.5207 202.078 78.6001 201.741C75.5828 201.444 72.6194 200.741 69.7901 199.651C66.7511 198.501 64.0536 196.598 61.9501 194.121C60.8372 192.796 59.9702 191.282 59.3901 189.651C58.7619 187.918 58.5562 186.06 58.7901 184.231L59.8601 185.421C55.3526 185.585 50.8856 184.517 46.9401 182.331C44.2439 180.684 41.8881 178.535 40.0001 176.001C39.2534 175.015 38.6257 173.944 38.1301 172.811C37.6556 171.71 37.3488 170.543 37.2201 169.351C36.5763 167.169 36.3125 164.893 36.4401 162.621C36.5157 161.484 36.6931 160.356 36.9701 159.251C37.0001 159.088 37.0435 158.927 37.1001 158.771C37.1745 158.595 37.2614 158.425 37.3601 158.261C37.5594 157.963 37.8021 157.697 38.0801 157.471C38.3931 157.198 38.7724 157.012 39.1801 156.931C39.4873 156.874 39.8048 156.923 40.0801 157.071C40.3577 157.22 40.579 157.455 40.7101 157.741L41.4701 159.251L39.8001 158.891C35.4984 157.913 31.7033 155.395 29.1301 151.811C26.7112 148.432 25.5092 144.332 25.7201 140.181C25.5375 137.763 25.7468 135.332 26.3401 132.981C26.6435 131.758 27.0448 130.56 27.5401 129.401C27.7704 128.921 27.961 128.423 28.1101 127.911C28.1402 127.834 28.1402 127.748 28.1101 127.671C28.0359 127.531 27.9452 127.4 27.8401 127.281C27.6601 127.071 27.4101 126.831 27.1301 126.531L26.3201 125.531L25.9201 125.061L25.5801 124.551L24.9101 123.551C24.1114 122.162 23.5122 120.667 23.1301 119.111C22.429 116.037 22.429 112.845 23.1301 109.771C23.8078 106.599 25.0003 103.558 26.6601 100.771C27.0801 100.041 27.5601 99.3412 28.0501 98.6012C28.6079 97.7688 29.3007 97.0353 30.1001 96.4312C30.5835 96.0924 31.1212 95.8388 31.6901 95.6812C32.3468 95.5181 33.0334 95.5181 33.6901 95.6812C34.3671 95.8517 34.9876 96.1965 35.4901 96.6812C35.79 96.9648 36.0312 97.3045 36.2001 97.6812C36.3549 98.1029 36.4063 98.5555 36.3501 99.0012L36.0701 101.751L34.0701 99.8812C33.5807 99.4554 33.1134 99.0048 32.6701 98.5312C33.0201 98.9012 32.4001 97.6812 31.8701 97.1612C30.9382 96.2114 30.1981 95.091 29.6901 93.8612C28.9151 92.0696 28.4745 90.1513 28.3901 88.2012C28.2696 86.0478 28.5199 83.8898 29.1301 81.8212C29.6821 79.9753 30.4473 78.2 31.4101 76.5312C33.9598 72.2755 37.2757 68.529 41.1901 65.4812C43.6535 63.3183 46.5519 61.7088 49.6901 60.7612C50.5926 60.5235 51.5178 60.3827 52.4501 60.3412C53.4757 60.2763 54.5051 60.3742 55.5001 60.6312C56.1169 60.8008 56.7014 61.0711 57.2301 61.4312C57.5342 61.6376 57.8128 61.8793 58.0601 62.1512C58.3516 62.4831 58.591 62.8573 58.7701 63.2612C59.1202 64.0748 59.1974 64.98 58.9901 65.8412C58.7379 66.861 58.0607 67.7238 57.1301 68.2112L56.1901 68.6812L55.1901 68.2412C53.8492 67.6499 52.6468 66.7847 51.6601 65.7012C50.5182 64.419 49.6686 62.9041 49.1701 61.2612C48.5602 58.9236 48.5602 56.4687 49.1701 54.1312C49.8367 51.8225 50.9287 49.6587 52.3901 47.7512C53.8152 45.8765 55.4012 44.1299 57.1301 42.5312C58.8301 40.9212 60.5401 39.3612 62.3601 37.7512C66.0124 34.6657 70.0129 32.0177 74.2801 29.8612C78.8538 27.575 83.9184 26.4454 89.0301 26.5712C90.3215 26.6207 91.6062 26.7813 92.8701 27.0512C94.1011 27.3166 95.3163 27.6504 96.5101 28.0512C98.9321 28.8425 101.18 30.0918 103.13 31.7312C105.014 33.4069 106.466 35.5134 107.36 37.8712C108.177 40.0743 108.61 42.4015 108.64 44.7512C108.33 45.4212 108.1 44.4812 107.88 43.3312C107.765 42.7567 107.619 42.1891 107.44 41.6312C107.372 41.259 107.203 40.9129 106.95 40.6312C106.56 40.0512 107.1 42.0012 107.25 43.5212C107.4 45.0412 107.52 46.0712 107.05 43.5212C106.86 43.8712 106.7 43.5912 106.53 42.9712C106.36 42.3512 106.17 41.4112 105.83 40.4412C105.375 38.8877 104.745 37.3913 103.95 35.9812C102.768 34.3954 101.3 33.0453 99.6201 32.0012C98.2059 31.1422 96.6998 30.4445 95.1301 29.9212C93.4493 29.4581 91.7282 29.1567 89.9901 29.0212C88.1871 28.8992 86.3762 28.9763 84.5901 29.2512C80.8377 29.8452 77.2171 31.087 73.8901 32.9212C70.4653 34.8365 67.2394 37.0876 64.2601 39.6412C61.2385 42.0789 58.3853 44.7182 55.7201 47.5412C52.9301 50.7312 51.7201 53.6212 51.5301 56.2812C51.4267 57.6048 51.545 58.9365 51.8801 60.2212C52.2348 61.6591 52.8966 63.0033 53.8201 64.1612C54.5599 64.8873 55.4324 65.4644 56.3901 65.8612H56.0101C56.4312 65.5705 56.607 65.0349 56.4401 64.5512C56.2645 64.0056 55.8301 63.5824 55.2801 63.4212C54.6417 63.1811 53.9615 63.0722 53.2801 63.1012C52.5295 63.0954 51.7808 63.1793 51.0501 63.3512C47.9501 64.0012 45.1301 66.0012 42.4301 68.2812C39.6809 70.5707 37.2614 73.2292 35.2401 76.1812C33.2797 78.9883 32.0901 82.2605 31.7901 85.6712C31.4578 88.0855 31.7398 90.5447 32.6101 92.8212C33.3353 94.6772 34.5024 96.3282 36.0101 97.6312L33.6201 98.6312C33.7001 98.6312 33.7301 98.6312 33.6201 98.6312C33.5101 98.6312 33.4601 98.7212 33.4501 98.7212C33.3316 98.6202 33.1912 98.5483 33.0401 98.5112C32.8723 98.4727 32.6979 98.4727 32.5301 98.5112C32.3253 98.5601 32.1296 98.6411 31.9501 98.7512C31.4446 99.0856 31.0041 99.5092 30.6501 100.001C30.2301 100.551 29.8401 101.231 29.4301 101.841C28.6411 103.147 27.9395 104.503 27.3301 105.901C26.6511 107.413 26.109 108.983 25.7101 110.591C25.1215 114.443 25.8247 118.381 27.7101 121.791C27.9601 122.191 28.2401 122.561 28.5001 122.951C28.7601 123.341 29.1101 123.671 29.4001 124.031C29.6901 124.391 30.1001 124.731 30.5801 125.371C30.8675 125.747 31.0936 126.165 31.2501 126.611C31.4389 127.164 31.4903 127.754 31.4001 128.331C31.2574 129.07 31.001 129.781 30.6401 130.441C30.4201 130.901 30.2101 131.361 30.0301 131.841C29.6294 132.794 29.2953 133.773 29.0301 134.771C27.8286 138.895 28.1045 143.309 29.8101 147.251C31.837 151.612 35.7507 154.803 40.4301 155.911L39.1501 158.441C39.4001 158.361 39.4901 158.171 39.4601 158.241C39.4099 158.484 39.4379 158.736 39.5401 158.961C39.6046 159.133 39.6815 159.3 39.7701 159.461L39.9101 159.681L39.9801 159.781L39.9201 159.841C39.9201 159.841 39.9801 159.841 39.7901 159.781C39.6399 159.7 39.4826 159.633 39.3201 159.581H39.1901L39.9501 159.791V159.841V159.961C39.8801 160.301 39.7801 160.631 39.7201 160.961C38.6175 166.57 40.3667 172.361 44.3901 176.421C48.4995 180.436 54.0678 182.603 59.8101 182.421L62.0601 182.361L61.7301 184.571C61.4502 187.285 62.3002 189.994 64.0801 192.061C65.9222 194.326 68.3402 196.053 71.0801 197.061C73.9901 198.132 77.037 198.785 80.1301 199.001C83.3216 199.311 86.5374 199.271 89.7201 198.881C92.9127 198.635 95.9832 197.548 98.6201 195.731C101.37 193.821 103.12 191.161 104.11 190.091C104.901 188.338 105.52 186.513 105.96 184.641C106.231 183.586 106.405 182.508 106.48 181.421C106.52 180.875 106.56 180.314 106.6 179.741L106.68 177.981C106.92 173.241 107.15 168.511 107.33 165.031C106.84 161.671 107.17 161.161 106.93 157.811C107.38 142.521 107.28 130.431 106.68 114.481C106.51 98.9812 106.86 94.3812 106.21 84.1612C106.21 78.1012 106.62 76.0912 106.21 71.1612C106.21 68.7012 105.79 67.4312 106.21 66.8412C106.38 60.5512 105.95 58.8412 106.61 56.7212C106.61 54.5512 106.54 51.7212 106.5 49.4612C106.46 47.2012 106.43 45.5412 106.8 45.3212Z" fill="#2E316A"/>
<path fill-rule="evenodd" clip-rule="evenodd" d="M44.7499 114.471C44.3399 114.641 44.2299 114.541 44.1999 114.331C44.1699 114.121 44.3099 113.891 44.1999 113.731C43.8299 113.501 44.1299 112.991 44.1299 112.631C44.3899 112.191 44.8399 111.631 45.2699 111.781C45.3975 111.425 45.6934 111.155 46.0599 111.061C46.4299 110.951 46.8399 110.921 47.2699 110.831C47.6853 110.695 48.1097 110.588 48.5399 110.511C49.0358 110.525 49.5302 110.572 50.0199 110.651C51.3639 110.753 52.6668 111.16 53.8299 111.841C55.1266 112.572 56.1407 113.716 56.7099 115.091C57.0899 115.571 57.5999 115.601 57.9399 116.161C58.3874 117.263 58.6867 118.42 58.8299 119.601C58.9199 120.141 58.8999 120.671 58.9399 121.181C58.9799 121.691 58.9399 122.181 58.8499 122.711C58.5993 124.909 57.8466 127.02 56.6499 128.881C55.7499 129.551 55.7699 130.381 54.7399 130.331C53.5866 131.77 51.9537 132.747 50.1399 133.081C49.6997 133.733 49.1144 134.274 48.4299 134.661C47.5727 135.067 46.6266 135.249 45.6799 135.191C44.6799 135.131 43.7599 135.051 42.5799 135.021C42.6499 135.021 42.5099 134.631 42.3899 134.761C41.8299 135.361 40.2599 134.821 39.3899 134.581C37.3939 134.157 35.4445 133.537 33.5699 132.731C32.6148 131.867 31.6133 131.056 30.5699 130.301C29.7399 129.231 28.7499 128.301 27.8699 127.091C26.9351 125.975 26.3506 124.608 26.1899 123.161C26.7999 122.671 26.8699 123.421 27.3199 123.261C27.7699 123.101 26.9499 122.261 27.5599 122.701C28.2599 122.161 28.3899 123.301 28.3299 123.531C28.6548 123.92 28.8933 124.373 29.0299 124.861C30.3699 126.111 31.7699 127.951 33.3299 129.391C34.2299 130.151 34.8899 129.961 35.4799 130.771C37.0899 130.981 39.3899 131.771 41.4299 131.641C42.1532 131.974 42.9445 132.131 43.7399 132.101C44.4105 132.062 45.0803 132.189 45.6899 132.471C46.7699 131.871 47.6899 131.381 48.7399 130.891C49.9122 130.346 51.022 129.675 52.0499 128.891C53.3231 128.136 54.3616 127.042 55.0499 125.731C55.7302 124.44 56.1065 123.01 56.1499 121.551C56.5099 120.891 55.8399 119.791 56.4399 119.221C55.7199 118.551 55.5399 117.061 55.1799 116.161C54.5199 116.161 54.7099 115.901 54.2399 115.731C53.7915 114.95 53.1513 114.296 52.3799 113.831C51.5938 113.365 50.7033 113.104 49.7899 113.071C49.3399 112.961 48.9899 112.851 48.6799 112.791C48.3699 112.731 48.0999 112.641 47.8599 112.611C47.4267 112.511 46.9736 112.657 46.6799 112.991C46.4899 112.991 46.4199 112.991 46.2899 112.991C46.1599 112.991 46.0599 112.991 46.0999 113.291C45.9599 113.351 46.2599 113.701 45.9399 113.451C45.5399 113.621 45.9399 113.851 45.2299 113.741C45.1599 113.861 45.2299 114.041 45.2299 114.151C45.2299 114.261 45.1299 114.361 44.7499 114.471Z" fill="#2E316A"/>
<path fill-rule="evenodd" clip-rule="evenodd" d="M74.02 87.3012C73.6 87.1812 73.54 87.0312 73.73 86.8212C73.9939 86.6241 74.2676 86.4406 74.55 86.2712C74.61 85.7812 75.55 85.5312 75.94 85.1712C76.74 84.9312 77.81 84.6212 78.27 84.9512C79.27 84.3412 80.52 84.6112 81.81 84.6612C82.4392 84.6166 83.0708 84.6166 83.7 84.6612C84.4246 84.8109 85.1317 85.0355 85.81 85.3312C87.7113 86.0211 89.3811 87.2302 90.63 88.8212C92.0326 90.5714 92.7758 92.7587 92.73 95.0012C92.86 95.9212 93.31 96.3512 93.31 97.3212C93.0285 100.727 91.3576 103.866 88.69 106.001C86.0708 107.898 83.049 109.164 79.86 109.701C78.26 109.621 77.47 110.281 76.42 109.581C73.7661 110.003 71.0496 109.78 68.5 108.931C67.4427 109.202 66.3463 109.287 65.26 109.181C63.9111 108.982 62.6118 108.531 61.43 107.851C60.22 107.191 59 106.411 57.51 105.491C57.6 105.551 57.6 105.081 57.4 105.111C56.4 105.251 54.73 103.471 53.76 102.441C52.8023 101.476 51.9229 100.436 51.13 99.3312C50.1008 97.9223 49.2321 96.4029 48.54 94.8012C48.1406 92.8221 47.8833 90.817 47.77 88.8012C47.9817 86.6497 48.4379 84.5293 49.13 82.4812C49.7979 80.4788 50.9686 78.6815 52.53 77.2612C53.32 77.4612 52.53 78.2012 52.86 78.5412C53.19 78.8812 53.86 77.2012 53.58 78.3012C54.02 78.4312 53.91 78.8012 53.66 79.1512C53.4731 79.4565 53.2203 79.7162 52.92 79.9112C52.619 80.6199 52.2364 81.2911 51.78 81.9112C51.01 84.5912 50.1 87.9112 50.35 91.0912C50.54 92.8612 51.24 93.3812 51.35 94.8212C52.04 95.8212 52.88 96.9912 53.92 98.1712C54.9463 99.3813 56.1341 100.445 57.45 101.331C58.2336 102.277 59.1908 103.065 60.27 103.651C61.1848 104.127 62.0323 104.722 62.79 105.421C64.63 105.661 66.3 105.931 68.17 106.211C70.2949 106.536 72.4405 106.707 74.59 106.721C77.0608 106.928 79.5487 106.719 81.95 106.101C84.2123 105.577 86.2875 104.442 87.95 102.821C88.453 102.48 88.8594 102.015 89.13 101.471C89.45 100.901 89.73 100.371 90.19 100.211C90.1985 99.3832 90.2957 98.5584 90.48 97.7512C90.654 96.9261 90.7775 96.0912 90.85 95.2512C90.22 94.6812 90.52 94.5412 90.11 93.9712C89.7812 91.2 87.939 88.8414 85.33 87.8512C84.4466 87.341 83.507 86.935 82.53 86.6412C81.7604 86.4099 80.9397 86.4099 80.17 86.6412C79.17 86.6412 78.74 86.1612 77.96 86.7112C77.53 86.7112 77.43 87.2312 77.24 86.8412C76.8713 86.8671 76.5095 86.955 76.17 87.1012C75.9223 87.1896 75.6458 87.1273 75.46 86.9412C75.1372 87.0607 74.8364 87.2331 74.57 87.4512C74.4 87.5412 74.38 87.4212 74.02 87.3012Z" fill="#2E316A"/>
<path fill-rule="evenodd" clip-rule="evenodd" d="M64.0701 125.191C64.3201 124.361 64.5601 125.021 64.8101 124.921C64.9801 124.561 65.2301 124.741 65.4001 124.521C65.6401 124.521 65.9101 124.391 66.0701 124.751C66.2901 124.211 66.6301 124.391 66.9001 124.081C66.9948 123.89 67.0782 123.693 67.1501 123.491C67.2501 123.301 67.4001 123.271 67.5101 123.081C67.9201 122.341 68.5701 121.191 69.6701 121.351C69.8201 121.211 69.6701 120.821 69.8401 120.681C71.3122 120.524 72.6437 119.736 73.4901 118.521C73.9601 118.521 73.6901 117.941 74.3801 118.321C74.6418 117.711 75.1687 117.254 75.8101 117.081C75.6405 116.72 75.5259 116.336 75.4701 115.941C75.4701 115.201 76.3101 115.181 76.4701 114.401C76.4701 114.401 76.8201 114.551 76.7101 114.401C76.1901 113.961 76.6401 113.651 76.7101 113.401C76.777 112.766 76.7398 112.124 76.6001 111.501C76.8874 111.25 77.0455 110.882 77.0301 110.501C77.7501 109.801 77.4801 108.941 78.4401 107.981C79.1901 107.801 78.9501 108.091 79.4401 108.061C79.9301 108.031 79.5301 107.591 79.9001 107.841C80.7601 107.631 80.3901 108.221 80.2001 108.291C80.3301 108.561 80.1401 108.761 80.0001 108.951C80.2801 109.741 79.7401 110.681 79.3501 111.411C79.1501 111.821 79.6201 112.131 79.1301 112.411C79.5088 113.301 79.6732 114.267 79.6101 115.231C78.8201 115.861 79.2601 116.581 78.2401 116.731C78.5601 118.151 77.8701 118.991 76.8501 120.031C75.4901 120.761 74.6501 121.851 73.2901 122.491C72.8301 122.361 72.6101 123.051 72.0401 122.491C72.0401 123.141 71.1901 123.071 70.7501 123.031C70.8701 123.581 70.6801 123.321 70.6701 123.641C69.7801 123.801 69.3801 124.211 68.8101 125.201C68.0201 125.771 67.6401 125.521 67.1001 126.331C66.6501 126.451 66.4501 126.011 66.1001 126.481C65.9101 126.481 65.7901 126.901 65.7401 126.481C65.2201 126.271 64.9901 126.641 64.9201 125.931C64.5001 125.791 63.8001 125.891 64.0701 125.191Z" fill="#2E316A"/>
<path fill-rule="evenodd" clip-rule="evenodd" d="M83.4501 133.201C83.5101 132.731 83.8701 132.861 84.3101 133.141C84.7501 133.421 85.2001 133.921 85.5301 134.141C86.1101 134.141 86.8701 135.141 87.4301 135.591C88.0901 136.521 88.8701 137.811 88.7201 138.491C89.7201 139.611 89.8701 141.371 90.1801 143.091C90.3857 143.909 90.5262 144.741 90.6001 145.581C90.6302 146.062 90.6101 146.545 90.5401 147.021C90.5401 147.501 90.4101 148.021 90.3401 148.531C90.0127 151.141 89.1221 153.649 87.7301 155.881C86.9408 157.129 86.0041 158.277 84.9401 159.301C83.918 160.265 82.7629 161.076 81.5101 161.711C80.5101 162.411 80.2201 163.061 79.1201 163.661C77.0054 164.557 74.7781 165.159 72.5001 165.451C70.5117 165.718 68.5013 165.782 66.5001 165.641C64.5016 165.506 62.5217 165.171 60.5901 164.641C58.3712 164.04 56.2399 163.152 54.2501 162.001C53.4201 161.261 52.7201 160.791 52.1401 160.291C51.5443 159.841 51.1378 159.185 51.0001 158.451C49.7256 156.947 48.9498 155.085 48.7801 153.121C48.6223 151.34 48.7438 149.545 49.1401 147.801C48.7828 146.384 48.6812 144.914 48.8401 143.461C49.0949 141.43 50.0794 139.561 51.6101 138.201C52.434 137.486 53.3743 136.918 54.3901 136.521C55.5643 136.038 56.8331 135.83 58.1001 135.911C57.9401 135.911 58.3201 136.321 58.5701 136.231C59.6888 136.084 60.8138 136.452 61.6301 137.231C62.6752 138.108 63.4689 139.247 63.9301 140.531C64.268 141.421 64.4572 142.36 64.4901 143.311C64.5266 144.436 64.402 145.561 64.1201 146.651C63.4958 149.002 62.4041 151.202 60.9101 153.121C58.9297 155.01 56.7069 156.628 54.3001 157.931C51.6024 159.005 48.756 159.66 45.8601 159.871C43.0151 160.104 40.1622 159.529 37.6301 158.211C37.5101 157.381 38.8201 158.021 39.0901 157.611C39.5501 157.271 36.9301 156.881 38.4401 156.941C38.4401 156.471 38.9201 156.501 39.4401 156.671C39.9001 156.788 40.3412 156.97 40.7501 157.211C41.4101 157.291 41.9501 157.311 42.4401 157.411C42.9301 157.511 43.3701 157.591 43.8501 157.651C45.9062 157.503 47.9446 157.168 49.9401 156.651C52.0624 156.109 54.0869 155.239 55.9401 154.071C56.6962 153.539 57.37 152.899 57.9401 152.171C58.4475 151.536 59.0133 150.95 59.6301 150.421C59.9201 149.691 60.3501 148.911 60.6301 147.991C60.9978 147.069 61.2497 146.105 61.3801 145.121C61.5371 144.154 61.4791 143.164 61.2101 142.221C60.967 141.393 60.4747 140.66 59.8001 140.121C59.0667 139.043 57.7207 138.562 56.4701 138.931C55.3365 139.249 54.2502 139.716 53.2401 140.321C52.261 142.363 51.7487 144.597 51.7401 146.861C51.6001 149.491 51.2601 152.431 52.2801 155.061C53.0701 157.731 55.9401 159.751 58.9101 161.061C62.0411 162.339 65.3988 162.968 68.7801 162.911C69.6915 163.037 70.6175 163.01 71.5201 162.831C72.2829 162.624 73.0872 162.624 73.8501 162.831C74.9032 162.286 76.0004 161.831 77.1301 161.471C78.2425 161.086 79.3311 160.635 80.3901 160.121C80.8301 159.121 81.1401 159.361 81.6701 158.571C83.2654 157.475 84.6253 156.071 85.6701 154.441C86.7034 152.792 87.3843 150.946 87.6701 149.021C88.0621 147.607 88.3067 146.156 88.4001 144.691C88.4645 143.576 88.2515 142.463 87.7801 141.451C87.4501 140.041 87.7201 139.391 86.8401 138.451C86.6301 137.891 86.0901 137.861 86.3701 137.541C86.1756 137.062 85.9018 136.619 85.5601 136.231C85.3403 135.987 85.2543 135.651 85.3301 135.331C84.9412 134.897 84.5014 134.51 84.0201 134.181C83.6301 133.851 83.3001 133.561 83.4501 133.201Z" fill="#2E316A"/>
<path fill-rule="evenodd" clip-rule="evenodd" d="M90.25 171.711C90.25 172.591 89.38 171.861 88.93 171.981C88.7 172.351 88.07 172.181 87.73 172.421C87.17 172.421 86.5 172.651 86.16 172.351C85.6 172.971 84.78 172.971 84.16 173.531C83.8889 173.821 83.6507 174.139 83.45 174.481C83.1626 174.776 82.8953 175.09 82.65 175.421C82.1531 176.296 81.7891 177.239 81.57 178.221C81.44 178.721 81.36 179.221 81.28 179.691C81.2 180.161 81.17 180.421 81.12 180.771C81.28 180.971 81.59 180.661 81.67 180.671C81.75 180.681 81.67 180.821 81.67 180.911C81.67 181.001 81.84 180.911 81.94 180.641C82.0498 180.319 82.1072 179.981 82.11 179.641C82.1449 179.262 82.1449 178.88 82.11 178.501C81.9362 176.849 81.0437 175.356 79.67 174.421C79.4937 174.141 79.2247 173.933 78.91 173.831C78.631 173.694 78.4315 173.436 78.37 173.131C76.88 172.821 75.37 172.681 73.86 172.381C73.3286 172.831 72.7483 173.22 72.13 173.541C71.4723 173.857 70.7713 174.072 70.05 174.181C69.2448 174.32 68.48 174.634 67.81 175.101C67.86 175.101 67.55 174.811 67.55 174.981C67.55 175.731 66.39 176.181 65.87 176.721C64.8321 177.805 64.0766 179.127 63.67 180.571C63.0533 181.278 62.6601 182.151 62.54 183.081C62.0701 184.031 61.8368 185.081 61.86 186.141C61.86 187.231 61.91 188.321 61.86 189.511C61.22 189.981 61.23 189.281 60.77 189.381C60.31 189.481 61.06 190.471 60.47 189.921C59.73 190.461 59.65 189.071 59.83 188.921C59.6004 188.413 59.5442 187.844 59.67 187.301C59.06 185.411 59.67 182.991 60.59 181.181C61.06 180.181 60.81 179.531 61.59 178.911C61.7331 177.945 62.0735 177.02 62.59 176.191C63.2044 175.203 63.9109 174.276 64.7 173.421C65.5203 173.033 66.3182 172.599 67.09 172.121C67.7426 171.712 68.5145 171.536 69.28 171.621C70.3122 170.734 71.5676 170.146 72.91 169.921C74.5681 169.618 76.2714 169.666 77.91 170.061C79.9012 170.72 81.645 171.968 82.91 173.641C84.1279 175.273 84.7871 177.255 84.79 179.291C84.677 179.835 84.6001 180.387 84.56 180.941C84.46 181.581 84.05 182.291 83.56 182.331C83.4089 182.795 83.0721 183.175 82.63 183.381C82.1252 183.615 81.5519 183.654 81.02 183.491C80.1849 183.223 79.5392 182.555 79.3 181.711C78.56 181.371 78.83 181.131 78.48 180.611C78.4904 180.021 78.5675 179.434 78.71 178.861C78.83 178.341 78.97 177.861 79.12 177.351C79.4403 176.264 79.8691 175.212 80.4 174.211C80.9697 173.504 81.6646 172.907 82.45 172.451C83.0634 172.08 83.6424 171.655 84.18 171.181C85.12 170.841 85.52 171.231 86.18 170.671C86.58 170.671 86.74 170.191 86.87 170.591C87.87 170.731 88.17 170.341 88.47 171.041C89.24 171.081 90.37 171.001 90.25 171.711Z" fill="#2E316A"/>
<path fill-rule="evenodd" clip-rule="evenodd" d="M87.2299 55.7612C86.8699 56.0712 86.6799 55.7612 86.4499 55.2612C86.2481 54.7739 85.9326 54.3419 85.5299 54.0012C85.0099 54.0012 84.1599 53.2712 83.5299 53.2712C82.6299 52.8512 81.4199 52.8712 80.9199 52.5312C80.3299 52.7912 79.7199 52.9312 79.0899 53.1612C78.4375 53.3762 77.833 53.7158 77.3099 54.1612C76.8844 54.6451 76.5246 55.1831 76.2399 55.7612C75.8314 56.3412 75.4955 56.9693 75.2399 57.6312C74.7669 59.3277 74.7291 61.1161 75.1299 62.8312C75.5388 64.5871 76.3085 66.2387 77.3899 67.6812C78.0199 68.1912 78.5599 68.0812 79.2099 68.4312C81.5498 70.0209 84.5519 70.2676 87.1199 69.0812C89.8764 67.8948 91.9416 65.5166 92.7299 62.6212C93.5299 61.2812 93.0699 60.3612 93.9699 59.5112C94.034 56.8325 93.8431 54.1537 93.3999 51.5112C92.6899 50.6712 91.9999 49.9312 91.3999 49.0512C90.5299 48.0012 89.8999 47.0012 89.2199 45.9012C88.4495 44.7003 87.4668 43.6499 86.3199 42.8012C86.3999 42.8612 86.4499 42.4012 86.2399 42.4312C85.3199 42.5112 83.6999 41.0612 82.4899 40.5612C79.9592 39.5194 77.2179 39.091 74.4899 39.3112C72.767 39.0202 71.002 39.0951 69.3099 39.5312C67.3999 39.6678 65.5334 40.1666 63.8099 41.0012C62.0545 41.8861 60.3606 42.8884 58.7399 44.0012C57.9599 43.7012 58.9199 43.0912 58.6799 42.6712C58.4399 42.2512 57.2799 43.9412 57.8799 42.8212C56.9999 42.4512 58.8099 41.1912 59.1499 41.2312C59.4744 40.8559 59.8683 40.5469 60.3099 40.3212C60.6679 40.1203 61.0387 39.9432 61.4199 39.7912C64.0099 37.7912 67.9699 36.8612 71.4199 36.7912C73.3199 36.7112 74.1099 36.2412 75.6199 36.7212C77.205 36.492 78.8172 36.5291 80.3899 36.8312C82.2683 37.2014 84.0972 37.7887 85.8399 38.5812C87.3699 39.7812 88.4199 40.6412 89.3699 41.4412C89.8137 41.848 90.2281 42.2858 90.6099 42.7512C90.9963 43.2706 91.3124 43.8389 91.5499 44.4412C93.2792 45.861 94.6323 47.6846 95.4899 49.7512C96.5543 52.2802 97.0625 55.0085 96.9799 57.7512C96.7507 60.9363 95.7669 64.0213 94.1099 66.7512C93.2286 68.1235 92.1074 69.326 90.7999 70.3012C89.447 71.2847 87.915 71.9947 86.2899 72.3912C85.5799 72.3912 84.6099 72.5912 83.6799 72.6112C82.9288 72.7346 82.1613 72.5226 81.5799 72.0312C80.4802 72.1271 79.3797 71.8563 78.4499 71.2612C77.5359 70.7109 76.7322 69.9954 76.0799 69.1512C75.0799 68.9612 75.2699 68.6412 74.5499 68.1512C73.5873 66.629 72.9411 64.9285 72.6499 63.1512C72.2957 61.3282 72.2957 59.4541 72.6499 57.6312C73.1207 56.175 73.9413 54.8565 75.0399 53.7912C75.9166 52.9119 76.8779 52.1214 77.9099 51.4312C78.5455 51.1764 79.2253 51.0506 79.9099 51.0612C80.5107 51.0752 81.1112 51.0216 81.6999 50.9012C82.4099 51.0212 82.8899 50.6712 82.9699 51.1112C83.5944 51.3244 84.2055 51.5748 84.7999 51.8612C85.1754 52.016 85.4336 52.3667 85.4699 52.7712C86.1071 53.2061 86.668 53.7433 87.1299 54.3612C87.4799 55.0012 87.5599 55.6112 87.2299 55.7612Z" fill="#2E316A"/>
<path fill-rule="evenodd" clip-rule="evenodd" d="M90.65 132.461C90.26 131.661 91.49 131.951 91.9 131.611C91.98 131.171 92.71 131.011 92.9 130.611C93.49 130.341 94.03 129.731 94.51 129.801C94.78 128.921 95.51 128.421 95.88 127.491C95.9629 127.053 95.9997 126.607 95.99 126.161C96.0676 125.699 96.1044 125.23 96.1 124.761C95.993 123.644 95.6632 122.559 95.13 121.571C94.5677 120.638 93.8963 119.775 93.13 119.001C92.69 118.831 92.39 119.161 92 119.141C91.1959 118.884 90.3281 118.909 89.54 119.211C88.7968 119.467 88.16 119.963 87.73 120.621C86.8707 122.216 87.1907 124.19 88.51 125.431C88.6526 125.774 88.9061 126.059 89.23 126.241C89.5249 126.423 89.7146 126.736 89.74 127.081C91.3521 127.698 93.0297 128.128 94.74 128.361C95.37 127.901 95.88 127.431 96.48 127.061C97.174 126.668 97.8999 126.333 98.65 126.061C99.5093 125.73 100.277 125.199 100.89 124.511C100.89 124.511 101.22 124.721 101.19 124.511C101.06 123.751 102.19 122.891 102.63 122.141C103.032 121.448 103.366 120.718 103.63 119.961C103.954 119.011 104.192 118.034 104.34 117.041C104.909 116.002 105.25 114.853 105.34 113.671C106.34 111.311 106.14 108.311 107.13 105.671C107.9 105.461 107.65 106.211 108.13 106.281C108.61 106.351 108.24 105.041 108.6 105.831C109.47 105.601 109.08 106.971 108.87 107.131C108.945 107.722 108.862 108.323 108.63 108.871C108.693 111.213 108.281 113.543 107.42 115.721C107.02 116.931 107.36 117.581 106.66 118.431C106.74 120.211 105.77 122.921 104.46 125.201C103.46 126.051 102.81 126.741 102.16 127.311C101.529 127.932 100.709 128.326 99.83 128.431C98.7447 129.637 97.3001 130.461 95.71 130.781C93.7185 131.177 91.655 130.985 89.77 130.231C88.6819 129.691 87.6862 128.983 86.82 128.131C85.9439 127.265 85.2621 126.221 84.82 125.071C84.3682 123.886 84.2338 122.604 84.43 121.351C84.5367 120.698 84.7495 120.066 85.06 119.481C85.3749 118.881 85.791 118.34 86.29 117.881C86.8 117.631 87.36 117.151 87.98 116.881C88.6 116.611 89.22 116.451 89.58 116.751C90.2379 116.285 91.0623 116.118 91.85 116.291C92.6324 116.432 93.3638 116.777 93.97 117.291C94.74 117.111 94.67 117.441 95.3 117.591C96.1551 118.505 96.8605 119.547 97.39 120.681C97.9707 121.848 98.3751 123.095 98.59 124.381C98.5789 125.44 98.3508 126.484 97.92 127.451C97.6 128.201 97.32 128.821 96.92 129.781C96.19 130.691 95.6 130.571 95.16 131.481C94.77 131.711 94.82 132.221 94.5 131.941C93.41 132.371 93.28 132.851 92.65 132.371C91.99 132.581 90.85 133.191 90.65 132.461Z" fill="#2E316A"/>
<path fill-rule="evenodd" clip-rule="evenodd" d="M32.43 47.2111C31.99 47.6911 32.09 47.2111 31.93 47.2111C31.68 47.3811 31.63 47.2111 31.44 47.2111C31.35 47.0711 31.12 47.0112 31.26 46.7612C30.85 46.8812 30.82 46.5912 30.54 46.5312C30.41 46.5312 30.21 46.5312 30.05 46.5312C29.89 46.5312 29.82 46.4111 29.65 46.3812C28.99 46.2512 28.01 45.9911 27.91 45.1411C27.78 45.0511 27.51 45.2111 27.38 45.1411C26.9789 44.0717 26.2237 43.1718 25.24 42.5911C25.24 42.2211 24.78 42.4511 25.04 41.9111C24.5744 41.711 24.235 41.297 24.13 40.8011C23.8475 40.9163 23.545 40.9741 23.24 40.9711C22.65 40.8911 22.71 40.2211 22.13 39.9711C22.13 39.9711 22.29 39.7411 22.2 39.8011C21.78 40.1012 21.61 39.6912 21.39 39.5812C20.932 39.3703 20.4476 39.2223 19.95 39.1412C19.8468 38.8599 19.6229 38.6397 19.34 38.5411C19.04 37.8511 18.43 37.8211 18 36.9211C18.05 36.3411 18.2 36.5812 18.29 36.2412C18.38 35.9012 17.97 36.0711 18.23 35.8711C18.29 35.2011 18.64 35.6111 18.64 35.7711C18.87 35.7711 18.96 35.9212 19.07 36.0712C19.7 36.0712 20.21 36.7311 20.6 37.2011C20.84 37.4511 21.17 37.2011 21.22 37.6111C21.917 37.5831 22.6137 37.6744 23.28 37.8812C23.55 38.5512 24.12 38.3012 24.06 39.0512C25.11 38.9312 25.58 39.4112 26.29 40.1012C26.79 41.0512 27.62 41.5311 28.21 42.4111C28.21 42.7611 28.69 42.8011 28.36 43.3011C28.83 43.2111 28.9 43.8111 28.95 44.1411C29.33 43.9411 29.17 44.1412 29.41 44.0812C29.6584 44.6546 30.225 45.0245 30.85 45.0211C31.37 45.3511 31.31 45.6611 31.93 45.6111C32.11 45.7711 31.93 46.0711 32.28 45.9811C32.28 46.0711 32.6 45.8712 32.4 46.1012C32.45 46.3912 32.73 46.2212 32.4 46.6312C32.45 46.8012 32.82 46.8111 32.43 47.2111Z" fill="#CCCFDB"/>
<path fill-rule="evenodd" clip-rule="evenodd" d="M48.1301 34.6212C47.6001 34.9912 47.7701 34.5012 47.6101 34.4212C47.3101 34.5112 47.2901 34.2612 47.0801 34.2312C46.8701 34.2012 46.7701 33.8812 46.9601 33.6612C46.5001 33.6612 46.5201 33.2812 46.2301 33.1012C45.9401 32.9212 45.8701 33.0012 45.7101 32.9112C45.5501 32.8212 45.4801 32.6812 45.3101 32.5712C44.6201 32.1512 43.6301 31.4412 43.6701 30.4312C43.5501 30.2812 43.2401 30.3412 43.1201 30.1912C42.863 28.7806 42.2503 27.459 41.3401 26.3512C41.3401 25.9212 40.8901 25.9912 41.2701 25.5012C40.805 25.0643 40.5348 24.4591 40.5201 23.8212C40.1734 23.8137 39.8324 23.7319 39.5201 23.5812C38.9301 23.2212 39.1301 22.5012 38.5901 21.9412C38.5901 21.9412 38.8101 21.7612 38.7101 21.7912C38.2001 21.9112 38.1101 21.3612 37.9101 21.1212C37.4816 20.6252 36.9985 20.179 36.4701 19.7912C36.4291 19.4085 36.2516 19.0535 35.9701 18.7912C35.9007 18.4016 35.7319 18.0365 35.4801 17.7312C35.2206 17.3788 35.0119 16.9917 34.8601 16.5812C35.0301 16.0212 35.1601 16.3012 35.3401 16.0012C35.5201 15.7012 34.9901 15.7212 35.3401 15.6112C35.5301 14.9712 35.8901 15.5012 35.8501 15.6112C36.1401 15.6812 36.2101 15.9112 36.3001 16.1112C37.0501 16.4112 37.4101 17.3412 37.7001 18.0412C37.8801 18.4312 38.2901 18.3612 38.2301 18.8012C38.9526 19.15 39.6253 19.594 40.2301 20.1212C40.3401 20.9812 40.9901 20.9712 40.7601 21.7812C41.8701 22.1412 42.2401 22.8912 42.8401 23.9812C43.2873 25.1531 43.8015 26.2983 44.3801 27.4112C44.2601 27.7812 44.8101 28.0512 44.3801 28.4712C44.8901 28.5712 44.8501 29.2712 44.8501 29.6612C45.2801 29.6012 45.0801 29.7412 45.3401 29.7912C45.4994 30.529 46.0063 31.1439 46.7001 31.4412C47.2001 32.0312 47.0801 32.3612 47.7501 32.5512C47.9101 32.8012 47.6601 33.0612 48.0601 33.1012C48.0601 33.2312 48.4201 33.1012 48.1701 33.2912C48.1701 33.6312 48.5001 33.5512 48.1001 33.8912C48.2001 34.1612 48.5901 34.3312 48.1301 34.6212Z" fill="#CCCFDB"/>
<path fill-rule="evenodd" clip-rule="evenodd" d="M60.97 8.07117C61.58 8.32117 61.08 8.41117 61.14 8.57117C61.39 8.74117 61.23 8.88117 61.36 9.02117C61.29 9.17117 61.36 9.39117 61.07 9.41117C61.4 9.68117 61.19 9.87117 61.34 10.1112C61.49 10.3512 61.58 10.3212 61.68 10.4412C61.78 10.5612 61.76 10.6612 61.86 10.7812C62.25 11.2712 62.86 11.9512 62.4 12.6612C62.4 12.8012 62.76 12.8212 62.81 12.9612C62.4727 13.9788 62.5334 15.0865 62.98 16.0612C62.8 16.3712 63.27 16.4112 62.75 16.6912C63.0211 17.0932 63.07 17.6051 62.88 18.0512C63.1725 18.1059 63.4512 18.218 63.7 18.3812C64.14 18.7312 63.7 19.2312 64.06 19.7212C64.06 19.7212 63.79 19.8212 63.9 19.8212C64.4 19.8212 64.32 20.2112 64.44 20.4112C64.7205 20.8358 65.0349 21.2371 65.38 21.6112C65.3045 21.9221 65.3473 22.25 65.5 22.5312C65.26 23.2812 65.72 23.9012 65.18 24.7912C64.65 25.0412 64.78 24.7912 64.45 24.9012C64.12 25.0112 64.45 25.2212 64.15 25.1312C63.55 25.4112 63.75 24.9812 63.87 24.8912C63.73 24.7512 63.87 24.5912 63.87 24.4312C63.52 24.0112 63.64 23.3112 63.64 22.7212C63.64 22.4012 63.22 22.4012 63.43 22.0712C62.84 21.8412 62.43 21.2612 61.92 20.8112C62.07 20.1512 61.45 20.0612 61.92 19.4812C60.99 19.0412 60.87 18.4012 60.69 17.4812C60.83 16.4812 60.45 15.6312 60.5 14.6112C60.75 14.3712 60.35 14.0412 60.92 13.8412C60.49 13.6512 60.79 13.1512 60.92 12.8412C60.51 12.7712 60.74 12.7212 60.53 12.6312C60.675 12.0429 60.4959 11.4219 60.06 11.0012C59.9 10.3512 60.18 10.1712 59.75 9.65117C59.75 9.35117 60.13 9.32117 59.86 9.02117C59.93 8.91117 59.62 8.75117 59.92 8.80117C60.16 8.55117 59.92 8.35117 60.42 8.43117C60.54 8.26117 60.47 7.83117 60.97 8.07117Z" fill="#CCCFDB"/>
<path fill-rule="evenodd" clip-rule="evenodd" d="M86.27 13.1212C86.91 13.2112 86.5 13.2412 86.6 13.3012C86.89 13.3712 86.78 13.4112 86.93 13.4812C86.93 13.4812 87.01 13.6212 86.73 13.6012C87.1 13.7412 86.9 13.7912 87.05 13.9012C87.2 14.0112 87.29 14.0212 87.38 14.0812C87.47 14.1412 87.45 14.1812 87.53 14.2512C87.88 14.5112 88.33 14.9112 87.76 15.0612C87.76 15.1212 88.07 15.2012 88.09 15.2612C87.56 15.6412 87.36 15.8812 87.54 16.3912C87.29 16.4512 87.72 16.5812 87.15 16.5512C87.29 16.7612 87.21 16.9212 86.88 17.0312C87.1161 17.1166 87.3437 17.2237 87.56 17.3512C87.86 17.5812 87.31 17.6412 87.47 17.8912C87.47 17.8912 87.18 17.8912 87.29 17.8912C87.77 18.0112 87.55 18.1312 87.59 18.2212C87.7168 18.4506 87.8641 18.6682 88.03 18.8712C87.85 18.9512 87.77 19.0612 87.8 19.1912C87.29 19.3612 87.45 19.6812 86.6 19.7912C86.03 19.7112 86.24 19.6712 85.9 19.6112C85.56 19.5512 85.77 19.7012 85.54 19.6112C84.88 19.5112 85.23 19.4512 85.38 19.4612C85.32 19.3812 85.47 19.3612 85.59 19.3312C85.44 19.1112 85.83 18.9312 86.05 18.7612C86.27 18.5912 85.78 18.5412 86.05 18.5012C85.6844 18.2776 85.3484 18.0088 85.05 17.7012C85.41 17.5412 84.87 17.3512 85.49 17.2912C84.75 16.9112 84.84 16.6812 84.92 16.3412C85.33 16.0412 85.18 15.6812 85.45 15.3412C85.75 15.3412 85.45 15.1112 86.03 15.1712C85.65 15.0112 86.03 14.9112 86.26 14.8412C85.88 14.7312 86.12 14.7612 85.92 14.6812C86.19 14.5112 86.1 14.3312 85.67 14.0312C85.57 13.7912 85.84 13.7712 85.38 13.5512C85.38 13.4712 85.73 13.5512 85.38 13.3712C85.38 13.3712 85.08 13.2712 85.38 13.3712C85.68 13.4712 85.24 13.2312 85.75 13.2912C85.95 13.1712 85.71 13.0012 86.27 13.1212Z" fill="#CCCFDB"/>
<path fill-rule="evenodd" clip-rule="evenodd" d="M49.9501 194.461C50.5001 194.801 50.1001 194.681 50.1601 194.781C50.3901 194.971 50.2601 194.981 50.3701 195.111C50.3101 195.111 50.3701 195.311 50.1101 195.181C50.3701 195.471 50.1101 195.451 50.2201 195.641C50.3301 195.831 50.3701 195.871 50.4201 195.981C50.4701 196.091 50.4201 196.121 50.4201 196.231C50.5701 196.671 50.7001 197.341 50.0701 197.231C50.0701 197.301 50.2601 197.521 50.2301 197.601C49.4701 197.791 49.1201 197.931 48.8701 198.601C48.6101 198.531 48.8701 198.901 48.4101 198.601C48.4101 198.901 48.1601 199.031 47.8001 198.961C47.9311 199.18 48.032 199.415 48.1001 199.661C48.1001 200.071 47.6401 199.821 47.5501 200.161C47.5501 200.161 47.3501 199.951 47.4201 200.041C47.7001 200.451 47.4201 200.441 47.3601 200.561C47.2555 200.858 47.1719 201.162 47.1101 201.471C46.9235 201.422 46.7249 201.484 46.6001 201.631C46.6001 201.631 46.3901 201.631 46.2701 201.691H45.9201C45.7075 201.716 45.4927 201.716 45.2801 201.691C44.9888 201.652 44.7146 201.531 44.4901 201.341C44.2976 201.186 44.1693 200.965 44.1301 200.721C44.0969 200.528 44.1649 200.332 44.3101 200.201C44.8701 200.201 44.6801 200.371 45.0101 200.301C45.0768 200.214 45.1183 200.11 45.1301 200.001C45.1301 199.781 45.2901 200.171 45.7001 200.071C45.8801 200.071 45.7001 199.701 45.9701 199.861C45.8932 199.422 45.8597 198.977 45.8701 198.531C46.3001 198.601 46.0101 198.101 46.5501 198.411C46.2501 197.621 46.4801 197.471 46.8001 197.181C47.3601 197.131 47.4901 196.681 47.9401 196.491C48.2201 196.611 48.0801 196.261 48.5601 196.601C48.3401 196.251 48.7601 196.341 48.9901 196.371C48.7201 196.071 48.9101 196.221 48.7901 196.041C49.1401 196.041 49.1801 195.741 48.9701 195.241C48.9701 194.951 49.2701 195.041 48.9701 194.621C48.9701 194.521 49.3201 194.701 49.1001 194.441C49.1501 194.441 48.8801 194.211 49.1001 194.381C49.2901 194.381 49.0501 194.181 49.4901 194.451C49.6301 194.391 49.4801 194.151 49.9501 194.461Z" fill="#CCCFDB"/>
<path fill-rule="evenodd" clip-rule="evenodd" d="M55.43 199.531C56.01 199.821 55.61 199.731 55.68 199.821C55.93 199.981 55.81 200.001 55.93 200.111C55.93 200.111 55.93 200.301 55.68 200.191C55.98 200.451 55.77 200.441 55.85 200.611C55.93 200.781 56.03 200.811 56.09 200.911C56.15 201.011 56.09 201.051 56.16 201.151C56.36 201.551 56.57 202.151 55.95 202.151C55.95 202.231 56.17 202.431 56.15 202.501C55.44 202.711 55.15 202.851 54.96 203.501C54.69 203.451 54.96 203.791 54.51 203.501C54.51 203.781 54.32 203.911 53.96 203.841C54.108 204.048 54.2289 204.273 54.32 204.511C54.41 204.911 53.9 204.661 53.85 204.991C53.85 204.991 53.64 204.791 53.7 204.881C54.01 205.271 53.7 205.261 53.7 205.381C53.6194 205.669 53.5625 205.964 53.53 206.261C53.3553 206.213 53.1688 206.276 53.06 206.421C52.53 206.261 52.37 206.651 51.63 206.171C51.28 205.711 51.46 205.831 51.26 205.551C51.06 205.271 51.09 205.551 51.01 205.281C50.6 204.761 50.91 204.951 51.01 205.061C51.01 204.951 51.15 205.061 51.26 205.061C51.33 204.791 51.75 204.901 52.06 204.881C52.37 204.861 52.06 204.531 52.29 204.691C52.1765 204.276 52.1028 203.851 52.07 203.421C52.48 203.491 52.15 203.011 52.7 203.311C52.33 202.561 52.52 202.421 52.79 202.151C53.31 202.101 53.38 201.691 53.79 201.501C54.07 201.611 53.9 201.281 54.4 201.591C54.14 201.271 54.55 201.341 54.78 201.371C54.48 201.101 54.68 201.231 54.54 201.071C54.87 201.011 54.88 200.781 54.6 200.321C54.6 200.051 54.86 200.121 54.52 199.751C54.52 199.661 54.87 199.811 54.62 199.591C54.67 199.591 54.38 199.391 54.62 199.531C54.86 199.671 54.54 199.351 55.01 199.581C55.13 199.481 54.93 199.271 55.43 199.531Z" fill="#CCCFDB"/>
<path fill-rule="evenodd" clip-rule="evenodd" d="M60.8899 205.301C61.1799 205.881 60.9699 205.541 61.0099 205.651C61.0589 205.765 61.099 205.882 61.1299 206.001C61.1299 206.001 61.1299 206.111 60.9899 205.861C61.1399 206.221 60.9899 206.071 61.0699 206.231C61.1499 206.391 61.1599 206.471 61.1899 206.571C61.1939 206.631 61.1939 206.691 61.1899 206.751C61.2899 207.131 61.4099 207.651 61.0899 207.211C61.0899 207.211 61.2099 207.521 61.1999 207.551C60.8399 207.221 60.6699 207.121 60.6299 207.441C60.4899 207.241 60.6299 207.651 60.3899 207.151C60.3899 207.351 60.3299 207.331 60.1299 207.081C60.2499 207.371 60.3499 207.621 60.3899 207.761C60.4799 208.091 60.1899 207.641 60.1999 207.851C60.1999 207.851 60.0699 207.601 60.1099 207.701C60.3199 208.151 60.1799 208.001 60.1799 208.071C60.1778 208.266 60.1945 208.46 60.2299 208.651C60.1099 208.511 60.0499 208.491 60.0199 208.551C59.7299 208.171 59.7199 208.411 59.2699 207.711C59.0099 207.201 59.1199 207.371 58.9699 207.061C58.8199 206.751 58.8799 206.981 58.7899 206.751C58.4899 206.161 58.6799 206.431 58.7899 206.561C58.7899 206.481 58.8599 206.561 58.9199 206.701C58.9199 206.501 59.1499 206.781 59.2999 206.911C59.4499 207.041 59.2199 206.611 59.3899 206.861C59.2801 206.51 59.1899 206.153 59.1199 205.791C59.3499 206.051 59.1199 205.521 59.4499 206.031C59.1799 205.291 59.2799 205.281 59.4499 205.241C59.7299 205.511 59.7499 205.241 59.9699 205.381C60.1899 205.521 60.0299 205.301 60.2999 205.821C60.1599 205.451 60.3899 205.761 60.5099 205.921C60.4487 205.816 60.4048 205.701 60.3799 205.581C60.5599 205.751 60.5599 205.581 60.4299 205.161C60.4299 204.991 60.5799 205.221 60.4299 204.761C60.4299 204.761 60.6099 205.031 60.4899 204.761C60.4899 204.761 60.3699 204.481 60.4899 204.761C60.6099 205.041 60.4899 204.601 60.6999 205.061C60.7199 205.051 60.6399 204.801 60.8899 205.301Z" fill="#CCCFDB"/>
<path fill-rule="evenodd" clip-rule="evenodd" d="M185.43 48.4812C184.92 48.0712 185.43 48.1512 185.43 47.9912C185.25 47.7412 185.43 47.6812 185.43 47.5012C185.56 47.4012 185.61 47.1712 185.87 47.3012C185.73 46.9012 186.02 46.8612 186.07 46.5712C186.07 46.4412 186.07 46.2412 186.07 46.0812C186.07 45.9212 186.18 45.8512 186.21 45.6812C186.32 45.0112 186.59 44.0112 187.45 43.9212C187.54 43.7812 187.39 43.5212 187.45 43.3812C188.534 42.9814 189.469 42.259 190.13 41.3112C190.49 41.3112 190.3 40.8612 190.82 41.1612C191.045 40.6931 191.494 40.3726 192.01 40.3112C191.931 40.0148 191.907 39.7063 191.94 39.4012C192.09 38.8112 192.75 38.9412 193.07 38.4012C193.07 38.4012 193.29 38.6012 193.24 38.5012C193 38.0412 193.45 37.9112 193.61 37.7012C193.77 37.4912 194.21 36.8112 194.61 36.2412C195.003 36.1661 195.375 36.0056 195.7 35.7712C196.153 35.7365 196.604 35.6764 197.05 35.5912C197.533 35.5056 198.029 35.6252 198.42 35.9212C198.56 36.4712 198.33 36.3112 198.42 36.6612C198.51 37.0112 198.73 36.7112 198.58 36.9912C198.74 37.6412 198.41 37.3612 198.33 37.2312C198.19 37.3412 198.05 37.2312 197.91 37.1612C197.51 37.4712 196.84 37.4112 196.24 37.5612C195.91 37.6612 196.03 38.0512 195.65 37.9612C195.487 38.6026 195.276 39.231 195.02 39.8412C194.35 39.9812 194.52 40.5912 193.79 40.4412C193.79 41.4412 193.29 41.8812 192.56 42.5312C191.56 42.9312 191.07 43.7212 190.19 44.2712C189.85 44.2012 189.79 44.7212 189.3 44.3812C189.39 44.8512 188.79 44.9012 188.46 44.9512C188.65 45.3212 188.46 45.1712 188.52 45.4012C187.953 45.6466 187.592 46.2132 187.61 46.8312C187.3 47.3512 186.99 47.2912 187.06 47.9112C186.92 48.0912 186.61 47.9112 186.72 48.2712C186.63 48.2712 186.84 48.5812 186.61 48.3812C186.33 48.4512 186.51 48.7112 186.08 48.3812C185.83 48.4912 185.84 48.8512 185.43 48.4812Z" fill="#CCCFDB"/>
<path fill-rule="evenodd" clip-rule="evenodd" d="M170.01 35.5112C169.41 35.2612 169.93 35.1512 169.91 34.9712C169.68 34.7712 169.91 34.6212 169.8 34.4312C169.92 34.2712 169.94 33.9912 170.24 34.0312C170.02 33.6312 170.33 33.4712 170.34 33.1212C170.34 32.9612 170.24 32.7712 170.23 32.5812C170.22 32.3912 170.32 32.2712 170.32 32.0712C170.32 31.2712 170.44 30.0712 171.32 29.5712C171.4 29.3812 171.18 29.1512 171.26 28.9612C172.347 28.0237 173.174 26.8216 173.66 25.4712C174.04 25.2812 173.75 24.8912 174.36 24.9812C174.494 24.3576 174.877 23.8158 175.42 23.4812C175.26 23.1708 175.168 22.8299 175.15 22.4812C175.15 21.7612 175.88 21.5912 176.09 20.8212C176.09 20.8212 176.35 20.9412 176.28 20.8212C175.93 20.4212 176.35 20.0712 176.46 19.7712C176.57 19.4712 176.8 18.5512 177.06 17.7712C177.457 17.4833 177.796 17.1237 178.06 16.7112C178.57 16.4712 179 16.1112 179.51 15.8412C180.024 15.5241 180.647 15.4337 181.23 15.5912C181.51 16.0912 181.23 16.0112 181.32 16.3412C181.41 16.6712 181.7 16.2812 181.58 16.6112C181.89 17.2012 181.46 17.0312 181.34 16.9312C181.2 17.0912 181.02 17.0412 180.83 17.0412C180.3 17.523 179.731 17.9611 179.13 18.3512C178.81 18.6312 179.05 18.9912 178.61 19.0912C178.624 19.9016 178.563 20.7116 178.43 21.5112C177.76 22.0212 178.08 22.6012 177.29 22.7912C177.53 23.9512 177.08 24.6512 176.45 25.7112C175.67 26.6639 174.952 27.666 174.3 28.7112C173.92 28.7912 173.96 29.4012 173.38 29.2312C173.55 29.7312 172.93 30.0412 172.59 30.2312C172.86 30.5712 172.64 30.4712 172.73 30.7112C172.177 31.2202 171.905 31.9656 172 32.7112C171.76 33.4312 171.42 33.4912 171.59 34.1612C171.46 34.4312 171.11 34.3412 171.28 34.7112C171.18 34.7912 171.46 35.0112 171.17 34.8912C170.88 35.0812 171.12 35.3012 170.61 35.1412C170.45 35.3612 170.51 35.7712 170.01 35.5112Z" fill="#CCCFDB"/>
<path fill-rule="evenodd" clip-rule="evenodd" d="M153.89 8.94118C154.45 8.60118 154.19 8.94118 154.32 9.01118C154.62 8.93118 154.57 9.12118 154.75 9.15118C154.75 9.29118 154.94 9.44118 154.68 9.57118C155.09 9.66118 154.94 9.91118 155.12 10.1212C155.3 10.3312 155.39 10.3012 155.49 10.4212C155.59 10.5412 155.58 10.6612 155.67 10.8112C156.05 11.3712 156.45 12.3412 155.83 12.8912C155.83 13.0512 156.13 13.1612 156.13 13.3112C155.524 14.2302 155.211 15.3108 155.23 16.4112C154.94 16.6212 155.35 16.8612 154.76 16.9112C154.843 17.3991 154.66 17.8942 154.28 18.2112C154.514 18.3974 154.707 18.6286 154.85 18.8912C155.06 19.4412 154.44 19.6812 154.48 20.2912C154.48 20.2912 154.19 20.2912 154.29 20.2912C154.74 20.5412 154.44 20.8712 154.43 21.1112C154.424 21.6454 154.447 22.1796 154.5 22.7112C154.247 22.9346 154.077 23.2381 154.02 23.5712C153.36 24.0512 153.28 24.8512 152.28 25.1612C151.73 24.9912 151.99 24.9012 151.67 24.7512C151.35 24.6012 151.46 24.9912 151.3 24.7512C150.66 24.5512 151.09 24.3812 151.24 24.3912C151.24 24.2012 151.41 24.1512 151.55 24.0712C151.55 23.5412 152.09 23.0712 152.45 22.6212C152.63 22.3512 152.3 22.1212 152.66 21.9812C152.412 21.3769 152.234 20.7461 152.13 20.1012C152.6 19.6412 152.13 19.2512 152.8 19.0112C152.338 18.3457 152.266 17.4844 152.61 16.7512C152.996 15.9268 153.288 15.0613 153.48 14.1712C153.8 14.0312 153.53 13.6112 154.12 13.5912C153.77 13.2912 154.21 12.9212 154.43 12.7012C154.05 12.5312 154.3 12.5412 154.11 12.3912C154.415 11.9103 154.326 11.2789 153.9 10.9012C153.77 10.4312 154.02 10.2712 153.51 10.0612C153.51 9.92118 153.8 9.80118 153.51 9.76118C153.51 9.70118 153.19 9.76118 153.51 9.67118C153.62 9.49118 153.31 9.57118 153.78 9.34118C153.69 9.22118 153.4 9.20118 153.89 8.94118Z" fill="#CCCFDB"/>
<path fill-rule="evenodd" clip-rule="evenodd" d="M128.41 13.4312C129.05 13.3012 128.67 13.4312 128.79 13.4912C129.08 13.4912 128.99 13.4912 129.16 13.4912C129.16 13.5612 129.28 13.6112 129.01 13.6812C129.4 13.6812 129.23 13.8012 129.41 13.8612C129.59 13.9212 129.67 13.8612 129.78 13.9212C129.89 13.9812 129.88 13.9912 129.98 14.0312C130.39 14.1612 130.98 14.3912 130.46 14.7212C130.46 14.7712 130.8 14.7212 130.84 14.8012C130.47 15.3312 130.35 15.6212 130.69 16.0512C130.47 16.1912 130.92 16.1712 130.37 16.3312C130.58 16.4712 130.55 16.6612 130.28 16.8712C130.529 16.8681 130.777 16.895 131.02 16.9512C131.39 17.0712 130.88 17.3012 131.11 17.4812C131.11 17.4812 130.83 17.5412 130.94 17.5312C131.44 17.5312 131.27 17.6712 131.34 17.7512C131.533 17.9295 131.744 18.087 131.97 18.2212C131.82 18.3512 131.79 18.4812 131.85 18.6012C131.43 18.9312 131.69 19.1812 130.92 19.6012C130.682 19.6429 130.441 19.663 130.2 19.6612C129.87 19.6612 130.11 19.7912 129.85 19.7612C129.2 19.8812 129.51 19.7612 129.65 19.6712C129.56 19.6112 129.65 19.5412 129.8 19.4812C129.59 19.3212 129.9 19.0312 130.05 18.7812C130.2 18.5312 129.72 18.6712 130.05 18.5312C129.646 18.4333 129.257 18.2855 128.89 18.0912C129.17 17.8212 128.6 17.8212 129.16 17.5612C128.34 17.4412 128.35 17.2012 128.31 16.8512C128.61 16.4312 128.31 16.1412 128.49 15.7412C128.76 15.6112 128.41 15.5312 128.98 15.3912C128.57 15.3912 128.92 15.1312 129.09 15.0012C128.69 15.0012 128.93 15.0012 128.72 15.0012C128.92 14.7512 128.78 14.6112 128.27 14.4712C128.09 14.2812 128.34 14.1712 127.84 14.1112C127.84 14.0312 128.15 13.9512 127.84 13.9312C127.84 13.9312 127.53 13.9312 127.84 13.8712C127.98 13.7612 127.67 13.7912 128.17 13.6812C128.13 13.5812 127.86 13.5212 128.41 13.4312Z" fill="#CCCFDB"/>
<path fill-rule="evenodd" clip-rule="evenodd" d="M165.02 195.501C165.54 195.111 165.29 195.441 165.41 195.421C165.53 195.401 165.63 195.421 165.79 195.351C165.95 195.281 165.97 195.431 165.79 195.631C166.15 195.481 166.07 195.631 166.26 195.631C166.388 195.608 166.515 195.578 166.64 195.541C166.76 195.541 166.78 195.541 166.89 195.541C167.35 195.541 167.99 195.491 167.77 196.061C167.84 196.061 168.09 195.931 168.16 195.971C168.16 196.701 168.28 197.071 168.88 197.311C168.8 197.571 169.16 197.311 168.81 197.761C169.1 197.761 169.22 197.991 169.16 198.351C169.373 198.209 169.601 198.092 169.84 198.001C170.23 197.901 170 198.421 170.33 198.451C170.33 198.451 170.15 198.681 170.23 198.601C170.6 198.271 170.61 198.531 170.73 198.601C171.016 198.638 171.305 198.638 171.59 198.601C171.566 198.774 171.66 198.941 171.82 199.011C171.82 199.111 171.74 199.081 171.69 199.101C171.65 199.094 171.61 199.094 171.57 199.101L171.43 199.231C171.38 199.291 171.31 199.331 171.14 199.521C171.027 199.64 170.963 199.797 170.96 199.961C170.96 200.131 171.06 200.231 171.17 200.241C171.74 200.161 171.55 200.241 171.88 200.301C172.21 200.361 171.99 199.921 172.24 200.191C172.57 200.191 172.68 200.251 172.6 200.511C172.52 200.771 172.22 200.921 172.14 200.881C171.83 201.241 171.6 201.061 171.48 200.981C171.252 201.074 170.989 201.01 170.83 200.821C170.741 200.74 170.675 200.637 170.64 200.521L170.57 200.261C170.5 200.101 170.21 200.371 170.3 200.051C169.878 200.229 169.428 200.33 168.97 200.351C168.97 199.901 168.48 200.241 168.72 199.651C167.94 200.001 167.72 199.741 167.39 199.371C167.3 198.771 166.83 198.591 166.65 198.061C166.8 197.801 166.42 197.871 166.83 197.441C166.44 197.601 166.59 197.181 166.66 196.961C166.31 197.161 166.49 196.961 166.29 197.081C166.29 196.721 166.07 196.621 165.51 196.661C165.22 196.511 165.38 196.291 164.87 196.411C164.78 196.331 165.05 196.101 164.73 196.211C164.73 196.151 164.43 196.331 164.68 196.141C164.74 195.951 164.46 196.141 164.87 195.781C164.84 195.781 164.56 195.811 165.02 195.501Z" fill="#CCCFDB"/>
<path fill-rule="evenodd" clip-rule="evenodd" d="M159.44 200.401C160 200.081 159.71 200.401 159.83 200.401C160.1 200.281 160.05 200.401 160.21 200.351C160.37 200.301 160.37 200.441 160.15 200.611C160.52 200.491 160.41 200.671 160.6 200.671C160.728 200.659 160.855 200.639 160.98 200.611C161.1 200.611 161.11 200.611 161.22 200.611C161.67 200.611 162.28 200.611 161.99 201.131C162.05 201.131 162.31 201.021 162.37 201.051C162.28 201.731 162.37 202.051 162.89 202.311C162.78 202.551 163.16 202.311 162.77 202.741C163.04 202.741 163.13 202.961 163.03 203.301C163.245 203.168 163.473 203.057 163.71 202.971C164.09 202.881 163.82 203.361 164.13 203.391C164.13 203.391 163.94 203.611 164.02 203.541C164.4 203.211 164.38 203.461 164.49 203.541C164.759 203.577 165.031 203.577 165.3 203.541C165.3 203.741 165.3 203.871 165.47 203.921C165.38 204.451 165.75 204.471 165.47 205.301C165.14 205.781 165.2 205.561 164.98 205.841C164.76 206.121 164.98 206.011 164.81 206.151C164.43 206.701 164.51 206.341 164.58 206.211C164.47 206.211 164.52 206.071 164.58 205.951C164.28 205.951 164.28 205.491 164.21 205.191C164.14 204.891 163.86 205.291 163.97 204.991C163.562 205.156 163.13 205.251 162.69 205.271C162.69 204.851 162.23 205.161 162.51 204.601C161.73 204.931 161.51 204.661 161.27 204.311C161.27 203.731 160.81 203.541 160.7 203.041C160.87 202.791 160.49 202.851 160.94 202.461C160.55 202.591 160.74 202.201 160.83 202.001C160.47 202.181 160.66 202.001 160.47 202.101C160.47 201.751 160.31 201.651 159.76 201.671C159.49 201.511 159.68 201.311 159.17 201.401C159.1 201.311 159.38 201.111 159.06 201.201C159.06 201.141 158.76 201.291 159.06 201.131C159.15 200.951 158.85 201.081 159.29 200.801C159.23 200.661 158.95 200.671 159.44 200.401Z" fill="#CCCFDB"/>
<path fill-rule="evenodd" clip-rule="evenodd" d="M154.79 207.001C155.07 206.411 154.93 206.791 154.99 206.701C155.13 206.431 155.11 206.541 155.19 206.401C155.19 206.401 155.28 206.331 155.19 206.581C155.38 206.251 155.33 206.431 155.43 206.301C155.53 206.171 155.57 206.091 155.63 206.001C155.69 205.911 155.7 205.941 155.76 205.871C156 205.561 156.34 205.151 156.18 205.671C156.18 205.671 156.36 205.391 156.39 205.381C156.39 205.871 156.39 206.061 156.65 205.901C156.57 206.141 156.79 205.741 156.56 206.271C156.7 206.131 156.74 206.211 156.66 206.521C156.778 206.31 156.908 206.107 157.05 205.911C157.26 205.631 157.05 206.141 157.23 206.001C157.23 206.001 157.11 206.261 157.16 206.161C157.4 205.731 157.36 205.921 157.42 205.891C157.575 205.775 157.72 205.645 157.85 205.501C157.85 205.671 157.85 205.741 157.9 205.721C157.77 206.191 157.97 206.051 157.68 206.831C157.43 207.351 157.5 207.151 157.34 207.461C157.18 207.771 157.34 207.581 157.19 207.791C156.9 208.381 157.01 208.061 157.07 207.931C157.01 207.991 157.07 207.851 157.07 207.741C156.92 207.871 157 207.511 157.01 207.311C157.02 207.111 156.82 207.551 156.92 207.261C156.705 207.563 156.472 207.85 156.22 208.121C156.29 207.791 156 208.281 156.22 207.721C155.78 208.381 155.72 208.301 155.61 208.221C155.61 207.831 155.43 207.971 155.4 207.711C155.37 207.451 155.31 207.711 155.55 207.191C155.34 207.521 155.46 207.191 155.55 206.961C155.36 207.311 155.46 207.091 155.35 207.271C155.35 207.021 155.28 207.101 154.99 207.491C154.85 207.581 154.99 207.331 154.68 207.741C154.68 207.741 154.79 207.421 154.62 207.741C154.62 207.741 154.47 208.001 154.62 207.741C154.77 207.481 154.51 207.861 154.73 207.391C154.69 207.251 154.54 207.461 154.79 207.001Z" fill="#CCCFDB"/>
</svg>
