<svg width="216" height="216" viewBox="0 0 216 216" fill="none" xmlns="http://www.w3.org/2000/svg">
<g clip-path="url(#clip0_141_6848)">
<path d="M170.374 26.7389L91.472 5.5973C84.0695 3.6138 76.4607 8.00677 74.4772 15.4093L33.1065 169.807C31.123 177.209 35.516 184.818 42.9185 186.801L121.82 207.943C129.223 209.927 136.832 205.534 138.815 198.131L180.186 43.7338C182.169 36.3313 177.776 28.7224 170.374 26.7389Z" fill="#2F326A" stroke="#979797" stroke-width="0.533702"/>
<path fill-rule="evenodd" clip-rule="evenodd" d="M173.886 25.1159C176.613 25.9702 179.187 27.5718 181.23 29.7908C182.215 30.857 182.239 34.8609 181.778 34.392C181.985 34.9863 181.774 35.7135 181.8 36.3806C181.837 38.0448 181.477 39.7351 180.795 41.3573C180.835 43.795 180.813 43.9006 180.385 45.9079C179.664 49.2885 178.89 52.6577 178.276 56.0611C178.104 57.1289 177.955 58.091 177.73 59.1475C177.55 59.9926 177.392 60.7321 177.234 61.4716C176.105 65.9803 174.976 70.4889 173.771 75.0919C173.334 76.8765 172.844 78.6497 172.269 80.2946C172.004 81.0114 171.847 81.7509 171.689 82.4904C171.329 84.1807 170.968 85.8711 170.554 87.55C169.569 91.6474 168.476 95.7222 167.437 99.8082C167.113 101.065 166.767 102.427 166.496 103.694C165.894 105.996 165.429 108.437 164.719 110.716C164.576 111.127 164.508 111.444 164.44 111.761C164.371 112.022 164.302 112.277 164.235 112.528L163.832 114.023L163.627 114.79C163.504 115.234 163.38 115.684 163.255 116.137L162.505 118.869L162.134 120.216C161.238 123.891 160.365 127.46 159.515 130.923C158.664 134.387 157.783 137.734 156.879 141.185C156.6 142.23 156.245 143.37 155.966 144.415C155.566 145.766 155.135 146.999 154.843 148.373C154.181 151.214 153.412 154.032 152.643 156.85C152.108 158.835 151.542 160.702 150.976 162.57C150.145 165.154 149.314 167.739 148.621 170.463C148.455 170.98 148.311 171.391 148.145 171.908C147.638 173.236 147.207 174.469 146.967 175.854C146.886 176.499 146.72 177.016 146.531 177.639C145.452 181.385 144.351 185.237 143.218 188.972C142.109 192.602 140.976 196.337 139.866 199.966C139.678 200.589 139.512 201.106 139.376 201.739C138.94 203.524 138.312 205.158 137.768 206.919C137.602 207.436 137.266 207.696 136.976 207.745C136.686 207.794 136.516 207.538 136.37 207.175C136.29 206.969 136.229 206.754 136.187 206.529C132.975 209.892 130.356 211.619 128.327 211.71C126.642 211.8 124.892 211.606 123.292 211.168C121.775 210.771 120.248 210.372 118.722 209.972L109.633 207.537C103.633 205.901 97.7962 204.251 92.401 202.635C87.3039 201.307 84.8183 201.021 79.7299 199.695C69.4215 196.8 60.2053 194.207 51.5272 191.777C49.3516 191.175 47.2221 190.576 45.1077 189.991C44.0505 189.698 43.0021 189.408 41.9536 189.117C41.4155 188.954 40.8582 188.757 40.3136 188.583C39.7857 188.346 39.2554 188.119 38.741 187.867C34.639 185.733 31.6683 181.793 30.6353 177.346C30.1332 175.122 30.1044 172.778 30.573 170.539C30.7981 169.383 31.1102 168.394 31.3864 167.328C31.669 166.273 31.9515 165.219 32.2429 164.167L33.2217 160.513C34.0426 157.447 34.8767 154.327 35.727 151.129C38.079 142.175 40.595 132.611 43.4155 121.874C44.88 117.008 45.7892 113.293 46.6598 110.021L46.8864 109.177C47.5655 106.673 48.2486 104.404 49.1832 102.03C53.316 85.7658 57.7487 69.4678 62.0304 54.9244C63.2528 48.9263 64.4501 43.197 66.0479 36.5681C67.0273 32.528 68.0204 28.6815 69.039 24.8798C69.5583 22.9769 70.0728 21.0917 70.5834 19.1864C70.8462 18.2406 71.1114 17.2859 71.379 16.3223C71.5072 15.8437 71.633 15.3741 71.824 14.8364C71.9904 14.3206 72.1591 13.7959 72.3956 13.2989C74.1229 9.26919 77.5986 5.85995 82.0876 4.30837C84.3274 3.5503 86.8065 3.2648 89.3136 3.57565C89.9511 3.61348 90.5569 3.80431 91.1929 3.91773C91.8042 4.05304 92.3599 4.22093 92.949 4.36928C94.1248 4.67483 95.3204 4.97621 96.54 5.29349C95.9597 5.14749 97.3867 5.88129 98.2694 5.98482C100.758 6.27329 106.554 7.7628 112.491 9.34816L114.527 9.89382C115.544 10.1669 116.553 10.439 117.541 10.7047L118.52 10.9681C118.682 11.0115 118.843 11.0548 119.003 11.0977L119.953 11.3523C121.205 11.687 122.393 12.002 123.48 12.2841C132.306 14.5294 146.912 18.2526 161.853 22.0549L163.578 22.4939C164.153 22.6403 164.728 22.7868 165.304 22.9331L167.029 23.3721C169.328 23.957 171.62 24.54 173.886 25.1159ZM167.839 26.003C158.745 23.9713 145.959 20.795 132.71 17.508L130.72 17.0143C129.059 16.6023 127.393 16.1895 125.729 15.7777L123.733 15.2843C119.745 14.299 115.78 13.3246 111.927 12.3892C106.953 10.9519 102.669 9.77564 98.8359 8.73907C96.9182 8.22522 95.1032 7.74839 93.3781 7.28616C92.5088 7.06273 91.6682 6.83748 90.8363 6.61458C90.0562 6.44355 89.3247 6.26652 88.5663 6.22477C87.0724 6.09044 85.598 6.19878 84.1765 6.53022C82.7677 6.88408 81.4142 7.4522 80.1445 8.23274C77.621 9.76959 75.4433 12.1874 74.2035 15.4834C74.0174 16.1079 73.8641 16.8552 73.7028 17.5623L73.2164 19.6925L72.2263 23.9482C71.5413 26.785 70.865 29.6241 70.1728 32.4875C68.7686 38.2184 67.2898 44.0528 65.7063 50.1726C63.8538 57.311 61.8543 64.8431 59.6558 73.0604L57.7213 80.2783C56.7285 83.978 55.6965 87.8188 54.621 91.8237C50.0655 107.984 45.8213 123.649 41.5613 139.442C39.4345 147.345 37.2918 155.271 35.1294 163.306C34.5817 165.316 34.0403 167.336 33.4901 169.354L33.2859 170.116L33.1294 170.806L32.9752 171.486L32.891 172.186L32.8156 172.887L32.8063 173.588C32.7752 174.054 32.8188 174.522 32.8624 174.989C33.037 176.86 33.6015 178.711 34.5397 180.359C35.4866 182.009 36.7786 183.457 38.3391 184.568C38.4953 184.686 38.649 184.812 38.8116 184.942C38.9876 185.055 39.166 185.16 39.3508 185.276C39.5355 185.392 39.7203 185.508 39.9139 185.626C40.1098 185.736 40.3216 185.821 40.5286 185.924C40.738 186.018 40.9538 186.123 41.1696 186.229C41.4013 186.31 41.633 186.391 41.8671 186.463C42.3105 186.629 42.8598 186.786 43.4115 186.934C45.6158 187.534 47.9666 188.183 50.2299 188.808C54.75 190.048 58.8793 191.24 60.6431 192.083C69.5081 193.955 84.2471 198.389 92.8545 200.942C97.1398 201.587 97.6943 202.039 101.918 202.915C106.645 204.257 111.134 205.508 115.508 206.698C117.697 207.285 119.868 207.867 122.012 208.451C123.082 208.728 124.187 209.053 125.178 209.242C126.195 209.439 127.244 209.482 128.271 209.434C130.337 209.323 132.4 208.736 134.218 207.694C134.902 207.311 135.55 206.865 136.161 206.364C136.062 205.712 136.109 204.984 136.281 204.175C136.642 202.485 136.948 200.783 137.416 199.116C138.531 194.935 139.677 190.872 140.846 186.703C142.114 182.334 143.435 177.976 144.702 173.607C146.181 168.51 147.691 163.53 149.147 158.539C150.015 155.52 150.905 152.397 151.719 149.367C152.442 146.76 153.09 144.247 153.814 141.64C154.394 139.444 154.952 137.355 155.532 135.159C155.699 134.504 155.866 133.856 156.031 133.211L157.021 129.356L157.52 127.409C158.424 123.957 159.306 120.61 160.21 117.158C160.903 114.434 161.626 111.827 162.297 109.209C163.102 105.956 163.961 102.715 164.766 99.4632C165.549 96.3166 166.332 93.17 167.093 90.129C167.695 87.8275 168.275 85.6317 168.825 83.3189C169.683 80.0779 170.542 76.837 171.348 73.5848C172.131 70.4381 172.883 67.1745 173.719 64.0393C175.181 58.4969 176.504 52.8148 178.019 47.2837C179.112 43.209 180.205 39.1343 181.267 34.9426C181.365 34.7427 181.464 34.5427 181.563 34.3428C181.563 34.3428 181.674 34.2992 181.738 34.3356L181.718 34.3096C180.688 32.5139 179.419 31.1575 178.042 30.0953C176.665 29.0331 175.16 28.2403 173.488 27.6877C171.786 27.1746 169.914 26.6636 167.839 26.003Z" fill="#2F326A"/>
<path fill-rule="evenodd" clip-rule="evenodd" d="M127.847 212.588C130.636 213.212 133.666 213.112 136.545 212.212C137.931 211.781 139.954 208.326 139.32 208.501C139.796 208.09 139.977 207.355 140.333 206.79C141.197 205.367 141.73 203.723 141.951 201.977C143.205 199.886 143.238 199.784 143.871 197.831C144.937 194.543 145.951 191.238 147.121 187.984C147.507 186.973 147.859 186.066 148.192 185.038C148.458 184.216 148.691 183.497 148.925 182.777C150.201 178.308 151.477 173.839 152.735 169.25C153.249 167.486 153.711 165.706 154.036 163.994C154.165 163.241 154.398 162.521 154.632 161.802C155.165 160.158 155.698 158.514 156.179 156.853C157.374 152.812 158.465 148.736 159.608 144.678C159.956 143.428 160.337 142.075 160.736 140.842C161.365 138.548 162.184 136.202 162.708 133.873C162.789 133.445 162.889 133.137 162.989 132.829C163.06 132.568 163.128 132.313 163.195 132.061L163.594 130.565L163.799 129.798C163.915 129.353 164.032 128.901 164.151 128.446L164.867 125.705L165.219 124.353C166.281 120.723 167.31 117.195 168.305 113.771C169.3 110.346 170.21 107.007 171.153 103.566C171.434 102.521 171.696 101.357 171.978 100.312C172.307 98.9427 172.55 97.6588 172.983 96.323C173.831 93.5318 174.574 90.7066 175.317 87.8814C175.846 85.8951 176.289 83.9947 176.733 82.0943C177.305 79.4407 177.878 76.7871 178.64 74.0816C178.755 73.5509 178.836 73.1229 178.95 72.5922C179.175 71.1886 179.419 69.9047 179.904 68.5859C180.156 67.9863 180.27 67.4556 180.418 66.8221C181.357 63.0382 182.329 59.1516 183.216 55.3507C184.07 51.6527 184.957 47.8518 185.81 44.1537C185.958 43.5202 186.073 42.9895 186.272 42.373C186.787 40.6093 187.059 38.8804 187.47 37.0828C187.584 36.552 187.424 36.159 187.197 35.9714C186.969 35.7839 186.695 35.9216 186.386 36.162C186.215 36.3007 186.054 36.4568 185.905 36.63C184.805 32.1119 183.4 29.3066 181.689 28.2136C180.274 27.2932 178.662 26.5857 177.057 26.1652C175.545 25.7504 174.023 25.3332 172.502 24.9161L163.413 22.4806C157.398 20.8976 151.519 19.4077 146.038 18.1101C140.96 16.7114 138.664 15.7164 133.595 14.32C123.22 11.6731 113.942 9.31051 105.212 7.07572C103.027 6.5092 100.883 5.96328 98.7591 5.41319C97.6971 5.13814 96.644 4.86545 95.5908 4.59275C95.0431 4.465 94.4621 4.35678 93.9033 4.23555C93.3279 4.17634 92.7548 4.10829 92.1834 4.06915C87.5637 3.8666 83.0212 5.79324 79.9034 9.12744C78.3565 10.8025 77.1594 12.8182 76.4456 14.9919C76.0628 16.1051 75.8383 17.1182 75.5446 18.1793C75.262 19.2338 74.9795 20.2884 74.7057 21.3453L73.7264 24.9991C72.9045 28.0644 72.0668 31.1836 71.204 34.3785C68.7644 43.3082 66.1609 52.8494 63.2352 63.558C62.0706 68.504 61.0002 72.1764 60.1184 75.4449L59.8928 76.289C59.2289 78.7971 58.6857 81.1042 58.3082 83.6272C53.7551 99.7789 49.445 116.11 45.8814 130.845C43.9409 136.651 42.1131 142.212 40.1825 148.751C39.0106 152.74 37.9474 156.568 36.9287 160.369C36.427 162.277 35.93 164.167 35.4194 166.072C35.1741 167.023 34.9264 167.982 34.6764 168.95C34.5482 169.429 34.4223 169.898 34.3189 170.46C34.2051 170.989 34.0889 171.528 34.0451 172.077C33.5262 176.43 34.8316 181.121 37.9434 184.709C39.5041 186.485 41.5083 187.972 43.8349 188.956C44.4059 189.242 45.026 189.38 45.6335 189.6C46.2306 189.788 46.7958 189.921 47.3801 190.087C48.5511 190.41 49.7373 190.747 50.9521 191.082C50.3765 190.918 51.9793 190.996 52.7954 191.348C55.0946 192.342 60.8589 193.95 66.7934 195.546L68.8298 196.092C69.8464 196.363 70.857 196.632 71.8449 196.896L72.8246 197.158C72.9864 197.201 73.1475 197.244 73.3077 197.287L74.2578 197.541C75.5092 197.877 76.6958 198.199 77.7781 198.498C86.5447 200.967 101.055 205.045 115.895 209.222L117.609 209.705C118.18 209.866 118.752 210.026 119.323 210.187L121.037 210.67C123.32 211.313 125.597 211.954 127.847 212.588ZM123.053 208.796C114.162 206.009 101.501 202.367 88.3835 198.589L86.4128 198.021C84.7684 197.548 83.1195 197.072 81.4725 196.597L79.4974 196.026C75.5508 194.885 71.6302 193.747 67.8251 192.63C62.7989 191.388 58.501 190.265 54.6632 189.246C52.7455 188.732 50.9352 188.238 49.2102 187.775C48.3456 187.534 47.505 187.309 46.6731 187.086C45.912 186.844 45.1899 186.632 44.5123 186.289C43.1514 185.658 41.9287 184.827 40.8634 183.829C39.8203 182.818 38.9321 181.65 38.2228 180.339C36.8058 177.746 36.1288 174.563 36.7031 171.089C36.8541 170.455 37.095 169.731 37.3089 169.038L37.9528 166.95L39.2232 162.77C40.0483 159.97 40.8822 157.173 41.7145 154.348C43.3639 148.682 45.0003 142.89 46.6889 136.799C48.6538 129.69 50.6882 122.168 52.8928 113.952L54.8265 106.734C55.8166 103.033 56.8432 99.1912 57.9143 95.1851C62.0494 78.9119 66.2061 63.2238 70.4136 47.4163C72.5228 39.5093 74.6305 31.5734 76.7754 23.5335C77.3057 21.5195 77.847 19.4991 78.3797 17.4763L78.5839 16.7142L78.793 16.0388L78.9997 15.3724L79.2765 14.7247L79.562 14.0794L79.9041 13.4682C80.1104 13.0486 80.382 12.6654 80.6536 12.2823C81.74 10.7498 83.1545 9.42868 84.7908 8.47093C86.4359 7.51552 88.2787 6.90756 90.1859 6.72523C90.38 6.70127 90.5765 6.66844 90.7818 6.63796C90.9911 6.62755 91.198 6.626 91.416 6.61793C91.634 6.60986 91.852 6.60181 92.0788 6.59609C92.3032 6.59924 92.5293 6.63129 92.7601 6.64564C92.9885 6.66886 93.228 6.68556 93.4676 6.70226C93.7087 6.74788 93.9499 6.7935 94.1887 6.84799C94.656 6.9257 95.21 7.06466 95.7617 7.21248C97.9707 7.7949 100.331 8.40835 102.604 8.99833C107.138 10.1848 111.31 11.2172 113.259 11.369C121.873 14.1804 136.854 17.7102 145.585 19.8027C149.618 21.3868 150.325 21.2722 154.42 22.626C159.185 23.8268 163.698 24.9885 168.081 26.144C170.27 26.7306 172.442 27.3125 174.59 27.8785C175.656 28.1736 176.775 28.445 177.728 28.7763C178.707 29.1147 179.637 29.6014 180.502 30.1561C182.236 31.2856 183.729 32.8253 184.783 34.6368C185.183 35.3108 185.521 36.0209 185.8 36.76C185.388 37.2754 185.065 37.9295 184.81 38.7159C184.277 40.3599 183.692 41.987 183.263 43.665C182.138 47.8429 181.099 51.9351 180.027 56.13C178.94 60.5473 177.906 64.9816 176.819 69.399C175.551 74.5526 174.368 79.6204 173.134 84.6712C172.376 87.7189 171.585 90.8693 170.775 93.9C170.098 96.5197 169.403 99.0197 168.726 101.639C168.131 103.831 167.569 105.92 166.973 108.111C166.791 108.762 166.611 109.406 166.432 110.047L165.362 113.881L164.82 115.817C163.877 119.259 162.967 122.597 162.024 126.039C161.262 128.745 160.585 131.364 159.857 133.967C158.928 137.186 158.051 140.423 157.123 143.642C156.227 146.758 155.332 149.875 154.47 152.889C153.841 155.183 153.246 157.375 152.565 159.652C151.688 162.888 150.812 166.125 149.883 169.344C148.988 172.46 148.007 175.663 147.164 178.796C145.659 184.327 143.964 189.909 142.51 195.457C141.419 199.532 140.328 203.607 139.152 207.768C139.138 207.991 139.123 208.213 139.108 208.436C139.108 208.436 139.183 208.529 139.257 208.53L139.227 208.542C137.437 209.582 135.659 210.122 133.936 210.354C132.213 210.586 130.513 210.52 128.788 210.162C127.057 209.755 125.181 209.262 123.053 208.796Z" fill="#2F326A"/>
<path d="M166.27 31.004L92.316 11.1882C84.9135 9.20474 77.3047 13.5977 75.3212 21.0002L36.3843 166.315C34.4008 173.717 38.7937 181.326 46.1962 183.31L120.15 203.125C127.552 205.109 135.161 200.716 137.145 193.313L176.082 47.9989C178.065 40.5964 173.672 32.9875 166.27 31.004Z" fill="#00D9F5"/>
<path d="M94.8093 38.8403C94.6762 38.8046 94.459 38.8176 94.3264 38.7821C94.2601 38.7643 94.1448 38.6622 94.0963 38.578L94.1319 38.4452C94.3179 38.2815 94.4381 38.1001 94.6063 38.0028C95.5814 37.552 96.5694 37.3183 97.6064 37.169C98.1912 37.1121 98.776 37.0553 99.4271 37.0161C100.664 36.9202 101.948 36.9084 103.192 37.313C103.392 37.3664 103.591 37.4199 103.857 37.4911C105.287 37.732 106.73 39.2576 107.002 40.897C107.195 42.3015 106.875 43.4973 105.757 44.4794C104.742 45.3464 103.811 46.165 102.468 46.6596C101.444 47.0259 100.566 47.6452 99.5736 48.1623C99.3386 48.2417 99.3159 48.5916 99.4975 48.7115C99.6123 48.8135 99.7276 48.9155 99.9092 49.0354C100.55 49.5633 101.21 50.0248 101.834 50.6191C103.312 52.012 103.983 53.7582 103.932 55.8093C103.935 56.5933 103.559 57.2043 103.132 57.7308C101.722 59.2753 100.104 60.2657 98.0172 60.3474C95.9125 60.4954 93.8488 60.2273 91.8607 59.4098C91.1477 59.1475 90.6212 58.7217 90.112 58.2292C89.8997 57.9587 89.8254 57.4405 90.047 57.1438C90.0648 57.0774 90.1489 57.0287 90.1489 57.0287C90.3532 56.7987 90.5748 56.5021 90.8454 56.2898C91.0497 56.0597 91.2842 55.9802 91.5499 56.0514C91.683 56.087 91.8824 56.1405 92.015 56.176C93.3435 56.532 94.6947 56.538 96.0815 56.4112C97.6187 56.2535 98.7496 55.4886 99.7033 54.3201C100.027 53.9086 100.019 53.4079 99.7936 52.9204C99.5684 52.4328 99.1923 51.976 98.7806 51.6521C98.2363 51.2927 97.692 50.9333 97.0275 50.7552C95.8984 50.4527 95.0621 49.5878 94.1902 48.8558C94.0754 48.7538 93.9779 48.5853 93.9472 48.4347C93.8675 48.1997 93.7705 48.0313 93.908 47.7834C94.0633 47.469 94.3032 47.1061 94.4585 46.7917C94.6138 46.4773 94.8844 46.265 95.2035 46.137C97.0696 45.2842 98.7411 44.0945 100.395 42.9713C101.255 42.4185 102 41.7637 102.515 40.9049C102.617 40.7898 102.471 40.5373 102.338 40.5016C101.94 40.3949 101.589 40.3722 101.222 40.4161C100.535 40.5881 99.7993 40.6758 99.1611 40.9319C98.2879 41.2676 97.384 41.4526 96.4009 41.4027C96.2193 41.2829 95.8873 41.1939 95.7235 41.0076C94.4711 40.1025 94.3024 40.1997 94.8093 38.8403Z" fill="#2F326A"/>
<path opacity="0.2" fill-rule="evenodd" clip-rule="evenodd" d="M166.851 86.0061C150.973 136.757 136.838 168.016 124.447 179.784C112.056 191.552 91.1479 193.574 61.7219 185.851C101.231 205.47 125.267 211.046 133.83 202.579C142.394 194.112 153.401 155.254 166.851 86.0061Z" fill="#2F326A"/>
<path d="M128.608 60.1984C128.776 60.1011 129.011 60.0216 129.131 59.8401C129.947 58.9196 130.781 57.9327 131.597 57.0123C131.801 56.7822 131.873 56.5165 131.992 56.335C132.232 55.9721 132.357 55.507 132.596 55.144C133.315 54.0552 134.034 52.9662 134.82 51.895C135.263 51.302 135.574 50.6732 135.951 50.0623C136.071 49.8808 135.992 49.646 135.925 49.6282C135.775 49.659 135.575 49.6056 135.473 49.7206C135.101 50.0481 134.728 50.3754 134.356 50.7028C133.983 51.0302 133.611 51.3575 133.238 51.685C132.697 52.1095 131.913 52.1131 131.386 51.6871C130.993 51.2969 130.599 50.9066 130.205 50.5162C129.975 50.3122 129.98 50.0287 130.135 49.7143C130.171 49.5814 130.189 49.515 130.291 49.3999C131.484 47.8686 132.842 46.5236 134.672 45.8037C135.629 45.4194 136.582 45.3186 137.583 45.302C138.734 45.2546 139.987 46.1599 140.505 47.1529C141.278 48.784 141.001 50.3474 140.224 51.9192C139.949 52.4151 139.691 52.8444 139.349 53.3224C137.33 56.3413 135.014 59.1383 132.65 61.8512C131.528 63.1168 130.388 64.4488 129.217 65.6303C129.115 65.7454 129.013 65.8603 128.959 66.0596C128.839 66.2411 128.901 66.5425 129.101 66.5959C129.366 66.6671 129.632 66.7383 129.898 66.8095C130.929 66.9435 131.908 67.277 132.869 67.6768C133.715 67.9746 134.458 68.3875 135.166 68.9332C135.325 69.403 135.334 69.9037 135.143 70.3509C134.602 70.7755 133.933 70.881 133.251 70.7694C132.02 70.582 130.722 70.3766 129.49 70.1891C128.326 70.0194 127.227 69.8674 126.045 69.7642C124.862 69.6608 124.057 68.9467 123.287 68.0996C122.91 67.6428 122.836 67.1245 122.912 66.5752C122.965 66.3759 123.085 66.1945 123.205 66.013C123.307 65.8979 123.476 65.8007 123.626 65.7698C124.486 65.2171 125.346 64.6643 125.83 63.6549C125.968 63.4069 126.221 63.2611 126.407 63.0975C127.17 62.3763 127.933 61.6551 128.332 60.6942C128.554 60.3977 128.59 60.2648 128.608 60.1984Z" fill="#2F326A"/>
<path d="M151.578 52.3827C150.934 53.99 150.307 55.531 149.663 57.1383C149.383 57.9176 149.103 58.697 148.756 59.4585C148.076 61.1987 147.397 62.9389 146.717 64.6791C146.645 64.9448 146.508 65.1927 146.437 65.4584C145.716 67.615 144.912 69.8202 144.192 71.9768C143.983 72.4904 143.84 73.0218 143.565 73.5176C143.428 73.7656 143.29 74.0135 143.104 74.1772C142.815 74.4559 142.496 74.584 142.08 74.5437C141.132 74.3609 140.495 73.5494 140.545 72.566C140.635 71.1663 140.925 69.8199 141.48 68.5447C141.845 67.7167 142.058 66.9196 142.356 66.0738C142.481 65.6088 142.672 65.1616 142.814 64.6301C143.374 63.0715 143.934 61.5128 144.494 59.9541C145.668 56.6374 147.04 53.3741 148.395 50.1772C148.413 50.1108 148.431 50.0443 148.431 50.0443C148.671 49.6814 148.729 49.1986 149.199 49.0397C149.77 48.7657 150.386 48.8594 150.984 49.0196C151.117 49.0552 151.298 49.1751 151.413 49.2771C152.037 49.8714 152.209 50.5583 151.978 51.4219C151.871 51.8205 151.715 52.1348 151.542 52.5156C151.529 52.2985 151.596 52.3163 151.578 52.3827Z" fill="#2F326A"/>
<path d="M119.419 48.0523C119.258 48.3398 119.176 48.6478 119.02 48.9366C118.564 49.7229 117.555 49.8658 117.022 49.1447C116.855 48.8522 116.672 48.6382 116.583 48.3665C116.343 48.0544 116.369 47.6479 116.451 47.3399C116.534 47.0315 116.694 46.7439 116.85 46.4555C117.031 46.0909 117.395 45.9406 117.791 45.964C118.265 46.0083 118.775 46.2276 119.067 46.6365C119.438 47.0661 119.584 47.4358 119.419 48.0523Z" fill="#2F326A"/>
<path d="M115.536 55.3277C115.919 55.4304 116.286 55.6143 116.43 55.9952C116.599 56.2974 116.764 56.5983 116.854 56.8792C116.945 57.1601 116.96 57.421 116.816 57.6392C116.459 58.0569 116.176 58.4946 115.835 58.8311C115.696 59.0506 115.286 59.0265 115.175 58.8254C114.531 58.1395 114.261 57.2968 114.091 56.3956C113.986 55.8538 114.663 55.1794 115.205 55.3248C115.227 55.2449 115.381 55.2863 115.536 55.3277Z" fill="#2F326A"/>
<path d="M149.501 23.5497L110.328 13.0533C108.05 12.443 105.709 13.7947 105.099 16.0724L104.135 19.6687C103.525 21.9464 104.877 24.2876 107.154 24.8979L146.327 35.3943C148.605 36.0046 150.946 34.6529 151.556 32.3752L152.52 28.7789C153.13 26.5012 151.779 24.16 149.501 23.5497Z" fill="#2F326A"/>
<path fill-rule="evenodd" clip-rule="evenodd" d="M169.172 16.2778C168.789 16.2883 169.056 16.1702 169.007 16.1143C168.843 16.0806 168.926 15.9987 168.845 15.9484C168.878 15.8739 168.836 15.7744 169.007 15.7456C168.814 15.6417 168.953 15.5382 168.896 15.4188C168.868 15.3634 168.777 15.3108 168.737 15.2468C168.696 15.1811 168.726 15.1248 168.693 15.0534C168.557 14.7732 168.41 14.3129 168.828 14.0248C168.839 13.9473 168.683 13.8909 168.694 13.8126C169.178 13.2283 169.406 12.9019 169.522 12.2519C169.71 12.1447 169.494 12.0237 169.843 12.0018C169.847 11.7495 169.981 11.5183 170.244 11.3487C170.117 11.2263 170.008 11.1098 169.977 10.9969C169.904 10.7188 170.288 10.6023 170.321 10.2921C170.32 10.3017 170.48 10.3206 170.43 10.2921C170.194 10.1632 170.396 9.99788 170.425 9.87587C170.466 9.70214 170.506 9.37127 170.531 9.0603C170.699 8.94929 170.811 8.80181 170.884 8.62412C171.304 8.39032 171.416 7.98009 172.017 7.83625C172.319 7.92853 172.165 7.97411 172.333 8.0525C172.486 8.14073 172.473 7.93374 172.543 8.07403C172.889 8.18277 172.631 8.26652 172.546 8.25575C172.535 8.355 172.428 8.37831 172.337 8.41676C172.288 8.68809 171.941 8.90941 171.697 9.14253C171.572 9.27605 171.739 9.39999 171.517 9.46684C171.667 9.73927 171.605 10.0805 171.676 10.4085C171.359 10.6368 171.607 10.8352 171.188 10.9533C171.457 11.3712 171.297 11.653 171.09 12.0916C170.695 12.4968 170.638 12.9391 170.34 13.3848C170.142 13.4558 170.26 13.6645 169.911 13.6718C170.087 13.8267 169.796 14.01 169.64 14.1221C169.844 14.2077 169.705 14.2016 169.798 14.2743C169.574 14.5302 169.562 14.756 169.745 15.0607C169.737 15.3397 169.565 15.4116 169.786 15.6091C169.768 15.7157 169.553 15.7394 169.718 15.8371C169.683 15.879 169.875 15.912 169.696 15.9127C169.574 16.0188 169.747 16.0573 169.438 16.0811C169.384 16.1571 169.497 16.2836 169.172 16.2778Z" fill="#D5D8E2"/>
<path fill-rule="evenodd" clip-rule="evenodd" d="M177.839 19.2225C177.562 19.0339 177.846 19.0348 177.858 18.9445C177.77 18.8201 177.895 18.7671 177.878 18.667C177.962 18.5975 178.013 18.4614 178.159 18.5137C178.102 18.2954 178.284 18.2436 178.335 18.0766C178.359 17.9983 178.332 17.8933 178.352 17.7995C178.372 17.7061 178.436 17.6542 178.465 17.5553C178.577 17.1652 178.786 16.5785 179.313 16.4255C179.374 16.3403 179.29 16.2087 179.352 16.1239C180.13 15.6526 180.54 15.346 181.037 14.6243C181.263 14.5616 181.151 14.3485 181.464 14.4386C181.619 14.1397 181.871 13.9137 182.2 13.7872C182.156 13.6039 182.124 13.4354 182.159 13.2943C182.245 12.9503 182.647 12.9147 182.84 12.5587C182.835 12.5689 182.972 12.6312 182.94 12.5853C182.79 12.3743 183.055 12.2313 183.143 12.0939C183.266 11.9001 183.457 11.5204 183.617 11.166C183.822 11.0695 183.994 10.9185 184.138 10.7255C184.639 10.523 184.907 10.0624 185.555 9.96417C185.82 10.1084 185.648 10.1449 185.784 10.258C185.901 10.3807 185.972 10.1302 185.985 10.3062C186.287 10.4737 185.992 10.5494 185.912 10.5261C185.86 10.6452 185.743 10.662 185.638 10.6965C185.472 11.0204 185.033 11.242 184.691 11.4789C184.507 11.6174 184.608 11.7978 184.365 11.8389C184.374 12.194 184.145 12.6013 184.031 13.0184C183.612 13.2275 183.725 13.5304 183.274 13.5707C183.278 14.1528 182.955 14.4668 182.492 14.9446C181.885 15.3214 181.54 15.8437 180.976 16.2765C180.764 16.2862 180.711 16.5876 180.423 16.4575C180.453 16.7146 180.086 16.8183 179.883 16.8854C179.98 17.0756 179.875 17.0081 179.895 17.1351C179.526 17.3457 179.353 17.6062 179.248 18.0569C179.022 18.3919 178.834 18.3903 178.834 18.7377C178.733 18.8574 178.559 18.7799 178.595 18.9789C178.535 19.0113 178.646 19.1479 178.516 19.0587C178.339 19.1224 178.43 19.2577 178.19 19.1274C178.088 19.1892 178.061 19.4005 177.839 19.2225Z" fill="#D5D8E2"/>
<path fill-rule="evenodd" clip-rule="evenodd" d="M187.901 23.6807C187.769 23.3229 187.986 23.4893 188.034 23.4026C188.018 23.2215 188.137 23.2402 188.166 23.1261C188.26 23.1025 188.356 22.9909 188.448 23.1306C188.495 22.8703 188.656 22.9223 188.765 22.7771C188.816 22.7101 188.838 22.5849 188.892 22.5001C188.946 22.414 189.017 22.3969 189.079 22.3107C189.325 21.9694 189.717 21.4791 190.19 21.6173C190.271 21.5627 190.256 21.3791 190.337 21.3244C191.13 21.2723 191.575 21.175 192.238 20.6918C192.443 20.7489 192.429 20.4659 192.65 20.7301C192.882 20.4991 193.166 20.3986 193.478 20.4404C193.508 20.2248 193.539 20.0319 193.617 19.9026C193.805 19.5885 194.146 19.7612 194.425 19.4892C194.416 19.4972 194.508 19.6339 194.497 19.5689C194.445 19.2698 194.71 19.2571 194.827 19.1588C194.992 19.0196 195.273 18.7185 195.518 18.4286C195.718 18.4315 195.909 18.3603 196.089 18.2295C196.572 18.2695 196.935 17.9185 197.514 18.1329C197.697 18.4132 197.539 18.3679 197.621 18.5535C197.683 18.7405 197.82 18.5118 197.777 18.7034C197.984 19.0278 197.709 18.9634 197.648 18.9001C197.567 19.0001 197.463 18.9597 197.362 18.9457C197.121 19.2064 196.679 19.2232 196.316 19.3004C196.117 19.3539 196.144 19.5955 195.927 19.5162C195.819 19.8942 195.493 20.2085 195.255 20.5884C194.836 20.5943 194.824 20.9709 194.436 20.7786C194.236 21.394 193.855 21.5568 193.302 21.8116C192.667 21.8838 192.192 22.2451 191.57 22.3875C191.396 22.2815 191.236 22.5678 191.057 22.2719C190.981 22.5573 190.647 22.4612 190.46 22.4174C190.462 22.6712 190.406 22.5419 190.37 22.6853C189.994 22.6971 189.754 22.8715 189.487 23.2817C189.171 23.5027 189.024 23.3911 188.88 23.7534C188.749 23.8198 188.647 23.64 188.592 23.8668C188.531 23.8664 188.558 24.0723 188.495 23.9039C188.33 23.8683 188.343 24.061 188.213 23.7857C188.108 23.7915 187.996 23.9954 187.901 23.6807Z" fill="#D5D8E2"/>
<path fill-rule="evenodd" clip-rule="evenodd" d="M212.464 41.7936C212.234 42.1456 212.155 41.779 212.003 41.7599C211.825 41.871 211.704 41.7061 211.544 41.7254C211.407 41.6144 211.169 41.5442 211.213 41.3562C210.871 41.4232 210.735 41.1874 210.445 41.1168C210.31 41.0837 210.145 41.1149 209.986 41.0859C209.825 41.0566 209.721 40.973 209.55 40.9335C208.875 40.7776 207.842 40.4933 207.437 39.8168C207.278 39.7356 207.083 39.8402 206.923 39.7599C205.917 38.7553 205.287 38.2332 203.929 37.5944C203.76 37.3091 203.432 37.4473 203.495 37.0541C202.946 36.8576 202.492 36.5386 202.184 36.127C201.885 36.1793 201.609 36.2178 201.359 36.1725C200.75 36.0622 200.573 35.5635 199.91 35.3213C199.93 35.3281 199.997 35.1589 199.928 35.1991C199.61 35.3829 199.288 35.0545 199.029 34.9454C198.662 34.7926 197.954 34.5575 197.298 34.3614C197.073 34.1103 196.764 33.8994 196.388 33.7235C195.895 33.1114 195.02 32.7892 194.666 32.003C194.841 31.6792 194.953 31.8882 195.11 31.7208C195.291 31.5779 194.837 31.4938 195.138 31.4765C195.344 31.1069 195.558 31.4644 195.54 31.5621C195.761 31.6238 195.823 31.7656 195.913 31.8934C196.52 32.0906 197.027 32.6244 197.532 33.0432C197.822 33.2674 198.104 33.1414 198.243 33.4391C198.85 33.4279 199.614 33.7072 200.358 33.8498C200.833 34.3658 201.316 34.2284 201.512 34.7882C202.5 34.7848 203.122 35.188 204.057 35.7718C204.863 36.5356 205.836 36.9762 206.717 37.6992C206.794 37.9677 207.311 38.0403 207.176 38.4034C207.594 38.3705 207.87 38.8403 208.04 39.0999C208.328 38.9798 208.245 39.1121 208.451 39.09C208.903 39.5671 209.385 39.7946 210.156 39.9405C210.772 40.2397 210.822 40.4831 211.391 40.4913C211.616 40.6269 211.539 40.8471 211.853 40.8065C211.923 40.8857 212.115 40.747 212.006 40.912C212.16 41.1433 212.356 41.0302 212.21 41.3361C212.34 41.4694 212.692 41.5116 212.464 41.7936Z" fill="#D5D8E2"/>
<path fill-rule="evenodd" clip-rule="evenodd" d="M206.544 28.5632C206.253 28.9099 206.399 28.6732 206.333 28.7184C206.19 28.8692 206.212 28.7968 206.124 28.8723C206.112 28.845 206.03 28.8867 206.146 28.7326C205.944 28.9134 205.997 28.7928 205.89 28.8526C205.841 28.88 205.744 28.9671 205.681 29.0069C205.616 29.0481 205.608 29.0253 205.545 29.0611C205.295 29.2051 204.939 29.385 205.094 29.0327C205.059 29.032 204.912 29.1818 204.877 29.1811C204.913 28.8074 204.889 28.645 204.589 28.6492C204.661 28.4942 204.434 28.7151 204.671 28.3967C204.521 28.4406 204.479 28.3597 204.558 28.1533C204.392 28.2969 204.243 28.4218 204.153 28.4737C203.93 28.6016 204.121 28.2781 203.949 28.3189C203.954 28.3176 204.076 28.1655 204.024 28.2191C203.78 28.4673 203.812 28.3237 203.754 28.3275C203.671 28.3339 203.482 28.3865 203.296 28.4505C203.333 28.33 203.312 28.2676 203.242 28.2535C203.362 27.9372 203.157 27.9655 203.443 27.4622C203.7 27.1547 203.633 27.2817 203.795 27.1015C203.954 26.9325 203.802 27.0112 203.944 26.9019C204.241 26.5486 204.134 26.7598 204.072 26.8413C204.134 26.8195 204.081 26.9111 204.049 26.9824C204.205 26.9431 204.133 27.1953 204.126 27.3543C204.133 27.4323 204.327 27.2432 204.224 27.4287C204.503 27.2179 204.691 27.1825 204.952 27.0396C204.885 27.2765 205.182 27.0045 204.968 27.3655C205.422 27.0245 205.491 27.1159 205.614 27.2283C205.584 27.5212 205.808 27.5041 205.849 27.7216C205.745 27.894 205.953 27.7595 205.7 28.0794C205.918 27.8999 205.807 28.1458 205.753 28.2772C205.953 28.081 205.846 28.209 205.956 28.1164C205.93 28.299 206.045 28.2873 206.347 28.1001C206.492 28.0863 206.396 28.2426 206.67 28.0308C206.712 28.0425 206.561 28.2352 206.738 28.0824C206.733 28.1122 206.897 27.9365 206.76 28.0996C206.721 28.2073 206.874 28.0495 206.648 28.3288C206.645 28.3753 206.798 28.2682 206.544 28.5632Z" fill="#D5D8E2"/>
<path fill-rule="evenodd" clip-rule="evenodd" d="M45.5842 198.692C45.9611 198.761 45.6757 198.821 45.7116 198.886C45.8652 198.953 45.7669 199.016 45.8355 199.082C45.7883 199.148 45.8081 199.254 45.6354 199.247C45.8023 199.388 45.6447 199.461 45.6761 199.589C45.6912 199.649 45.7693 199.72 45.7953 199.791C45.8214 199.863 45.7808 199.912 45.798 199.989C45.8727 200.291 45.921 200.772 45.4523 200.967C45.4257 201.041 45.5664 201.128 45.5395 201.202C44.944 201.673 44.6536 201.945 44.4053 202.557C44.1992 202.623 44.385 202.786 44.0392 202.735C43.9824 202.981 43.803 203.179 43.5109 203.29C43.6101 203.436 43.6921 203.573 43.6984 203.69C43.7122 203.977 43.3131 204.011 43.2158 204.308C43.2192 204.298 43.0661 204.247 43.1096 204.285C43.3131 204.46 43.0814 204.58 43.0277 204.693C42.9512 204.855 42.8439 205.17 42.7544 205.469C42.5668 205.543 42.4268 205.663 42.3182 205.822C41.8585 205.963 41.6637 206.341 41.0461 206.357C40.77 206.204 40.9305 206.192 40.7818 206.08C40.651 205.962 40.6208 206.167 40.5813 206.015C40.2654 205.837 40.535 205.809 40.6165 205.837C40.6475 205.742 40.7572 205.742 40.854 205.723C40.9585 205.468 41.3438 205.323 41.6307 205.146C41.7814 205.041 41.6436 204.885 41.8741 204.866C41.7844 204.569 41.9158 204.248 41.9145 203.912C42.272 203.755 42.0712 203.509 42.5053 203.481C42.329 203.016 42.5442 202.774 42.8376 202.388C43.3082 202.073 43.4566 201.653 43.8406 201.279C44.0483 201.25 43.977 201.022 44.3198 201.087C44.1795 200.899 44.5021 200.78 44.6784 200.703C44.4968 200.577 44.6311 200.612 44.5551 200.521C44.8279 200.318 44.8863 200.099 44.7704 199.763C44.8369 199.492 45.0195 199.457 44.8445 199.218C44.8843 199.118 45.0992 199.139 44.9588 199.009C45.0013 198.975 44.8203 198.903 44.9955 198.94C45.1377 198.861 44.9764 198.788 45.2834 198.829C45.3518 198.766 45.2672 198.618 45.5842 198.692Z" fill="#D5D8E2"/>
<path fill-rule="evenodd" clip-rule="evenodd" d="M37.7185 194.009C37.9502 194.251 37.6728 194.191 37.642 194.277C37.7029 194.417 37.5693 194.443 37.5653 194.545C37.4684 194.595 37.3909 194.718 37.2582 194.636C37.2685 194.861 37.0801 194.874 36.9954 195.027C36.9559 195.099 36.9607 195.207 36.921 195.294C36.8819 195.382 36.8084 195.419 36.7598 195.51C36.5691 195.868 36.2426 196.399 35.6957 196.439C35.618 196.509 35.6729 196.656 35.5951 196.726C34.7353 197.025 34.2714 197.24 33.6347 197.842C33.4004 197.856 33.4658 198.088 33.1785 197.935C32.965 198.195 32.6716 198.364 32.3235 198.419C32.3277 198.608 32.324 198.779 32.2604 198.91C32.1052 199.228 31.7041 199.18 31.4412 199.488C31.4487 199.479 31.3279 199.389 31.3497 199.441C31.4518 199.678 31.1632 199.763 31.0485 199.879C30.8883 200.043 30.6223 200.375 30.3922 200.688C30.1718 200.74 29.9722 200.852 29.7912 201.011C29.2588 201.105 28.9009 201.5 28.2468 201.461C28.0174 201.265 28.1936 201.265 28.0836 201.126C27.9951 200.982 27.873 201.212 27.8968 201.037C27.6361 200.81 27.9404 200.798 28.0139 200.837C28.0895 200.731 28.208 200.739 28.3178 200.728C28.5471 200.445 29.0228 200.32 29.4068 200.159C29.6154 200.062 29.5538 199.864 29.7999 199.875C29.8651 199.525 30.174 199.175 30.3725 198.79C30.8251 198.673 30.7781 198.353 31.2272 198.408C31.3446 197.837 31.7257 197.597 32.2778 197.226C32.9498 196.984 33.3958 196.545 34.0383 196.239C34.247 196.273 34.3621 195.99 34.6162 196.177C34.6406 195.919 35.0214 195.894 35.2338 195.87C35.1783 195.664 35.2667 195.752 35.2735 195.624C35.6788 195.494 35.9022 195.276 36.098 194.856C36.3892 194.576 36.5724 194.616 36.6447 194.277C36.7688 194.181 36.9221 194.292 36.9283 194.09C36.9937 194.071 36.9139 193.915 37.0225 194.029C37.209 194.003 37.1485 193.852 37.3554 194.029C37.4679 193.99 37.5385 193.789 37.7185 194.009Z" fill="#D5D8E2"/>
<path fill-rule="evenodd" clip-rule="evenodd" d="M28.8041 187.557C28.8587 187.934 28.6813 187.726 28.616 187.801C28.594 187.981 28.4813 187.938 28.4293 188.044C28.3321 188.047 28.2154 188.137 28.1546 187.981C28.0545 188.226 27.9073 188.141 27.7709 188.261C27.7074 188.316 27.6594 188.433 27.5888 188.505C27.518 188.578 27.4454 188.58 27.3663 188.652C27.0548 188.934 26.5698 189.332 26.136 189.099C26.0452 189.135 26.0222 189.318 25.9314 189.355C25.1446 189.241 24.6889 189.244 23.9401 189.578C23.7515 189.48 23.7065 189.76 23.5454 189.455C23.2705 189.633 22.9719 189.672 22.6745 189.566C22.6009 189.771 22.5299 189.953 22.4268 190.063C22.1779 190.332 21.8808 190.092 21.5514 190.3C21.5609 190.294 21.4994 190.141 21.4973 190.207C21.4859 190.51 21.2237 190.468 21.089 190.54C20.8982 190.641 20.5607 190.877 20.2617 191.11C20.0664 191.066 19.865 191.096 19.661 191.186C19.1977 191.047 18.769 191.314 18.2473 190.984C18.1269 190.672 18.272 190.749 18.2303 190.551C18.2087 190.355 18.0268 190.55 18.1085 190.372C17.9733 190.011 18.2296 190.132 18.2757 190.206C18.376 190.125 18.4697 190.186 18.5647 190.221C18.8548 190.016 19.2908 190.091 19.6623 190.092C19.8673 190.08 19.8915 189.839 20.0872 189.961C20.2713 189.614 20.6562 189.374 20.9677 189.052C21.3783 189.134 21.4689 188.768 21.8082 189.036C22.1316 188.476 22.5382 188.396 23.1324 188.262C23.7681 188.323 24.3083 188.069 24.9464 188.059C25.0944 188.198 25.3103 187.952 25.4238 188.278C25.5576 188.015 25.8643 188.178 26.0384 188.26C26.0889 188.011 26.1168 188.15 26.1816 188.017C26.5521 188.083 26.8233 187.963 27.1697 187.617C27.5248 187.467 27.6451 187.606 27.8617 187.282C28.0033 187.244 28.0657 187.441 28.167 187.231C28.2265 187.244 28.2423 187.037 28.2688 187.215C28.4232 187.284 28.4509 187.093 28.5208 187.389C28.6242 187.405 28.7764 187.229 28.8041 187.557Z" fill="#D5D8E2"/>
<path fill-rule="evenodd" clip-rule="evenodd" d="M8.5429 164.732C8.84148 164.436 8.84204 164.811 8.98728 164.861C9.18484 164.79 9.26877 164.976 9.42885 164.99C9.5401 165.128 9.75826 165.246 9.67603 165.42C10.0244 165.426 10.1083 165.685 10.3772 165.814C10.5025 165.875 10.6706 165.879 10.82 165.94C10.9712 166.002 11.0557 166.105 11.2145 166.18C11.8429 166.472 12.7939 166.965 13.0492 167.711C13.1885 167.824 13.4006 167.762 13.5403 167.874C14.3159 169.066 14.8229 169.707 16.0182 170.614C16.1244 170.929 16.4742 170.862 16.3305 171.233C16.827 171.54 17.2046 171.946 17.4202 172.413C17.7241 172.424 18.0022 172.443 18.2373 172.54C18.8092 172.774 18.8795 173.299 19.4772 173.673C19.4591 173.663 19.3585 173.814 19.4344 173.789C19.7839 173.676 20.0305 174.064 20.2606 174.224C20.5883 174.45 21.2316 174.827 21.8329 175.156C22.0003 175.448 22.2593 175.718 22.5897 175.969C22.9448 176.67 23.7341 177.167 23.9169 178.01C23.678 178.29 23.6122 178.062 23.4235 178.193C23.2172 178.295 23.6438 178.472 23.3452 178.426C23.0668 178.745 22.9325 178.351 22.9698 178.259C22.7665 178.153 22.7358 178.001 22.6744 177.857C22.1212 177.538 21.7365 176.911 21.3296 176.396C21.0927 176.117 20.7904 176.181 20.7167 175.861C20.1204 175.746 19.4315 175.314 18.7331 175.02C18.3762 174.416 17.8744 174.45 17.7991 173.862C16.8324 173.66 16.3079 173.136 15.5148 172.371C14.8848 171.456 14.0247 170.823 13.3134 169.932C13.294 169.654 12.8028 169.475 13.0113 169.148C12.595 169.093 12.4232 168.576 12.3105 168.287C12.0039 168.345 12.1121 168.233 11.9064 168.211C11.5632 167.651 11.1397 167.328 10.4152 167.025C9.87536 166.604 9.87723 166.356 9.32185 166.229C9.13003 166.05 9.25145 165.851 8.93571 165.825C8.88363 165.733 8.66664 165.829 8.80786 165.69C8.705 165.432 8.4904 165.502 8.69673 165.233C8.5973 165.075 8.26136 164.961 8.5429 164.732Z" fill="#D5D8E2"/>
<path fill-rule="evenodd" clip-rule="evenodd" d="M11.5833 178.905C11.9398 178.626 11.7482 178.827 11.8215 178.797C11.9935 178.679 11.9564 178.745 12.0587 178.69C12.0641 178.719 12.1535 178.695 12.0081 178.822C12.2428 178.687 12.166 178.794 12.2828 178.758C12.3364 178.741 12.4495 178.676 12.5198 178.65C12.5918 178.623 12.5945 178.647 12.6636 178.625C12.9384 178.536 13.3236 178.434 13.099 178.747C13.133 178.755 13.3082 178.639 13.3422 178.647C13.2289 179.005 13.2188 179.169 13.5136 179.227C13.411 179.364 13.6787 179.195 13.3806 179.457C13.5366 179.445 13.561 179.533 13.4408 179.719C13.633 179.613 13.8043 179.521 13.9036 179.489C14.1481 179.411 13.8944 179.687 14.0707 179.683C14.0653 179.683 13.9143 179.807 13.9764 179.765C14.2671 179.573 14.2055 179.707 14.2632 179.715C14.3459 179.726 14.5418 179.714 14.7372 179.69C14.6753 179.8 14.6835 179.866 14.7491 179.894C14.5653 180.179 14.7719 180.193 14.3877 180.626C14.0718 180.874 14.1643 180.763 13.968 180.906C13.7775 181.038 13.9423 180.993 13.7812 181.07C13.4171 181.354 13.5653 181.17 13.6429 181.103C13.578 181.111 13.6488 181.033 13.6945 180.97C13.534 180.976 13.6574 180.744 13.6968 180.59C13.7068 180.512 13.4769 180.657 13.6163 180.497C13.2994 180.645 13.1085 180.64 12.8234 180.726C12.9381 180.508 12.5916 180.713 12.8755 180.404C12.3604 180.643 12.3123 180.539 12.2149 180.404C12.3057 180.124 12.0829 180.094 12.0881 179.872C12.2255 179.725 11.9945 179.814 12.3085 179.553C12.058 179.684 12.2177 179.466 12.297 179.349C12.0607 179.499 12.1922 179.396 12.0656 179.464C12.1291 179.291 12.0142 179.278 11.6801 179.399C11.5346 179.382 11.6612 179.249 11.3493 179.399C11.3107 179.379 11.4979 179.222 11.2936 179.335C11.3044 179.307 11.1072 179.444 11.2756 179.313C11.3361 179.216 11.1541 179.339 11.4327 179.112C11.4452 179.067 11.2732 179.14 11.5833 178.905Z" fill="#D5D8E2"/>
</g>
<defs>
<clipPath id="clip0_141_6848">
<rect width="216" height="216" fill="white"/>
</clipPath>
</defs>
</svg>
