<svg width="216" height="216" viewBox="0 0 216 216" fill="none" xmlns="http://www.w3.org/2000/svg">
<path d="M60.934 80.5191C58.334 77.5191 53.634 76.8191 50.034 78.4191C46.434 80.0191 43.934 83.8191 43.434 87.7191C42.934 91.6191 44.234 95.7191 46.634 98.8191C49.034 102.019 52.434 104.319 56.034 105.819C58.034 106.619 60.034 107.319 62.034 107.919" fill="#E4B5AA"/>
<path d="M155.634 82.0192C157.734 79.1192 161.834 78.0192 165.234 79.2192C168.634 80.4192 171.134 83.5192 171.934 87.0192C172.734 90.5192 171.834 94.2192 170.034 97.3192C168.134 100.319 165.334 102.719 162.234 104.419C160.534 105.319 158.734 106.119 157.034 106.819" fill="#E4B5AA"/>
<path d="M190.434 79.9192C185.434 73.1192 178.534 68.1192 172.234 62.7192C164.934 56.4192 158.134 49.5192 152.134 41.9192C147.834 36.5192 143.934 30.8192 138.834 26.1192C135.634 23.1192 131.834 20.4192 127.734 18.8192C130.734 20.7192 133.534 23.1192 136.134 25.9192C150.434 41.7192 154.534 65.3192 154.734 85.6192C155.034 113.919 154.034 121.619 154.434 136.319C157.334 135.419 160.034 134.219 162.434 132.419C166.634 129.219 169.534 123.819 168.334 118.619C171.634 120.719 175.934 119.219 179.434 117.519C185.834 114.419 192.234 110.119 194.934 103.419C198.134 95.8192 195.434 86.7192 190.434 79.9192ZM169.934 97.2192C168.034 100.219 165.234 102.619 162.134 104.319C160.434 105.219 158.634 106.019 156.934 106.719L155.634 82.0191C157.734 79.1191 161.834 78.0192 165.234 79.2192C168.634 80.4192 171.134 83.5191 171.934 87.0191C172.634 90.4192 171.834 94.1192 169.934 97.2192Z" fill="#3C437D"/>
<path d="M154.834 145.219C153.634 123.819 155.134 119.119 154.734 85.7192C154.534 65.4192 150.434 41.8192 136.134 26.0192C123.634 12.2192 104.534 8.71916 88.5342 18.9192C71.9342 29.5192 63.9342 50.4192 60.9342 68.8192C56.4342 96.4192 59.2342 125.919 59.2342 152.119L32.0342 170.519C32.0342 170.519 56.3342 206.219 108.534 203.219C160.734 200.119 186.834 170.219 186.834 170.219L154.834 145.219Z" fill="#E4B5AA"/>
<path d="M53.9341 46.9191C44.2341 58.5191 38.3341 73.0191 27.9341 84.0191C24.2341 88.0191 19.7341 91.8191 18.4341 97.1191C16.9341 103.119 20.2341 109.519 25.0341 113.519C29.8341 117.519 35.8341 119.519 41.8341 121.219C42.7341 121.519 43.7341 121.819 44.2341 122.619C44.7341 123.319 44.6341 124.319 44.7341 125.219C45.0341 129.119 47.9341 132.519 51.5341 134.319C53.9341 135.519 56.5341 136.119 59.1341 136.619C58.8341 126.819 58.5341 116.819 58.5341 106.719C57.7341 106.419 56.9341 106.119 56.2341 105.819C52.6341 104.219 49.2341 101.919 46.8341 98.8191C44.4341 95.6191 43.1341 91.6191 43.6341 87.7191C44.1341 83.8191 46.5341 80.0191 50.2341 78.4191C53.3341 77.0191 57.1341 77.4191 59.8341 79.4191C59.9341 75.8191 60.3341 72.3191 60.9341 68.8191C63.9341 50.3191 71.9341 29.5191 88.5341 18.8191C91.2341 17.1191 94.0341 15.8191 96.8341 14.8191C90.4341 14.1191 60.7341 38.7191 53.9341 46.9191Z" fill="#3C437D"/>
<path d="M88.6341 18.9191C78.3341 25.5191 71.2341 36.1191 66.7341 47.6191C83.1341 41.6191 94.9341 27.0191 105.734 13.1191C99.9341 13.5191 94.0341 15.4191 88.6341 18.9191Z" fill="#3C437D"/>
<path d="M122.834 52.5192C129.234 60.5192 139.434 64.8192 149.534 66.5192C150.934 66.8192 152.534 67.1192 153.534 68.1192C151.434 52.7192 146.534 37.3192 136.134 25.9192C127.934 16.8192 116.834 12.2192 105.734 13.0192C108.734 21.5192 111.834 29.9192 115.234 38.2192C117.334 43.3192 119.434 48.3192 122.834 52.5192Z" fill="#3C437D"/>
<path fill-rule="evenodd" clip-rule="evenodd" d="M62.7342 105.819C62.4342 107.319 61.9342 106.219 61.5342 106.319C61.1342 106.919 60.7342 106.519 60.3342 106.819C59.9342 106.619 59.2342 106.719 59.2342 106.019C58.4342 106.719 57.9342 106.019 57.1342 106.119C56.7342 106.119 56.3342 106.419 55.8342 106.519C55.4342 106.619 55.0342 106.419 54.5342 106.419C53.5342 106.419 52.3342 106.419 51.1342 105.919C49.9342 105.519 48.8342 104.719 48.4342 103.519C48.0342 103.219 47.3342 103.619 46.9342 103.319C45.7342 101.419 44.9342 99.9192 44.2342 98.3192C43.5342 96.8192 42.7342 95.3192 41.8342 93.2192C42.1342 92.2192 41.0342 91.8192 42.3342 91.0192C41.7342 89.5192 41.9342 87.7192 42.9342 86.4192C42.3342 85.7192 41.8342 84.9192 41.8342 84.1192C41.7342 83.1192 42.2342 82.4192 42.7342 81.7192C43.2342 81.0192 43.9342 80.4192 44.4342 79.4192C44.4342 79.5192 45.0342 79.8192 44.9342 79.5192C44.3342 78.4192 45.7342 77.6192 46.4342 76.9192C46.9342 76.4192 47.5342 75.7192 48.4342 75.1192C49.3342 74.4192 50.4342 73.8192 51.6342 73.3192C52.9342 73.5192 54.3342 73.5192 55.8342 73.6192C57.1342 74.3192 58.5342 74.9192 59.7342 75.7192C60.9342 76.6192 61.9342 77.8192 61.9342 79.3192C61.0342 80.3192 60.9342 79.6192 60.3342 80.1192C59.7342 80.6192 60.7342 80.9192 59.9342 80.9192C58.8342 82.0192 58.9342 81.0192 59.0342 80.7192C58.5342 80.6192 58.5342 80.1192 58.4342 79.7192C57.7342 79.5192 57.1342 79.2192 56.4342 78.7192C55.7342 78.3192 54.9342 77.9192 54.0342 77.7192C53.0342 77.5192 52.8342 78.5192 52.0342 77.9192C51.1342 79.2192 49.8342 80.5192 49.5342 82.1192C48.7342 82.3192 48.5342 82.8192 48.3342 83.2192C48.1342 83.6192 47.9342 83.9192 47.0342 84.1192C47.4342 85.3192 47.6342 86.1192 47.6342 86.9192C47.6342 87.7192 47.5342 88.5192 47.5342 89.6192C47.1342 90.7192 47.3342 91.9192 47.6342 92.9192C48.0342 94.0192 48.5342 95.0192 49.0342 96.2192C48.7342 97.0192 50.0342 97.3192 49.2342 98.5192C50.4342 98.4192 50.6342 99.9192 50.9342 100.719C51.8342 100.219 51.5342 100.719 52.0342 100.519C52.9342 101.919 54.3342 102.419 56.2342 102.119C57.8342 102.519 58.0342 103.219 59.4342 102.519C60.0342 102.719 59.9342 103.519 60.7342 102.919C60.9342 103.119 61.3342 102.319 61.1342 103.019C61.6342 103.619 62.0342 102.919 61.9342 104.219C62.1342 104.919 63.1342 104.619 62.7342 105.819Z" fill="#3C437D"/>
<path fill-rule="evenodd" clip-rule="evenodd" d="M62.7342 105.819C62.4342 107.319 61.9342 106.219 61.5342 106.319C61.1342 106.919 60.7342 106.519 60.3342 106.819C59.9342 106.619 59.2342 106.719 59.2342 106.019C58.4342 106.719 57.9342 106.019 57.1342 106.119C56.7342 106.119 56.3342 106.419 55.8342 106.519C55.4342 106.619 55.0342 106.419 54.5342 106.419C53.5342 106.419 52.3342 106.419 51.1342 105.919C49.9342 105.519 48.8342 104.719 48.4342 103.519C48.0342 103.219 47.3342 103.619 46.9342 103.319C45.7342 101.419 44.9342 99.9192 44.2342 98.3192C43.5342 96.8192 42.7342 95.3192 41.8342 93.2192C42.1342 92.2192 41.0342 91.8192 42.3342 91.0192C41.7342 89.5192 41.9342 87.7192 42.9342 86.4192C42.3342 85.7192 41.8342 84.9192 41.8342 84.1192C41.7342 83.1192 42.2342 82.4192 42.7342 81.7192C43.2342 81.0192 43.9342 80.4192 44.4342 79.4192C44.4342 79.5192 45.0342 79.8192 44.9342 79.5192C44.3342 78.4192 45.7342 77.6192 46.4342 76.9192C46.9342 76.4192 47.5342 75.7192 48.4342 75.1192C49.3342 74.4192 50.4342 73.8192 51.6342 73.3192C52.9342 73.5192 54.3342 73.5192 55.8342 73.6192C57.1342 74.3192 58.5342 74.9192 59.7342 75.7192C60.9342 76.6192 61.9342 77.8192 61.9342 79.3192C61.0342 80.3192 60.9342 79.6192 60.3342 80.1192C59.7342 80.6192 60.7342 80.9192 59.9342 80.9192C58.8342 82.0192 58.9342 81.0192 59.0342 80.7192C58.5342 80.6192 58.5342 80.1192 58.4342 79.7192C57.7342 79.5192 57.1342 79.2192 56.4342 78.7192C55.7342 78.3192 54.9342 77.9192 54.0342 77.7192C53.0342 77.5192 52.8342 78.5192 52.0342 77.9192C51.1342 79.2192 49.8342 80.5192 49.5342 82.1192C48.7342 82.3192 48.5342 82.8192 48.3342 83.2192C48.1342 83.6192 47.9342 83.9192 47.0342 84.1192C47.4342 85.3192 47.6342 86.1192 47.6342 86.9192C47.6342 87.7192 47.5342 88.5192 47.5342 89.6192C47.1342 90.7192 47.3342 91.9192 47.6342 92.9192C48.0342 94.0192 48.5342 95.0192 49.0342 96.2192C48.7342 97.0192 50.0342 97.3192 49.2342 98.5192C50.4342 98.4192 50.6342 99.9192 50.9342 100.719C51.8342 100.219 51.5342 100.719 52.0342 100.519C52.9342 101.919 54.3342 102.419 56.2342 102.119C57.8342 102.519 58.0342 103.219 59.4342 102.519C60.0342 102.719 59.9342 103.519 60.7342 102.919C60.9342 103.119 61.3342 102.319 61.1342 103.019C61.6342 103.619 62.0342 102.919 61.9342 104.219C62.1342 104.919 63.1342 104.619 62.7342 105.819Z" fill="#3C437D"/>
<path d="M54.8342 91.3192C55.0342 91.4192 55.2342 91.4192 55.3342 91.5192C55.2342 91.4192 55.0342 91.4192 54.9342 91.3192C55.6342 91.6192 56.3342 92.0192 57.0342 92.5192C56.9342 92.4192 56.8342 92.3192 56.6342 92.2192C57.3342 92.7192 57.8342 93.3192 58.4342 93.9192C58.3342 93.8192 58.2342 93.7192 58.1342 93.5192C58.5342 94.1192 58.9342 94.7192 59.2342 95.3192C59.4342 95.7192 59.9342 96.0192 60.3342 96.1192C60.7342 96.2192 61.3342 96.2192 61.7342 95.9192C62.1342 95.7192 62.4342 95.3192 62.5342 94.8192C62.6342 94.3192 62.5342 93.9192 62.3342 93.4192C61.0342 90.7192 58.6342 88.6192 55.8342 87.6192C55.4342 87.5192 54.8342 87.6192 54.4342 87.8192C54.0342 88.0192 53.7342 88.4192 53.6342 88.9192C53.3342 90.1192 53.9342 91.0192 54.8342 91.3192Z" fill="#3C437D"/>
<path fill-rule="evenodd" clip-rule="evenodd" d="M157.734 108.719C157.034 107.319 158.034 107.919 158.234 107.619C158.134 106.919 158.634 106.919 158.734 106.519C159.134 106.419 159.534 105.919 160.034 106.419C160.134 105.419 160.934 105.519 161.334 104.919C161.534 104.619 161.534 104.119 161.734 103.719C161.934 103.319 162.234 103.219 162.434 102.819C162.834 102.019 163.234 101.119 163.834 100.419C164.434 99.7191 165.034 99.1191 166.034 99.0191C166.234 98.7191 165.834 98.1191 166.034 97.8191C167.434 97.1191 168.334 96.2191 169.034 95.2191C169.734 94.2191 170.134 93.0191 170.034 91.4191C170.634 90.8191 169.634 90.4191 171.034 90.0191C170.634 88.8191 170.634 87.7191 171.034 86.4191C170.234 86.2191 169.434 86.1191 169.034 85.8191C168.434 85.5191 168.334 85.1191 168.234 84.6191C168.134 84.1191 167.934 83.5191 167.334 83.3191C167.334 83.3191 167.734 82.8191 167.534 82.9191C166.534 83.6191 166.234 82.7191 165.734 82.6191C165.434 82.5191 164.934 82.4191 164.434 82.5191C163.934 82.6191 163.434 82.7191 163.034 83.0191C162.634 82.6191 162.034 82.5191 161.534 82.7191C160.834 82.3191 160.234 82.4191 159.534 82.5191C158.834 82.6191 158.134 82.8191 156.934 82.8191C155.734 82.1191 156.434 82.0191 155.834 81.4191C155.334 80.8191 155.034 82.0191 154.934 81.1191C153.534 80.3191 155.034 79.8191 155.334 80.0191C155.634 79.4191 156.234 79.4191 156.734 79.4191C157.334 78.7191 158.234 78.3191 159.134 78.2191C160.134 78.1191 161.034 78.2191 161.934 78.4191C162.834 78.5191 163.334 77.6191 163.934 78.4191C164.634 77.9191 165.534 77.7191 166.634 77.7191C167.734 77.7191 168.834 78.0191 169.934 78.2191C170.534 79.2191 171.134 79.6191 171.634 80.0191C172.134 80.4191 172.534 81.0191 172.334 82.0191C175.134 82.8191 176.234 85.5191 176.334 89.0191C175.934 90.8191 175.734 92.3191 175.234 93.9191C174.834 95.4191 174.234 96.9191 173.134 98.3191C172.234 98.5191 172.234 100.019 170.834 99.5191C171.134 100.719 169.434 101.219 168.634 101.419C169.034 102.319 168.634 102.019 168.634 102.619C166.934 103.419 166.134 104.419 165.134 106.319C163.734 107.519 163.034 107.219 162.434 108.719C161.834 109.119 161.334 108.419 161.134 109.319C160.834 109.319 161.034 110.119 160.734 109.519C159.934 109.419 160.034 110.219 159.434 109.119C158.734 109.019 158.234 109.919 157.734 108.719Z" fill="#3C437D"/>
<path d="M161.334 89.3191C158.634 90.6191 156.534 93.0191 155.534 95.9191C155.234 96.8191 155.934 97.9191 156.734 98.1191C157.734 98.3191 158.534 97.8191 158.934 96.9191C159.034 96.7191 159.034 96.5191 159.134 96.4191C159.034 96.5191 159.034 96.7191 158.934 96.8191C159.234 96.1191 159.634 95.4191 160.134 94.7191C160.034 94.8191 159.934 94.9191 159.834 95.1191C160.334 94.4191 160.934 93.8191 161.634 93.3191C161.534 93.4191 161.434 93.5191 161.234 93.6191C161.834 93.2191 162.334 92.8191 163.034 92.5191C163.434 92.3191 163.734 91.8191 163.834 91.4191C163.934 91.0191 163.934 90.4191 163.634 90.0191C163.434 89.6191 163.034 89.3191 162.534 89.2191C162.234 89.0191 161.734 89.1191 161.334 89.3191Z" fill="#3C437D"/>
<path d="M108.534 187.919C74.0341 189.919 51.7341 175.019 40.5341 164.719L31.9341 170.519C31.9341 170.519 56.2341 206.219 108.434 203.219C160.634 200.119 186.734 170.219 186.734 170.219L177.634 163.219C166.134 172.219 143.034 185.919 108.534 187.919Z" fill="#EB0075"/>
<path fill-rule="evenodd" clip-rule="evenodd" d="M108.834 190.819C107.734 188.819 113.034 189.719 115.234 189.119C116.234 188.019 119.634 187.919 121.434 187.219C122.934 187.019 124.634 186.619 126.234 186.419C127.834 186.219 129.134 186.019 129.934 186.219C130.734 185.719 131.734 185.319 132.634 185.019C133.634 184.619 134.634 184.319 135.634 184.019C137.734 183.419 139.834 182.719 141.934 181.819C143.934 180.919 145.434 179.819 147.534 178.619C148.634 178.019 149.634 177.519 150.734 177.019C151.834 176.519 152.934 175.919 154.034 175.219C160.234 171.619 168.234 166.019 175.634 160.219L177.734 158.519L179.934 160.219C183.034 162.619 186.034 165.119 188.634 167.619L191.034 169.919L189.034 171.919C188.734 172.219 188.434 172.419 188.234 172.619C187.934 172.819 187.734 173.019 187.434 173.219C186.934 173.819 186.434 174.319 186.034 174.819C185.634 175.319 185.334 175.819 184.934 176.319C184.234 177.319 183.534 178.219 182.334 179.319C171.934 186.819 163.034 191.019 153.934 194.819C152.834 195.319 151.634 195.719 150.534 196.219C149.334 196.619 148.234 197.019 147.034 197.519C145.834 197.919 144.634 198.419 143.434 198.819C142.234 199.219 140.934 199.619 139.634 199.919C138.334 200.319 137.034 200.719 135.734 201.119C134.434 201.419 133.034 201.819 131.634 202.119C130.234 202.519 128.834 202.819 127.334 203.219C125.834 203.519 124.334 203.819 122.734 204.119C119.934 204.219 117.934 204.719 116.034 204.819C114.234 205.019 112.534 205.119 110.834 204.319C108.434 204.719 106.034 204.819 103.634 205.019C101.234 205.019 98.8341 205.119 96.4341 204.819C91.7341 204.519 87.1341 203.619 83.0341 202.319C82.6341 202.319 82.1341 202.419 81.6341 202.419H80.3341C79.4341 202.419 78.5341 202.419 77.6341 202.419C75.8341 202.319 73.9341 202.219 71.9341 201.719C67.1341 200.719 63.0341 198.919 58.9341 196.619C54.8341 194.319 50.6341 191.519 45.6341 188.219C45.9341 188.419 45.7341 187.119 45.1341 187.119C43.7341 187.019 41.4341 185.519 39.2341 183.619C36.9341 181.719 34.7341 179.319 33.0341 177.519C32.5341 177.019 32.0341 176.419 31.3341 175.719C30.9341 175.319 30.6341 174.919 30.1341 174.419C29.6341 173.919 29.2341 173.419 28.6341 172.519L26.4341 169.519L29.7341 166.819C31.1341 165.719 34.2341 163.419 37.9341 160.619L40.5341 158.619L43.6341 161.019C46.0341 162.919 49.9341 165.719 53.9341 168.019C58.0341 171.419 63.3341 174.519 69.5341 176.819C75.0341 179.819 81.5341 181.719 88.2341 183.119C94.9341 184.419 101.734 185.119 108.134 186.119C109.134 187.919 105.434 187.419 105.034 188.519C104.034 189.619 111.134 188.719 107.234 189.619C107.734 190.619 106.334 190.919 104.734 190.919C103.934 190.919 103.034 190.819 102.334 190.719C101.634 190.619 101.034 190.419 100.834 190.319C98.9341 190.419 97.4341 190.319 96.0341 190.119C94.6341 189.919 93.4341 189.519 92.1341 189.319C91.4341 189.319 90.8341 189.219 90.1341 189.219C89.4341 189.119 88.8341 189.019 88.1341 189.019C86.7341 188.819 85.3341 188.619 84.0341 188.419C82.6341 188.119 81.2341 187.819 79.8341 187.419C78.4341 187.019 77.0341 186.619 75.6341 186.119C70.0341 184.219 64.6341 181.619 59.7341 178.819C59.0341 178.419 58.4341 178.119 57.8341 177.819C57.2341 177.519 56.6341 177.219 56.1341 176.919C55.0341 176.319 54.0341 175.919 53.1341 175.419C52.2341 174.919 51.3341 174.419 50.5341 173.819C49.7341 173.219 48.8341 172.519 47.9341 171.519C45.3341 170.219 42.3341 168.519 39.2341 166.019L41.6341 166.219C39.1341 168.319 36.4341 170.519 33.6341 172.719L34.4341 168.719C34.9341 169.319 35.7341 170.119 36.4341 170.819C37.1341 171.519 37.8341 172.219 38.6341 172.919C40.1341 174.219 41.6341 175.519 43.2341 176.719C47.0341 180.919 50.4341 183.219 53.5341 185.119C56.6341 187.019 59.3341 188.719 62.6341 191.419C68.9341 193.119 74.8341 194.619 81.4341 195.919C88.0341 197.219 95.4341 198.119 104.334 198.019C105.434 198.019 106.634 198.019 107.734 198.119C108.834 198.119 110.034 198.019 111.134 198.019C113.334 197.919 115.634 197.819 117.834 197.619C120.034 197.319 122.234 197.019 124.434 196.719L126.134 196.419L127.734 196.019L131.034 195.319C139.734 193.319 148.234 190.419 156.834 186.519C157.834 186.319 158.934 185.819 160.034 185.319C161.134 184.819 162.334 184.119 163.534 183.519C165.834 182.319 167.934 181.119 169.334 181.419C170.234 180.519 171.334 179.519 172.634 178.519C173.934 177.619 175.234 176.619 176.734 175.619C179.534 173.719 182.334 171.819 184.334 170.219C184.634 169.319 184.834 168.819 185.034 168.419L185.434 172.019C184.534 171.519 184.034 170.919 182.534 170.319C180.434 168.419 178.334 166.719 176.334 165.019H179.434C176.234 167.419 173.134 169.619 169.934 171.919C166.734 174.219 163.334 176.519 159.534 179.019C154.334 181.719 150.734 183.019 147.634 184.219C144.534 185.419 141.934 186.419 138.334 188.219C136.134 188.819 134.534 189.019 133.134 189.219C131.734 189.419 130.434 189.619 128.734 190.519C126.834 190.819 126.134 191.919 125.534 191.119C120.734 191.519 119.534 192.519 117.734 191.119C116.934 191.219 115.934 191.319 115.034 191.419C114.134 191.519 113.134 191.619 112.234 191.719C110.434 191.819 109.034 191.719 108.834 190.819Z" fill="#EB0075"/>
<path fill-rule="evenodd" clip-rule="evenodd" d="M153.134 146.319C153.134 144.619 159.134 150.319 162.234 152.519C164.234 153.219 168.534 156.819 171.234 158.519C175.134 161.619 180.434 165.419 182.034 167.419C183.634 168.319 185.134 169.319 186.734 170.419L186.634 169.819C183.634 173.419 179.434 176.719 175.334 180.119C173.934 181.219 172.734 182.319 171.434 183.319C170.134 184.319 168.734 185.519 167.034 186.519C165.334 187.619 163.734 188.719 161.934 189.619C160.134 190.619 158.334 191.519 156.334 192.619C154.334 193.619 152.234 194.719 149.934 195.719C147.634 196.619 145.234 197.719 142.634 198.719C141.334 199.119 140.034 199.619 138.734 200.019C138.034 200.219 137.434 200.519 136.734 200.719L135.734 201.019L134.734 201.319C133.334 201.719 131.934 202.019 130.534 202.419C129.134 202.819 127.634 203.219 126.234 203.419C124.734 203.719 123.334 203.919 121.834 204.219L119.634 204.619L118.534 204.819L117.434 204.919C114.434 205.219 111.434 205.519 108.434 205.719C102.434 206.019 96.634 205.619 91.234 204.719C89.934 204.619 88.934 204.519 87.834 204.419C86.834 204.319 85.834 204.319 84.934 204.219C84.034 204.119 83.034 204.019 82.034 203.919C81.034 203.819 79.934 203.619 78.734 203.319C67.834 200.319 58.834 195.819 51.034 190.519C47.134 187.819 43.534 184.919 40.134 181.819C38.434 180.219 36.834 178.619 35.234 176.919C33.634 175.219 32.134 173.419 30.734 171.419L29.634 169.919L31.134 168.919C39.234 163.519 48.134 157.519 58.334 150.519L57.534 152.019C57.434 148.519 57.334 143.119 57.134 137.419C57.434 128.619 56.234 123.919 57.434 118.219C57.034 110.419 56.934 102.619 57.234 94.9192C57.534 87.2192 58.334 79.8192 59.634 72.8192C59.634 67.1192 60.034 61.5192 61.534 55.2192C62.434 51.4192 63.634 47.7192 65.134 44.3192C66.634 40.8192 68.334 37.5192 70.434 34.2192C72.534 31.0192 74.934 27.7192 77.934 24.6192C80.934 21.5192 84.334 18.5192 88.634 15.8192C88.134 16.1192 89.834 15.9192 90.434 15.3192C90.834 14.9192 91.334 14.6192 92.034 14.1192C92.334 13.9192 92.734 13.7192 93.134 13.4192C93.534 13.2192 93.934 12.9192 94.434 12.8192C95.334 12.4192 96.334 12.0192 97.434 11.6192C98.534 11.3192 99.734 10.9192 100.934 10.7192C103.434 10.2192 106.034 9.91916 108.634 10.0192C109.234 10.0192 109.934 10.0192 110.534 10.0192C111.134 10.0192 111.734 10.1192 112.334 10.2192C112.934 10.3192 113.534 10.3192 114.034 10.4192C114.534 10.5192 115.134 10.6192 115.634 10.7192C118.534 11.2192 121.934 12.2192 125.534 13.9192C129.134 15.6192 132.834 18.0192 136.334 21.1192C143.234 27.3192 148.734 36.0192 152.334 44.8192C155.434 54.2192 157.434 64.9192 158.334 76.7192C158.434 79.5192 158.334 82.3192 158.334 85.1192C158.234 87.9192 158.234 90.8192 158.134 93.6192C158.034 99.3192 157.834 105.219 157.634 111.019C157.434 116.819 157.034 122.619 156.734 128.319C156.634 131.119 156.434 133.919 156.434 136.719C156.434 138.119 156.334 139.419 156.334 140.819V141.719L156.234 142.619C156.134 143.219 156.134 143.819 156.034 144.419C155.434 145.419 155.234 144.519 155.034 143.119C154.834 141.819 154.634 140.019 154.234 139.719C153.834 138.919 153.834 141.319 153.934 143.519C154.034 144.619 154.034 145.419 154.034 145.619C154.034 145.819 153.834 145.319 153.534 143.519C153.234 144.119 152.934 143.719 152.734 142.719C152.634 142.519 152.634 142.219 152.634 141.919C152.634 141.719 152.634 141.619 152.534 141.419C152.534 141.319 152.534 141.119 152.534 141.019C152.534 140.419 152.434 139.819 152.434 139.119C152.334 136.419 152.634 133.419 152.734 132.719C152.434 126.719 152.934 122.919 153.334 118.719C153.334 110.219 153.634 100.919 153.734 91.4192C153.834 86.6192 153.934 81.9192 153.734 77.1192C153.534 72.4192 153.134 67.7192 152.434 63.1192C152.234 61.8192 152.034 60.7192 151.734 59.6192C151.634 59.1192 151.534 58.5192 151.434 58.0192C151.334 57.5192 151.134 57.0192 151.034 56.5192C150.734 55.6192 150.534 54.7192 150.234 53.8192C149.934 53.0192 149.734 52.2192 149.434 51.4192C149.134 50.6192 148.934 49.8192 148.634 49.1192C148.334 48.3192 148.034 47.6192 147.834 46.8192C147.534 46.0192 147.234 45.2192 146.934 44.3192C146.634 43.4192 146.334 42.5192 145.934 41.6192C145.534 40.9192 145.134 40.1192 144.634 39.4192C144.134 38.7192 143.634 37.9192 143.134 37.1192C142.834 36.7192 142.634 36.3192 142.334 35.9192C142.034 35.5192 141.734 35.1192 141.434 34.7192C140.834 33.9192 140.334 33.0192 139.634 32.3192C139.034 31.5192 138.334 30.7192 137.634 29.9192C136.934 29.1192 136.134 28.3192 135.434 27.5192C134.734 26.7192 133.834 26.0192 133.034 25.2192C132.634 24.8192 132.234 24.5192 131.734 24.1192C131.334 23.7192 130.834 23.4192 130.434 23.0192C129.534 22.3192 128.534 21.7192 127.634 21.1192C126.634 20.5192 125.634 20.0192 124.634 19.4192C123.534 18.9192 122.534 18.4192 121.434 18.0192L119.834 17.4192L119.034 17.1192L118.234 16.9192C113.834 15.7192 109.234 15.4192 104.934 16.1192C100.534 16.4192 96.734 17.6192 93.634 19.2192C92.834 19.5192 92.134 20.0192 91.434 20.4192C90.734 20.8192 90.034 21.2192 89.434 21.7192C88.834 22.2192 88.134 22.6192 87.534 23.1192C86.934 23.6192 86.334 24.1192 85.834 24.5192C81.334 28.3192 78.034 32.4192 73.834 37.9192C71.534 42.7192 69.734 47.5192 68.334 52.6192C66.834 57.7192 65.734 63.0192 64.834 68.6192C63.134 79.9192 62.334 92.6192 62.334 107.819C61.934 122.719 62.634 137.319 62.634 152.119V153.919L61.134 154.919C52.134 160.919 43.134 166.919 33.834 173.119L34.734 168.619C34.934 169.019 35.334 169.519 35.734 169.919C36.134 170.419 36.434 170.819 36.834 171.319C37.634 172.219 38.434 173.119 39.234 174.019C40.934 175.819 42.634 177.519 44.534 179.219C46.634 181.519 50.334 184.319 53.934 186.719C57.434 189.119 60.934 191.019 62.134 192.419C66.034 193.819 71.234 195.919 76.534 197.619C81.834 199.319 87.334 200.619 91.434 201.319C95.434 200.819 96.034 201.319 100.034 201.019C104.534 201.319 108.834 201.119 113.034 200.719C114.034 200.619 115.134 200.519 116.134 200.419L117.634 200.319C118.134 200.219 118.634 200.119 119.134 200.119C121.134 199.719 123.234 199.419 125.234 199.119C133.234 197.419 141.234 194.919 149.734 190.819C158.134 187.219 163.234 184.219 167.534 181.519C171.834 178.819 175.334 176.119 179.434 171.819C180.434 170.919 181.334 170.219 182.034 169.519C182.434 169.219 182.834 168.819 183.134 168.519C183.434 168.219 183.734 167.919 184.034 167.719L184.534 173.119C182.134 171.119 180.334 169.519 177.034 167.519C174.634 165.519 172.834 165.119 172.734 164.119C166.834 159.019 164.534 158.119 163.434 155.719C159.434 152.219 152.234 147.219 153.134 146.319Z" fill="#3C437D"/>
<path fill-rule="evenodd" clip-rule="evenodd" d="M58.7341 140.819C60.2341 140.819 59.3341 141.119 59.5341 141.319C60.2341 141.419 59.9341 141.619 60.3341 141.819C60.2341 142.019 60.5341 142.319 59.8341 142.319C60.7341 142.619 60.2341 142.919 60.6341 143.219C60.8341 143.419 61.2341 143.519 61.4341 143.719C61.6341 143.919 61.6341 144.019 61.8341 144.219C62.7341 145.019 63.8341 146.219 62.5341 147.019C62.6341 147.219 63.3341 147.419 63.3341 147.619C62.1341 149.219 61.7341 150.119 62.2341 151.919C61.6341 152.219 62.7341 152.519 61.3341 152.619C61.7341 153.319 61.5341 153.919 60.8341 154.519C61.5341 154.819 62.1341 155.019 62.4341 155.319C63.2341 156.019 61.9341 156.419 62.3341 157.319C62.3341 157.319 61.6341 157.319 61.9341 157.319C63.1341 157.519 62.6341 158.019 62.7341 158.419C62.9341 158.919 63.3341 159.719 63.9341 160.519C63.5341 160.919 63.3341 161.319 63.4341 161.819C62.2341 162.619 62.7341 163.719 60.7341 164.519C59.3341 164.519 59.8341 164.319 59.0341 164.219C58.2341 164.119 58.7341 164.619 58.1341 164.319C56.5341 164.319 57.4341 163.919 57.7341 163.819C57.5341 163.519 57.9341 163.419 58.2341 163.319C57.8341 162.619 58.7341 161.819 59.2341 161.019C59.4341 160.619 58.5341 160.419 59.3341 160.119C58.2341 159.519 57.8341 158.519 56.9341 157.719C57.7341 156.919 56.4341 156.519 57.9341 156.019C56.1341 155.019 56.3341 154.119 56.4341 152.919C57.3341 151.719 56.9341 150.419 57.5341 149.119C58.2341 148.919 57.4341 148.319 58.8341 148.219C57.9341 147.819 58.8341 147.219 59.3341 146.919C58.4341 146.719 58.9341 146.719 58.5341 146.519C59.1341 145.819 58.9341 145.119 57.8341 144.319C57.5341 143.519 58.1341 143.319 57.0341 142.719C57.0341 142.419 57.8341 142.319 57.0341 142.119C57.1341 142.019 56.3341 141.919 57.0341 141.919C57.4341 141.619 56.7341 141.519 57.9341 141.419C58.0341 141.119 57.4341 140.719 58.7341 140.819Z" fill="#3C437D"/>
<path fill-rule="evenodd" clip-rule="evenodd" d="M156.334 159.619C155.334 159.719 155.934 159.419 155.734 159.219C155.234 159.119 155.434 158.919 155.134 158.819C155.134 158.619 154.934 158.419 155.434 158.319C154.834 158.119 155.134 157.819 154.834 157.619C154.734 157.519 154.434 157.419 154.234 157.219C154.034 157.119 154.134 156.919 153.934 156.819C153.334 156.219 152.534 155.219 153.334 154.419C153.234 154.219 152.834 154.119 152.734 154.019C153.434 152.519 153.634 151.719 153.234 150.219C153.634 149.919 152.934 149.719 153.734 149.519C153.434 148.919 153.534 148.419 153.934 147.919C153.434 147.719 153.034 147.519 152.834 147.319C152.334 146.819 153.134 146.319 152.834 145.619C152.834 145.619 153.334 145.619 153.134 145.519C152.334 145.419 152.634 144.919 152.534 144.619C152.434 144.219 152.034 143.519 151.634 142.919C151.934 142.619 151.934 142.219 151.934 141.819C152.634 141.019 152.334 140.119 153.534 139.319C154.434 139.219 154.134 139.519 154.634 139.519C155.134 139.519 154.834 139.119 155.234 139.419C156.234 139.319 155.734 139.719 155.534 139.819C155.634 140.019 155.434 140.219 155.234 140.319C155.534 140.919 155.034 141.619 154.734 142.319C154.634 142.719 155.234 142.819 154.734 143.119C155.534 143.619 155.834 144.319 156.434 145.019C155.934 145.719 156.834 146.019 155.934 146.519C157.234 147.319 157.134 148.019 157.134 149.119C156.634 150.219 156.934 151.319 156.634 152.419C156.234 152.619 156.734 153.119 155.834 153.219C156.434 153.519 155.834 154.019 155.534 154.319C156.134 154.419 155.834 154.519 156.134 154.619C155.734 155.319 155.934 155.819 156.734 156.519C156.934 157.219 156.534 157.419 157.334 157.819C157.334 158.119 156.834 158.219 157.334 158.419C157.234 158.519 157.834 158.619 157.334 158.619C157.134 158.919 157.634 158.919 156.734 159.119C156.734 159.319 157.134 159.519 156.334 159.619Z" fill="#3C437D"/>
<path fill-rule="evenodd" clip-rule="evenodd" d="M89.834 20.7191C88.734 19.6191 90.534 19.5191 91.034 19.0191C90.934 18.2191 92.034 17.9191 92.334 17.3191C93.234 16.9191 94.234 16.2191 94.834 16.6191C95.534 15.3191 97.034 15.2191 98.234 14.5191C98.834 14.1191 99.234 13.6191 99.934 13.2191C100.634 12.8191 101.334 12.7191 102.234 12.3191C103.134 11.9191 104.234 11.5191 105.534 11.1191L109.334 10.1191L107.234 14.3191C105.934 17.0191 104.034 20.0191 101.434 21.7191C100.934 22.5191 101.134 23.3191 100.634 24.0191C97.734 26.6191 95.434 28.7191 93.234 30.8191C91.034 32.9191 88.834 35.2191 86.034 38.1191C84.434 38.8191 84.334 40.2191 82.634 39.8191C81.634 40.9191 80.334 41.8191 79.134 42.7191C78.534 43.1191 77.834 43.4191 77.134 43.7191C76.434 44.0191 75.834 44.3191 75.134 44.4191C74.534 45.6191 73.934 46.7191 72.934 47.5191C72.134 48.2191 71.334 48.6191 70.434 49.0191C69.534 49.3191 68.634 49.6191 67.634 49.9191L61.834 51.7191L64.534 46.7191C65.034 45.8191 65.534 44.7191 65.934 43.4191C65.934 43.5191 66.634 43.5191 66.434 43.3191C65.634 42.1191 67.134 40.0191 67.734 38.6191C68.534 36.6191 70.034 32.9191 71.734 29.6191C73.134 28.3191 74.534 26.7191 76.034 24.9191C77.934 23.6191 79.734 22.1191 81.634 20.7191C83.534 19.3191 85.734 18.3191 87.934 17.9191C88.934 18.9191 87.734 19.1191 88.034 19.9191C88.234 20.7191 89.734 19.1191 89.034 20.2191C90.134 21.4191 88.034 21.8191 87.734 21.6191C86.934 22.4191 86.234 22.5191 85.434 22.8191C83.234 25.1191 80.034 27.1191 77.534 29.6191C76.134 31.0191 76.434 32.2191 74.934 33.0191C74.434 35.7191 72.734 39.4191 72.034 42.9191C70.234 45.2191 70.334 46.9191 69.234 48.5191L65.734 44.9191C66.234 44.8191 66.734 44.8191 67.334 44.9191C67.734 44.5191 68.034 44.1191 68.434 43.8191C68.834 43.4191 69.134 43.1191 69.534 42.8191C70.334 42.2191 71.134 41.6191 71.934 41.0191C72.334 40.7191 72.834 40.4191 73.234 40.1191C73.734 39.8191 74.134 39.5191 74.634 39.1191C75.634 38.5191 76.634 37.8191 77.834 36.9191C80.334 35.6191 82.534 33.9191 84.634 32.0191C86.734 30.2191 88.734 28.1191 90.934 26.1191C92.234 25.6191 93.234 23.4191 94.734 23.8191C95.034 22.0191 97.534 20.5191 98.834 19.5191C98.534 18.3191 99.134 18.6191 99.234 17.7191C101.334 15.8191 102.634 14.0191 103.834 11.5191L105.934 15.4191C105.334 15.6191 104.634 15.9191 103.934 16.2191C102.334 16.6191 101.334 16.8191 100.434 17.0191C99.534 17.3191 98.834 17.6191 98.034 18.5191C96.934 19.0191 96.134 18.4191 95.534 19.5191C95.034 19.6191 95.134 20.5191 94.734 19.9191C93.434 20.1191 93.434 21.0191 92.434 20.1191C91.434 20.5191 90.534 21.7191 89.834 20.7191Z" fill="#3C437D"/>
<path fill-rule="evenodd" clip-rule="evenodd" d="M124.534 51.1192C123.634 52.4192 122.934 50.0192 122.234 49.3192C121.334 49.3192 120.734 47.8192 120.034 47.3192C119.434 46.1192 118.334 44.6192 118.634 43.7192C117.134 42.5192 116.634 40.5192 115.534 38.7192C115.034 37.9192 114.234 37.2192 113.634 36.3192C113.034 35.3192 112.634 34.3192 111.934 33.3192C109.234 29.1192 105.334 22.2192 104.634 16.1192C104.234 15.2192 103.734 14.7192 103.234 14.0192L101.634 11.7192L105.634 10.4192C105.934 10.3192 106.334 10.2192 106.734 10.2192C109.834 10.4192 112.534 10.8192 114.934 11.4192C117.434 12.0192 119.634 12.8192 121.834 13.7192C124.034 14.6192 126.134 15.7192 128.234 17.0192C130.434 18.3192 132.634 19.8192 134.934 21.8192C135.734 22.9192 136.434 23.5192 137.134 24.1192C137.734 24.7192 138.234 25.4192 138.234 26.4192C141.434 29.5192 143.934 33.5192 145.134 37.3192C146.534 38.4192 147.834 39.5192 148.834 41.1192C150.134 43.0192 150.734 45.0192 151.334 47.0192C151.634 48.0192 151.834 49.1192 152.234 50.3192C152.534 51.5192 152.934 52.6192 153.334 53.9192C153.234 53.7192 152.734 54.3192 153.034 54.5192C154.434 55.3192 154.934 59.0192 155.434 61.2192C155.834 62.6192 156.334 64.7192 156.934 67.7192L151.134 70.5192C151.134 70.5192 151.034 70.6192 150.834 70.5192C150.634 70.5192 150.334 70.4192 149.834 70.4192C149.534 70.4192 149.334 70.4192 149.034 70.4192C148.734 70.4192 148.334 70.3192 148.034 70.3192C147.334 70.2192 146.634 70.2192 145.934 70.1192C143.234 69.1192 140.234 68.1192 137.034 67.0192C134.234 65.3192 131.134 63.6192 128.334 61.4192C125.634 59.2192 123.234 56.5192 122.034 53.4192C122.834 52.2192 123.534 53.8192 124.334 53.4192C125.234 53.2192 122.734 51.2192 124.334 52.1192C124.834 51.4192 125.334 51.8192 125.734 52.3192C126.134 52.8192 126.534 53.6192 126.534 53.8192C127.134 54.3192 127.634 54.7192 128.034 55.2192C128.434 55.7192 128.734 56.1192 129.134 56.6192C131.034 57.8192 133.134 59.3192 135.334 60.6192C137.534 62.0192 139.934 63.2192 142.334 64.2192C145.034 65.2192 146.334 64.6192 148.434 65.7192C149.234 65.6192 150.134 65.5192 151.234 65.6192C152.234 65.7192 153.634 65.8192 154.934 66.9192L152.134 68.3192C151.334 65.5192 150.334 62.3192 149.134 59.4192C149.034 58.1192 148.834 56.9192 148.534 56.0192C148.334 55.0192 148.034 54.2192 147.734 53.3192C147.234 51.7192 146.734 50.2192 146.734 48.2192C144.834 45.7192 143.334 43.3192 141.734 40.6192C140.134 37.9192 138.434 35.0192 136.034 31.7192C135.734 31.3192 135.534 30.8192 135.234 30.4192L134.334 29.2192C133.734 28.4192 133.134 27.6192 132.434 26.9192C131.134 25.5192 129.634 24.1192 128.034 23.0192C124.934 20.6192 121.434 18.8192 117.534 17.4192C116.834 16.9192 115.634 16.5192 114.534 16.3192C113.434 16.0192 112.434 15.8192 112.034 15.0192C110.334 15.5192 108.034 15.1192 105.934 14.9192L107.534 12.5192C107.734 13.4192 107.834 14.2192 107.934 14.9192C109.234 15.7192 108.734 16.0192 109.534 16.9192C110.734 21.9192 112.434 25.7192 115.434 30.3192C117.634 35.0192 117.734 36.7192 120.034 39.4192C120.834 41.2192 120.434 42.1192 121.734 43.2192C122.034 43.9192 122.934 43.9192 122.334 44.4192C122.934 46.3192 123.834 46.4192 123.134 47.6192C123.734 48.9192 125.434 50.2192 124.534 51.1192Z" fill="#3C437D"/>
<path fill-rule="evenodd" clip-rule="evenodd" d="M59.4341 133.719C59.6341 135.819 57.1341 134.119 56.0341 134.119C55.2341 134.919 53.6341 134.019 52.5341 134.119C51.8341 133.719 51.0341 133.419 50.3341 132.919C49.6341 132.419 49.2341 131.919 49.2341 131.319C48.1341 131.119 47.2341 130.419 46.6341 129.519C45.9341 128.619 45.4341 127.519 45.0341 126.419C44.8341 125.919 44.5341 125.319 44.3341 124.819C44.1341 124.319 43.8341 123.719 43.5341 123.419C43.2341 123.119 43.0341 123.019 42.5341 122.919C42.1341 122.819 41.4341 122.619 40.6341 122.619C37.6341 122.319 33.8341 121.919 29.8341 120.419C27.8341 119.719 25.8341 118.619 24.1341 117.219C22.4341 115.919 20.9341 114.119 20.0341 112.319C18.8341 110.919 17.5341 110.719 16.5341 109.019C15.0341 105.219 14.6341 101.419 15.3341 98.0192C16.0341 94.5192 17.8341 91.9192 19.6341 89.6192C21.4341 87.4192 23.4341 85.5192 25.3341 83.4192C27.2341 81.4192 29.0341 79.1192 30.8341 76.3192C33.1341 74.5192 32.8341 72.4192 35.3341 71.9192C37.6341 67.3192 40.5341 63.0192 43.8341 59.5192C44.0341 57.4192 44.2341 55.4192 45.1341 53.4192C46.1341 50.9192 47.7341 49.0192 49.4341 47.1192C50.3341 46.1192 51.2341 45.2192 52.2341 44.1192C53.2341 43.0192 54.3341 42.0192 55.3341 40.7192C55.2341 40.8192 56.2341 41.1192 56.1341 40.7192C56.0341 38.6192 59.6341 36.1192 61.4341 34.3192C64.0341 31.7192 68.6341 26.8192 73.1341 22.5192C76.0341 21.0192 78.9341 19.0192 82.1341 16.6192C84.2341 15.7192 86.2341 14.7192 88.5341 13.7192C89.6341 13.2192 90.8341 12.7192 92.1341 12.3192L93.1341 12.0192C93.5341 11.9192 93.8341 11.8192 94.2341 11.7192L94.5341 11.6192H94.8341L95.5341 11.5192C95.6341 11.5192 95.7341 11.5192 95.9341 11.5192H96.4341C96.7341 11.5192 97.0341 11.5192 97.3341 11.6192L119.234 13.9192L98.0341 18.4192C95.1341 19.0192 92.4341 19.8192 89.5341 20.4192C88.1341 19.1192 90.1341 18.6192 89.8341 17.6192C89.8341 16.4192 86.7341 19.1192 88.2341 17.2192C87.4341 16.5192 88.0341 15.8192 88.8341 15.4192C89.7341 15.0192 90.8341 14.8192 91.1341 14.9192C92.9341 13.7192 94.3341 13.7192 95.8341 13.5192C96.0341 13.4192 96.1341 13.4192 96.3341 13.3192L96.7341 16.8192C96.5341 16.9192 96.0341 16.9192 95.4341 17.2192C94.8341 17.4192 94.2341 17.6192 93.6341 17.9192C92.3341 18.4192 91.0341 19.1192 89.6341 19.7192C86.9341 21.0192 84.1341 22.4192 81.5341 23.9192C78.6341 25.7192 78.2341 27.5192 75.5341 28.4192C73.0341 32.3192 67.8341 37.4192 64.1341 42.4192C61.4341 44.1192 59.9341 45.9192 58.6341 47.3192C57.9341 48.0192 57.3341 48.7192 56.7341 49.3192C56.0341 50.0192 55.2341 50.6192 54.1341 51.2192C53.0341 54.7192 51.6341 57.8192 49.7341 61.2192C47.9341 64.6192 45.6341 68.2192 42.8341 72.6192C39.5341 76.7192 36.4341 81.0192 32.9341 85.0192C29.3341 89.1192 25.3341 92.3192 23.2341 95.7192C22.4341 96.2192 22.0341 97.4192 21.7341 98.4192C21.4341 99.4192 21.2341 100.419 20.4341 100.919C21.1341 102.019 21.4341 103.419 21.9341 105.019C22.3341 106.619 22.9341 108.219 23.5341 109.419C24.4341 109.519 24.7341 109.619 24.9341 109.919C25.2341 110.119 25.4341 110.419 26.0341 110.619C27.7341 112.719 29.9341 114.119 32.3341 115.119C34.7341 116.119 37.4341 116.519 40.6341 116.719C41.3341 116.919 42.0341 117.019 42.6341 117.219C43.2341 117.419 44.0341 117.619 45.0341 118.019C45.5341 118.219 46.0341 118.619 46.5341 119.019C47.0341 119.419 47.5341 120.019 47.9341 120.719C48.6341 122.019 48.7341 123.019 48.8341 123.719C48.9341 125.119 48.9341 125.119 49.2341 125.619C49.4341 126.019 49.8341 126.319 50.4341 126.619C50.7341 127.119 50.8341 127.619 51.0341 128.119C51.2341 128.519 51.6341 128.919 52.4341 128.919C52.9341 129.419 53.7341 128.619 53.3341 129.519C53.9341 130.119 54.5341 130.319 54.9341 130.419C55.3341 130.619 55.5341 130.819 55.6341 131.719C57.0341 132.319 59.6341 132.019 59.4341 133.719Z" fill="#3C437D"/>
<path fill-rule="evenodd" clip-rule="evenodd" d="M157.734 85.5192C155.734 86.2192 156.934 82.5192 156.434 80.9192C155.434 80.2192 155.734 77.7192 155.034 76.4192C154.934 74.2192 154.234 71.5192 155.034 70.3192C154.334 69.0192 153.934 67.6192 153.634 66.1192C153.334 64.6192 153.034 63.0192 152.534 61.4192C151.934 60.0192 151.234 58.8192 150.434 57.2192C150.034 56.4192 149.834 55.6192 149.534 54.8192C149.234 54.0192 148.934 53.2192 148.534 52.3192C146.934 48.9192 144.634 44.7192 142.134 40.5192C139.634 36.3192 136.934 32.2192 134.634 28.4192C133.234 26.9192 131.934 26.9192 130.434 25.7192C128.834 24.0192 127.234 22.6192 126.034 21.6192L125.534 21.2192C124.134 20.1192 123.934 18.0192 125.034 16.6192C126.034 15.4192 127.634 15.1192 128.934 15.7192C132.534 17.4192 135.334 19.5192 137.834 21.6192C140.334 23.8192 142.434 26.1192 144.434 28.5192C148.534 33.3192 152.034 38.4192 157.234 43.8192C159.134 47.2192 161.534 47.7192 161.934 50.7192C166.934 55.2192 171.734 59.8192 175.934 64.4192C178.434 65.2192 180.834 66.1192 183.234 67.6192C186.134 69.5192 188.434 71.8192 190.634 74.5192C192.734 77.2192 194.834 80.4192 196.934 84.4192C196.834 84.2192 196.334 85.2192 196.734 85.4192C197.834 85.9192 198.834 87.8192 199.334 90.0192C199.934 92.2192 200.134 94.9192 200.134 96.9192C200.134 98.3192 200.034 100.019 199.734 102.019C199.334 103.919 198.734 106.119 197.634 108.119C195.534 112.319 192.034 115.919 188.534 118.719C186.434 119.819 184.334 120.819 182.034 121.819C179.734 122.819 177.134 124.019 173.534 124.519C172.334 124.519 171.134 124.419 169.834 124.019C168.534 123.719 167.234 123.119 166.034 122.319L172.634 117.519C173.134 120.419 172.734 123.319 171.834 125.919C170.834 128.419 169.434 130.619 167.634 132.419C166.734 133.319 165.734 134.119 164.734 134.819C163.734 135.519 162.634 136.019 161.534 136.419C159.334 137.319 157.234 137.719 155.134 137.819C153.934 136.319 156.634 136.119 156.534 134.919C156.634 134.319 155.634 134.619 154.934 134.819C154.134 135.019 153.634 135.119 154.834 134.419C154.234 133.519 155.034 133.019 155.934 132.719C156.934 132.419 158.134 132.219 158.434 132.319C160.334 131.019 161.734 130.519 163.134 129.619C164.334 128.219 165.334 126.619 166.034 124.819C166.734 123.019 167.134 121.119 166.834 119.119V118.819C166.734 118.019 167.234 117.219 168.134 117.119C168.534 117.019 168.934 117.219 169.234 117.419C170.334 118.319 171.934 118.619 173.634 118.519C175.334 118.419 177.034 117.919 178.734 117.319C180.834 116.519 182.034 115.519 183.234 114.719C184.434 113.819 185.434 113.119 187.134 112.419C188.934 110.119 191.234 107.219 192.434 103.719C193.634 100.319 193.434 96.4192 192.234 93.2192C192.134 91.4192 191.834 89.9192 191.234 88.5192C190.734 87.2192 190.134 86.1192 189.434 85.0192C188.834 84.0192 188.134 83.0192 187.534 82.0192C186.934 81.0192 186.334 79.8192 185.634 78.4192C181.734 75.9192 178.034 73.6192 174.034 70.5192C172.034 69.0192 169.834 67.3192 167.634 65.4192C165.434 63.4192 163.034 61.3192 160.634 58.8192C156.034 53.5192 151.734 48.3192 147.534 42.9192C143.434 37.6192 139.734 32.4192 135.134 27.9192C134.434 26.7192 132.934 25.6192 131.534 24.6192C130.134 23.6192 128.834 22.7192 128.534 21.6192C128.034 21.6192 127.434 21.5192 126.934 21.3192L129.434 16.4192C131.234 17.2192 133.034 18.7192 134.634 20.4192C136.134 22.1192 137.434 23.9192 138.234 25.3192C139.334 25.6192 139.734 25.9192 140.134 26.3192C140.534 26.7192 140.834 27.1192 141.634 27.6192C142.134 28.5192 142.734 29.4192 143.234 30.2192C143.734 31.1192 144.234 31.9192 144.734 32.7192C145.034 33.1192 145.234 33.5192 145.434 33.9192C145.634 34.3192 145.934 34.7192 146.134 35.1192C146.634 35.9192 147.034 36.7192 147.534 37.5192C149.334 40.8192 151.334 44.1192 153.334 48.1192C154.034 50.1192 154.634 51.8192 155.034 53.2192C155.434 54.7192 155.734 55.9192 156.034 57.1192C156.334 58.3192 156.534 59.3192 156.934 60.4192C157.334 61.5192 157.734 62.6192 158.334 64.0192C158.634 65.6192 158.534 66.8192 158.534 67.8192C158.534 68.8192 158.634 69.8192 159.234 71.0192C159.234 72.3192 160.434 72.9192 159.434 73.3192C159.234 76.7192 160.234 77.6192 158.634 78.8192C158.634 81.7192 159.434 85.3192 157.734 85.5192Z" fill="#3C437D"/>
<path fill-rule="evenodd" clip-rule="evenodd" d="M116.134 34.7192C116.834 34.4192 117.034 34.5192 117.134 34.9192C117.234 35.3192 116.934 35.7192 117.034 36.0192C117.334 36.2192 117.434 36.6192 117.334 36.9192C117.234 37.3192 117.034 37.7192 117.034 38.0192C116.734 38.4192 116.334 38.9192 115.934 39.2192C115.534 39.5192 115.034 39.6192 114.734 39.4192C114.434 40.0192 113.734 40.3192 113.034 40.4192C112.334 40.4192 111.534 40.3192 110.734 40.1192C109.934 40.0192 109.134 40.0192 108.234 39.5192C107.334 39.0192 106.834 38.2192 106.134 37.2192C105.534 36.3192 105.034 35.0192 104.734 33.8192C104.434 32.5192 104.234 31.3192 104.034 30.0192C103.734 27.4192 103.634 24.8192 104.234 22.4192C104.134 21.5192 103.634 21.0192 103.434 20.2192L109.034 20.6192C109.034 20.7192 109.034 20.9192 109.034 21.1192C107.734 25.4192 106.834 28.8192 105.834 32.2192C105.334 33.9192 104.834 35.6192 104.234 37.5192C103.634 39.4192 102.934 41.3192 102.034 43.5192C101.634 43.9192 101.434 44.3192 101.234 44.6192C101.034 45.0192 100.834 45.3192 100.734 45.6192C100.434 46.2192 100.034 46.7192 99.134 46.8192C98.334 48.4192 97.134 49.8192 95.934 51.0192C94.634 52.2192 93.134 53.1192 91.534 53.6192C90.734 54.9192 89.634 56.0192 88.034 56.7192C87.034 57.1192 85.834 57.2192 84.834 57.0192C83.734 56.8192 82.734 56.5192 81.834 55.9192C80.834 55.4192 80.034 54.6192 79.134 53.7192C78.334 52.8192 77.534 51.6192 77.134 50.1192C77.134 50.3192 77.734 49.7192 77.434 49.5192C76.734 49.0192 76.434 47.6192 76.734 46.2192C77.034 44.8192 77.734 43.5192 78.134 42.6192C78.734 41.3192 79.734 39.7192 80.934 38.0192C82.034 36.4192 83.134 34.7192 84.234 33.0192C85.834 31.7192 87.434 30.1192 89.034 28.1192C92.934 25.3192 96.134 20.8192 100.734 18.5192C102.034 19.1192 100.734 19.8192 101.234 20.5192C101.634 21.3192 102.834 19.0192 102.334 20.5192C103.734 21.3192 101.634 22.5192 101.134 22.5192C100.434 23.6192 99.634 24.0192 98.834 24.5192C96.734 27.6192 93.134 30.4192 90.234 33.2192C88.634 34.8192 88.734 36.1192 87.034 36.9192C86.534 38.4192 85.534 40.1192 84.534 41.9192C83.534 43.6192 82.634 45.6192 82.634 47.0192C81.834 48.2192 82.234 49.0192 82.634 49.5192C83.034 50.0192 83.434 50.5192 84.134 51.6192C85.134 51.5192 85.934 51.3192 86.534 51.0192C87.234 50.7192 87.934 50.4192 88.734 49.9192C90.234 49.0192 92.034 47.6192 93.934 45.3192C96.134 43.3192 97.734 40.7192 98.834 37.9192C100.034 35.1192 100.934 32.0192 101.834 28.8192C102.834 27.6192 102.534 24.8192 104.034 24.3192C103.634 23.0192 104.134 21.2192 104.734 19.7192L108.434 19.9192C108.334 20.7192 108.134 21.5192 107.934 22.1192C108.934 23.0192 108.334 23.1192 108.834 24.0192C108.634 26.0192 108.634 27.8192 108.734 29.7192C108.934 31.5192 109.234 33.5192 110.134 34.8192C110.234 35.1192 110.334 35.4192 110.534 35.6192C110.634 35.8192 110.734 35.9192 110.834 36.1192C111.034 36.4192 111.234 36.6192 111.534 36.8192C112.034 37.1192 112.634 37.3192 113.234 36.7192C113.534 36.7192 113.634 36.9192 113.834 36.9192C113.934 37.0192 114.134 36.9192 114.134 36.5192C114.334 36.5192 113.834 35.8192 114.434 36.3192C114.734 36.2192 114.834 36.0192 114.834 35.9192C114.934 35.8192 115.034 35.8192 115.634 35.9192C115.834 35.7192 115.734 35.3192 115.734 35.2192C115.434 35.1192 115.534 35.0192 116.134 34.7192Z" fill="#3C437D"/>
<path d="M101.334 19.6191C95.2342 26.6191 89.1342 33.6191 83.1342 40.6191C80.8342 43.3191 78.3342 46.5191 79.2342 49.9191C80.0342 52.9191 83.4342 54.7191 86.6342 54.5191C89.7342 54.2191 92.5342 52.4191 94.7342 50.2191C102.434 42.5191 104.534 31.0191 106.234 20.3191C106.334 24.2191 106.434 28.0191 106.534 31.9191C106.534 33.7191 106.634 35.5191 107.434 37.2191C108.634 39.8191 111.734 41.4191 114.434 40.7191C117.134 40.0191 119.134 36.8191 118.234 34.1191" fill="#3C437D"/>
<path d="M104.034 98.1191C103.934 98.0191 103.834 97.9191 103.734 97.8191C103.534 97.6191 104.034 98.2191 103.734 97.8191C103.634 97.7191 103.534 97.5191 103.534 97.4191C103.534 97.3191 103.434 97.3191 103.434 97.2191C103.334 97.0191 103.334 97.1191 103.534 97.4191C103.334 97.3191 103.434 96.7191 103.234 96.5191C103.334 96.6191 103.234 97.1191 103.234 96.7191C103.234 96.5191 103.234 96.3191 103.234 96.1191C103.234 96.0191 103.334 95.8191 103.234 95.7191C103.134 96.1191 103.134 96.1191 103.234 95.9191C103.234 95.8191 103.234 95.8191 103.234 95.7191C103.234 95.5191 103.334 95.4191 103.334 95.3191C103.334 95.2191 103.534 94.7191 103.434 95.1191C103.234 95.5191 103.534 95.0191 103.534 94.9191C103.634 94.8191 103.734 94.6191 103.734 94.5191C103.734 94.4191 103.834 94.4191 103.834 94.3191C103.934 94.1191 103.934 94.2191 103.734 94.5191C103.734 94.4191 103.934 94.2191 104.034 94.1191C104.134 94.0191 104.634 93.7191 104.634 93.5191C104.334 93.7191 104.334 93.7191 104.434 93.6191C104.534 93.6191 104.534 93.5191 104.634 93.5191C104.734 93.4191 104.934 93.3191 105.034 93.2191C105.134 93.1191 105.334 93.0191 105.434 93.0191C105.834 92.8191 105.534 92.8191 105.434 93.0191C105.534 92.8191 106.634 92.5191 106.734 92.5191C107.934 91.9191 108.634 90.7191 108.634 89.4191C108.634 88.6191 108.634 87.8191 108.634 86.9191C108.634 85.5191 107.434 84.2191 105.934 84.2191C104.534 84.3191 103.234 85.4191 103.234 86.9191C103.234 87.4191 103.234 87.8191 103.234 88.3191C103.234 88.5191 103.234 88.7191 103.234 88.9191C103.234 89.0191 103.234 89.1191 103.234 89.3191C103.234 90.0191 103.534 89.5191 104.034 87.9191C104.234 87.8191 104.434 87.7191 104.134 87.9191C104.034 88.0191 103.834 88.0191 103.734 88.1191C103.334 88.3191 102.834 88.5191 102.434 88.7191C101.034 89.5191 99.7341 90.7191 98.9341 92.1191C97.2341 95.1191 97.6341 99.3191 100.234 101.719C101.234 102.619 103.034 102.819 104.034 101.719C105.034 100.819 105.134 99.1191 104.034 98.1191Z" fill="#3C437D"/>
<path d="M88.834 108.719C89.634 110.719 90.834 112.619 92.334 114.219C93.134 115.019 93.934 115.619 94.834 116.319C95.734 116.919 96.734 117.419 97.734 117.819C98.334 118.019 99.234 117.819 99.734 117.519C100.234 117.219 100.834 116.519 100.934 115.919C101.134 115.219 101.034 114.519 100.634 113.919C100.534 113.719 100.334 113.519 100.234 113.419C99.934 113.119 99.534 112.819 99.034 112.719H98.934C99.134 112.819 99.334 112.919 99.534 113.019C98.534 112.619 97.534 112.019 96.734 111.319C96.934 111.419 97.134 111.619 97.234 111.719C96.334 111.019 95.434 110.219 94.734 109.219C94.834 109.419 95.034 109.619 95.134 109.719C94.434 108.819 93.934 107.919 93.434 106.919C93.534 107.119 93.634 107.319 93.734 107.519C93.734 107.419 93.634 107.419 93.634 107.319C93.334 106.619 93.034 106.119 92.434 105.719C91.834 105.419 91.034 105.219 90.434 105.419C89.834 105.619 89.134 106.019 88.834 106.619C88.734 107.219 88.534 108.019 88.834 108.719Z" fill="#3C437D"/>
<path d="M84.3341 72.1192C84.8341 71.6192 85.3341 71.0192 85.9341 70.6192C86.0341 70.5192 86.1341 70.4192 86.3341 70.3192C86.4341 70.2192 86.4341 70.2192 86.5341 70.1192C86.1341 70.4192 86.3341 70.2192 86.4341 70.2192C86.7341 70.0192 86.9341 69.8192 87.2341 69.7192C87.3341 69.6192 87.5341 69.6192 87.6341 69.5192C87.7341 69.5192 87.7341 69.4192 87.8341 69.4192C88.0341 69.3192 87.4341 69.6192 87.7341 69.5192C88.0341 69.4192 88.3341 69.3192 88.6341 69.2192C88.8341 69.2192 88.9341 69.1192 89.1341 69.1192C89.2341 69.1192 89.3341 69.1192 89.4341 69.0192C89.3341 69.0192 89.0341 69.1192 89.3341 69.0192C89.7341 69.0192 90.1341 68.9192 90.5341 68.9192C91.4341 68.9192 92.3341 68.1192 92.3341 67.1192C92.3341 66.1192 91.5341 65.3192 90.5341 65.3192C88.8341 65.3192 87.1341 65.7192 85.6341 66.5192C84.2341 67.3192 83.0341 68.4192 82.0341 69.6192C81.4341 70.3192 81.3341 71.4192 82.0341 72.1192C82.5341 72.7192 83.6341 72.8192 84.3341 72.1192Z" fill="#3C437D"/>
<path d="M121.034 69.5192C121.834 69.4192 122.634 69.5192 123.334 69.5192C122.834 69.5192 123.534 69.5192 123.634 69.5192C123.834 69.5192 124.034 69.6192 124.234 69.6192C124.634 69.7192 125.034 69.8192 125.334 69.9192C125.534 70.0192 125.734 70.0192 125.934 70.1192C126.034 70.1192 126.134 70.2192 126.234 70.2192C126.034 70.1192 126.034 70.1192 126.234 70.2192C126.634 70.4192 126.934 70.5192 127.234 70.7192C127.534 70.9192 127.934 71.1192 128.234 71.3192C128.334 71.4192 128.434 71.4192 128.434 71.5192C128.234 71.4192 128.234 71.4192 128.434 71.5192C128.634 71.6192 128.734 71.8192 128.834 71.9192C129.534 72.5192 130.634 72.6192 131.334 71.9192C131.934 71.2192 132.034 70.1192 131.334 69.4192C128.534 66.9192 124.734 65.5192 121.034 65.8192C120.134 65.9192 119.234 66.6192 119.234 67.6192C119.334 68.6192 120.134 69.6192 121.034 69.5192Z" fill="#3C437D"/>
<path d="M84.634 101.319C85.834 98.2192 83.734 94.4192 79.834 92.9192C75.934 91.4192 71.834 92.7192 70.634 95.8192C69.434 98.9192 71.534 102.719 75.434 104.219C79.334 105.719 83.434 104.419 84.634 101.319Z" fill="#F77F90"/>
<path fill-rule="evenodd" clip-rule="evenodd" d="M85.3342 101.619C84.8342 101.519 85.3342 101.019 85.3342 100.719C85.1342 100.519 85.3342 100.119 85.1342 99.8192C85.1342 99.4192 85.0342 98.9192 85.2342 98.7192C84.8342 98.3192 84.8342 97.7192 84.5342 97.2192C84.3342 97.0192 84.1342 96.8192 83.9342 96.6192C83.7342 96.4192 83.5342 96.2192 83.3342 96.0192C82.8342 95.6192 82.1342 95.1192 81.4342 94.8192C80.7342 94.4192 80.0342 94.0192 79.3342 93.6192C79.0342 93.5192 78.7342 93.7192 78.4342 93.6192C77.1342 93.1192 76.0342 93.0192 74.9342 93.2192C73.8342 93.4192 72.7342 93.9192 71.9342 95.0192C71.4342 95.4192 71.6342 95.8192 71.0342 96.0192C70.7342 97.1192 70.6342 98.1192 70.7342 99.1192C71.0342 99.4192 71.4342 99.7192 71.7342 100.019C72.4342 100.719 72.6342 101.719 73.7342 102.419C73.7342 102.419 73.6342 102.619 73.7342 102.619C74.1342 102.419 74.8342 103.019 75.3342 103.219C76.0342 103.519 77.3342 103.719 78.5342 103.519C79.1342 103.719 79.8342 103.619 80.5342 103.419C81.2342 103.419 81.9342 103.119 82.5342 102.719C83.1342 102.319 83.7342 101.819 84.2342 101.219C84.7342 101.319 84.3342 101.619 84.6342 101.819C84.8342 102.019 85.0342 101.119 85.0342 101.719C85.5342 101.819 84.9342 102.519 84.7342 102.519C84.5342 103.019 84.2342 103.119 83.9342 103.319C83.0342 104.519 81.3342 104.919 79.9342 104.919C79.1342 104.919 78.8342 105.219 78.2342 105.019C77.7342 105.219 77.0342 105.219 76.2342 105.119C75.4342 105.019 74.6342 104.819 73.9342 104.519C73.3342 104.019 72.8342 103.719 72.4342 103.319C72.0342 103.019 71.7342 102.619 71.5342 102.019C70.7342 101.519 70.1342 100.819 69.7342 99.8192C69.3342 98.8192 69.1342 97.6192 69.5342 96.1192C70.5342 93.3192 73.0342 91.5192 75.8342 91.3192C76.4342 91.5192 77.4342 91.2192 77.7342 91.7192C78.4342 91.4192 79.6342 92.0192 80.1342 92.4192C80.5342 92.2192 80.5342 92.4192 80.9342 92.4192C82.2342 93.2192 83.2342 93.8192 84.5342 94.7192C85.0342 95.3192 85.3342 95.7192 85.5342 96.1192C85.7342 96.5192 85.9342 96.8192 86.3342 97.3192C86.5342 97.9192 86.3342 98.2192 86.6342 98.7192C86.6342 99.0192 86.9342 99.1192 86.6342 99.2192C86.5342 99.9192 86.7342 100.119 86.2342 100.319C85.8342 100.919 85.7342 101.719 85.3342 101.619Z" fill="#F77F90"/>
<path d="M137.834 104.219C141.734 102.719 143.834 98.9192 142.634 95.8192C141.434 92.7192 137.334 91.4192 133.434 92.9192C129.534 94.4192 127.434 98.2192 128.634 101.319C129.834 104.419 133.934 105.719 137.834 104.219Z" fill="#F77F90"/>
<path fill-rule="evenodd" clip-rule="evenodd" d="M129.234 101.019C128.834 101.319 128.834 100.619 128.734 100.419C128.434 100.319 128.434 99.9192 128.334 99.7192C128.334 99.3192 128.234 98.9192 128.534 98.7192C128.334 98.2192 128.634 97.7192 128.734 97.2192C128.834 96.9192 128.734 96.7192 128.834 96.4192C128.934 96.1192 129.134 95.8192 129.234 95.5192C129.534 94.9192 130.034 94.1192 130.834 93.4192C131.534 92.8192 132.534 92.3192 133.334 92.2192C133.734 92.0192 133.834 91.8192 134.234 91.6192C135.934 91.4192 137.234 91.5192 138.534 91.9192C139.734 92.3192 141.034 92.8192 142.334 94.0192C142.634 94.7192 143.134 94.9192 142.934 95.5192C143.534 96.6192 143.534 98.1192 143.034 99.1192C143.134 99.6192 143.234 100.119 143.034 100.619C142.634 101.919 141.634 102.519 140.534 103.619C140.534 103.619 140.334 103.519 140.334 103.619C140.334 103.919 140.034 104.119 139.734 104.319C139.434 104.519 139.034 104.719 138.734 104.819C137.934 105.219 136.434 105.919 134.834 106.119C134.034 106.019 133.134 105.919 132.134 105.619C131.234 105.219 130.334 104.719 129.634 103.919C128.934 103.219 128.334 102.219 128.334 101.319C128.734 101.019 128.734 101.519 129.034 101.419C129.334 101.419 128.834 100.719 129.234 101.119C129.634 100.819 129.734 101.519 129.734 101.719C130.034 102.019 130.034 102.319 130.234 102.519C131.134 103.219 132.334 104.119 133.634 104.419C134.434 104.619 134.734 104.219 135.334 104.519C135.834 104.319 136.434 104.019 137.034 103.719C137.634 103.419 138.234 103.019 138.734 102.619C139.334 102.419 139.734 102.119 140.034 101.819C140.334 101.519 140.634 101.319 141.134 101.019C141.334 100.219 141.534 99.6192 141.734 98.9192C141.934 98.2192 142.034 97.5192 141.834 96.6192C141.734 95.7192 141.234 94.9192 140.534 94.4192C139.834 93.8192 138.834 93.5192 137.834 93.2192C137.434 92.9192 136.534 93.2192 136.334 92.8192C135.734 93.1192 134.734 93.1192 134.134 93.1192C133.934 93.5192 133.834 93.3192 133.634 93.6192C132.334 94.0192 131.534 94.7192 130.934 95.9192C130.634 96.4192 130.334 96.7192 130.234 97.0192C130.034 97.3192 130.034 97.6192 130.034 98.0192C129.934 98.4192 129.634 98.5192 129.834 98.9192C129.834 99.1192 130.034 99.2192 129.834 99.2192C129.734 99.6192 129.934 99.7192 129.634 99.9192C129.334 100.519 129.734 100.919 129.234 101.019Z" fill="#F77F90"/>
<path d="M82.2341 85.7192C82.6341 85.4192 83.0341 85.2192 83.4341 85.0192C83.5341 85.0192 83.6341 84.9192 83.7341 84.9192C84.0341 84.7192 83.2341 85.1192 83.5341 85.0192C83.7341 84.9192 84.0341 84.8192 84.2341 84.8192C84.4341 84.7192 84.6341 84.7192 84.8341 84.6192C84.9341 84.6192 85.0341 84.6192 85.1341 84.5192C85.2341 84.5192 85.7341 84.4192 85.2341 84.5192C84.8341 84.6192 85.4341 84.5192 85.6341 84.5192C85.8341 84.5192 86.1341 84.5192 86.3341 84.5192C86.5341 84.5192 86.7341 84.5192 86.9341 84.5192C87.0341 84.5192 87.1341 84.5192 87.2341 84.5192C87.1341 84.5192 86.6341 84.4192 87.0341 84.5192C87.4341 84.6192 87.9341 84.7192 88.3341 84.8192C88.4341 84.8192 88.6341 84.9192 88.7341 84.9192C89.0341 85.0192 88.6341 84.9192 88.5341 84.8192C88.7341 84.9192 88.9341 85.0192 89.1341 85.1192C89.5341 85.3192 89.9341 85.6192 90.3341 85.9192C90.8341 86.3192 91.8341 86.3192 92.3341 86.2192C92.9341 86.0192 93.6341 85.6192 93.9341 85.0192C94.2341 84.4192 94.4341 83.6192 94.2341 83.0192C94.0341 82.3192 93.6341 81.9192 93.0341 81.4192C89.2341 78.5192 83.3341 78.5192 79.4341 81.2192C78.3341 82.0192 77.6341 83.5192 78.4341 84.8192C79.3341 85.9192 81.0341 86.6192 82.2341 85.7192Z" fill="#3C437D"/>
<path d="M122.834 85.7192C123.234 85.4192 123.634 85.2192 124.034 85.0192C124.134 85.0192 124.234 84.9192 124.334 84.9192C124.634 84.7192 123.834 85.1192 124.134 85.0192C124.334 84.9192 124.534 84.8192 124.834 84.8192C125.034 84.7192 125.234 84.7192 125.434 84.6192C125.534 84.6192 125.634 84.6192 125.734 84.5192C125.834 84.5192 126.334 84.4192 125.834 84.5192C125.334 84.6192 126.034 84.5192 126.234 84.5192C126.434 84.5192 126.734 84.5192 126.934 84.5192C127.134 84.5192 127.334 84.5192 127.534 84.5192C127.634 84.5192 127.734 84.5192 127.834 84.5192C127.734 84.5192 127.234 84.4192 127.634 84.5192C128.134 84.6192 128.534 84.7192 128.934 84.8192C129.034 84.8192 129.234 84.9192 129.334 84.9192C129.634 85.0192 129.234 84.9192 129.134 84.8192C129.334 84.9192 129.534 85.0192 129.734 85.1192C130.134 85.3192 130.534 85.6192 130.934 85.9192C131.434 86.3192 132.434 86.3192 132.934 86.2192C133.534 86.0192 134.234 85.6192 134.534 85.0192C134.834 84.4192 135.034 83.6192 134.834 83.0192C134.634 82.3192 134.234 81.9192 133.634 81.4192C129.834 78.5192 123.934 78.5192 120.034 81.2192C118.934 82.0192 118.234 83.5192 119.034 84.8192C119.934 85.9192 121.634 86.6192 122.834 85.7192Z" fill="#3C437D"/>
<path d="M152.934 55.1192L152.834 55.3192V55.4192L152.934 55.5192C153.034 55.5192 153.034 55.5192 153.134 55.4192C153.234 55.2192 153.134 55.0192 152.934 55.1192C152.934 55.0192 152.934 55.0192 152.934 55.1192C152.834 55.1192 152.834 55.1192 152.934 55.1192Z" fill="#5D6393"/>
<path d="M147.834 63.8192C147.834 63.8192 147.734 63.8192 147.734 63.9192V64.0192C147.834 64.1192 147.934 64.1192 148.034 64.1192L148.134 63.9192C147.934 63.9192 147.934 63.8192 147.834 63.8192Z" fill="#5D6393"/>
</svg>
