<svg width="216" height="216" viewBox="0 0 216 216" fill="none" xmlns="http://www.w3.org/2000/svg">
<path d="M108.859 169.88C151.197 169.88 185.519 135.558 185.519 93.22C185.519 50.8819 151.197 16.56 108.859 16.56C66.5206 16.56 32.1987 50.8819 32.1987 93.22C32.1987 135.558 66.5206 169.88 108.859 169.88Z" fill="#B1F4FC"/>
<path fill-rule="evenodd" clip-rule="evenodd" d="M177.909 129.26C177.209 129.69 177.789 128.33 178.699 126.5C179.179 125.6 179.629 124.53 180.089 123.53C180.309 123.03 180.529 122.54 180.729 122.09C180.909 121.63 181.059 121.2 181.179 120.83C181.369 119.29 183.089 114.75 183.439 112.14C184.569 107.99 185.179 102.56 185.709 100.43C185.729 99.12 185.679 97.75 185.729 96.33C185.719 94.91 185.699 93.44 185.689 91.94C185.559 88.93 185.409 85.76 184.809 82.6C184.309 79.64 183.539 77.21 182.609 73.98C181.569 70.75 180.639 67.68 179.099 64.27C177.569 60.92 175.589 57.19 173.119 53.42C170.649 49.64 167.669 45.83 164.289 42.27C157.549 35.11 149.169 29.11 141.259 25.05C137.469 23.35 135.509 22.98 131.589 21.74C127.619 20.39 123.749 19.41 119.979 18.82C116.219 18.22 112.569 17.84 109.019 17.83C105.469 17.78 102.019 17.95 98.6586 18.4C96.9686 18.57 95.3186 18.91 93.6586 19.19C92.8386 19.35 92.0186 19.55 91.1986 19.73C90.3786 19.91 89.5586 20.1 88.7586 20.34C85.5086 21.17 82.3486 22.34 79.1686 23.63C76.0086 24.97 72.9086 26.58 69.7886 28.41C66.7086 30.31 63.6586 32.46 60.6386 34.96C57.6386 37.48 54.7186 40.36 51.9086 43.65C49.3386 46.32 47.7486 48.71 46.3286 50.78C44.9486 52.88 43.7686 54.7 42.3086 56.6C36.0986 68.23 32.9786 81.37 32.6386 93.28C33.0786 98.09 33.8386 102.6 35.0286 107.76C36.4886 114.05 38.3486 119.63 40.8786 125.34C42.2086 128.16 43.6486 131.05 45.5186 133.93C47.3486 136.83 49.4986 139.78 52.1686 142.71C51.8586 142.36 52.3786 143.54 52.9386 143.97C53.6186 144.44 54.5786 145.3 55.7086 146.38C56.9086 147.39 58.2086 148.7 59.7286 149.92C61.1886 151.21 62.8186 152.44 64.3686 153.64C65.9786 154.76 67.4886 155.86 68.8686 156.66C72.7186 159.02 78.4386 161.99 85.2586 164.12C88.6586 165.21 92.3286 166.03 96.0686 166.64C99.8086 167.25 103.649 167.48 107.389 167.49C115.119 167.92 123.959 166.84 132.939 163.73C141.499 161.17 150.229 156.47 157.689 150.24C165.199 144.04 171.369 136.38 176.039 128.7C177.339 127.92 174.639 132.31 174.679 133.04C174.429 134.54 178.999 125.65 176.579 130.68C176.939 130.49 176.909 130.83 176.629 131.48C176.359 132.13 175.869 133.08 175.219 134.04C174.019 136.01 172.359 138.04 171.969 138.43C171.269 139.52 170.519 140.43 169.859 141.29C169.199 142.16 168.539 142.92 167.889 143.62C166.629 145.06 165.379 146.23 164.079 147.48C161.549 150.1 158.719 152.71 155.539 155.05C152.369 157.4 148.919 159.57 145.289 161.45C137.989 165.17 129.969 167.77 122.169 168.96C117.809 169.64 114.739 170.02 111.879 170.18C111.159 170.22 110.459 170.27 109.759 170.29C109.049 170.29 108.339 170.28 107.609 170.28C106.149 170.29 104.609 170.11 102.869 169.92C101.439 169.88 99.8986 169.79 98.2686 169.65C96.6486 169.45 94.9086 169.3 93.1286 168.95C91.3386 168.68 89.4986 168.23 87.5986 167.79C85.7286 167.26 83.7786 166.76 81.8586 166.06C74.0886 163.46 66.2486 159.19 59.6586 154.23C56.4486 151.45 53.8186 148.96 51.6286 146.56C50.4886 145.4 49.5386 144.2 48.5586 143.11C47.6286 141.98 46.7686 140.88 45.9286 139.8C42.6886 135.43 40.1486 131.2 37.9686 125.48C33.6286 117.13 30.9386 108.04 30.1986 97.79C29.8386 92.66 29.9986 87.24 30.8586 81.51C31.7286 75.78 33.2586 69.73 35.8186 63.48C38.5486 57.22 41.9086 51.37 45.9386 46.07C49.9886 40.8 54.5786 35.97 59.7986 31.88C70.1486 23.61 82.7486 17.92 96.5886 15.8C99.4186 15.58 103.529 15.07 107.359 15.06C111.189 15.04 114.689 15.35 116.199 15.9C119.879 15.93 124.819 16.77 129.569 18.19C134.329 19.59 138.849 21.63 142.069 23.3C145.439 24.34 145.749 24.92 148.919 26.42C152.309 28.54 155.349 30.81 158.209 33.12C161.019 35.5 163.659 37.94 166.139 40.58C171.059 45.87 175.489 51.78 179.459 59.18C182.999 66.53 184.369 71.7 185.409 76.16C186.389 80.65 187.049 84.5 187.629 89.88C187.659 90.68 187.679 91.41 187.709 92.1C187.689 92.78 187.669 93.41 187.649 94C187.609 95.18 187.559 96.21 187.449 97.2C187.349 98.19 187.309 99.14 187.229 100.17C187.139 101.2 187.069 102.3 187.039 103.62C186.579 106.18 186.849 107.6 186.289 108.14C184.749 114.6 184.399 116.4 183.099 118.33C182.699 119.41 182.249 120.64 181.789 121.88C181.319 123.12 180.769 124.35 180.289 125.46C179.269 127.65 178.299 129.28 177.909 129.26Z" fill="#B1F4FC"/>
<path d="M52.4085 67.4901C52.5185 64.0801 51.2585 60.7901 50.3385 57.5001C49.2885 53.7301 48.6685 49.8501 48.4885 45.9401C45.6885 49.5301 43.1585 53.4201 40.9685 57.5901C36.0685 66.9201 33.2885 76.7901 32.4485 86.6701C33.1285 86.6301 33.8085 86.5901 34.4885 86.5401C38.4685 86.2701 42.7685 85.7401 45.6485 82.9801C47.1685 81.5301 48.1285 79.6001 49.0585 77.7201C50.6585 74.4801 52.2885 71.1001 52.4085 67.4901Z" fill="#21C496"/>
<path d="M97.5457 49.8961C84.2712 47.6909 73.051 57.9029 69.1003 63.2845C62.384 76.673 63.5692 82.5797 65.5446 97.9371C67.52 113.294 82.1378 124.714 85.6935 125.895C89.2491 127.077 97.5457 132.983 110.978 144.797C124.411 156.61 129.547 150.703 140.609 149.128C151.671 147.553 156.807 139.284 160.363 134.952C163.918 130.621 173.296 133.191 178.5 126.5C182 122 183.277 115 184.5 104C185.866 91.7111 182.923 75.7681 181.5 71.5C180 67.0001 179.5 65.0001 175.5 56.5001C173.672 52.6153 174 52.0001 170 49.001C164.662 49.0349 159.492 49.8961 156.807 49.8961C151.671 49.8961 146.93 55.8028 140.609 60.1343C134.288 64.4659 138.144 80.3418 134 78.5001C129.5 76.5001 122.435 60.1343 119.275 55.8028C116.114 51.4712 114.139 52.6525 97.5457 49.8961Z" fill="#21C496"/>
<path d="M112.228 23.96C114.118 22.47 116.058 20.92 117.218 18.81C117.518 18.27 117.748 17.68 117.908 17.07C102.188 15.21 86.3584 18.3 72.6084 25.66C73.6284 28.78 76.2784 31.41 79.5284 32.02C82.4884 32.58 85.5784 31.64 88.5384 32.19C90.5084 32.56 92.4984 33.57 94.4084 32.98C97.8984 31.9 98.9384 26.16 102.588 26.28C103.448 26.31 104.258 26.7001 105.108 26.8601C107.708 27.34 110.148 25.6 112.228 23.96Z" fill="#21C496"/>
<path fill-rule="evenodd" clip-rule="evenodd" d="M51.1684 67.47C52.0484 67.29 51.4584 68.34 51.5384 68.8C51.9084 69.08 51.6484 69.78 51.7584 70.22C51.5984 70.85 51.4884 71.71 51.0284 71.91C51.2584 72.83 50.6784 73.66 50.4684 74.66C50.3684 75.13 50.4284 75.59 50.3184 76.13C50.2084 76.67 49.9684 77.12 49.8184 77.71C49.5284 78.86 49.1584 80.38 48.3284 81.9C47.9084 82.65 47.3684 83.39 46.6984 84C46.0184 84.6 45.2484 85.05 44.4884 85.31C43.8784 85.7 43.7384 86.22 43.0684 86.55C40.9384 87.18 39.1784 87.29 37.5184 87.4C35.8484 87.5 34.2784 87.53 32.5084 87.66L31.3784 87.74L31.4584 86.57C31.5284 85.55 31.6184 84.22 31.7184 82.71C32.2084 81.58 31.7084 80.84 32.5884 80.22C32.6984 78.11 33.2184 76.03 34.0884 74.3C33.8684 73.46 33.7284 72.66 33.7784 71.77C33.9384 69.62 35.1384 68.19 35.7984 65.69C35.7784 65.76 36.1984 65.71 36.1084 65.55C35.6684 64.82 36.5684 63.28 36.9084 62.29C37.3984 60.89 38.2584 58.3 39.1584 55.95C39.9684 54.92 40.7384 53.69 41.4984 52.32C43.5384 50.12 45.2884 47.12 47.9284 45.52C48.6584 45.83 47.9484 46.31 48.2584 46.66C48.4784 47.1 49.1884 45.7 48.9184 46.59C49.7384 46.96 48.5284 47.82 48.2684 47.83C47.8784 48.53 47.4284 48.81 46.9884 49.18C45.8884 51.14 44.0384 53.14 42.5984 55.16C41.8184 56.3 42.0084 57.03 41.1484 57.81C40.8984 59.68 39.8984 62.39 39.4484 64.88C38.0984 67.09 38.4384 68.36 37.1084 69.86C37.2284 72.89 36.4484 75.43 35.6584 79.36C34.8784 81.82 34.5484 84.27 34.2984 86.81L32.3384 84.79C33.7784 84.73 35.2584 84.66 36.8084 84.6C37.6984 84.9 39.1584 84.19 39.7584 84.83C40.6884 84.1 42.4484 83.99 43.4984 83.65C43.6284 82.93 43.8784 83.17 44.0984 82.66C45.0484 82.13 45.7384 81.39 46.2484 80.49C46.7584 79.58 47.0784 78.54 47.3584 77.27C48.2784 74.96 48.9184 74.45 48.9184 72.77C49.2184 71.92 49.7684 71.79 49.5684 70.97C49.7284 70.64 49.3184 70.35 49.7384 70.37C50.1684 69.55 49.7884 69.24 50.5184 69.07C50.7184 68.46 50.4284 67.49 51.1684 67.47Z" fill="#2F326A"/>
<path d="M134.476 152.006C132.476 152.507 126.978 154.009 125.478 154.009C123.479 153.009 121.48 153.51 118.481 152.01C112.484 148.511 110.165 146.192 109.486 145.511C108.297 144.318 100.761 138.192 99.9922 137.511C99.2834 136.871 93.4961 132.512 90.4978 130.512C88.9988 129.012 86.9998 128.012 84.501 127.013C82.502 126.025 81.5023 125.742 80.0035 124.038C79.5544 123.527 77.4743 122.094 77.0054 121.513C76.5464 120.933 74.9959 119.634 74.507 119.014C74.0282 118.383 72.9173 117.214 72.5085 116.513C72.0089 116.013 71.2876 115.434 70.51 114.013C69.9233 112.758 68.7093 111.841 68.1794 110.599C67.7516 109.268 66.8716 108.233 66.5135 107.013C66.2055 105.782 65.803 105.153 65.5148 104.012C65.3658 103.442 65.1546 103.072 65.0155 102.512C64.8864 101.962 64.6255 101.062 64.5163 100.512C64.298 99.4113 64.2259 98.0915 64.0176 97.0111C63.7593 95.9406 63.6971 95.1109 63.5188 94.0105C63.3505 92.9001 63.1979 92.6805 63.0197 91.5101C62.9215 90.3297 63.1288 89.7897 63.0207 88.5093C62.9617 87.8691 62.5912 85.1787 62.5222 84.5085C62.4832 83.8383 62.5519 82.7182 62.523 82.008C62.8765 79.5778 62.0925 78.5161 63.0244 77.0066C63.1076 74.8762 63.7978 72.6663 64.2307 70.6063C64.6037 68.5461 64.8148 66.8128 65.5272 65.003C65.5084 64.2028 66.8076 63.743 67.5272 63.0021C68.5273 61.5015 69.1061 60.6306 69.5276 59.5008C70.0193 58.2309 69.867 58.9689 71.0275 58.3599C71.6077 58.0503 71.8675 57.0989 72.5274 56.9995C73.1363 56.8937 74.4368 55.5902 74.9744 55.0514L75.0272 54.9985C75.5273 54.4985 75.5271 54.9984 76.0271 54.4982C76.5269 54.4981 76.527 53.9979 77.5268 53.4976C77.3771 53.3774 78.5268 52.4971 79.0267 52.497C80.4211 51.1018 83.2249 50.3959 85.0255 49.4948C86.0252 49.4945 85.7374 49.3165 87.025 48.9942C89.0246 48.4936 90.1366 47.9932 92.0236 47.9927C95.9768 47.9917 98.5212 48.4912 101.52 48.9904C102.52 48.9903 106.538 49.7088 107.018 49.4892C111.516 50.9884 113.639 49.0741 116.514 51.4873C117.962 52.6789 121.801 55.1165 122.068 56.9872C122.257 57.9376 124.559 59.7372 124.508 60.4874C124.437 61.2375 124.978 61.8375 125.007 62.4877C124.687 62.7675 122.855 63.0277 122.706 62.6675C122.649 62.5307 122.642 62.4835 122.641 62.4732C122.64 62.4842 122.627 62.528 122.508 62.4883C122.279 62.2681 123.008 62.4882 122.009 61.9883C122.009 61.4882 121.877 62.4289 121.509 61.4883C121.009 60.9883 120.51 60.9885 120.51 60.4884C120.51 59.9882 119.93 59.1581 120.01 58.9881C119.763 57.5776 119.011 58.9886 117.013 55.4882C115.762 53.9205 114.431 53.7672 112.163 53.506L112.015 53.489C110.836 53.3579 108.516 52.9897 106.517 52.9902C105.018 52.4905 105.518 52.4904 104.018 52.4907C102.519 52.4911 101.519 52.4914 100.02 51.9916C99.0201 51.6585 97.5508 51.4127 97.0209 51.4923C96.481 51.5418 96.0213 50.9924 95.0217 50.9926C94.5219 50.9928 93.0222 51.4933 91.5229 50.9935C90.0234 50.9939 90.5231 51.4939 88.5238 51.4944C87.0242 51.9949 87.0242 51.9949 86.0244 52.4952C84.5247 52.9957 83.5249 53.4961 82.5251 53.9965L79.5256 55.4975C77.0259 57.4986 76.5424 57.4824 76.026 57.999C75.5261 58.4992 75.5259 58.9993 75.0259 59.4996C74.0261 59.9999 74.0261 59.9999 73.5261 60.5002C73.0261 61.0004 72.4558 61.2534 71.9347 62.0531C71.6742 62.4629 71.026 63.0012 70.5579 63.4901C70.4268 64.2301 70.1868 64.7322 70.0257 65.5022C69.7435 67.0323 68.5256 67.5031 68.0253 69.0035C67.884 69.8636 67.2998 70.5391 67.1485 71.4592C67.0778 71.9192 66.9971 72.3993 66.9264 72.8793C66.8857 73.3694 66.845 73.8594 66.8042 74.3695C65.5624 82.5503 65.8887 91.1573 67.5156 99.5108C68.1823 101.574 69.3695 103.589 68.8779 104.758C69.1771 105.259 69.3961 105.889 69.685 106.55C69.9639 107.21 70.7825 108.282 71.0113 109.012C71.479 110.473 72.5099 111.512 73.5092 113.012C74.5085 114.512 74.841 114.642 75.5495 115.512C75.7886 116.083 76.2785 116.284 77.0068 117.012C77.5065 117.512 78.006 118.513 79.0053 119.012C80.0048 120.012 80.5045 120.512 81.5037 121.512C82.5033 122.012 84.0023 123.512 86.0013 124.512C87.5006 125.012 89.4996 126.011 91.8215 127.499C94.4967 129.511 97.9947 132.011 99.9935 133.511C100.952 134.532 104.662 137.539 105.99 138.51C108.488 140.51 109.588 141.56 109.987 142.01C110.386 142.46 114.255 145.129 114.984 145.509C115.523 146.08 117.982 148.509 119.482 149.009C119.811 149.39 122.48 150.009 124.979 150.508C126.979 150.508 129.478 150.007 131.477 149.506C133.477 149.006 136.976 148.005 137.976 148.004C138.931 148.004 139.934 147.907 140.975 148.004C140.975 148.004 143.474 148.003 144.973 147.002C146.473 146.002 147.473 146.002 148.973 145.501C150.472 145.001 153.972 141.999 154.472 140.999C154.778 140.387 156.797 136.945 158.473 134.996C158.798 134.617 159.219 134.131 159.473 133.996C159.635 133.909 159.702 133.962 159.972 133.996C160.047 134.012 159.972 134.496 160.533 133.996C160.972 133.995 160.932 134.25 160.972 134.496C161.012 134.744 160.491 134.583 160.472 134.996C159.972 135.496 159.972 135.996 159.972 135.996C159.971 136.996 157.471 141.498 155.971 142.999C155.153 143.817 150.471 147.501 149.472 147.501C147.972 148.002 145.127 149.423 144.973 149.503C144.86 149.562 143.634 149.957 142.781 150.235L141.973 150.504L140.974 150.504C137.475 151.005 135.858 151.66 134.476 152.006Z" fill="#2F326A"/>
<path fill-rule="evenodd" clip-rule="evenodd" d="M135 71.9999C135.249 71.1739 135 70 135.221 69.7467C135.221 69.1867 135 67.9999 135 67.9999C135 67.5 135.221 66.4999 135.5 66.4999C135.797 65.7549 135.336 65.2701 135.797 64.9999C136.006 64.8779 136.289 64.1535 136.5 63.9999C136.711 63.8463 136.778 63.6814 137 63.4999C137.887 62.774 137.883 60.8488 139.258 60.7661C139.474 60.5716 140.516 59.8585 140.71 59.666C142.873 58.7539 143.296 58.9422 144.567 56.8304C145.145 56.617 144.849 56.0283 145.657 56.2164C146.013 55.3359 146.66 54.5371 147.528 54.1046C147.436 53.5741 147.377 53.0675 147.517 52.6284C147.875 51.5547 148.968 51.4254 149.849 50.4395C149.825 50.473 150.13 50.7107 150.084 50.5531C149.918 49.8541 150.872 49.5307 151.372 49.2435C152.045 48.7881 153.576 47.982 155.26 47.8806C156 47.4999 158.198 47.7171 159 48C163.5 48 167.95 47.0688 168.5 47.5C169.06 47.9348 169.584 48.8099 170 49.5C169.88 50.2695 165.5 49.5 163 49.9999C161.5 49.9999 158.887 50.3396 158 50.4999C156.653 50.7435 155.5 50.4999 154.669 50.5063C153.853 51.0777 152.885 51.5999 152.354 52.541C151.833 52.5832 151.576 52.88 151.346 53.1117C151.111 53.3527 150.893 53.5249 150.327 53.5173C150.196 55.1095 149.499 55.8993 148.375 57.3918C146.79 58.7461 145.792 60.3845 144.062 61.671C143.497 61.6856 143.163 62.5641 142.477 62.1227C142.383 62.8809 141.305 63.0807 140.71 63.1475C140.789 63.7375 140.58 63.5048 140.491 63.8675C139.264 64.2558 139.156 64.9715 138 66C137.5 67 137.901 67.9641 137.5 68C137 69 137 69.5 137 70C137 70.5 137 70.5 137 71C137 71.5 137.5 73.4999 137 73.9999C136.5 74.4999 136 74.5 135.221 73.5C135.221 73.0738 134.72 72.685 135 71.9999Z" fill="#2F326A"/>
<path fill-rule="evenodd" clip-rule="evenodd" d="M111.438 23.01C112.188 23.52 110.748 23.98 110.358 24.42C110.358 24.92 109.508 25.31 109.168 25.73C108.448 26.11 107.488 26.61 107.018 26.31C106.608 26.65 106.058 26.78 105.488 26.74C104.908 26.72 104.328 26.5 103.688 26.43C103.078 26.35 102.558 26.55 102.018 26.75C101.488 27 101.008 27.22 100.578 27.75C99.7284 28.76 99.1284 30.5 97.7684 32.27C97.0884 33.13 96.0784 34.06 94.7284 34.4C93.3884 34.75 92.1584 34.46 91.2684 34.08C90.3884 33.92 89.8884 34.17 89.1184 34C86.4084 32.91 83.6684 33.48 80.7884 33.2C77.8584 33 74.7984 31.53 72.5884 28.37C72.1984 27.31 71.7284 26.68 71.5684 25.98L71.3484 24.96L72.0884 24.7C72.3784 24.6 72.6884 24.56 73.0684 24.63C75.2884 23.17 77.7884 22.17 80.1384 21.64C80.8784 20.9 81.6184 20.25 82.5684 19.69C84.9284 18.41 87.2084 18.4 90.2884 17.38C90.1984 17.41 90.5284 17.71 90.6284 17.54C91.1084 16.71 93.3384 16.52 94.6184 16.2C96.4284 15.76 99.7584 14.94 102.868 14.39C104.508 14.51 106.318 14.47 108.308 14.41C111.408 14.91 114.948 14.98 118.028 15.94L119.408 16.37L118.988 17.34C118.688 18.02 118.298 18.61 117.838 19.09C117.048 18.96 117.758 18.15 117.348 17.87C117.068 17.49 116.538 19.22 116.688 18.18C115.958 18.02 116.548 17.2 116.828 16.79L117.768 18.16C117.668 18.11 117.598 18.07 117.568 18.03C116.568 18.04 115.968 17.78 115.288 17.56C112.468 17.57 109.098 17 105.988 16.86C104.248 16.86 103.598 17.36 102.198 17.11C100.028 17.91 96.4884 18.69 93.5484 19.85C90.3084 20.09 89.2084 21.22 86.7484 21.1C83.6384 23.18 80.4784 24.24 75.9284 26.42C75.1084 26.74 74.3184 27.08 73.5484 27.42L74.5084 25.03C74.9384 26.67 76.0184 28.17 77.3984 29.13C78.7984 30.14 80.3484 30.44 82.4884 30.47C83.4984 30.82 85.6884 30.2 86.3584 31.01C87.0984 30.74 88.2184 30.8 89.2384 31.14C90.2384 31.47 91.0684 31.94 91.6884 32.21C92.3984 31.81 92.4384 32.15 93.0084 31.92C94.1784 32.14 95.1184 31.57 95.9184 30.58C96.7284 29.58 97.2284 28.31 98.2384 26.69C98.8184 25.98 99.5084 25.38 100.278 25.01C101.028 24.62 101.818 24.51 102.488 24.49C103.198 24.47 103.768 24.61 104.258 24.68C104.738 24.76 105.188 24.8 105.498 24.69C106.128 24.74 106.498 25.17 107.058 24.56C107.408 24.5 107.408 24 107.648 24.34C108.638 24.12 108.688 23.54 109.378 23.93C110.078 23.57 110.918 22.47 111.438 23.01Z" fill="#2F326A"/>
<path d="M135.06 30.68C132.5 29.41 129.26 30.59 127.55 32.8C126.44 34.24 127.51 36.32 129.32 36.26C132.03 36.18 134.73 35.58 137.22 34.48C137.46 34.37 137.73 34.24 137.84 34C137.96 33.74 137.87 33.42 137.76 33.16C137.13 31.67 135.82 30.49 134.28 30" fill="#21C496"/>
<path fill-rule="evenodd" clip-rule="evenodd" d="M136.72 33.36C137.1 34.14 136.72 33.73 136.7 33.89C136.82 34.27 136.65 34.19 136.67 34.42C136.55 34.44 136.48 34.64 136.29 34.31C136.35 34.84 136.1 34.67 136.02 34.93C135.98 35.05 136 35.31 135.95 35.46C135.91 35.62 135.81 35.62 135.76 35.78C135.54 36.4 135.06 37.26 134.38 36.7C134.27 36.77 134.32 37.17 134.21 37.24C133.09 36.87 132.55 36.75 131.6 37.24C131.35 36.95 131.3 37.56 131.09 36.82C130.75 37.1 130.36 37.06 130 36.67C129.89 37.09 129.78 37.46 129.63 37.65C129.53 37.77 129.46 37.81 129.35 37.81C129.21 37.81 129.07 37.76 128.93 37.71C128.65 37.59 128.4 37.44 128.02 37.43C128.04 37.43 128.12 37.06 128.05 37.18C127.67 37.75 127.27 37.27 127 37.14C126.58 36.97 125.76 36.58 125.13 35.9C125.15 35.4 125.11 34.94 125 34.43C125.28 33.92 125.4 33.44 125.69 33.03C125.95 32.62 126.39 32.31 127.01 32.38C127.64 32.82 127.34 32.78 127.71 33.05C128.06 33.32 127.92 32.99 128.13 33.27C128.85 33.78 128.44 33.6 128.25 33.53C128.3 33.64 128.12 33.59 127.95 33.6C128.02 33.76 127.94 33.85 127.8 33.99C127.67 34.12 127.5 34.31 127.42 34.52C127.37 34.77 127.88 34.64 127.57 34.95C128.26 34.9 128.68 34.9 129.03 34.49C128.96 34.71 129.05 34.65 129.09 34.63C129.14 34.6 129.13 34.62 129.17 35.02C129.24 34.51 129.49 34.25 129.72 34.12C129.96 33.99 130.22 34 130.54 33.98C131.24 34.4 131.81 34.02 132.52 34.17C132.73 34.52 132.9 34.02 133.15 34.77C133.21 34.21 133.63 34.64 133.88 34.84C133.83 34.3 133.93 34.61 133.94 34.33C134.41 34.52 134.69 34.28 134.87 33.55C135.18 33.25 135.41 33.53 135.43 32.84C135.56 32.76 135.78 33.17 135.73 32.72C135.81 32.75 135.66 32.31 135.83 32.68C136.06 32.82 135.93 32.41 136.25 33.03C136.39 33.06 136.41 32.68 136.72 33.36Z" fill="#2F326A"/>
<path d="M77.2599 140.67C76.0699 139.92 74.5799 139.89 73.1699 139.87C70.0199 139.46 67.6999 140.96 65.5599 143.31C64.7499 144.2 63.9499 145.65 64.8499 146.45C65.2399 146.8 65.8199 146.83 66.3399 146.84C69.7199 146.87 73.1099 146.37 76.3499 145.39C77.0699 145.17 77.8299 144.89 78.2899 144.29C79.1399 143.16 78.4499 141.42 77.2599 140.67Z" fill="#21C496"/>
<path fill-rule="evenodd" clip-rule="evenodd" d="M75.9899 144.2C76.2799 145.02 75.9099 144.57 75.8699 144.74C75.9399 145.13 75.7499 145.05 75.7399 145.28C75.5999 145.29 75.4799 145.49 75.3199 145.15C75.2999 145.69 75.0399 145.5 74.8999 145.76C74.8299 145.88 74.8099 146.14 74.7399 146.29C74.6699 146.45 74.5599 146.45 74.4699 146.6C74.1299 147.21 73.4799 148.04 72.7699 147.45C72.6399 147.51 72.6499 147.92 72.5099 147.98C71.2799 147.56 70.6399 147.42 69.5299 147.88C69.2599 147.58 69.1699 148.19 68.9599 147.44C68.5499 147.71 68.0999 147.66 67.6999 147.26C67.5599 147.68 67.4199 148.04 67.2399 148.23C67.0299 148.46 66.8199 148.4 66.6099 148.31C66.3999 148.22 66.1899 148.11 65.8399 148.22C65.8599 148.21 65.8399 147.84 65.7999 147.98C65.6199 148.64 65.0699 148.31 64.6499 148.21C64.3599 148.16 63.8399 148.02 63.3499 147.65C62.8399 147.31 62.3399 146.62 62.1299 145.96C62.2899 145.23 62.4699 144.7 62.5899 144.17C63.0499 143.8 63.3299 143.46 63.6799 143.19C64.0199 142.92 64.4399 142.73 65.0599 142.86C65.6599 143.35 65.3399 143.29 65.6799 143.61C65.9899 143.93 65.9499 143.52 66.0999 143.86C66.7799 144.42 66.2999 144.29 66.1299 144.2C66.1299 144.37 65.9199 144.31 65.7499 144.31C65.7299 144.76 65.1099 144.89 64.7799 145.29C64.6299 145.55 65.1399 145.58 64.7799 145.79C65.1299 145.86 65.3799 145.8 65.5599 145.68C65.7299 145.55 65.7899 145.34 65.8999 145.11C65.9199 145.34 66.0799 145.28 66.1999 145.24C66.3199 145.21 66.4699 145.22 66.6599 145.62C67.2199 144.57 67.7199 144.62 68.5099 144.6C69.3299 145.03 70.0499 144.68 70.8999 144.85C71.1199 145.21 71.3699 144.72 71.5899 145.48C71.7299 144.93 72.1799 145.36 72.4499 145.58C72.4599 145.04 72.5299 145.35 72.5899 145.07C73.1199 145.28 73.4799 145.06 73.8199 144.32C74.2399 144.03 74.4699 144.33 74.6099 143.63C74.7799 143.55 74.9599 143.99 74.9899 143.53C75.0799 143.56 74.9899 143.11 75.1199 143.5C75.3599 143.65 75.2999 143.23 75.5499 143.88C75.6499 143.88 75.7599 143.49 75.9899 144.2Z" fill="#2F326A"/>
<path fill-rule="evenodd" clip-rule="evenodd" d="M144.058 26.52C143.658 25.8 144.958 26.43 146.708 27.41C147.598 27.88 148.528 28.54 149.438 29.11C149.888 29.4 150.338 29.68 150.748 29.94C151.148 30.21 151.518 30.45 151.838 30.66C153.298 31.15 157.088 34.1 159.128 35.7C162.338 38.48 166.158 42.38 167.229 44.3C168.178 45.19 169.028 46.24 169.948 47.31C170.828 48.41 171.678 49.6 172.548 50.82C174.188 53.33 175.848 56.02 177.338 58.86C178.778 61.49 179.988 63.74 181.328 66.87C182.578 70.07 183.528 73.18 184.448 76.87C185.348 80.5 186.138 84.75 186.498 89.38C186.868 94.01 186.798 99.02 186.158 104.07C184.928 114.19 181.228 124.39 176.268 132.1C174.128 135.8 173.348 137.72 170.768 141.16C168.038 144.58 165.189 147.6 162.229 150.24C159.279 152.88 156.318 155.25 153.248 157.27C150.198 159.31 147.129 161.11 143.979 162.63C142.429 163.44 140.818 164.09 139.238 164.79C138.438 165.12 137.628 165.41 136.828 165.73C136.028 166.05 135.218 166.35 134.398 166.6C131.148 167.76 127.788 168.58 124.348 169.33C120.898 170.02 117.338 170.48 113.638 170.76C109.938 170.97 106.088 170.97 102.078 170.67C98.0685 170.35 93.8985 169.68 89.5685 168.62C85.9085 167.54 83.1385 166.59 80.7185 165.7C78.3185 164.76 76.2585 163.83 74.2785 162.39C68.2185 159.54 62.5885 155.73 57.6685 151.37C52.7185 147.04 48.6385 142.03 45.3685 136.97C42.2885 133.19 39.6385 129.26 37.2685 124.3C34.3885 118.25 32.7885 112.26 31.7685 105.87C31.3285 102.66 30.9585 99.33 30.9085 95.78C30.8085 92.23 30.8885 88.46 31.3185 84.37C31.2785 84.85 31.7785 83.63 31.7185 82.9C31.6885 82.05 31.7885 80.73 31.9685 79.11C32.2585 77.51 32.5385 75.6 33.0885 73.64C33.5485 71.66 34.2285 69.64 34.8585 67.7C35.5785 65.79 36.2285 63.95 36.9085 62.43C38.7185 58.08 41.6785 52.04 46.0985 45.96C48.2785 42.91 50.8685 39.9 53.6485 37.02C56.4385 34.13 59.5485 31.5 62.7085 29.1C69.4985 24.44 77.8385 20.23 87.4785 17.43C96.6185 15.15 106.918 14.19 116.998 15.41C127.068 16.57 136.798 19.93 144.638 24.65C145.448 25.92 140.958 23.35 140.198 23.57C138.798 23.3 147.718 27.42 142.659 25.28C142.858 25.63 142.518 25.61 141.878 25.38C141.238 25.15 140.298 24.7 139.278 24.27C137.268 23.32 134.938 22.31 134.468 22.04C133.288 21.6 132.178 21.31 131.178 20.97C130.178 20.63 129.238 20.35 128.338 20.1C126.558 19.54 124.938 19.12 123.228 18.7C119.708 18.12 115.978 17.62 112.118 17.47C108.258 17.31 104.278 17.4 100.278 17.78C92.2885 18.61 84.2185 20.64 77.0585 23.84C73.0585 25.64 70.4285 27.25 68.0785 28.83C67.4885 29.22 66.9085 29.61 66.3285 30C65.7585 30.4 65.1885 30.81 64.5985 31.23C63.3885 32.03 62.1885 32.96 60.7485 33.95C59.7085 34.91 58.5985 35.97 57.4485 37.1C56.3285 38.27 55.1085 39.46 53.9585 40.82C52.7485 42.13 51.6085 43.59 50.4085 45.07C49.2785 46.61 48.0785 48.15 47.0185 49.84C42.5685 56.46 39.0485 64.34 37.0485 71.97C35.8285 75.84 35.0385 79.24 34.6185 82.32C34.3485 83.86 34.2685 85.32 34.1085 86.72C34.0085 88.12 33.9585 89.46 33.8885 90.77C33.7885 96 34.0485 100.65 34.6785 106.54C36.8285 115.39 40.0885 123.7 45.1985 131.98C47.7685 136.11 50.8385 140.2 54.5885 144.19C58.3385 148.16 62.7585 152.05 68.0985 155.55C73.4485 159.14 79.1785 162.05 85.1585 164.1C91.1485 166.12 97.3385 167.46 103.638 167.87C116.228 168.79 129.148 166.46 141.308 160.86C143.818 159.83 147.349 157.96 150.419 155.94C153.499 153.92 156.199 151.9 157.599 151.21C160.199 148.75 163.639 145.39 166.788 141.75C169.958 138.13 172.768 134.2 174.658 131.19C175.868 127.97 176.358 127.64 177.588 124.46C179.268 120.97 180.528 117.51 181.578 114.09C182.548 110.64 183.298 107.22 183.738 103.74C184.608 96.78 184.488 89.59 182.968 81.71C181.578 74.04 179.928 69.22 178.298 65.16C176.608 61.12 174.888 57.77 171.928 53.6C171.528 52.96 171.158 52.37 170.818 51.83C170.458 51.3 170.128 50.8 169.818 50.34C169.208 49.41 168.679 48.58 168.109 47.84C167.549 47.09 167.028 46.35 166.378 45.61C165.728 44.88 164.999 44.12 164.109 43.26C162.439 41.45 161.269 40.83 161.109 40.15C156.709 35.63 154.969 35.07 153.729 33.19C152.859 32.52 151.818 31.83 150.768 31.1C149.718 30.39 148.598 29.75 147.628 29.12C145.578 27.87 144.028 26.94 144.058 26.52Z" fill="#2F326A"/>
<path fill-rule="evenodd" clip-rule="evenodd" d="M72.6488 158.714C73.4488 159.054 72.8088 159.134 72.8688 159.334C73.1888 159.584 72.9488 159.734 73.0788 159.954C72.9588 160.134 72.9688 160.454 72.5888 160.374C72.9188 160.844 72.5588 161.014 72.5988 161.394C72.6188 161.574 72.7688 161.804 72.8088 162.014C72.8488 162.234 72.7488 162.364 72.7788 162.594C72.8788 163.494 72.9288 164.874 71.8788 165.354C71.8188 165.564 72.1188 165.834 72.0588 166.044C70.7088 167.304 70.0488 168.084 69.5288 169.824C69.0688 170.014 69.5088 170.474 68.7188 170.334C68.6188 171.044 68.2388 171.604 67.5988 171.954C67.8488 172.364 68.0588 172.734 68.0988 173.064C68.1888 173.864 67.2988 174.014 67.1488 174.864C67.1488 174.834 66.7888 174.724 66.8988 174.824C67.4088 175.284 66.9188 175.654 66.8288 175.984C66.7088 176.444 66.5688 177.344 66.4888 178.184C66.0988 178.434 65.8288 178.804 65.6488 179.274C64.6688 179.804 64.4088 180.904 63.0088 181.204C62.2988 180.904 62.6588 180.804 62.2688 180.554C61.9088 180.284 61.9388 180.864 61.7788 180.464C60.9688 180.114 61.5788 179.904 61.7788 179.954C61.8088 179.674 62.0588 179.624 62.2688 179.534C62.3988 178.774 63.2188 178.214 63.8088 177.624C64.1188 177.284 63.7388 176.884 64.2688 176.754C63.9688 175.944 64.1588 174.984 64.0788 174.014C64.8588 173.474 64.3488 172.804 65.3388 172.634C64.8488 171.314 65.3188 170.554 65.9588 169.384C67.0088 168.414 67.3488 167.164 68.2388 166.074C68.7088 166.004 68.5688 165.314 69.3288 165.544C69.0288 164.974 69.7688 164.654 70.1688 164.454C69.7788 164.054 70.0788 164.174 69.9188 163.894C70.5688 163.334 70.7188 162.704 70.5488 161.674C70.7588 160.874 71.1788 160.824 70.8588 160.044C70.9788 159.754 71.4388 159.874 71.1788 159.444C71.2888 159.354 70.9088 159.084 71.2788 159.244C71.6188 159.054 71.2888 158.774 71.9488 159.004C72.1188 158.854 71.9788 158.384 72.6488 158.714Z" fill="#484B7D"/>
<path fill-rule="evenodd" clip-rule="evenodd" d="M153.539 4.6036C154.339 4.9436 153.699 5.02359 153.759 5.22359C154.079 5.47359 153.839 5.62359 153.969 5.84359C153.849 6.02359 153.859 6.3436 153.479 6.2636C153.809 6.7336 153.449 6.90359 153.489 7.28359C153.509 7.46359 153.659 7.69358 153.699 7.90358C153.739 8.12358 153.639 8.2536 153.669 8.4836C153.769 9.3836 153.819 10.7636 152.769 11.2436C152.709 11.4536 153.009 11.7236 152.949 11.9336C151.599 13.1936 150.939 13.9736 150.419 15.7136C149.959 15.9036 150.399 16.3636 149.609 16.2236C149.509 16.9336 149.129 17.4936 148.489 17.8436C148.739 18.2536 148.949 18.6236 148.989 18.9536C149.079 19.7536 148.189 19.9036 148.039 20.7536C148.039 20.7236 147.679 20.6136 147.789 20.7136C148.299 21.1736 147.809 21.5436 147.719 21.8736C147.599 22.3336 147.459 23.2336 147.379 24.0736C146.989 24.3236 146.719 24.6936 146.539 25.1636C145.559 25.6936 145.299 26.7936 143.899 27.0936C143.189 26.7936 143.549 26.6936 143.159 26.4436C142.799 26.1736 142.829 26.7536 142.669 26.3536C141.859 26.0036 142.469 25.7936 142.669 25.8436C142.699 25.5636 142.949 25.5136 143.159 25.4236C143.289 24.6636 144.109 24.1036 144.699 23.5136C145.009 23.1736 144.629 22.7736 145.159 22.6436C144.859 21.8336 145.049 20.8736 144.969 19.9036C145.749 19.3636 145.239 18.6936 146.229 18.5236C145.739 17.2036 146.209 16.4436 146.849 15.2736C147.899 14.3036 148.239 13.0536 149.129 11.9636C149.599 11.8936 149.459 11.2036 150.219 11.4336C149.919 10.8636 150.659 10.5436 151.059 10.3436C150.669 9.94359 150.969 10.0636 150.809 9.78359C151.459 9.22359 151.609 8.59359 151.439 7.56359C151.649 6.76359 152.069 6.71358 151.749 5.93358C151.869 5.64358 152.329 5.76361 152.069 5.33361C152.179 5.24361 151.799 4.9736 152.169 5.1336C152.509 4.9436 152.179 4.66361 152.839 4.89361C153.009 4.75361 152.869 4.2736 153.539 4.6036Z" fill="#484B7D"/>
<path fill-rule="evenodd" clip-rule="evenodd" d="M151.309 12.5636C150.969 11.4036 154.539 13.9436 156.169 14.7636C156.649 14.8336 157.489 15.2736 158.379 15.7836C158.829 16.0436 159.289 16.3036 159.729 16.5536C160.159 16.8236 160.559 17.0636 160.909 17.2436C161.939 18.0036 163.189 18.7636 164.209 19.5836C165.229 20.3936 166.099 21.1336 166.499 21.6736C167.879 22.4336 169.199 23.5436 170.599 24.6836C171.929 25.9036 173.329 27.1936 174.759 28.5036C176.059 29.7536 177.349 30.6436 178.759 32.1336C179.479 32.8736 180.169 33.6036 180.849 34.3836C181.509 35.1836 182.179 36.0036 182.929 36.8636C185.849 40.2936 189.359 45.0236 192.269 50.4136C195.199 55.7836 197.509 61.7836 198.679 67.1636C199.449 69.6136 200.089 70.7036 200.719 73.2136C201.679 78.3836 202.119 83.0636 202.339 87.4636C202.449 91.8736 202.399 96.0036 202.029 100.144C201.639 104.264 201.129 108.404 200.169 112.764C199.249 117.124 198.039 121.754 196.159 126.774C195.689 127.824 195.279 128.744 194.909 129.584C194.549 130.434 194.229 131.194 193.929 131.914C193.299 133.334 192.629 134.514 191.659 135.644C188.239 142.954 183.399 149.624 178.299 154.804C176.659 157.264 174.959 159.554 172.669 161.934C171.989 162.684 171.259 163.344 170.539 163.994C169.819 164.644 169.109 165.284 168.369 165.904C167.609 166.484 166.859 167.064 166.099 167.644C165.339 168.224 164.569 168.794 163.749 169.324C162.939 169.864 162.119 170.414 161.279 170.984C160.419 171.514 159.539 172.054 158.629 172.624C158.179 172.904 157.719 173.194 157.249 173.484C156.769 173.754 156.289 174.034 155.789 174.324C154.789 174.884 153.799 175.524 152.709 176.104C152.969 175.964 152.109 175.984 151.789 176.304C150.349 177.894 144.069 180.434 140.319 181.804C139.649 182.044 138.919 182.314 138.119 182.594C137.329 182.894 136.469 183.194 135.549 183.464C134.629 183.754 133.669 184.054 132.659 184.374C131.639 184.644 130.579 184.924 129.499 185.214C125.139 186.304 120.229 187.274 115.479 187.734C110.539 187.844 104.999 187.784 98.9988 187.214C93.4088 186.324 87.4087 185.074 81.6287 183.154C75.8487 181.254 70.3087 178.714 65.6887 175.674C65.3387 174.644 68.0087 176.264 68.5387 176.004C69.4887 175.974 64.0287 173.624 67.1587 174.784C66.8387 173.634 71.5187 176.484 72.0687 176.844C74.8887 177.994 76.6287 178.804 78.5687 179.684C82.6887 180.964 87.2388 182.334 91.9888 183.344C96.7388 184.334 101.669 185.024 106.379 185.284C107.699 185.324 108.819 185.324 109.829 185.314C110.839 185.274 111.719 185.184 112.579 185.124C114.289 185.024 115.849 184.844 117.969 184.854C118.809 184.714 119.719 184.504 120.669 184.304C121.629 184.094 122.639 183.924 123.689 183.674C124.729 183.424 125.819 183.164 126.939 182.894C128.059 182.634 129.189 182.274 130.349 181.954C134.979 180.614 139.819 178.804 144.119 176.724C146.399 175.824 148.349 175.014 150.009 174.124C151.709 173.304 153.129 172.434 154.499 171.644C157.219 170.034 159.569 168.494 162.709 166.744C166.829 163.064 170.679 159.364 174.629 155.004C178.559 150.624 182.619 145.574 186.569 138.934C190.689 132.294 193.769 125.284 195.899 117.954C196.359 116.104 196.939 114.274 197.299 112.384C197.499 111.444 197.699 110.504 197.899 109.554C198.059 108.604 198.209 107.644 198.369 106.684L198.609 105.244L198.779 103.784C198.889 102.814 199.009 101.834 199.119 100.854C199.189 99.8636 199.259 98.8736 199.329 97.8736L199.439 96.3736L199.479 94.8636C199.579 94.0436 199.639 93.0336 199.669 91.9536C199.639 90.8736 199.609 89.7136 199.589 88.6036C199.529 86.3836 199.359 84.3436 199.699 83.3936C199.439 82.3336 199.189 81.0936 198.989 79.7536C198.799 78.4036 198.499 76.9836 198.299 75.5436C197.819 72.6836 197.309 69.8036 196.809 67.7136C195.749 65.8836 195.929 65.5036 195.019 63.6436C193.639 59.1736 192.039 55.2736 189.999 51.5436C189.039 49.6536 187.869 47.8636 186.689 45.9936C185.419 44.1836 184.109 42.3036 182.549 40.4436C182.199 39.9736 181.869 39.5136 181.549 39.0836C181.209 38.6636 180.889 38.2636 180.579 37.8736C179.969 37.0936 179.399 36.3836 178.879 35.7236C177.779 34.4536 176.849 33.3736 175.979 32.3636C175.059 31.4036 174.199 30.5336 173.269 29.6436C172.339 28.7536 171.269 27.9436 170.049 26.9836C168.709 25.7336 167.809 24.9036 166.999 24.1036C166.189 23.3036 165.349 22.6636 164.039 21.9236C162.889 20.9636 162.019 20.8636 161.949 20.3436C160.449 19.1736 159.429 18.5136 158.699 18.0036C157.949 17.5236 157.489 17.1636 157.129 16.5236C156.579 16.1536 155.929 15.7636 155.279 15.3636C154.609 14.9936 153.929 14.6136 153.319 14.2736C152.129 13.5636 151.219 12.9436 151.309 12.5636Z" fill="#484B7D"/>
<path fill-rule="evenodd" clip-rule="evenodd" d="M112.379 198.734C111.509 198.774 112.039 198.574 111.899 198.494C111.499 198.454 111.639 198.324 111.419 198.254C111.449 198.134 111.289 197.994 111.659 197.934C111.149 197.794 111.389 197.624 111.179 197.444C111.079 197.364 110.839 197.294 110.699 197.204C110.559 197.114 110.589 197.024 110.459 196.924C109.949 196.524 109.259 195.884 109.979 195.384C109.939 195.274 109.539 195.214 109.499 195.104C110.109 194.174 110.329 193.634 109.979 192.674C110.299 192.474 109.699 192.364 110.459 192.234C110.219 191.874 110.289 191.514 110.699 191.184C110.289 191.054 109.929 190.924 109.739 190.784C109.289 190.424 109.999 190.134 109.739 189.694C109.749 189.704 110.119 189.674 109.979 189.654C109.319 189.564 109.569 189.264 109.499 189.084C109.389 188.834 109.089 188.374 108.779 187.954C109.009 187.734 109.079 187.494 109.019 187.224C109.639 186.724 109.359 186.144 110.459 185.644C111.229 185.604 110.959 185.744 111.419 185.764C111.859 185.804 111.569 185.534 111.899 185.684C112.779 185.644 112.339 185.894 112.139 185.924C112.249 186.064 112.049 186.154 111.899 186.244C112.139 186.634 111.669 187.114 111.419 187.534C111.309 187.774 111.819 187.864 111.419 188.064C112.069 188.374 112.339 188.874 112.859 189.314C112.419 189.764 113.179 189.954 112.379 190.284C113.429 190.784 113.369 191.264 113.339 191.984C112.859 192.704 113.139 193.384 112.859 194.124C112.479 194.274 112.919 194.564 112.139 194.654C112.669 194.854 112.159 195.184 111.899 195.384C112.429 195.474 112.109 195.494 112.379 195.584C112.069 196.014 112.219 196.354 112.859 196.794C113.049 197.224 112.699 197.354 113.339 197.644C113.369 197.814 112.899 197.874 113.339 198.004C113.289 198.074 113.749 198.104 113.339 198.124C113.129 198.304 113.549 198.344 112.859 198.404C112.779 198.534 113.119 198.724 112.379 198.734Z" fill="#484B7D"/>
<path fill-rule="evenodd" clip-rule="evenodd" d="M85.3487 210.854C85.3887 211.074 85.3787 211.204 85.2787 211.264C85.1787 211.344 85.0287 211.334 84.8587 211.284C84.5087 211.174 84.2587 210.814 84.0687 210.634C83.8287 210.644 83.6187 210.374 83.5187 210.034C83.4187 209.684 83.4587 209.304 83.4687 208.994C83.6487 208.544 84.0287 208.174 84.4987 207.844C84.9287 207.524 85.3387 207.254 85.6687 207.254C86.4187 206.084 87.8487 205.384 89.1487 204.414C89.7487 203.934 90.2087 203.454 90.9087 202.914C91.6387 202.424 92.3887 202.064 93.2287 201.594C94.8787 200.614 97.1287 199.494 99.6287 198.734C102.119 197.964 104.839 197.554 107.189 197.724C108.269 197.624 108.769 197.154 109.869 197.114C114.349 197.314 117.809 197.964 121.229 198.754C124.639 199.604 128.039 200.614 132.189 202.524C133.759 203.694 134.959 203.754 135.589 205.074C136.339 205.484 137.049 205.964 137.749 206.454L138.759 207.234C139.099 207.504 139.559 207.964 139.759 208.474C140.209 209.514 140.009 210.714 139.369 211.514C138.739 212.344 137.629 212.694 136.799 212.544C135.579 212.954 134.409 213.314 133.049 213.504C129.729 213.954 126.999 213.244 122.919 213.504C123.039 213.494 122.719 213.124 122.549 213.264C121.719 213.924 118.939 213.674 117.299 213.744C114.969 213.854 110.689 214.154 106.799 214.464C104.779 214.234 102.509 214.164 100.049 214.224C95.4187 213.604 89.9987 213.884 85.4187 212.784C85.0887 212.014 86.3887 212.284 86.5487 211.824C86.8987 211.384 84.3987 211.674 85.7987 211.344C85.4487 210.464 87.7787 210.904 88.0487 211.104C89.3387 210.994 90.1487 211.194 91.0487 211.344C94.6887 211.104 99.0787 211.574 103.049 211.824C105.269 211.934 106.159 211.424 107.929 211.824C110.799 211.174 115.479 210.904 119.559 210.384C123.749 210.824 125.529 210.064 128.559 210.864C130.899 210.344 133.179 210.094 135.699 209.984C136.019 209.974 136.339 209.964 136.659 209.944L136.899 209.934C136.949 209.924 136.929 209.924 136.949 209.914C136.979 209.924 136.979 209.894 136.989 209.904C136.989 209.884 136.999 209.884 137.019 209.824C137.039 209.754 137.029 209.744 137.019 209.734C137.019 209.734 137.009 209.714 136.989 209.704C137.009 209.714 136.929 209.644 136.849 209.584L136.629 209.414C136.339 209.184 136.039 208.944 135.729 208.704C133.339 206.634 130.639 205.054 127.759 203.854C124.889 202.624 121.829 201.784 118.589 201.074C117.309 200.474 114.669 200.624 113.969 199.834C112.169 200.224 109.159 199.754 107.349 199.654C106.549 200.264 106.389 199.964 105.569 200.314C101.699 200.504 98.6487 201.394 95.1587 203.404C93.4087 204.214 92.2587 204.714 91.3087 205.234C90.3587 205.744 89.5887 206.274 88.6987 207.214C88.0787 207.624 87.6087 207.804 87.2087 208.034C86.7987 208.254 86.4387 208.484 86.1087 209.044C85.6087 209.374 85.6387 209.934 85.2887 209.684C85.1487 209.694 85.1887 209.714 85.1787 209.744C85.1787 209.774 85.0887 209.774 84.7787 209.934C84.7787 210.124 84.9787 210.244 85.0687 210.314C85.1687 210.384 85.3187 210.474 85.3487 210.854Z" fill="#484B7D"/>
<path d="M85.3687 212.094H136.919C139.089 212.094 140.069 209.374 138.389 207.984C131.479 202.274 121.829 198.734 111.149 198.734C100.469 198.734 90.8187 202.274 83.9087 207.984C82.2187 209.374 83.1887 212.094 85.3687 212.094Z" fill="#484B7D"/>
<path fill-rule="evenodd" clip-rule="evenodd" d="M43.2486 24.8901C43.6586 25.4001 42.8686 25.39 42.6586 25.63C42.6786 25.96 42.2186 26.0901 42.0886 26.3601C41.7186 26.5401 41.3286 26.89 41.0086 26.75C40.7886 27.35 40.1986 27.5101 39.7786 27.9801C39.5786 28.2001 39.4786 28.48 39.2686 28.74C39.0486 28.99 38.8086 29.1701 38.5786 29.4501C38.1386 30.0301 37.5386 30.7101 36.8986 31.3901C36.2686 32.0901 35.5186 32.67 34.7286 33.06C34.4686 33.36 34.5386 33.7 34.2786 33.99C31.6986 35.87 30.3386 37.2001 28.5986 39.9801C27.9886 40.4101 28.1386 40.9701 27.4086 41.0101C26.8886 42.1701 26.1186 43.1401 25.3086 43.9801C25.3486 44.5301 25.3586 45.0401 25.2286 45.5401C24.9186 46.76 23.9986 47.41 23.4886 48.84C23.4986 48.8 23.1986 48.7801 23.2686 48.8901C23.5886 49.3801 22.9886 50.2301 22.7786 50.8001C22.4986 51.6101 22.1086 53.16 21.8286 54.57C21.4186 55.2 21.0786 55.97 20.8386 56.84C20.3686 57.58 20.0286 58.4401 19.6586 59.3001C19.3186 60.1601 18.9286 61.01 18.3186 61.74C17.7286 61.72 18.0486 61.3 17.7286 61.16C17.4386 60.95 17.4186 61.92 17.3086 61.35C16.6286 61.32 17.1786 60.5401 17.3486 60.4801C17.3986 59.9901 17.6186 59.73 17.8186 59.43C17.8986 58.74 18.1786 58.02 18.4886 57.31C18.7986 56.6 19.1586 55.88 19.5086 55.22C19.8686 54.46 19.6186 54.01 20.1286 53.49C20.0886 52.32 20.5286 50.5701 20.8586 49.0101C21.8086 47.6901 21.6386 46.84 22.6986 46.09C22.7486 45.11 23.0386 44.26 23.4586 43.38C23.8586 42.49 24.4586 41.6 25.1686 40.53C26.0086 39.53 26.8286 38.58 27.5686 37.57C28.3986 36.62 29.1386 35.59 30.1486 34.69C30.7286 34.49 31.1786 33.49 31.8086 33.68C32.0186 32.91 33.1486 32.35 33.7786 32.02C33.7486 31.5 33.9386 31.63 34.0586 31.27C35.3686 30.45 36.1786 29.58 37.1986 28.27C38.3486 27.2 38.9286 27.23 39.5186 26.24C40.0286 25.89 40.3586 26.0601 40.6386 25.5401C40.8786 25.4501 40.8186 25.0901 41.0186 25.3301C41.6486 25.1601 41.6486 24.8 42.0886 25.15C42.4786 24.97 42.9686 24.4101 43.2486 24.8901Z" fill="#DFDFF2"/>
<path fill-rule="evenodd" clip-rule="evenodd" d="M38.5785 41.4C38.9785 41.92 38.5585 41.72 38.5385 41.87C38.6685 42.14 38.4785 42.15 38.5085 42.33C38.3885 42.39 38.3086 42.59 38.0886 42.4C38.1786 42.81 37.9185 42.78 37.8485 43.03C37.8185 43.15 37.8685 43.34 37.8485 43.48C37.8285 43.62 37.7385 43.67 37.7085 43.82C37.5885 44.41 37.4086 45.25 36.6486 45.23C36.5785 45.34 36.7385 45.6 36.6785 45.71C35.6285 46.1 35.0785 46.47 34.6085 47.47C34.2785 47.5 34.5585 47.87 34.0085 47.64C33.9085 48.08 33.6185 48.37 33.1685 48.51C33.3385 48.81 33.4885 49.08 33.5185 49.29C33.5785 49.8 32.9685 49.8 32.8785 50.32C32.8785 50.3 32.6185 50.2 32.6985 50.27C33.0785 50.6 32.7585 50.8 32.7085 50.99C32.6485 51.27 32.6186 51.83 32.6486 52.33C32.3986 52.47 32.2385 52.69 32.1685 52.97C31.5285 53.3 31.5085 53.97 30.5485 54.23C29.9885 54.09 30.2385 54 29.9085 53.87C29.6085 53.72 29.7185 54.1 29.5385 53.85C28.8885 53.69 29.3085 53.5 29.4585 53.52C29.4385 53.34 29.6185 53.29 29.7585 53.21C29.7485 52.7 30.2785 52.3 30.6585 51.92C30.8485 51.7 30.5485 51.43 30.9085 51.36C30.6385 50.83 30.7085 50.19 30.6385 49.53C31.1885 49.21 30.8285 48.72 31.5485 48.69C31.1985 47.75 31.5786 47.26 32.1186 46.56C32.9386 46.06 33.2986 45.28 34.0886 44.75C34.4286 44.81 34.4285 44.32 34.9185 44.66C34.8085 44.22 35.3685 44.2 35.6685 44.18C35.4685 43.81 35.6485 43.97 35.5985 43.75C36.1385 43.57 36.3585 43.22 36.4785 42.51C36.7985 42.05 37.0985 42.18 37.0785 41.58C37.2385 41.43 37.4985 41.67 37.4385 41.31C37.5285 41.29 37.3686 40.99 37.5586 41.22C37.8286 41.22 37.6986 40.93 38.0586 41.31C38.2086 41.29 38.2585 40.94 38.5785 41.4Z" fill="#DFDFF2"/>
<path fill-rule="evenodd" clip-rule="evenodd" d="M25.8986 63.79C26.2486 64.34 25.9986 64.02 26.0486 64.12C26.1986 64.38 26.1286 64.3 26.2086 64.45C26.1786 64.45 26.2286 64.56 26.0586 64.34C26.2586 64.67 26.1285 64.54 26.1985 64.69C26.2285 64.76 26.3285 64.91 26.3785 65C26.4285 65.09 26.4086 65.08 26.4586 65.17C26.6486 65.51 26.9486 65.93 26.5486 65.57C26.5586 65.6 26.7686 65.82 26.7786 65.85C26.3886 65.59 26.1986 65.56 26.3386 65.81C26.1286 65.69 26.4885 65.96 26.0085 65.64C26.1285 65.79 26.0586 65.79 25.7786 65.67C26.0286 65.85 26.2486 66.01 26.3686 66.09C26.6486 66.29 26.1586 66.06 26.3086 66.19C26.3086 66.19 26.0486 66.06 26.1486 66.11C26.5886 66.34 26.4085 66.28 26.4485 66.32C26.5085 66.38 26.6985 66.5 26.9185 66.61C26.7485 66.56 26.6985 66.56 26.7285 66.6C26.2685 66.5 26.4585 66.6 25.6385 66.48C25.0685 66.36 25.2785 66.39 24.9385 66.31C24.6185 66.23 24.8186 66.33 24.5886 66.25C23.9386 66.12 24.2786 66.13 24.4286 66.16C24.3586 66.11 24.5086 66.13 24.6186 66.14C24.4686 66.01 24.8285 66.01 25.0385 66C25.1285 65.99 24.7785 65.84 25.0685 65.91C24.6385 65.68 24.4885 65.5 24.1885 65.24C24.5285 65.29 24.0485 64.98 24.6085 65.2C23.9785 64.72 24.0986 64.61 24.2186 64.46C24.6186 64.51 24.5585 64.25 24.8485 64.25C25.0885 64.42 24.8885 64.14 25.3285 64.53C25.0785 64.22 25.3985 64.43 25.5685 64.55C25.3085 64.25 25.4785 64.42 25.3485 64.26C25.5785 64.36 25.5486 64.24 25.3386 63.8C25.3386 63.62 25.5186 63.81 25.2986 63.38C25.3286 63.33 25.5385 63.61 25.3785 63.32C25.4185 63.34 25.2285 63.05 25.4085 63.3C25.5385 63.41 25.3785 63.13 25.6685 63.56C25.6885 63.56 25.5986 63.31 25.8986 63.79Z" fill="#DFDFF2"/>
<path fill-rule="evenodd" clip-rule="evenodd" d="M45.9485 33.28C45.9585 33.93 45.9285 33.53 45.9185 33.64C45.9085 33.94 45.8985 33.84 45.8885 34C45.8685 33.98 45.8485 34.1 45.8485 33.82C45.8285 34.2 45.8085 34.02 45.7885 34.18C45.7785 34.25 45.7685 34.44 45.7585 34.54C45.7485 34.64 45.7385 34.62 45.7185 34.72C45.6685 35.1 45.5785 35.62 45.5185 35.08C45.4985 35.11 45.4985 35.41 45.4785 35.44C45.3585 34.98 45.2885 34.82 45.1585 35.08C45.1285 34.84 45.1185 35.29 45.0985 34.72C45.0485 34.9 44.9985 34.85 44.9585 34.54C44.9385 34.85 44.9285 35.12 44.9085 35.26C44.8585 35.6 44.8185 35.06 44.7685 35.26C44.7685 35.25 44.7685 34.97 44.7585 35.08C44.7485 35.58 44.7085 35.38 44.6785 35.44C44.6485 35.52 44.5885 35.74 44.5285 35.98C44.4985 35.81 44.4685 35.76 44.4285 35.8C44.3585 35.33 44.2885 35.54 44.2185 34.72C44.2185 34.14 44.2285 34.35 44.2385 34C44.2485 33.67 44.2085 33.89 44.2285 33.64C44.2285 32.98 44.2585 33.31 44.2585 33.46C44.2785 33.38 44.2885 33.53 44.2985 33.64C44.3485 33.46 44.4085 33.81 44.4685 34C44.4985 34.08 44.5085 33.7 44.5385 34C44.5785 33.52 44.6485 33.31 44.7085 32.92C44.7685 33.25 44.7985 32.68 44.8385 33.28C44.9085 32.49 44.9685 32.54 45.0685 32.56C45.1685 32.92 45.2585 32.71 45.3485 32.92C45.3685 33.21 45.4085 32.87 45.4185 33.46C45.4485 33.06 45.4885 33.44 45.5185 33.64C45.5285 33.24 45.5285 33.48 45.5485 33.28C45.6085 33.51 45.6485 33.4 45.7085 32.92C45.7685 32.78 45.7785 33.04 45.8185 32.56C45.8385 32.54 45.8485 32.89 45.8685 32.56C45.8785 32.6 45.8785 32.25 45.8885 32.56C45.9085 32.72 45.9185 32.4 45.9285 32.92C45.9285 32.98 45.9485 32.72 45.9485 33.28Z" fill="#DFDFF2"/>
<path fill-rule="evenodd" clip-rule="evenodd" d="M54.6385 17.21C54.6385 17.86 54.6285 17.46 54.6285 17.57C54.6285 17.87 54.6185 17.77 54.6185 17.93C54.6185 17.91 54.6085 18.03 54.6085 17.75C54.6085 18.13 54.5986 17.9501 54.5886 18.1101C54.5886 18.1801 54.5785 18.37 54.5785 18.47C54.5785 18.57 54.5685 18.55 54.5685 18.65C54.5585 19.03 54.5385 19.55 54.5185 19.01C54.5185 19.04 54.5085 19.34 54.5085 19.37C54.4785 18.91 54.4585 18.75 54.4285 19.01C54.4185 18.77 54.4185 19.22 54.4185 18.65C54.4085 18.83 54.3985 18.78 54.3885 18.47C54.3885 18.78 54.3785 19.05 54.3785 19.19C54.3685 19.53 54.3586 18.99 54.3386 19.19C54.3386 19.18 54.3386 18.9 54.3386 19.01C54.3386 19.51 54.3285 19.31 54.3185 19.37C54.3085 19.45 54.2986 19.67 54.2786 19.91C54.2686 19.74 54.2585 19.69 54.2585 19.73C54.2385 19.26 54.2185 19.47 54.2085 18.65C54.2085 18.07 54.2085 18.28 54.2085 17.93C54.2085 17.6 54.1985 17.82 54.2085 17.57C54.2085 16.91 54.2186 17.2401 54.2186 17.3901C54.2186 17.3101 54.2285 17.46 54.2285 17.57C54.2385 17.39 54.2585 17.74 54.2685 17.93C54.2785 18.01 54.2785 17.63 54.2885 17.93C54.2985 17.45 54.3185 17.24 54.3285 16.85C54.3385 17.18 54.3485 16.61 54.3585 17.21C54.3785 16.42 54.3885 16.47 54.4185 16.49C54.4385 16.85 54.4685 16.64 54.4885 16.85C54.4985 17.14 54.4985 16.8001 54.5085 17.3901C54.5185 16.9901 54.5286 17.37 54.5286 17.57C54.5286 17.17 54.5285 17.41 54.5385 17.21C54.5485 17.44 54.5685 17.33 54.5785 16.85C54.5885 16.71 54.5985 16.97 54.6085 16.49C54.6185 16.47 54.6185 16.82 54.6185 16.49C54.6185 16.53 54.6185 16.18 54.6185 16.49C54.6285 16.65 54.6285 16.33 54.6285 16.85C54.6285 16.91 54.6385 16.65 54.6385 17.21Z" fill="#DFDFF2"/>
<path fill-rule="evenodd" clip-rule="evenodd" d="M15.7285 74.08C15.8985 74.71 15.7685 74.33 15.7885 74.44C15.8585 74.73 15.8185 74.64 15.8485 74.8C15.8285 74.78 15.8385 74.9 15.7585 74.64C15.8385 75.02 15.7685 74.84 15.7785 75.01C15.7885 75.08 15.8185 75.27 15.8385 75.37C15.8485 75.47 15.8385 75.46 15.8485 75.55C15.8885 75.93 15.9285 76.46 15.7385 75.95C15.7285 75.98 15.7985 76.28 15.7885 76.31C15.5485 75.9 15.4385 75.75 15.3785 76.04C15.2885 75.81 15.3885 76.25 15.2285 75.71C15.2285 75.9 15.1685 75.86 15.0485 75.57C15.1085 75.87 15.1585 76.14 15.1685 76.28C15.2085 76.62 15.0385 76.11 15.0285 76.32C15.0285 76.31 14.9585 76.04 14.9785 76.15C15.0885 76.64 14.9985 76.46 14.9885 76.52C14.9785 76.61 14.9685 76.84 14.9685 77.08C14.8985 76.92 14.8485 76.88 14.8285 76.93C14.6485 76.49 14.6185 76.72 14.3485 75.94C14.1985 75.38 14.2685 75.58 14.1885 75.24C14.1085 74.92 14.1285 75.14 14.0885 74.89C13.9185 74.25 14.0385 74.56 14.0785 74.71C14.0785 74.63 14.1285 74.77 14.1685 74.87C14.1785 74.68 14.3285 75.01 14.4285 75.17C14.4785 75.24 14.3985 74.87 14.4985 75.15C14.4185 74.67 14.4385 74.46 14.3985 74.06C14.5385 74.36 14.4285 73.81 14.6185 74.38C14.4885 73.6 14.5685 73.63 14.6685 73.63C14.8585 73.96 14.8885 73.73 15.0385 73.91C15.1285 74.18 15.0885 73.85 15.2385 74.42C15.1685 74.03 15.3085 74.39 15.3785 74.57C15.2885 74.18 15.3585 74.41 15.3185 74.21C15.4285 74.42 15.4485 74.3 15.3885 73.82C15.4085 73.67 15.4885 73.92 15.4085 73.44C15.4285 73.41 15.5185 73.75 15.4585 73.43C15.4785 73.47 15.3985 73.13 15.4785 73.43C15.5385 73.58 15.4685 73.27 15.6085 73.77C15.6285 73.79 15.5985 73.54 15.7285 74.08Z" fill="#DFDFF2"/>
<path fill-rule="evenodd" clip-rule="evenodd" d="M68.7985 18.67C68.2385 19 68.4785 18.59 68.3285 18.53C68.0385 18.61 68.0485 18.41 67.8685 18.39C67.8185 18.24 67.6285 18.11 67.8385 17.92C67.4085 17.91 67.4785 17.63 67.2285 17.48C67.1185 17.41 66.9085 17.41 66.7585 17.34C66.6085 17.27 66.5785 17.15 66.4285 17.07C65.8485 16.74 65.0185 16.17 65.2185 15.34C65.1285 15.21 64.8285 15.27 64.7285 15.14C64.6185 13.8 64.4685 13.07 63.6985 12C63.8085 11.65 63.3285 11.7 63.7785 11.3C63.4185 10.93 63.2685 10.46 63.3685 9.93001C63.0185 9.89001 62.6985 9.85002 62.4885 9.72002C61.9785 9.41002 62.3185 8.83003 61.8985 8.36003C61.9085 8.37003 62.1485 8.22 62.0385 8.24C61.5385 8.33 61.5485 7.88001 61.4085 7.68001C61.1985 7.40001 60.7485 6.91002 60.3085 6.48002C60.3485 6.14002 60.2685 5.82001 60.0885 5.50001C60.2585 4.70001 59.7585 4.04003 60.2685 3.11003C60.7885 2.85003 60.6685 3.1 60.9985 2.99C61.3285 2.91 60.9785 2.66001 61.2885 2.75001C61.8785 2.45001 61.6985 2.89002 61.5785 2.98002C61.7185 3.12002 61.6285 3.29003 61.5785 3.45003C61.9485 3.87003 61.8685 4.59003 61.9185 5.20003C61.9685 5.53003 62.3685 5.50002 62.1985 5.85002C62.8085 6.04002 63.2585 6.59002 63.8585 6.98002C63.7985 7.67002 64.4185 7.68002 64.0485 8.32002C65.0385 8.63002 65.2585 9.23001 65.6285 10.12C65.6885 11.15 66.2585 11.89 66.4785 12.89C66.2985 13.19 66.7685 13.41 66.2785 13.76C66.7485 13.84 66.5885 14.4 66.5285 14.73C66.9485 14.68 66.7385 14.8 66.9685 14.82C66.9985 15.44 67.2985 15.81 67.9885 16.15C68.3685 16.62 68.1985 16.89 68.7985 17.03C68.9185 17.23 68.6285 17.45 69.0085 17.47C69.0185 17.57 69.3485 17.46 69.0785 17.62C69.0385 17.9 69.3485 17.82 68.9185 18.12C68.9485 18.29 69.2985 18.41 68.7985 18.67Z" fill="#DFDFF2"/>
<path fill-rule="evenodd" clip-rule="evenodd" d="M81.6285 12.7001C80.9985 12.8701 81.3585 12.6501 81.2385 12.6101C80.9385 12.6501 81.0185 12.53 80.8485 12.52C80.8485 12.43 80.7085 12.36 80.9685 12.25C80.5685 12.24 80.7285 12.08 80.5385 11.99C80.4485 11.95 80.2585 11.94 80.1485 11.9C80.0385 11.86 80.0385 11.79 79.9285 11.74C79.4885 11.55 78.8885 11.22 79.3285 10.75C79.2785 10.68 78.9785 10.71 78.9285 10.63C79.2285 9.88005 79.2985 9.46006 78.8785 8.86006C79.0785 8.66006 78.6185 8.69004 79.1585 8.47005C78.9185 8.26005 78.9185 7.99006 79.1585 7.70006C78.8385 7.68006 78.5485 7.65006 78.3885 7.58006C77.9985 7.41006 78.4785 7.08005 78.2085 6.82005C78.2185 6.83005 78.4885 6.74004 78.3785 6.75004C77.8785 6.80004 78.0185 6.55005 77.9385 6.44005C77.8185 6.28005 77.5285 6.01003 77.2285 5.77003C77.3585 5.58003 77.3685 5.40005 77.2885 5.22005C77.6585 4.77005 77.3585 4.41005 78.0885 3.88005C78.6485 3.72005 78.4685 3.87006 78.8085 3.80006C79.1385 3.75006 78.8785 3.61005 79.1485 3.66005C79.7885 3.48005 79.4985 3.73005 79.3685 3.79005C79.4685 3.87005 79.3385 3.96004 79.2485 4.06004C79.4885 4.29004 79.2185 4.70005 79.1085 5.04005C79.0685 5.23005 79.4585 5.21005 79.1985 5.41005C79.7185 5.52005 79.9985 5.82005 80.4485 6.04005C80.1985 6.43005 80.7885 6.43006 80.2585 6.80006C81.1085 6.97006 81.1385 7.32005 81.2385 7.82005C80.9985 8.41005 81.3185 8.83006 81.2385 9.39006C80.9785 9.56006 81.3585 9.69005 80.7985 9.88005C81.2185 9.93005 80.8985 10.25 80.7385 10.43C81.1385 10.4 80.9085 10.47 81.1185 10.49C80.9585 10.84 81.1285 11.05 81.6685 11.25C81.8785 11.52 81.6385 11.6701 82.1585 11.7601C82.2085 11.8701 81.8785 11.9901 82.2185 12.0101C82.1885 12.0701 82.5385 12.01 82.2385 12.09C82.1085 12.25 82.4285 12.21 81.9285 12.37C81.8985 12.49 82.1785 12.5701 81.6285 12.7001Z" fill="#DFDFF2"/>
<path fill-rule="evenodd" clip-rule="evenodd" d="M96.8585 8.29001C96.2085 8.21001 96.6185 8.18 96.5185 8.12C96.2285 8.06 96.3385 8.01001 96.1785 7.95001C96.2085 7.90001 96.0984 7.81002 96.3784 7.83002C96.0084 7.71002 96.1985 7.66002 96.0585 7.55002C95.9885 7.50002 95.8085 7.44 95.7185 7.38C95.6285 7.32 95.6485 7.28 95.5585 7.22C95.2085 6.98 94.7385 6.60001 95.3085 6.45001C95.2885 6.39001 94.9985 6.31999 94.9685 6.26999C95.4885 5.90999 95.6885 5.68001 95.4885 5.20001C95.7385 5.14001 95.2984 5.02002 95.8784 5.05002C95.7284 4.86002 95.8084 4.7 96.1284 4.59C95.8284 4.48 95.5685 4.38002 95.4485 4.30002C95.1385 4.08002 95.6885 4.03001 95.5285 3.79001C95.5285 3.80001 95.8185 3.82002 95.7085 3.80002C95.2185 3.69002 95.4385 3.57001 95.3885 3.48001C95.3285 3.35001 95.1385 3.1 94.9285 2.88C95.1185 2.8 95.1784 2.70001 95.1584 2.57001C95.6584 2.41001 95.4885 2.11 96.3385 2C96.9085 2.07 96.6985 2.1 97.0385 2.16C97.3685 2.23 97.1585 2.06999 97.3985 2.17999C98.0585 2.25999 97.7085 2.33001 97.5585 2.32001C97.6285 2.40001 97.4685 2.41 97.3585 2.44C97.5085 2.65 97.1285 2.81999 96.9185 2.98999C96.8185 3.08999 97.1884 3.19001 96.8784 3.23001C97.3384 3.44001 97.4985 3.71 97.8585 3.97C97.4985 4.13 98.0484 4.3 97.4384 4.37C98.1784 4.72 98.0985 4.94001 98.0285 5.26001C97.6185 5.54001 97.7885 5.89001 97.5185 6.20001C97.2185 6.23001 97.5385 6.41002 96.9485 6.36002C97.3285 6.51002 96.9285 6.61001 96.7185 6.67001C97.1085 6.77001 96.8685 6.74001 97.0585 6.82001C96.7985 6.98001 96.8885 7.16 97.3285 7.44C97.4385 7.66 97.1684 7.68001 97.6284 7.89001C97.6384 7.97001 97.2884 7.95 97.5984 8.06C97.5584 8.09 97.8985 8.15 97.5885 8.12C97.4185 8.18 97.7285 8.25001 97.2085 8.20001C97.1785 8.24001 97.4185 8.36001 96.8585 8.29001Z" fill="#DFDFF2"/>
</svg>
