<svg width="216" height="216" viewBox="0 0 216 216" fill="none" xmlns="http://www.w3.org/2000/svg">
<path d="M156.152 9.40004C156.181 9.39804 156.202 9.38804 156.214 9.37204C156.223 9.35804 156.229 9.33104 156.21 9.29504L156.178 9.27704C156.151 9.27804 156.119 9.29104 156.12 9.35204C156.12 9.35204 156.12 9.35104 156.121 9.34904L156.152 9.40004Z" fill="#5A5F90"/>
<path d="M158.67 8.90725L158.657 8.86425L158.62 8.84125C158.594 8.84525 158.565 8.86725 158.552 8.88725C158.54 8.90525 158.541 8.92025 158.544 8.92925C158.547 8.93825 158.557 8.96025 158.592 8.96325L158.605 8.95125C158.614 8.95325 158.632 8.95625 158.651 8.94725L158.67 8.90725Z" fill="#5A5F90"/>
<path d="M159.889 7.43238L159.87 7.42938C159.841 7.43138 159.826 7.44638 159.817 7.45738C159.806 7.47538 159.803 7.49738 159.81 7.52038C159.817 7.54338 159.832 7.56338 159.851 7.57338L159.869 7.57638C159.9 7.57338 159.915 7.55838 159.923 7.54638C159.947 7.51238 159.927 7.45238 159.889 7.43238Z" fill="#5A5F90"/>
<path d="M153.793 8.22736L153.779 8.21936L153.731 8.26736L153.742 8.30536C153.749 8.33136 153.761 8.35836 153.787 8.37036C153.806 8.37736 153.826 8.37536 153.848 8.36536L153.867 8.33036C153.857 8.26236 153.819 8.24336 153.793 8.22736Z" fill="#5A5F90"/>
<path d="M157.55 6.84683C157.545 6.81083 157.527 6.79683 157.514 6.78983C157.485 6.77683 157.452 6.78583 157.42 6.79783L157.399 6.83083C157.399 6.83883 157.4 6.84483 157.402 6.85183C157.411 6.88483 157.44 6.89583 157.486 6.88183C157.491 6.88083 157.499 6.87883 157.501 6.87883C157.499 6.87883 157.493 6.87683 157.489 6.87083L157.55 6.84683Z" fill="#5A5F90"/>
<path d="M161.247 9.59084L161.265 9.61484C161.291 9.63084 161.323 9.62884 161.346 9.61184C161.37 9.59184 161.377 9.56284 161.36 9.52684L161.324 9.50684C161.244 9.52084 161.245 9.57384 161.247 9.59084Z" fill="#5A5F90"/>
<path d="M163.022 7.6416L162.983 7.6096C162.977 7.6066 162.967 7.6026 162.954 7.6026L162.922 7.6416C162.919 7.6476 162.915 7.6586 162.916 7.6726L162.955 7.7036C162.961 7.7046 162.971 7.7096 162.985 7.7086L163.016 7.6686C163.018 7.6636 163.022 7.6546 163.022 7.6416Z" fill="#5A5F90"/>
<path d="M168.153 8.10309H54.1586C50.4914 8.10309 47.5186 11.0759 47.5186 14.7431V17.2363C47.5186 20.9035 50.4914 23.8763 54.1586 23.8763H168.153C171.82 23.8763 174.793 20.9035 174.793 17.2363V14.7431C174.793 11.0759 171.82 8.10309 168.153 8.10309Z" fill="#2E316A"/>
<path fill-rule="evenodd" clip-rule="evenodd" d="M168.432 25.0876C167.972 24.6513 168.929 24.661 170.164 24.3411C171.431 24.0442 172.581 23.3688 173.466 22.4024C173.888 21.6476 174.271 20.8711 174.614 20.0759C174.957 19.1486 175.079 18.1519 174.968 17.1678C174.968 16.5474 174.968 15.8883 174.968 15.2291C174.986 14.5607 174.941 13.892 174.834 13.2322C174.59 12.2226 174.226 11.2462 173.753 10.3241C172.549 9.12227 171.002 8.33534 169.331 8.07514C168.449 8.00076 167.564 7.98457 166.68 8.02667C165.79 8.02667 164.881 8.02667 163.962 8.11392C162.259 8.21085 160.814 8.4532 158.89 8.57921C156.966 8.70523 155.062 8.68584 152.956 8.81186C144.496 9.30624 131.069 9.9751 120.781 9.27716C118.379 9.27716 117.25 9.70368 114.857 9.74246C95.2665 9.13175 84.0406 8.9088 64.0099 9.25777C59.7703 8.9088 57.4255 9.52919 54.698 8.79247C53.8232 8.75677 52.949 8.87484 52.114 9.14145C51.3273 9.42368 50.6094 9.87319 50.0085 10.4598C49.4107 11.0418 48.9467 11.7501 48.6496 12.5342C48.3744 13.3307 48.251 14.1728 48.2859 15.0158C48.2859 15.9367 48.2859 16.9546 48.2859 17.7785C48.3049 18.5957 48.4975 19.3991 48.8505 20.1341C49.5608 21.6131 50.8309 22.7387 52.3724 23.2555C53.0113 23.3169 53.6556 23.2876 54.2865 23.1682L56.3441 22.9162C57.7318 22.7514 59.1578 22.6157 60.6986 22.5284C68.1921 22.0922 74.3554 22.7805 83.562 22.5284C83.2845 22.5284 84.0023 22.8968 84.4042 22.7611C86.3183 22.1213 92.5486 22.3636 96.2618 22.2958C101.526 22.1891 111.182 21.8983 119.967 21.5978C124.523 21.8208 129.643 21.8886 135.213 21.8305C145.673 22.4315 157.914 22.1601 168.24 23.2264C168.977 23.9728 166.039 23.7111 165.694 24.1957C164.891 24.6223 170.547 24.3411 167.388 24.661C168.164 25.5141 162.919 25.0876 162.307 24.8937C160.045 24.9537 157.783 24.876 155.531 24.661C147.31 24.8937 137.347 24.4381 128.437 24.1957C123.422 24.0891 121.422 24.5835 117.431 24.1957C110.952 24.8258 100.377 25.0876 91.18 25.5916C81.7245 25.1651 77.705 25.9018 70.8527 25.1263C65.5794 25.6304 60.4306 25.8728 54.7267 25.9794H54.1908C54.0185 25.9794 53.8367 25.9794 53.5783 25.9794C53.0857 25.9632 52.5956 25.9015 52.114 25.7952C49.0501 25.1645 46.5843 22.8648 45.7115 19.8239C45.5602 19.2988 45.4608 18.7597 45.4148 18.2147V17.4005V14.4924V14.0561C45.5551 11.6005 46.734 9.32537 48.6496 7.81341C49.6486 7.06187 50.7987 6.54227 52.0183 6.2915C52.6234 6.17056 53.2391 6.1121 53.8558 6.11702H55.2531L60.823 6.23334L71.8863 6.31089C79.2554 6.31089 86.6915 6.31089 94.4913 6.46599C97.6591 6.84404 103.794 6.40783 105.507 7.16394C109.632 6.65017 116.656 7.16394 120.743 7.39658C122.714 6.88282 123.011 7.19302 124.973 6.93129C133.445 7.23324 141.926 7.07792 150.382 6.46599C159.474 6.28181 162.173 6.62109 168.164 6.00069C169.16 5.98742 170.151 6.16502 171.083 6.52415C171.812 6.81311 172.495 7.20825 173.111 7.69709C174.341 8.67108 175.366 9.88388 176.126 11.2644C176.777 13.0771 177.083 14.1725 176.777 14.5893C176.719 15.5587 176.71 16.2857 176.71 16.9255V17.3811C176.71 17.5653 176.71 17.7397 176.71 17.9142C176.707 18.2396 176.675 18.5641 176.614 18.8836C176.514 19.8089 176.082 20.6647 175.399 21.2876C174.963 22.0675 174.418 22.7793 173.781 23.4009C173.125 24.0418 172.36 24.5574 171.523 24.9228C169.915 25.5722 168.527 25.3881 168.432 25.0876Z" fill="#2E316A"/>
<path d="M53.8296 21.7732V38.3771C53.8094 63.0039 69.3234 84.9551 92.5157 93.1151C98.7946 95.3559 102.979 101.322 102.954 108H120.399C120.364 101.31 124.549 95.327 130.838 93.0767C154.032 84.9175 169.549 62.9671 169.533 38.3386V21.7732H53.8296Z" fill="#DFDFF2"/>
<path d="M163.222 65.1706C162.319 64.5213 161.355 63.9614 160.344 63.4985C155.182 61.2211 149.213 61.3268 143.773 62.7874C138.333 64.2481 133.363 66.9195 127.845 67.0925C121.935 67.2558 116.274 64.5363 110.325 64.1808C100.432 63.5946 91.5475 69.6101 82.816 74.3284C78.9916 76.4569 74.9043 78.0723 70.6592 79.1331C76.844 85.4103 84.3791 90.1893 92.6893 93.1053C98.9745 95.3476 103.163 101.318 103.138 108H120.601C120.582 101.32 124.769 95.3524 131.05 93.1053C144.921 88.2127 156.42 78.2284 163.222 65.1706Z" fill="#8256EF"/>
<path fill-rule="evenodd" clip-rule="evenodd" d="M161.523 65.9847C162.11 65.677 161.802 66.1193 161.368 66.754C161.137 67.0809 160.925 67.4078 160.674 67.8021C160.427 68.1686 160.199 68.5473 159.99 68.9368C159.99 69.7446 158.622 71.5139 158.063 72.6197C156.887 74.1968 155.393 76.2546 154.458 76.7643C153.244 78.8894 151.027 80.7934 148.907 82.8897C147.943 83.8513 147.143 84.8129 145.938 85.8418C145.322 86.3658 144.679 86.8569 144.011 87.3131C143.374 87.7939 142.7 88.2747 141.967 88.7651C138.514 91.2685 134.758 93.3266 130.787 94.8905C128.804 95.6801 126.998 96.8571 125.477 98.3523C124.028 99.7925 122.844 101.475 121.978 103.324C121.595 104.759 121.442 106.245 121.525 107.728C121.525 108.007 121.525 108.286 121.458 108.497L121.323 110.103L119.906 110.055C113.16 109.815 107.618 109.642 102.365 109.545H101.315V108.526C101.42 103.185 98.5566 98.2228 93.8743 95.631C93.4599 95.4002 93.0166 95.2175 92.5732 95.0059C92.1299 94.7944 91.6962 94.6597 91.1565 94.4866C90.1252 94.1308 89.0747 93.7462 88.0049 93.3135C84.8629 91.6307 82.9065 91.198 81.2584 89.4671C76.7632 87.0394 72.7153 83.8656 69.2881 80.0818L68.5557 79.2644L69.5869 79.0817C70.5507 78.9086 71.5145 78.7067 72.3915 78.4952C74.3962 77.447 76.2467 76.3508 78.367 75.1488C83.5522 72.187 88.0723 69.8599 94.9538 66.4943C94.7514 66.5905 95.4453 66.6866 95.6959 66.427C96.8921 65.5342 98.2504 64.8811 99.6956 64.5038C101.509 63.9356 103.37 63.5333 105.257 63.3018C106.623 63.0725 108.006 62.9503 109.391 62.9364C111.08 62.9752 112.762 63.1489 114.422 63.4557C117.902 64.0519 121.535 65.0423 124.793 65.1865C126.543 65.4938 128.334 65.4938 130.084 65.1865C132.129 64.789 134.135 64.2131 136.079 63.4653C138.122 62.9172 140.29 62.2056 142.603 61.6478C144.961 61.0648 147.375 60.7423 149.803 60.6862C152.235 60.6321 154.661 60.9565 156.993 61.6478C158.119 61.9996 159.21 62.4568 160.25 63.0133C160.76 63.3008 161.249 63.6221 161.715 63.9749C161.947 64.1384 162.168 64.3115 162.39 64.4846L162.708 64.7538L162.862 64.8788L162.968 64.9654C163.052 65.0326 163.126 65.1102 163.19 65.1962C163.267 65.4462 163.19 65.5135 163.132 65.5135C163.023 65.4854 162.919 65.44 162.824 65.3789C162.708 65.3275 162.589 65.2857 162.467 65.2539L162.101 65.0904C161.59 64.8596 160.983 64.5615 160.752 64.6961C160.366 64.6961 161.204 65.2154 161.802 65.6577L162.188 65.9366C162.284 66.0039 162.188 65.9366 162.188 65.9366C162.179 65.9019 162.179 65.8656 162.188 65.8308C162.188 65.8308 162.11 65.8308 162.188 66.0231C162.265 66.2155 162.188 66.0231 162.082 66.0231L161.629 65.8212C161.629 66.3501 160.877 65.9366 160.038 65.4654C159.2 64.9942 158.178 64.5038 157.985 64.3115C156.291 63.7912 154.57 63.361 152.829 63.0229C149.301 62.8839 145.772 63.2794 142.362 64.1961C138.768 65.1577 135.115 66.5424 131.472 67.254C129.884 67.6017 128.274 67.8363 126.653 67.956C125.231 68.0455 123.805 67.8828 122.441 67.4752C119.752 67.3694 116.282 66.5136 112.649 66.0616C109.019 65.5809 105.327 65.9631 101.874 67.1771C100.282 67.506 98.7261 67.9891 97.2283 68.6195C95.8983 69.158 94.7514 69.7253 93.6719 70.2831C91.4832 71.4635 89.2309 72.5229 86.9254 73.4563C82.2896 76.8123 77.2876 79.9664 70.2616 81.6781L71.2928 78.149C73.7853 80.621 76.4876 82.8732 79.3694 84.8802C81.6197 86.5621 84.0125 88.0453 86.5207 89.3132C87.7639 89.9286 89.0265 90.5248 90.318 91.0345C90.9541 91.3133 91.6094 91.5441 92.2455 91.7845C92.9894 92.0634 93.7166 92.3845 94.4237 92.7461C100.396 95.7351 104.137 101.86 104.062 108.526L102.365 106.843H104.148C106.731 107.209 111.714 106.786 113.15 107.536C115.39 107.288 117.648 107.24 119.897 107.391L118.788 108.488C118.898 106.475 119.388 104.501 120.234 102.67C120.398 100.91 120.793 100.747 121.468 99.1985C123.582 96.186 126.558 93.8802 130.007 92.5827C133.215 91.348 136.263 89.7338 139.086 87.7746C141.367 86.4072 143.568 84.9111 145.678 83.2936C146.487 82.6781 147.172 82.0339 147.895 81.3704C148.657 80.6425 149.381 79.8754 150.063 79.0721C151.027 78.1105 151.788 77.5047 152.395 76.8893C153.1 76.2577 153.69 75.5095 154.14 74.6776C154.911 73.841 154.94 73.1102 155.402 73.1294C157.33 70.9466 157.33 70.0234 158.506 69.5907C158.795 69.1772 159.094 68.6291 159.393 68.1675C159.691 67.7059 160.029 67.0809 160.144 66.9174C160.529 66.5086 161 66.19 161.523 65.9847Z" fill="#2E316A"/>
<path fill-rule="evenodd" clip-rule="evenodd" d="M54.1114 23.1238C52.5125 22.5377 58.1181 22.9124 60.237 22.8163C61.0557 22.5473 64.629 22.6434 66.3819 22.4896C69.2984 22.4077 72.2172 22.4718 75.1273 22.6818C78.585 22.2975 83.237 22.4896 87.7735 22.3167C89.8924 22.2398 91.6261 22.0284 94.005 21.9131C96.384 21.7978 98.8208 21.817 101.469 21.7017C112.064 21.2501 129.179 20.5295 142.509 21.1829C145.582 21.1829 146.969 20.7601 150.051 20.7217L169.41 21.1348H170.585V22.2686C170.527 26.112 170.489 29.6863 170.441 33.2606C170.441 35.0478 170.441 36.8253 170.441 38.6029C170.441 40.3804 170.315 42.2156 170.181 44.0412C169.836 47.8216 169.143 51.5622 168.11 55.2157C167.568 57.1882 166.925 59.1316 166.183 61.0384C165.837 61.9992 165.336 62.9601 164.903 63.9882L164.219 65.5063C163.988 66.0059 163.699 66.4671 163.429 66.9956C160.539 71.7037 159.037 74.346 156.311 76.6616C153.232 80.4092 149.67 83.7337 145.717 86.5486C141.969 89.2306 137.861 91.372 133.513 92.9094L131.163 94.1488C130.41 94.517 129.677 94.9243 128.967 95.3691C127.512 96.3026 126.218 97.4641 125.134 98.8089C123.808 100.434 122.804 102.296 122.177 104.295C121.888 105.275 121.685 106.278 121.57 107.293C121.57 107.553 121.57 107.802 121.57 108.062V108.446V108.523C118.681 111.405 120.752 109.33 120.106 109.983H119.769H118.045C113.432 109.897 108.539 109.791 102.683 109.916C102.77 109.916 102.779 109.916 102.741 109.859L102.635 109.801H102.577C103.54 110.166 101.373 109.513 101.363 108.581V108.504C101.436 108.243 101.436 107.967 101.363 107.706C101.181 107.168 100.978 106.313 100.689 105.304C100.34 104.163 99.8858 103.056 99.3313 101.999C98.7177 100.829 97.95 99.7466 97.0486 98.7801C96.2198 97.9057 95.2771 97.1463 94.2458 96.5221C93.541 96.0947 92.7958 95.7375 92.0209 95.4556L89.0063 94.3314L87.3208 93.7068C86.7525 93.4762 86.1939 93.1976 85.6064 92.9382C84.4602 92.3713 83.1985 91.9005 82.0331 91.1991C76.9015 88.469 72.186 85.0234 68.0289 80.9662C63.512 76.0173 59.7388 70.4408 56.8274 64.4109C53.9796 57.7549 52.2798 50.6666 51.7998 43.4455C51.7998 41.5814 51.6842 39.7943 51.742 37.9014C51.7998 36.0086 51.8672 34.135 51.9539 32.2998C52.1465 28.6198 52.4258 25.1319 52.6763 21.9804C53.206 21.548 52.9941 25.1223 53.3601 25.8237C53.7165 27.0728 53.3601 19.8569 53.6876 23.9981C54.2847 23.633 54.2077 29.6671 54.015 30.3589C54.1286 33.0979 54.0771 35.8412 53.8609 38.574C53.9697 44.1183 54.7359 49.6302 56.1436 54.9947C57.6535 60.6075 60.0078 65.9593 63.1264 70.8678C63.5599 71.5307 63.9548 72.1553 64.3496 72.7126L65.5536 74.2211C66.2311 75.0884 66.9545 75.9191 67.7207 76.7096C68.4334 77.4495 69.1172 78.1605 69.8107 78.9388C70.5042 79.7171 71.3228 80.4569 72.1704 81.4081C76.1359 84.5793 80.4457 87.2962 85.0188 89.508L87.0126 90.392C87.6771 90.6802 88.3417 90.9973 89.0448 91.2279L93.3501 92.7652C96.4211 93.9502 99.0927 95.9791 101.055 98.6167C102.64 101.047 103.63 103.815 103.945 106.697C104.031 107.322 104.012 107.937 104.051 108.533C104.378 108.869 101.161 105.65 102.548 107.024H104.128H107.123C111.024 106.947 114.927 107.069 118.816 107.389H119.442H119.76H120.058C119.49 107.966 121.349 106.121 118.787 108.667V107.312L118.864 105.948L119.066 104.603C119.412 102.775 120.063 101.018 120.992 99.4046C122.908 95.9429 125.974 93.2554 129.661 91.8044L132.146 90.7859C132.974 90.44 133.831 90.1421 134.65 89.7098L137.173 88.4607C138.031 88.0571 138.83 87.4998 139.687 87.029C141.421 86.0682 143.049 84.8575 144.802 83.6757C146.552 82.3397 148.23 80.9125 149.829 79.4C156.632 73.2512 161.745 65.4682 164.681 56.7915C166.102 52.4437 167.033 47.9512 167.455 43.3974C167.744 38.8431 167.667 33.914 167.763 28.9849C167.927 27.2169 167.927 24.7284 167.956 22.259L169.439 23.7387C166.376 23.7387 163.429 23.6618 162.167 23.2391C156.976 23.7483 148.086 23.2391 142.846 22.9989C140.458 23.4985 140.024 23.2006 137.588 23.4505C126.203 23.1334 117.236 23.2775 105.717 23.7771C94.371 23.8732 90.7881 23.5754 83.5645 24.0366C79.1147 24.0366 77.3618 23.6522 73.933 23.9501C72.0837 23.9021 71.4288 24.2383 70.745 23.9501C65.9292 23.7579 64.9661 24.0462 62.9627 23.5465C59.7169 23.4408 54.8241 23.633 54.1114 23.1238Z" fill="#2E316A"/>
<path d="M168.153 192.124H54.1586C50.4914 192.124 47.5186 195.097 47.5186 198.764V201.257C47.5186 204.924 50.4914 207.897 54.1586 207.897H168.153C171.82 207.897 174.793 204.924 174.793 201.257V198.764C174.793 195.097 171.82 192.124 168.153 192.124Z" fill="#2E316A"/>
<path fill-rule="evenodd" clip-rule="evenodd" d="M53.874 190.924C54.3334 191.362 53.3764 191.352 52.1418 191.673C50.8763 191.975 49.7273 192.651 48.8402 193.616C48.4323 194.358 48.0618 195.12 47.7301 195.9C47.3785 196.827 47.2569 197.828 47.376 198.815V200.758C47.3615 201.429 47.4096 202.099 47.5195 202.76C47.7602 203.774 48.1234 204.753 48.6009 205.675C49.8031 206.882 51.3509 207.672 53.0223 207.93C53.9007 208.005 54.7831 208.021 55.6636 207.979C56.5632 207.979 57.4723 207.979 58.3815 207.891C60.0945 207.794 61.5396 207.551 63.4631 207.425C65.3867 207.298 67.2433 207.318 69.387 207.191C77.8564 206.696 91.2831 206.025 101.561 206.725C103.963 206.725 105.093 206.297 107.495 206.259C127.037 206.851 138.262 207.065 158.292 206.725C162.58 207.036 164.886 206.453 167.613 207.191C168.488 207.226 169.362 207.107 170.197 206.842C170.983 206.553 171.701 206.099 172.303 205.51C172.9 204.932 173.361 204.224 173.652 203.44C173.947 202.643 174.08 201.794 174.044 200.943C174.044 200.03 174.092 199 174.044 198.183C173.94 195.687 172.318 193.521 169.977 192.751C169.338 192.69 168.694 192.719 168.063 192.839L166.006 193.091C164.618 193.257 163.182 193.393 161.651 193.48C154.158 193.917 147.985 193.227 138.789 193.48C139.057 193.48 138.348 193.111 137.946 193.247C136.032 193.888 129.802 193.636 126.089 193.713C120.816 193.81 111.17 194.102 102.384 194.413C97.829 194.189 92.6995 194.121 87.1393 194.18C76.6793 193.577 64.4393 193.849 54.1133 192.78C53.3764 192.032 56.3144 192.295 56.6589 191.809C57.4532 191.381 51.8069 191.663 54.965 191.342C54.1803 190.487 59.4342 190.915 60.0467 191.109C62.3046 191.044 64.5643 191.122 66.8126 191.342C75.0428 191.109 84.9956 191.566 93.9149 191.809C98.92 191.916 100.93 191.42 104.92 191.809C111.399 191.177 121.974 190.915 131.171 190.409C140.626 190.837 144.636 190.098 151.488 190.876C156.761 190.361 161.919 190.128 167.613 190.021H168.149H168.762C169.244 190.029 169.724 190.081 170.197 190.176C171.163 190.371 172.087 190.739 172.925 191.264C174.698 192.368 176.007 194.099 176.6 196.123C176.742 196.652 176.841 197.191 176.896 197.736V198.553V201.468V201.905C176.716 205.733 173.987 208.941 170.283 209.679C169.678 209.799 169.063 209.858 168.446 209.854H167.049L161.479 209.767L150.416 209.689C143.038 209.689 135.602 209.689 127.802 209.533C124.644 209.154 118.548 209.592 116.797 208.834C112.672 209.339 105.648 208.834 101.552 208.6C99.5899 209.115 99.2932 208.805 97.3218 209.067C88.8534 208.764 80.3751 208.92 71.923 209.533C62.8315 209.718 60.1328 209.378 54.1324 210C53.1516 210.007 52.178 209.83 51.2614 209.475C50.5324 209.185 49.8489 208.789 49.2326 208.299C48.0056 207.32 46.9812 206.105 46.218 204.723C45.5673 202.964 45.1845 201.895 45.5673 201.497C45.5673 200.525 45.6342 199.796 45.6342 199.155V198.183C45.6452 197.857 45.6804 197.532 45.7395 197.212C45.835 196.283 46.2684 195.423 46.9549 194.802C47.3904 194.02 47.9352 193.306 48.5722 192.683C49.2269 192.039 49.9924 191.522 50.8308 191.158C52.4002 190.438 53.7783 190.584 53.874 190.924Z" fill="#2E316A"/>
<path d="M169.533 194.227V177.623C169.543 152.996 154.032 131.049 130.847 122.885C124.572 120.642 120.39 114.677 120.411 108H102.942C102.969 114.679 98.7852 120.647 92.5061 122.885C69.3232 131.05 53.8151 152.998 53.8296 177.623V194.227H169.533Z" fill="#DFDFF2"/>
<path d="M169.533 177.653C169.535 172.634 168.89 167.635 167.616 162.781C166.303 163.089 164.999 163.426 163.705 163.83C156.64 166.033 149.537 169.602 142.242 168.418C136.931 167.524 132.368 164.176 127.201 162.647C122.638 161.319 117.769 161.464 113.062 162.099C108.285 162.741 103.587 163.869 99.0374 165.465C96.1616 166.427 93.42 167.639 90.5154 168.351C84.505 169.909 78.1686 169.592 72.0431 170.621C65.2426 171.66 58.9032 174.704 53.8296 179.365V194.227H169.533V177.653Z" fill="#AF64FF"/>
<path fill-rule="evenodd" clip-rule="evenodd" d="M168.515 177.31C169.35 176.489 168.841 180.709 168.985 182.494C169.359 183.363 169.234 186.17 169.436 187.679C169.436 189.712 169.513 192.204 169.359 193.713L169.705 193.369C169.407 193.343 169.111 193.292 168.822 193.216C165.789 193.703 162.103 193.474 158.398 193.674C156.651 193.77 155.163 194.009 153.186 194.133C151.209 194.257 149.347 194.247 147.11 194.362C138.472 194.849 124.65 195.507 114.111 194.82C111.644 194.82 110.483 195.24 108.026 195.278C87.975 194.696 76.4666 194.486 55.9166 194.82C55.168 194.82 54.4673 194.744 53.8434 194.734H52.7972V193.732C52.8548 190.61 52.5668 188.605 53.1715 186.294C53.0947 183.85 53.0564 181.396 53.0468 178.981V178.647L53.2963 178.417C57.0921 174.864 61.7478 172.348 66.8107 171.114C69.5007 169.845 72.3623 168.973 75.3053 168.526C79.1446 167.906 82.6768 167.877 86.2665 167.447C88.125 167.25 89.9623 166.889 91.7568 166.368C93.6764 165.805 95.6441 165.022 97.8709 164.153C97.6021 164.258 98.418 164.344 98.7731 164.077C100.359 163.144 102.077 162.455 103.87 162.034C106.164 161.394 108.736 160.907 110.646 160.564C114.296 159.818 118.017 159.472 121.742 159.532C124.137 159.601 126.512 159.983 128.806 160.669C131.047 161.404 133.248 162.255 135.4 163.218C137.448 164.361 139.631 165.246 141.898 165.853C144.318 166.374 146.822 166.374 149.241 165.853C154.827 165.232 160.893 162.273 167.478 161.003L168.908 160.726L169.234 162.053C170.451 166.958 170.85 172.028 170.415 177.062C169.695 177.825 169.916 174.808 169.455 174.484C169.215 174.092 169.244 175.314 169.244 176.241C169.244 177.167 169.244 177.797 169.052 176.241C168.63 176.642 168.515 175.525 168.476 174.236C168.417 173.212 168.417 172.185 168.476 171.161C168.044 168.297 167.862 166.435 167.516 164.411L167.036 162.645L167.996 163.189C166.077 163.743 164.099 164.201 162.084 164.898C160.068 165.595 157.995 166.273 155.864 166.903C153.724 167.571 151.536 168.072 149.318 168.402C147.123 168.718 144.893 168.698 142.705 168.345C140.698 167.989 138.731 167.443 136.83 166.712C135.169 166.094 133.564 165.337 132.031 164.449C130.277 163.801 128.481 163.268 126.656 162.855C124.518 162.431 122.337 162.255 120.158 162.33C115.426 162.555 110.74 163.37 106.212 164.755C102.536 165.525 98.9421 166.644 95.4809 168.097C92.4704 169.337 89.2554 170.014 85.9978 170.092C80.8435 171.238 75.766 171.4 70.6981 172.603C68.0226 173.232 65.4226 174.144 62.9426 175.324C60.1476 176.646 57.5739 178.388 55.312 180.489L55.9742 178.971C55.9742 179.582 55.9742 180.336 55.9742 181.1C55.8527 185.397 55.7727 189.604 55.7343 193.722L53.8722 191.87C64.8815 191.975 75.6508 191.87 87.2168 192.08C90.4514 192.452 96.7095 192.023 98.5044 192.767C102.737 192.271 109.946 192.767 114.14 192.996C116.156 192.49 116.463 192.796 118.478 192.538C127.167 192.835 135.865 192.682 144.538 192.08C153.858 191.899 156.622 192.242 162.775 191.622C166.038 191.622 167.353 191.956 169.734 191.727L167.727 193.722L167.631 192.872C167.679 191.392 167.238 190.638 167.631 190.275C167.833 186.523 167.43 185.502 168.092 184.232C168.131 181.597 167.814 177.482 168.515 177.31Z" fill="#2E316A"/>
<path fill-rule="evenodd" clip-rule="evenodd" d="M168.271 193.915C169.866 194.512 164.308 194.136 162.207 194.223C161.395 194.502 157.842 194.406 156.113 194.56C153.221 194.642 150.327 194.578 147.442 194.367C144.013 194.752 139.4 194.56 134.902 194.733C132.791 194.81 131.082 195.012 128.713 195.137C126.345 195.262 123.938 195.233 121.321 195.349C110.816 195.801 93.8447 196.522 80.6269 195.868C77.5803 195.868 76.1955 196.291 73.1393 196.33L53.9525 195.916H52.7778V194.781C52.8256 190.932 52.8733 187.353 52.9211 183.774C52.9211 181.985 52.9211 180.205 52.9211 178.425C52.9211 176.645 53.0452 174.807 53.1694 172.979C53.5192 169.194 54.2097 165.449 55.2323 161.79C55.7609 159.812 56.3986 157.865 57.1424 155.959C57.4862 154.997 57.9828 154.035 58.4126 152.996C58.6322 152.505 58.8615 152.034 59.0811 151.485C59.3008 150.937 59.6064 150.523 59.8642 149.994C62.7294 145.28 64.2288 142.634 66.9316 140.315C69.984 136.559 73.5165 133.227 77.437 130.405C81.1588 127.729 85.231 125.585 89.5374 124.036L91.8677 122.785C92.6154 122.419 93.3423 122.011 94.0452 121.563C97.228 119.456 99.5898 116.305 100.731 112.644C101.022 111.664 101.223 110.659 101.332 109.642C101.332 109.383 101.332 109.133 101.332 108.873V108.488V108.411L102.784 106.948H103.118H104.818C109.402 107.035 114.244 107.141 120.051 107.016C119.965 107.016 119.956 107.016 120.051 107.074L120.156 107.131C119.249 106.766 121.35 107.42 121.369 108.344V108.421C121.302 108.682 121.302 108.957 121.369 109.219C121.56 109.758 121.761 110.605 122.047 111.615C122.392 112.76 122.839 113.871 123.384 114.934C123.993 116.108 124.757 117.192 125.657 118.157C127.036 119.646 128.744 120.787 130.642 121.486L133.622 122.612C134.167 122.814 134.73 123.016 135.294 123.237C135.857 123.459 136.42 123.747 136.993 124.007C138.14 124.575 139.381 125.046 140.546 125.748C145.627 128.459 150.299 131.883 154.423 135.918C158.902 140.871 162.641 146.456 165.521 152.495C168.348 159.16 170.036 166.258 170.515 173.489C170.515 175.346 170.621 177.145 170.573 179.041C170.525 180.936 170.449 182.812 170.353 184.65C170.172 188.335 169.895 191.827 169.646 194.983C169.112 195.416 169.331 191.827 168.968 191.134C168.605 189.884 168.968 197.1 168.644 192.962C168.051 193.318 168.118 187.276 168.309 186.593C168.196 183.851 168.247 181.104 168.462 178.367C168.356 172.815 167.593 167.295 166.189 161.924C164.691 156.306 162.36 150.948 159.275 146.03C158.845 145.366 158.453 144.741 158.062 144.183L156.868 142.672C156.094 141.71 155.454 140.892 154.719 140.18C153.984 139.468 153.334 138.718 152.647 137.939C151.959 137.159 151.147 136.418 150.307 135.475C146.371 132.3 142.095 129.58 137.557 127.365L135.59 126.48C134.93 126.165 134.254 125.886 133.565 125.643L129.334 124.122C126.287 122.94 123.636 120.908 121.694 118.263C120.14 115.824 119.176 113.053 118.876 110.172C118.781 109.546 118.8 108.93 118.762 108.334C118.437 107.997 121.627 111.22 120.261 109.835H118.676L115.744 109.941C111.879 110.026 108.012 109.908 104.159 109.585H103.538H103.223H102.918L104.178 108.315V109.671L104.092 111.028L103.901 112.384C103.56 114.212 102.914 115.969 101.991 117.58C100.054 121.016 96.9869 123.663 93.3194 125.065C92.5076 125.402 91.6863 125.748 90.8458 126.085C90.0054 126.422 89.1745 126.73 88.3723 127.172L85.8701 128.423C85.0105 128.818 84.2178 129.385 83.3678 129.857C81.6488 130.819 80.0443 132.031 78.3061 133.215C76.5653 134.549 74.8979 135.979 73.3112 137.496C66.5684 143.654 61.5019 151.447 58.594 160.135C57.1859 164.489 56.2602 168.987 55.834 173.547C55.5475 178.107 55.6334 183.043 55.5379 187.979C55.3755 189.749 55.366 192.241 55.3469 194.665L53.9048 193.203C56.9323 193.203 59.8642 193.29 61.1154 193.713C66.2535 193.203 75.0685 193.713 80.264 193.953C82.642 193.444 83.0718 193.751 85.4785 193.501C96.7671 193.819 105.668 193.674 117.081 193.174C128.341 193.068 131.894 193.376 139.047 192.914C143.45 192.914 145.197 193.299 148.55 193.001C150.383 193.001 151.042 192.712 151.72 193.001C156.495 193.203 157.451 192.905 159.427 193.415C162.684 193.646 167.498 193.415 168.271 193.915Z" fill="#2E316A"/>
<path fill-rule="evenodd" clip-rule="evenodd" d="M61.0525 128.161C61.4633 128.638 60.8518 128.59 60.7276 128.79C60.8041 129.086 60.4697 129.181 60.4124 129.41C60.1544 129.553 59.9156 129.858 59.6385 129.715C59.5716 130.23 59.1322 130.334 58.8742 130.716C58.75 130.897 58.7213 131.135 58.5971 131.354C58.473 131.574 58.301 131.688 58.1672 131.917C57.8635 132.459 57.5152 132.976 57.1259 133.461C56.7391 133.991 56.2182 134.409 55.6164 134.672C55.4349 134.901 55.5495 135.196 55.3776 135.406C53.6958 136.475 52.3226 137.963 51.3937 139.724C50.916 140.001 51.1166 140.458 50.4383 140.42C50.1218 141.236 49.6102 141.963 48.9479 142.536C49.0619 142.923 49.1039 143.326 49.0721 143.728C48.9383 144.624 48.2027 145.053 47.9065 146.092C47.9065 146.092 47.639 146.025 47.7155 146.092C48.0594 146.483 47.6199 147.045 47.5053 147.484C47.2917 148.377 47.148 149.285 47.0754 150.201C46.7569 150.691 46.5363 151.238 46.4257 151.812C46.0943 152.366 45.8221 152.954 45.6137 153.566C45.425 154.212 45.0992 154.81 44.6583 155.32C44.0946 155.32 44.3526 155.015 44.0277 154.929C43.7029 154.843 43.8271 155.482 43.6551 155.072C43.015 155.072 43.4354 154.49 43.5883 154.443C43.5992 154.156 43.7108 153.883 43.9035 153.67C43.9281 153.133 44.058 152.605 44.2857 152.117C44.4959 151.602 44.7443 151.087 44.9927 150.601C45.2411 150.115 44.9927 149.714 45.3653 149.343C45.2792 148.235 45.3305 147.12 45.5181 146.025C46.2346 145.072 45.9767 144.424 46.8556 143.918C46.7505 142.431 47.3906 141.335 48.3842 139.8C49.6835 138.418 50.5338 136.941 51.9382 135.577C52.4063 135.473 52.6452 134.691 53.2089 134.91C53.2757 134.29 54.1642 133.957 54.6037 133.709C54.4986 133.261 54.6897 133.404 54.7279 133.099C55.6247 132.539 56.3462 131.74 56.8106 130.792C57.5653 129.953 58.0144 129.991 58.3201 129.171C58.664 128.895 58.9602 129.067 59.0844 128.618C59.2564 128.552 59.1417 128.228 59.3423 128.447C59.8105 128.323 59.7436 127.999 60.1449 128.333C60.4697 128.199 60.7563 127.722 61.0525 128.161Z" fill="#CCCFDB"/>
<path fill-rule="evenodd" clip-rule="evenodd" d="M52.6023 117.646C53.0508 118.093 52.5049 118.017 52.4464 118.198C52.5536 118.474 52.2904 118.541 52.2806 118.75C52.0856 118.864 51.9297 119.121 51.6762 118.988C51.6762 119.435 51.3155 119.493 51.1497 119.816C51.062 119.968 51.0717 120.187 50.9937 120.368C50.9157 120.549 50.7695 120.644 50.672 120.835C50.282 121.596 49.6971 122.738 48.6052 122.929C48.459 123.09 48.6052 123.376 48.4297 123.528C46.9885 124.137 45.7496 125.126 44.8518 126.384C44.4228 126.498 44.608 126.936 44.0231 126.755C43.7135 127.356 43.2099 127.841 42.59 128.135C42.6834 128.466 42.7132 128.811 42.6777 129.153C42.5315 129.848 41.8198 130.01 41.5273 130.781C41.5273 130.781 41.2641 130.667 41.3323 130.781C41.6638 131.171 41.2348 131.533 41.1178 131.837C40.8992 132.489 40.7553 133.163 40.6889 133.846C40.3888 134.159 40.1772 134.542 40.0747 134.959C39.7587 135.327 39.4993 135.737 39.3045 136.177C39.1122 136.668 38.7971 137.103 38.3881 137.443C37.8129 137.443 38.0664 137.205 37.7349 137.12C37.4034 137.034 37.5399 137.538 37.3547 137.224C36.7015 137.224 37.1207 136.758 37.2767 136.729C37.2767 136.444 37.4327 136.301 37.5692 136.13C37.5892 135.698 37.7308 135.28 37.9786 134.921C38.1801 134.531 38.4149 134.159 38.6806 133.807C38.9243 133.408 38.6806 133.094 39.051 132.856C38.9623 131.98 39.0183 131.096 39.2168 130.238C39.9284 129.62 39.7237 129.029 40.5621 128.811C40.5621 127.564 41.1666 126.802 42.1318 125.755C43.3699 124.918 44.1498 123.852 45.388 122.995C45.7974 122.995 46.0022 122.376 46.5091 122.691C46.5091 122.158 47.2891 122.005 47.6985 121.901C47.5815 121.501 47.757 121.653 47.7765 121.396C48.5344 121.052 49.1179 120.424 49.3949 119.654C49.9701 119.026 50.3698 119.083 50.4868 118.379C50.7403 118.17 51.0327 118.379 51.0522 117.96C51.179 117.903 51.0522 117.608 51.2375 117.817C51.6079 117.732 51.5007 117.437 51.8907 117.76C52.1149 117.646 52.2611 117.227 52.6023 117.646Z" fill="#CCCFDB"/>
<path fill-rule="evenodd" clip-rule="evenodd" d="M176.663 70.2217C177.228 70.4904 176.596 70.7303 176.548 70.9894C176.72 71.2486 176.423 71.4981 176.443 71.7572C176.242 72.0164 176.098 72.429 175.782 72.4194C175.868 72.9569 175.456 73.2544 175.313 73.7631C175.255 73.9934 175.313 74.2525 175.236 74.5212C175.159 74.79 175.025 74.9915 174.949 75.289C174.642 76.4503 174.106 78.245 172.919 79.1279C172.775 79.4255 172.919 79.7038 172.775 79.9917C171.179 81.6804 169.76 83.5297 168.542 85.5101C168.006 85.8364 168.14 86.3547 167.48 86.2971C166.985 87.1925 166.252 87.9333 165.363 88.4373C165.344 88.8942 165.23 89.342 165.028 89.7521C164.511 90.7119 163.515 90.9134 162.644 91.8635C162.644 91.8635 162.423 91.6908 162.443 91.806C162.529 92.3338 161.715 92.7657 161.313 93.0632C160.757 93.5623 159.713 94.474 158.67 95.261C157.948 95.441 157.245 95.6917 156.573 96.0096C155.031 96.1535 153.317 96.7869 151.785 96.1631C151.622 95.6257 152.043 95.76 152.034 95.4241C152.024 95.0882 151.392 95.4241 151.775 95.117C151.593 94.5028 152.292 94.7235 152.397 94.8483C152.691 94.7614 153.004 94.7614 153.298 94.8483C154.255 94.4548 155.625 94.3876 156.802 94.0517C157.454 93.8598 157.511 93.3895 158.124 93.4183C158.67 92.5929 159.752 91.71 160.48 90.7023C161.648 90.2128 161.705 89.4642 162.739 89.3011C163.266 87.8135 164.195 86.9593 165.469 85.4621C167.001 84.1761 167.939 82.583 169.299 80.9322C169.768 80.7403 169.941 79.8765 170.544 79.9725C170.544 79.3007 171.339 78.7057 171.798 78.341C171.616 77.9187 171.798 78.0051 171.798 77.6788C172.598 76.819 173.134 75.7459 173.34 74.5884C173.886 73.4655 174.298 73.2928 174.365 72.3619C174.614 71.9396 174.977 71.9876 174.939 71.4885C175.083 71.3445 174.863 71.0758 175.131 71.2006C175.542 70.8647 175.37 70.5768 175.878 70.7207C176.098 70.5288 176.213 69.9337 176.663 70.2217Z" fill="#CCCFDB"/>
<path fill-rule="evenodd" clip-rule="evenodd" d="M178.718 93.3793C179.301 93.6511 178.797 93.7074 178.817 93.8667C179.034 94.0635 178.817 94.1853 178.915 94.354C178.797 94.4946 178.767 94.7383 178.49 94.6727C178.678 95.0476 178.372 95.1601 178.352 95.4694C178.352 95.61 178.421 95.7974 178.421 95.9661C178.421 96.1348 178.322 96.2379 178.302 96.416C178.243 97.1283 177.996 98.2249 177.077 98.506C176.988 98.656 177.156 98.8997 177.077 99.0496C175.902 99.6897 174.889 100.566 174.111 101.618C173.705 101.683 173.893 102.105 173.35 101.861C173.065 102.351 172.565 102.695 171.985 102.799C172.059 103.107 172.059 103.427 171.985 103.736C171.768 104.354 171.046 104.251 170.621 104.832C170.621 104.832 170.413 104.636 170.453 104.739C170.651 105.189 170.137 105.329 169.939 105.545C169.741 105.76 169.188 106.482 168.743 106.997C168.337 107.075 167.96 107.249 167.645 107.504C166.657 107.569 165.994 108.216 164.887 107.925C164.551 107.485 164.887 107.541 164.699 107.251C164.512 106.96 164.334 107.344 164.413 107.026C164.037 106.51 164.531 106.594 164.65 106.688C164.798 106.519 164.986 106.576 165.174 106.585C165.746 106.201 166.401 105.941 167.092 105.826C167.458 105.685 167.359 105.31 167.784 105.376C168.052 104.706 168.383 104.06 168.772 103.445C169.534 103.286 169.405 102.686 170.176 102.808C170.275 101.768 170.848 101.346 171.659 100.643C172.584 100.058 173.44 99.3792 174.21 98.6185C174.575 98.6185 174.625 98.103 175.149 98.3654C175.05 97.8968 175.673 97.7469 176.019 97.6344C175.811 97.297 176.019 97.4188 175.94 97.1845C176.529 96.8392 176.862 96.2079 176.8 95.5537C177.077 94.9726 177.393 94.9445 177.255 94.3447C177.383 94.1291 177.719 94.2416 177.561 93.9042C177.65 93.8386 177.393 93.623 177.66 93.7542C177.947 93.623 177.719 93.4074 178.204 93.5855C178.302 93.4824 178.243 93.0981 178.718 93.3793Z" fill="#CCCFDB"/>
<path opacity="0.2" fill-rule="evenodd" clip-rule="evenodd" d="M132 125C141.419 130.283 148.974 138.1 154.667 148.45C160.359 158.801 161.558 173.651 158.263 193L169.581 192.094C172.744 177.803 170.619 164.039 163.205 150.803C155.791 137.567 145.389 128.966 132 125Z" fill="#2F326A"/>
<path opacity="0.2" fill-rule="evenodd" clip-rule="evenodd" d="M129 92C138.66 86.5613 146.41 78.5146 152.248 67.8598C158.086 57.205 159.316 41.9184 155.936 22L167.545 22.9328C170.789 37.6444 168.609 51.813 161.005 65.4384C153.401 79.0639 142.733 87.9177 129 92Z" fill="#2F326A"/>
<path opacity="0.2" fill-rule="evenodd" clip-rule="evenodd" d="M122 99V117C117.333 115.02 115 112.485 115 109.394C115 106.304 117.333 102.839 122 99Z" fill="#2F326A"/>
<path opacity="0.2" fill-rule="evenodd" clip-rule="evenodd" d="M66.7759 23.8763C65.5299 38.2041 66.1232 50.4721 68.5557 60.6804C70.9882 70.8887 78.8911 79.1258 92.2645 85.3917C83.3491 75.4283 78.2631 65.9644 77.0067 57C75.7503 48.0356 76.4389 36.9943 79.0725 23.8763H66.7759Z" fill="white"/>
<path opacity="0.2" fill-rule="evenodd" clip-rule="evenodd" d="M71.7759 192.392C70.5299 178.064 71.1232 165.796 73.5557 155.588C75.9882 145.379 83.8911 137.142 97.2645 130.876C88.3491 140.84 83.2631 150.304 82.0067 159.268C80.7503 168.232 81.4389 179.274 84.0725 192.392H71.7759Z" fill="white"/>
</svg>
