<svg width="216" height="216" viewBox="0 0 216 216" fill="none" xmlns="http://www.w3.org/2000/svg">
<path d="M62.8001 143.997C73.3685 154.625 87.2899 161.268 102.2 162.797C117.8 164.397 132.9 159.297 145.7 149.497C148.2 147.597 150.5 145.597 152.9 143.697L182 172.697C165.6 190.397 145 200.197 121.5 203.297C89.3001 207.397 60.9001 198.197 36.7001 176.497C35.6001 175.497 34.7001 174.297 33.6001 173.097L62.8001 143.997Z" fill="#7132FE"/>
<path d="M107.2 141.097C96.124 141.124 85.4968 136.722 77.6837 128.871C69.8705 121.021 65.5199 110.372 65.6 99.2966C65.871 76.2854 84.4882 57.7126 107.5 57.4966C130.7 57.5966 149.7 76.7966 149.3 99.8966C148.9 122.997 130.6 141.197 107.2 141.097Z" fill="#FECC01"/>
<path d="M62.8 143.997L33.6 173.097C13.1 153.097 3.80005 128.497 2.80005 99.7966C12.8 99.7966 22.4 99.0966 31.9 99.9966C39.5 100.697 44.2001 106.497 46.2001 113.797C49.1997 125.062 54.8971 135.427 62.8 143.997Z" fill="#01EBBA"/>
<path d="M182 172.697L152.9 143.697C160.567 134.709 166.196 124.167 169.4 112.797C172.1 103.597 178.1 100.197 187.7 100.597C195.7 100.797 203.7 100.597 212.5 100.597C211.5 128.097 202.5 152.797 182 172.697Z" fill="#AF64FE"/>
<path fill-rule="evenodd" clip-rule="evenodd" d="M107.3 142.397C106.9 141.897 107.7 141.797 108.8 141.797H112.2C112.881 141.439 113.632 141.235 114.4 141.197L115.8 140.897L117 140.497L118.8 140.097L120.6 139.497L123.3 138.797C124.6 138.097 125.9 137.297 127.4 136.597L129.6 135.297L130.7 134.597L131.7 133.797L133.5 132.197C134 131.697 134.5 130.997 135.2 130.397C135.9 129.797 137.6 127.797 138.9 126.297C141.713 122.375 143.937 118.063 145.5 113.497C147.027 108.565 147.901 103.455 148.1 98.2966C148.087 97.35 147.952 96.409 147.7 95.4966C147.456 94.6407 147.256 93.7729 147.1 92.8966C146.598 88.7958 145.416 84.8076 143.6 81.0966C143.193 80.231 142.726 79.3955 142.2 78.5966C142.004 78.1758 141.77 77.7741 141.5 77.3966L140.8 76.2966L139.2 73.9966L137.4 71.9966L136.5 70.9966L135.5 69.9966L133.5 68.1966C132.033 66.9613 130.46 65.857 128.8 64.8966C127.11 63.8244 125.338 62.8881 123.5 62.0966L120.4 60.9966L119.6 60.6966L118.8 60.4966L117.1 60.0966L115.8 59.6966L114.5 59.4966L112.3 59.1966C111.675 59.0479 111.04 58.9476 110.4 58.8966L108.6 58.4966C107.699 58.4298 106.794 58.4634 105.9 58.5966L103.3 58.7966L100.6 59.1966L99.3 59.3966L98.1 59.6966L95.6 60.2966L93.1 61.0966C91.5 61.5966 90 62.2966 88.5 62.8966L87 64.0966L85.5 65.3966C84.9324 65.7451 84.4257 66.1843 84 66.6966L82.4 67.9966C81.7 68.5966 81.2 69.1966 80.6 69.7966C80 70.3966 79.3 70.8966 78.8 71.4966C77.6299 72.5951 76.5279 73.764 75.5 74.9966L73.9 76.9966L72.5 79.2966C71.9169 80.0591 71.4455 80.9009 71.1 81.7966C70.6401 82.7031 70.2393 83.6384 69.9 84.5966C70 84.3966 69.4 84.8966 69.4 85.2966C69.4 85.6966 67.6 92.5966 67.4 95.9966C67.1871 99.2091 67.3887 102.436 68 105.597L68.3 106.997C68.3518 107.505 68.4523 108.007 68.6 108.497L69.5 111.297C69.9 112.297 70.3 113.197 70.6 114.197C70.9 115.197 71.6 115.997 72 116.797C73.8072 121.049 76.5004 124.867 79.9 127.997C83.3481 131.743 87.5827 134.68 92.3 136.597C97.0234 138.573 102.009 139.853 107.1 140.397C107.8 141.197 105 140.797 104.6 141.297C104.2 141.797 109.3 141.697 106.2 141.797C107 142.697 101.8 142.097 101.3 141.697C99.1014 141.413 96.9496 140.841 94.9 139.997C90.74 138.811 86.8157 136.917 83.3 134.397C79.6598 131.775 76.4827 128.564 73.9 124.897L72.1 122.397L70.7 120.297C70.5 119.897 70.2 119.597 70.1 119.297L69.5 118.197C69.2333 117.53 68.9333 116.73 68.6 115.797C68.2 115.097 67.9 114.297 67.5 113.497C67.0734 112.656 66.7059 111.788 66.4 110.897L65.5 107.897L64.9 104.597C64.1166 99.999 64.0828 95.3049 64.8 90.6966C65.5 88.3966 65.9 86.4966 66.6 84.7966C66.987 84.032 67.2888 83.2271 67.5 82.3966C67.8738 81.7166 68.2077 81.0154 68.5 80.2966C68.9 79.5966 69.2 78.8966 69.5 78.2966L70.7 76.4966C71.554 75.1821 72.561 73.9736 73.7 72.8966C76.6102 68.3541 80.5067 64.5259 85.1 61.6966C85.6978 61.2717 86.3338 60.9034 87 60.5966L89 59.5966C90.3602 58.835 91.8029 58.2311 93.3 57.7966L94.5 57.2966L95.7 56.9966L98.2 56.3966C99.0547 56.1727 99.9232 56.0056 100.8 55.8966L103.5 55.4966H106.4C106.865 55.4469 107.335 55.4469 107.8 55.4966H109.2L112 55.6966L114.7 56.0966C116.6 56.3966 118.3 56.9966 120.1 57.3966L122.7 58.3966L125.3 59.3966C132.206 62.4975 138.148 67.403 142.5 73.5966C142.9 74.2966 143.5 74.9966 144 75.8966L145.6 78.6966C146.064 79.5665 146.465 80.4689 146.8 81.3966C147.1 82.0189 147.237 82.7069 147.2 83.3966C147.763 84.4185 148.232 85.4896 148.6 86.5966C149.004 87.8774 149.338 89.1793 149.6 90.4966C150.015 92.9399 150.149 95.4227 150 97.8966C150.243 98.5711 150.378 99.2799 150.4 99.9966V102.097C150.212 104.178 149.912 106.248 149.5 108.297C149.2 109.297 148.9 110.297 148.7 111.197C148.614 111.708 148.48 112.21 148.3 112.697L147.8 114.097C146.483 118.125 144.634 121.959 142.3 125.497C140.361 128.216 138.075 130.67 135.5 132.797C133.5 134.397 131.8 135.797 129.3 137.497C128.98 137.772 128.605 137.976 128.2 138.097L127.3 138.597L125.6 139.197L124.1 139.897L122.3 140.697C120.9 141.097 120.4 141.797 119.9 141.497L116.1 142.297C115.405 142.467 114.676 142.432 114 142.197L111.9 142.497H109.8C108.4 142.797 107.4 142.697 107.3 142.397Z" fill="#2E316A"/>
<path fill-rule="evenodd" clip-rule="evenodd" d="M100.9 65.1966C101.1 65.9966 100.5 65.5966 100.2 65.6966C99.8999 65.7966 99.7999 65.9966 99.5999 66.2966C99.3999 66.5966 98.8999 66.4966 98.6999 66.0966C98.4999 65.6966 97.7999 66.4966 97.3999 66.7966C96.9999 67.0966 96.9999 67.1966 96.7999 67.3966L95.9999 67.6966C94.9999 68.3966 93.4999 69.4966 92.0999 69.1966C90.6999 68.8966 91.7999 69.7966 91.5999 69.8966C89.3977 70.0946 87.3565 71.1332 85.8999 72.7966C85.2999 72.8966 85.4999 73.5966 84.6999 73.2966C84.2069 74.1267 83.475 74.7889 82.5999 75.1966C82.6507 75.6953 82.6507 76.1979 82.5999 76.6966C82.2999 77.6966 81.1999 77.8966 80.6999 79.0966H80.4999C80.7999 79.6966 80.0999 80.1966 79.8999 80.5966C79.6999 80.9966 79.1999 82.4966 78.8999 83.4966C78.4157 83.8777 78.0654 84.4031 77.8999 84.9966C77.3642 85.4132 76.9498 85.9657 76.6999 86.5966C76.4067 87.2613 76.0007 87.8703 75.4999 88.3966C74.6999 88.3966 74.9999 88.0966 74.4999 87.9966C73.9999 87.8966 74.2999 88.5966 73.9999 88.1966C73.6999 87.7966 73.6999 87.3966 73.8999 87.3966C73.91 87.0558 74.0537 86.7325 74.2999 86.4966C74.2999 85.2966 75.2999 84.0966 76.0999 83.0966C76.8999 82.0966 76.1999 82.0966 76.7999 81.7966C77.3999 81.4966 77.2999 79.3966 77.5999 77.9966C77.8999 76.5966 78.4999 76.3966 79.6999 76.0966C80.8999 75.7966 80.6999 73.1966 82.1999 71.6966C83.6999 70.1966 85.4999 68.9966 87.6999 68.0966C88.1999 68.1966 88.7999 67.3966 89.3999 67.9966C89.9999 68.5966 90.8999 67.2966 91.4999 67.3966C92.0999 67.4966 91.6999 67.0966 91.8999 66.7966C93.1534 66.704 94.3446 66.2135 95.2999 65.3966C96.4999 64.9966 96.8999 65.2966 97.5999 64.5966C98.2999 63.8966 98.2999 64.8966 98.6999 64.4966C99.0999 64.0966 98.9999 63.9966 98.9999 64.3966C98.9999 64.7966 99.6999 64.0966 99.8999 64.7966C100.1 65.4966 100.8 64.4966 100.9 65.1966Z" fill="#F7F8FA"/>
<path fill-rule="evenodd" clip-rule="evenodd" d="M86.0999 82.1966C86.7999 82.7966 86.2999 82.4966 86.3999 82.5966L86.6999 82.9966H86.4999L86.7999 83.3966C86.7999 83.4966 86.9999 83.6966 87.0999 83.7966V83.9966C87.3999 84.3966 87.7999 84.9966 87.1999 84.6966C86.5999 84.3966 87.3999 84.9966 87.4999 84.9966C87.5999 84.9966 86.5999 84.7966 86.5999 85.1966C86.5999 85.5966 86.7999 85.4966 86.1999 84.9966C85.5999 84.4966 86.1999 85.2966 85.7999 85.0966L86.3999 85.7966C86.6999 86.1966 86.0999 85.7966 86.1999 85.9966C86.2999 86.1966 85.8999 85.7966 86.0999 85.8966C86.2999 85.9966 86.2999 86.1966 86.2999 86.2966L86.5999 86.9966C86.3999 86.8632 86.2999 86.8632 86.2999 86.9966C85.6999 86.6966 85.7999 86.9966 84.8999 86.3966C84.6415 86.1897 84.4068 85.9549 84.1999 85.6966C83.8999 85.3966 84.0999 85.6966 83.8999 85.3966C83.6999 85.0966 83.5999 85.0966 83.6999 85.1966H83.9999C83.8999 84.9966 84.2999 85.1966 84.5999 85.2966C84.8999 85.3966 84.2999 84.8966 84.6999 85.1966C84.3973 84.7864 84.1297 84.3515 83.8999 83.8966C84.2999 84.0966 83.6999 83.5966 84.3999 83.9966C85.0999 84.3966 83.7999 83.1966 83.9999 82.9966C84.1999 82.7966 84.3999 82.8966 84.7999 82.8966C85.1999 82.8966 84.7999 82.7966 85.3999 83.2966C85.9999 83.7966 85.4999 83.0966 85.6999 83.2966C85.8999 83.4966 85.5999 83.0966 85.3999 82.8966C85.1999 82.6966 85.6999 82.7966 85.2999 82.2966C84.8999 81.7966 85.4999 82.2966 85.0999 81.7966C84.6999 81.2966 85.4999 82.0966 85.1999 81.6966C85.3999 81.7966 85.0999 81.4966 85.5999 81.9966C86.0999 82.4966 85.5999 81.6966 86.0999 82.1966Z" fill="#F7F8FA"/>
<path fill-rule="evenodd" clip-rule="evenodd" d="M73.7001 97.7966C72.9001 97.5966 73.4001 97.6966 73.3001 97.5966H73.0001L72.6001 97.3966L72.1001 97.1966H71.9001C71.4001 96.9966 70.8001 96.7966 71.5001 96.7966L71.0001 96.5966C71.7001 96.4966 71.9001 96.3966 71.6001 96.0966C71.3001 95.7966 71.3001 95.9966 72.1001 96.0966C72.9001 96.1966 72.0001 95.8966 72.4001 95.8966L71.5001 95.6966C71.0001 95.4966 71.7001 95.4966 71.5001 95.3966H71.7001C71.1001 95.2966 71.4001 95.2966 71.3001 95.1966L70.6001 94.7966H70.9001C71.5001 94.7966 71.3001 94.5966 72.4001 94.6966L73.3001 94.8966C73.8001 94.9966 73.5001 94.7966 73.8001 94.8966C74.1001 94.9966 74.2001 95.0966 74.0001 94.9966C73.8001 94.8966 73.9001 95.0966 73.8001 95.0966C73.7001 95.0966 73.5001 95.1966 73.2001 95.2966C72.9001 95.3966 73.6001 95.3966 73.2001 95.3966L74.6001 95.9966C74.1001 95.9966 74.9001 96.1966 74.1001 96.0966C75.1001 96.3966 75.0001 96.4966 74.9001 96.6966C74.8001 96.8966 74.7001 96.9966 74.4001 97.0966C74.1001 97.1966 74.4001 97.1966 73.7001 97.0966C73.0001 96.9966 73.7001 97.1966 73.4001 97.1966H73.8001C73.5001 97.2966 73.7001 97.3966 74.3001 97.5966C74.9001 97.7966 74.1001 97.6966 74.7001 97.8966C75.3001 98.0966 74.3001 97.8966 74.7001 97.9966C74.5001 97.9966 74.9001 98.0966 74.2001 97.9966C73.5001 97.8966 74.5001 97.8966 73.7001 97.7966Z" fill="#F7F8FA"/>
<path fill-rule="evenodd" clip-rule="evenodd" d="M142.6 109.297C141.8 108.997 142.5 108.797 142.4 108.497C142.3 108.197 142.4 107.997 142.2 107.797C142 107.597 142.3 107.097 142.7 107.097C143.1 107.097 142.6 106.297 142.4 105.797L142 105.197C141.92 104.967 141.853 104.734 141.8 104.497C141.4 103.597 140.7 102.097 141.4 100.897C142.1 99.6966 141 100.597 140.9 100.297C141.4 98.0966 141.6 96.7966 140.9 94.6966C140.2 92.5966 140.5 93.9966 141.2 93.5966C140.886 92.8016 140.817 91.9313 141 91.0966C140.574 90.9742 140.191 90.7311 139.9 90.3966C139.2 89.6966 139.8 88.8966 139.2 87.9966C138.6 87.0966 139.6 87.7966 139.4 87.7966C139.2 87.7966 138.7 87.0966 138.5 86.7966C138.048 86.0385 137.511 85.334 136.9 84.6966C136.874 84.1291 136.702 83.578 136.4 83.0966C136.5 81.7966 135.5 80.8966 135.8 79.2966C136.1 77.6966 136.3 79.2966 136.7 78.9966C137.1 78.6966 136.5 78.4966 137 78.5966C137.5 78.6966 137.7 78.7966 137.5 78.9966C137.729 79.1503 137.847 79.4245 137.8 79.6966C138.431 80.5788 138.811 81.6155 138.9 82.6966C139 83.2966 139.6 83.2966 139.4 83.8966C140.353 84.5225 141.197 85.2993 141.9 86.1966C141.8 87.3966 142.7 87.5966 142.1 88.5966C143.5 89.4966 143.7 90.7966 144 92.4966C144.3 94.1966 144.3 95.9966 144.1 97.7966C143.9 99.5966 144.3 98.8966 143.5 99.0966C142.7 99.2966 143.6 100.397 143.3 100.897C143 101.397 143.5 101.197 143.8 101.397C143.546 102.411 143.689 103.484 144.2 104.397C144.4 105.497 144 105.797 144.5 106.697C145 107.597 143.9 107.197 144.2 107.697C144.5 108.197 144.5 108.097 144.1 107.997C143.7 107.897 144.1 108.797 143.4 108.697C142.7 108.597 143.3 109.597 142.6 109.297Z" fill="#F7F8FA"/>
<path fill-rule="evenodd" clip-rule="evenodd" d="M135.9 124.097C135.3 123.497 135.7 123.797 135.6 123.697C135.5 123.597 135.5 123.497 135.3 123.297H135.6C135.2 122.997 135.4 123.097 135.3 122.897L135 122.597L134.8 122.297C134.5 121.897 134.1 121.397 134.7 121.797C135.3 122.197 134.4 121.397 134.4 121.397C134.4 121.397 135.2 121.597 135.1 121.197C135 120.797 134.9 120.997 135.5 121.397C136.1 121.797 135.5 121.197 135.9 121.397L135.1 120.797C134.8 120.397 135.4 120.797 135.3 120.497C135.2 120.197 135.6 120.697 135.5 120.697C135.4 120.697 135.2 120.397 135.1 120.297C135 120.197 134.9 119.997 134.6 119.697C134.3 119.397 134.9 119.797 134.9 119.697C135.408 119.797 135.909 119.93 136.4 120.097L137.2 120.497L137.7 120.697C138.4 121.097 138 120.997 137.8 120.897H137.6C137.7 121.197 137.3 121.097 137 120.997C136.7 120.897 137.3 121.297 136.9 121.197C137.313 121.476 137.683 121.812 138 122.197C137.5 122.097 138.2 122.497 137.4 122.197C138.2 122.897 138.1 122.997 137.9 123.097C137.7 123.197 137.5 123.397 137.2 123.397C136.9 123.397 137.1 123.497 136.5 123.097C135.9 122.697 136.4 123.197 136.2 123.097C136 122.997 136.3 123.197 136.5 123.397C136.7 123.597 136.3 123.497 136.7 123.997C137.1 124.497 136.4 123.997 136.9 124.497C137.4 124.997 136.5 124.297 136.8 124.597C137.1 124.897 137.1 124.897 136.7 124.597C136.3 124.297 136.9 124.797 136.3 124.397C135.7 123.997 136.5 124.597 135.9 124.097Z" fill="#F7F8FA"/>
<path fill-rule="evenodd" clip-rule="evenodd" d="M126.7 128.697C127.3 129.297 126.8 129.097 126.8 129.297C126.8 129.497 126.8 129.597 126.9 129.897C127 130.197 126.7 130.197 126.4 129.997C126.1 129.797 126.3 130.497 126.2 130.797C126.1 131.097 126.3 131.197 126.3 131.397C126.3 131.554 126.226 131.702 126.1 131.797C126 132.597 125.6 133.797 124.6 133.597C123.6 133.397 124.6 134.097 124.5 134.197C123.255 134.247 122.061 134.703 121.1 135.497C120.7 135.297 120.7 135.897 120.3 135.297C119.904 135.685 119.315 135.803 118.8 135.597L118.5 136.697C118.1 137.297 117.5 136.597 116.9 137.097V136.797C116.9 137.497 116.4 137.297 116.1 137.497L114.5 138.397C114.138 138.184 113.711 138.113 113.3 138.197C112.94 137.947 112.531 137.777 112.1 137.697C111.624 137.509 111.232 137.153 111 136.697C111 135.997 111.2 136.197 111.2 135.797C111.2 135.397 110.9 135.597 111.2 135.297C111.5 134.997 111.5 134.897 111.5 135.097C111.5 135.297 111.8 135.197 111.9 135.297C112 135.397 113.1 135.597 113.7 135.797C114.3 135.997 114.1 135.397 114.4 135.697C114.7 135.997 115.4 134.697 115.9 134.097C116.4 133.497 116.6 133.597 117.2 134.297C117.6 133.097 118.2 132.997 119 132.697C119.8 132.397 120.8 132.197 121.7 131.997C122.6 131.797 122.2 131.697 122.7 132.297C123.2 132.897 123.3 131.897 123.6 131.997C123.9 132.097 123.7 131.697 123.6 131.397C123.5 131.097 124.5 130.997 124.6 130.097C124.7 129.197 125.2 129.697 125.1 128.997C125 128.297 125.6 129.197 125.4 128.697C125.2 128.197 125.2 128.297 125.5 128.597C125.8 128.897 125.6 128.297 126.1 128.697C126.6 129.097 126.1 128.197 126.7 128.697Z" fill="#FFAA00"/>
<path fill-rule="evenodd" clip-rule="evenodd" d="M131.8 126.497L132.1 126.897L132.3 127.297L132.1 127.097L132.4 127.597C132.509 127.704 132.579 127.845 132.6 127.997L132.8 128.197C133 128.597 133.4 129.197 132.9 128.697L133.1 129.097C132.7 128.697 132.5 128.597 132.6 128.897C132.7 129.197 132.7 129.197 132.2 128.597C131.7 127.997 132.3 128.797 132 128.497L132.5 129.297C132.7 129.697 132.3 129.097 132.4 129.397C132.5 129.697 132.2 129.097 132.2 129.197L132.5 129.597C132.546 129.85 132.648 130.089 132.8 130.297C132.6 130.097 132.5 130.097 132.5 130.197L131.5 129.197C131 128.497 131.2 128.697 130.9 128.397C130.6 128.097 130.8 128.297 130.6 127.997C130.4 127.697 130.4 127.597 130.5 127.797L130.7 127.997C130.6 127.697 130.9 128.097 131.1 128.197C131.3 128.297 130.9 127.897 131.2 128.197L130.4 126.897C130.8 127.197 130.3 126.597 130.8 127.197C131.3 127.797 130.4 126.397 130.5 126.297C130.6 126.197 130.7 126.397 131 126.497L131.5 126.997C131.2 126.597 131.5 126.997 131.7 127.197L131.4 126.797C131.7 126.997 131.6 126.797 131.3 126.297C131 125.797 131.5 126.397 131.1 125.797C131.2 125.797 130.9 125.497 131.1 125.797C131.3 126.097 131 125.597 131.5 126.097C132 126.597 131.3 125.897 131.8 126.497Z" fill="#FFAA00"/>
<path fill-rule="evenodd" clip-rule="evenodd" d="M82.3 124.397C81.7 125.097 81.9 124.497 81.7 124.497C81.5 124.497 81.3 124.497 81.1 124.597C80.9 124.697 80.7 124.397 80.9 124.097C81.1 123.797 80.4 123.897 80 123.797H79.4L78.9 123.597C78.1 123.397 76.9 122.997 77 121.897C77.1 120.797 76.5 121.897 76.4 121.797C76.2033 120.413 75.6521 119.104 74.8 117.997C74.9 117.597 74.3 117.697 74.9 117.197C74.4165 116.774 74.2557 116.09 74.5 115.497L73.3 115.297C72.7 114.797 73.2 114.097 72.8 113.497C72.4 112.897 73.1 113.397 73 113.397C72.9 113.397 72.4 112.897 72.3 112.597L71.2 110.997C71.3019 110.569 71.3019 110.124 71.2 109.697C71.4221 109.296 71.5583 108.853 71.6 108.397C71.6889 107.849 71.9731 107.351 72.4 106.997C73.2 106.897 72.9 107.097 73.4 107.197C73.9 107.297 73.5 106.797 73.8 106.997C74.1 107.197 74.3 107.297 74.1 107.397C73.9 107.497 74 107.697 73.9 107.897C73.8 108.097 73.8 109.197 73.7 109.897C73.6 110.597 74.1 110.397 73.8 110.697C73.5 110.997 74.9 111.797 75.6 112.197C76.3 112.597 76.2 113.097 75.6 113.797C76.8 114.197 77 114.797 77.4 115.797C77.8 116.797 78.1 117.697 78.4 118.797C78.7 119.897 78.8 119.297 78.2 119.797C77.6 120.297 78.6 120.497 78.6 120.897C78.6 121.297 78.9 120.897 79.2 120.897C79.5 120.897 79.7 121.897 80.7 121.997C81.7 122.097 81.1 122.697 81.8 122.597C82.5 122.497 81.7 123.097 82.2 122.997C82.7 122.897 82.6 122.797 82.3 123.097C82 123.397 82.7 123.197 82.3 123.697C81.9 124.197 82.8 123.897 82.3 124.397Z" fill="#FFAA00"/>
<path fill-rule="evenodd" clip-rule="evenodd" d="M148.9 155.897C149.8 156.197 148.4 156.997 148.2 157.497C148 157.997 147.6 158.597 147.4 159.197C147.2 159.797 146.1 160.597 145.5 160.597C145.258 161.093 144.918 161.535 144.5 161.897C143.987 162.277 143.517 162.713 143.1 163.197L141.9 164.597C141.4 165.097 140.8 165.397 140.2 165.897C138.844 167.124 137.33 168.167 135.7 168.997C133.918 169.941 131.992 170.583 130 170.897C129.2 171.097 128.9 171.597 128.1 171.897C124.6 172.497 121.9 172.697 119.1 172.997L110.1 173.597C108.6 173.197 107.8 173.797 106.8 172.997C105.8 172.197 104.2 172.897 102.9 172.697C101.641 172.515 100.402 172.214 99.2001 171.797C98.1829 172.034 97.1443 172.168 96.1001 172.197C93.4001 171.997 91.4001 170.797 88.2001 169.997C88.3001 169.997 88.2001 169.597 88.0001 169.697C87.8001 169.797 85.2001 168.997 83.9001 168.597C82.6001 168.197 78.9001 166.897 76.0001 165.597L73.8001 164.097L71.4001 162.497C68.6001 159.997 65.0001 157.397 63.1001 154.097C63.5001 153.397 64.0001 154.297 64.4001 153.997C64.8001 153.697 63.3001 152.797 64.3001 153.297C65.3001 153.797 65.8001 153.997 65.8001 154.197C66.4152 154.719 66.9538 155.325 67.4001 155.997C69.7001 157.597 72.2001 159.997 74.7001 161.797C77.2001 163.597 77.0001 162.697 78.0001 163.697C79.0001 164.697 80.6001 164.497 82.1001 164.897L84.4001 165.597L86.8001 166.197C87.9374 166.787 89.1479 167.224 90.4001 167.497C91.4277 167.779 92.4057 168.217 93.3001 168.797C94.201 168.73 95.1066 168.763 96.0001 168.897L98.8001 169.097L101.8 169.497C102.952 169.74 104.123 169.874 105.3 169.897C110.4 170.897 115.2 170.497 120.5 169.997C121.6 170.197 123.5 169.497 124.3 170.097C125.1 170.697 128 169.197 129.4 168.997C130.8 168.797 130.1 168.597 130.6 168.097C133.466 167.498 136.122 166.153 138.3 164.197L139.9 163.197L141.1 162.397L142.1 161.697L142.9 160.597C143.8 159.797 144.4 159.897 144.8 158.997C145.2 158.097 145 158.197 145.4 158.397C145.8 158.597 146.3 157.197 147.1 157.297C147.9 157.397 148.3 155.497 148.9 155.897Z" fill="#BC88FF"/>
<path fill-rule="evenodd" clip-rule="evenodd" d="M154.6 151.497C154.5 152.397 154.5 151.897 154.5 151.997C154.5 152.097 154.4 152.297 154.4 152.497V152.197C154.3 152.797 154.3 152.497 154.3 152.697V153.397C154.3 153.997 154.4 154.597 154.2 153.897V154.397C154.1 153.797 153.9 153.597 154 153.997L153.8 153.497C153.9 153.797 153.8 153.697 153.6 153.397L154.1 154.197C154.3 154.597 153.9 153.997 154 154.197V153.997C154.4 154.597 154.2 154.397 154.3 154.397C154.383 154.626 154.52 154.832 154.7 154.997C154.6 154.797 154.6 154.697 154.6 154.797C154.6 154.897 154.4 154.497 153.5 153.897L152.7 153.297L152.3 152.997C151.6 152.497 152 152.697 152.2 152.797H152.4C152.3 152.597 152.7 152.797 152.9 152.997C153.1 153.197 152.7 152.597 153 152.897C152.692 152.508 152.455 152.068 152.3 151.597C152.6 151.897 152.2 151.297 152.7 151.897C152.3 150.897 152.5 150.897 152.7 150.797C152.9 150.697 153.1 150.897 153.4 151.097C153.7 151.297 153.5 150.997 153.7 151.697C153.9 152.397 153.8 151.697 153.9 151.897C154 152.097 153.9 151.697 153.8 151.497C153.7 151.297 154 151.597 154.1 150.997C154.2 150.397 154.2 151.097 154.3 150.497C154.4 149.897 154.4 150.897 154.4 150.497C154.5 150.697 154.5 150.297 154.5 150.897C154.5 151.497 154.6 150.797 154.6 151.497Z" fill="#BC88FF"/>
<path fill-rule="evenodd" clip-rule="evenodd" d="M59.2001 154.097H58.8001L58.3001 153.897C58.3001 153.897 58.2001 153.797 58.6001 153.897L58.1001 153.597L57.7001 153.397L57.5001 153.197C57.1001 152.897 56.6001 152.297 57.3001 152.497L57.0001 152.197C57.7001 152.197 58.0001 152.297 57.9001 151.797C57.8001 151.297 57.8001 151.497 58.4001 151.997C59.0001 152.497 58.5001 151.697 58.8001 151.997L58.3001 151.097C58.2001 150.697 58.7001 151.197 58.7001 150.897V151.097C58.4001 150.497 58.7001 150.697 58.7001 150.597L58.9001 149.697C58.9802 149.838 59.1384 149.918 59.3001 149.897C59.6001 150.397 59.8001 150.097 60.2001 151.097C60.2525 151.428 60.2525 151.765 60.2001 152.097C60.3001 152.497 60.3001 152.197 60.3001 152.597C60.3001 152.997 60.4001 152.997 60.3001 152.797C60.2001 152.597 60.3001 152.697 60.2001 152.597C60.1001 152.497 60.0001 152.397 59.9001 152.197C59.8001 151.997 59.9001 152.597 59.7001 152.197C59.8065 152.67 59.9401 153.138 60.1001 153.597L59.8001 153.297C60.3001 154.197 60.3001 154.097 60.2001 154.097C60.1001 154.097 60.0001 154.097 59.8001 153.897L59.1001 153.597H58.9001C59.3001 153.897 59.0001 153.797 59.3001 153.897C59.6001 153.997 59.1001 153.997 59.6001 154.197L60.1001 154.497H59.1001L59.2001 154.097Z" fill="#BC88FF"/>
<path fill-rule="evenodd" clip-rule="evenodd" d="M62.9 164.197V164.597C62.9 164.997 62.8 164.897 62.8 165.097V164.897C62.7 165.397 62.7 165.097 62.6 165.397V165.797C62.6 165.997 62.5 165.897 62.5 166.097C62.5 166.297 62.3 167.297 62.2 166.597C62.1 165.897 62.1 166.997 62.1 166.997C62.1 166.997 61.8 166.197 61.6 166.597C61.4 166.997 61.5 166.797 61.5 166.097C61.5 165.397 61.3 166.197 61.2 165.797C61.2273 166.133 61.1934 166.472 61.1 166.797C61 167.197 61 166.497 60.9 166.797V166.597C60.9 167.197 60.8 166.997 60.7 166.997L60.5 167.797C60.4 167.497 60.4 167.497 60.3 167.497C60.1454 167.043 60.0447 166.573 60 166.097V165.097C60 164.697 59.9 164.997 60 164.597V164.397C60.1 164.297 60.1 164.497 60.1 164.597C60.1 164.697 60.3 164.897 60.4 165.097C60.5 165.297 60.5 164.697 60.5 165.097C60.5 165.497 60.7 164.197 60.8 163.697C60.9 163.197 60.9 163.397 61 164.197C61.1 163.097 61.2 163.197 61.4 163.197C61.6 163.197 61.7 163.397 61.9 163.697C62.1 163.997 62 163.597 62 164.397C62 165.197 62.1 164.397 62.2 164.597V164.197C62.3 164.497 62.4 164.297 62.5 163.697C62.6 163.097 62.6 163.797 62.7 163.197C62.8 162.597 62.7 163.597 62.8 163.197C62.8 163.397 62.8 162.997 62.9 163.697V164.197Z" fill="#BC88FF"/>
<path fill-rule="evenodd" clip-rule="evenodd" d="M184.8 161.697C184 161.297 185 160.897 185.1 160.597C185.2 160.297 185.4 159.797 185.5 159.397C185.6 158.997 186.1 158.397 186.6 158.497C187.1 158.597 187.2 157.197 187.5 156.497C187.553 156.086 187.654 155.684 187.8 155.297C187.925 154.912 188.093 154.543 188.3 154.197C188.646 153.143 189.047 152.109 189.5 151.097C190.026 150.045 190.738 149.096 191.6 148.297C191.8 147.797 191.6 147.397 191.8 146.997C194.14 144.315 195.91 141.185 197 137.797C197.6 137.097 197.3 136.397 198.2 136.197C198.53 134.664 199.14 133.207 200 131.897C199.754 131.295 199.652 130.645 199.7 129.997C199.7 128.297 200.7 127.297 201 125.397C201 125.497 201.4 125.397 201.3 125.297C201.2 125.197 201.3 123.497 201.4 122.797C201.625 121.14 201.725 119.468 201.7 117.797C202.061 116.831 202.297 115.823 202.4 114.797C202.759 113.68 203.059 112.545 203.3 111.397C203.469 110.24 203.842 109.123 204.4 108.097C205.2 107.997 204.9 108.597 205.3 108.697C205.7 108.797 205.6 107.597 205.8 108.297C206 108.997 206.2 109.297 206 109.397C206.033 109.882 205.929 110.367 205.7 110.797C205.708 111.778 205.574 112.754 205.3 113.697C205.1 114.597 204.8 115.597 204.5 116.497C204.2 117.397 204.7 117.997 204.2 118.797C204.426 120.721 204.493 122.661 204.4 124.597C203.5 126.497 204 127.497 202.8 128.697C202.983 129.898 202.915 131.123 202.6 132.297C202.258 133.625 201.823 134.928 201.3 136.197C200.487 137.622 199.753 139.091 199.1 140.597C198.4 141.997 197.7 143.397 196.8 144.897C195.9 146.397 195.9 146.697 195.1 146.597C194.3 146.497 193.9 148.697 193.2 149.297C192.5 149.897 193.2 149.797 193.2 150.297C191.97 151.671 191.08 153.315 190.6 155.097C189.6 156.897 188.9 157.097 188.7 158.497C188.5 159.897 187.7 159.097 187.6 159.797C187.5 160.497 187.7 160.397 187.3 160.197C186.9 159.997 186.8 161.097 186.1 160.897C185.4 160.697 185.4 162.197 184.8 161.697Z" fill="#7132FE"/>
<path fill-rule="evenodd" clip-rule="evenodd" d="M183.5 160.097L183.9 160.297H183.7C184.1 160.597 183.9 160.497 184 160.697L184.4 160.997C184.4 161.197 184.4 161.197 184.5 161.297C184.6 161.397 184.8 162.497 184.3 161.897C183.8 161.297 184.5 162.397 184.4 162.397C184.3 162.397 183.7 161.797 183.5 162.197C183.3 162.597 183.4 162.497 183.3 161.697C183.2 160.897 183.1 161.897 183.1 161.397C183.043 161.741 182.942 162.077 182.8 162.397C182.6 162.797 182.6 162.097 182.4 162.297V161.997C182.1 162.697 182.1 162.397 182 162.397L181.2 162.797C181.2 162.497 181.2 162.397 181 162.297C181.075 162.071 181.109 161.834 181.1 161.597C181.258 161.331 181.461 161.094 181.7 160.897L182.5 160.397L182.9 160.197C183.1 159.997 182.8 160.297 182.7 160.597L183.1 159.997H183.2L183.4 160.297L183.2 160.097H183.4H183.5Z" fill="#7132FE"/>
<path fill-rule="evenodd" clip-rule="evenodd" d="M177.2 157.697C177.7 158.397 177.4 157.897 177.4 158.097L177.7 158.497C177.6 158.497 177.7 158.597 177.5 158.297C177.3 157.997 177.6 158.597 177.7 158.797L177.9 159.197V159.497C178 159.997 178 160.697 177.7 159.997C177.4 159.297 177.8 160.497 177.7 160.497C177.6 160.497 177.2 159.797 176.9 160.197C176.6 160.597 176.9 160.497 176.8 159.697C176.7 158.897 176.6 159.897 176.6 159.497C176.555 159.801 176.488 160.102 176.4 160.397C176.2 160.797 176.2 160.097 176.1 160.297V160.097C175.9 160.797 175.9 160.497 175.8 160.497L175.2 161.097C175.2 160.897 175.2 160.797 175 160.797C174.8 160.797 174.8 160.297 175.3 159.297L175.8 158.497L176.1 158.097C176.6 157.297 176.3 157.697 176.2 157.897V158.097C176.4 157.897 176.2 158.297 176.2 158.597C176.2 158.897 176.4 158.197 176.3 158.597L176.8 157.297C176.7 157.697 176.8 156.997 176.7 157.797L176.9 156.897V157.097V157.297C177 157.697 176.9 157.197 177.1 157.997C177.3 158.797 177.1 157.997 177.2 158.197C177.3 158.397 177.2 157.997 177.1 157.697C177 157.397 177.2 157.897 177 157.297H176.9C177 157.297 176.9 157.197 177 157.397C177.1 157.597 176.8 156.997 177.2 157.697Z" fill="#7132FE"/>
<path fill-rule="evenodd" clip-rule="evenodd" d="M187 151.897C186.1 151.997 186.6 151.897 186.5 151.797H186C186 151.697 185.9 151.697 186.2 151.697C186.5 151.697 186 151.597 185.7 151.597H185C184.5 151.597 183.8 151.797 184.5 151.497H184C184.6 151.197 184.7 150.997 184.4 151.097C184.1 151.197 184.1 151.197 184.8 150.797C185.5 150.397 184.6 150.797 184.9 150.497L184 150.997C183.6 151.197 184.2 150.797 184 150.897L184.2 150.697C183.6 151.097 183.8 150.897 183.7 150.897L183.1 151.297L183.3 151.097C183.7 150.697 183.5 150.797 184.1 149.997L184.8 149.297C185.1 148.997 184.9 149.097 185.1 148.897C185.3 148.697 185.5 148.597 185.3 148.797C185.1 148.997 185.3 148.897 185.2 148.997C185.1 149.097 185.2 149.297 185.1 149.497C185 149.697 185.4 149.297 185.1 149.597L186.5 148.997C186.2 149.297 186.8 148.997 186.2 149.497C187.2 148.997 187.2 149.197 187.3 149.397C187.4 149.597 187.3 149.897 187.1 150.197C186.9 150.497 187.2 150.297 186.5 150.597C185.8 150.897 186.6 150.697 186.3 150.797H186.8C186.5 150.997 186.7 151.097 187.4 150.997C188.1 150.897 187.2 151.197 187.9 151.197C188.6 151.197 187.5 151.297 187.9 151.297C188.3 151.297 188.3 151.297 187.9 151.397H187.4C187.4 151.397 187.7 151.797 187 151.897Z" fill="#7132FE"/>
<path fill-rule="evenodd" clip-rule="evenodd" d="M31.7001 160.597C31.2001 161.297 31.0001 160.297 30.6001 160.097C30.2001 159.897 29.9001 159.597 29.5001 159.497C29.1001 159.397 28.7001 158.597 28.8001 158.197C28.9001 157.797 27.7001 157.097 27.1001 156.597L26.1001 155.897L25.1001 154.897C23.7001 153.597 21.5001 151.197 21.1001 148.797C20.8001 148.397 20.3001 148.297 20.0001 147.897C18.8811 144.229 17.3373 140.705 15.4001 137.397C15.3001 136.297 14.5001 136.097 15.0001 135.197C14.0286 133.836 13.4101 132.255 13.2001 130.597C12.5961 130.178 12.057 129.672 11.6001 129.097C10.6001 127.697 10.8001 126.097 10.0001 124.197C10.0001 124.197 10.3001 123.997 10.2001 123.897C10.1001 123.797 9.2001 122.197 9.0001 121.397C8.8001 120.597 7.8001 118.097 7.2001 116.097C7.31444 114.897 7.28086 113.688 7.1001 112.497C7.6001 109.997 7.5001 107.097 8.9001 104.897C9.7001 104.797 9.3001 105.397 9.8001 105.597C10.3001 105.797 10.1001 104.497 10.3001 105.297C10.5001 106.097 10.6001 106.297 10.4001 106.397C10.3879 106.921 10.2508 107.435 10.0001 107.897C10.2001 109.697 9.7001 111.797 9.7001 113.897C9.7001 115.997 10.2001 115.397 9.9001 116.297C9.6001 117.197 11.5001 119.897 12.5001 121.697C13.5001 123.497 13.6001 124.397 13.4001 126.097C15.1001 127.897 15.8001 129.997 17.1001 132.997C18.4001 135.997 19.7001 138.997 21.0001 142.297C20.9001 143.097 21.9001 144.097 21.4001 144.797C20.9001 145.497 22.6001 146.997 22.8001 147.897C23.0001 148.797 23.2001 148.297 23.6001 148.497C24.2513 150.335 25.3924 151.96 26.9001 153.197C28.1001 154.697 28.1001 155.397 29.4001 156.097C30.7001 156.797 29.6001 157.197 30.4001 157.497C31.2001 157.797 31.0001 157.597 30.7001 157.897C30.4001 158.197 31.5001 158.597 31.1001 159.197C30.7001 159.797 32.2001 160.097 31.7001 160.597Z" fill="#00CCCC"/>
<path fill-rule="evenodd" clip-rule="evenodd" d="M33.3999 161.297C33.9999 161.897 33.5999 161.597 33.6999 161.697C33.7999 161.797 33.7999 161.997 33.9999 162.097C34.1999 162.197 33.9999 162.297 33.6999 161.997C33.3999 161.697 33.8999 162.297 33.9999 162.497L34.2999 162.897V163.097C34.5999 163.497 35.0999 163.997 34.3999 163.697L34.7999 163.997C34.0999 163.897 33.8999 163.897 33.9999 164.297C34.0999 164.697 34.1999 164.497 33.4999 164.097C32.7999 163.697 33.5999 164.397 33.1999 164.297L33.9999 164.797C34.2999 165.097 33.6999 164.797 33.8999 165.097H33.5999C34.1999 165.397 33.9999 165.297 33.9999 165.397L34.5999 165.897C34.2999 165.897 34.1999 165.897 34.2999 165.997C33.7981 166.001 33.2967 165.968 32.7999 165.897C31.9999 165.697 32.2999 165.697 31.8999 165.497C31.4999 165.297 31.6999 165.597 31.3999 165.397C31.0999 165.197 30.9999 165.197 31.1999 165.297C31.3999 165.397 31.2999 165.197 31.4999 165.197C31.6999 165.197 31.7999 165.097 32.0999 164.997C32.3999 164.897 31.6999 164.797 32.0999 164.897L30.9999 163.897C31.4999 163.897 30.7999 163.497 31.5999 163.797C30.6999 163.197 30.8999 162.997 30.9999 162.797C31.0999 162.597 31.4999 162.497 31.8999 162.397C32.2999 162.297 31.8999 162.197 32.5999 162.697C33.2999 163.197 32.6999 162.497 32.8999 162.597L32.5999 162.297C32.8999 162.297 32.8999 162.197 32.4999 161.597C32.0999 160.997 32.6999 161.597 32.2999 161.097C31.8999 160.597 32.6999 161.297 32.3999 160.997C32.0999 160.697 32.1999 160.697 32.4999 160.897C32.7999 161.097 32.3999 160.697 32.8999 161.197C33.3999 161.697 32.8999 160.797 33.3999 161.297Z" fill="#00CCCC"/>
<path fill-rule="evenodd" clip-rule="evenodd" d="M17.5001 111.197C17.1001 111.997 17.2001 111.497 17.1001 111.597L16.8001 111.997C16.8001 111.897 16.7001 111.997 16.8001 111.697C16.9001 111.397 16.6001 111.897 16.5001 112.097C16.4728 112.246 16.4034 112.385 16.3001 112.497C16.3001 112.697 16.3001 112.597 16.2001 112.697C16.1001 112.797 16.0001 113.897 16.0001 113.197C16.0001 112.497 16.0001 113.697 16.0001 113.697C16.0001 113.697 15.6001 112.897 15.6001 113.297C15.6001 113.697 15.7001 113.597 15.3001 112.897C14.9001 112.197 15.3001 113.097 15.0001 112.797L15.5001 113.597C15.8001 113.997 15.3001 113.497 15.4001 113.697H15.2001L15.6001 113.997C15.7646 114.177 15.9705 114.314 16.2001 114.397L16.0001 114.197L15.5001 113.997H13.6001C13.2001 113.897 13.5001 114.097 13.2001 113.997C12.9001 113.897 12.7001 113.897 12.9001 113.897C13.1001 113.897 13.0001 113.797 13.2001 113.797C13.4001 113.797 13.5001 113.397 13.8001 113.397C14.1001 113.397 13.5001 113.097 13.9001 113.197C13.4558 112.929 13.133 112.498 13.0001 111.997C13.5001 112.097 13.0001 111.497 13.7001 111.897C14.4001 112.297 13.5001 110.797 13.8001 110.597C14.1001 110.397 14.6001 110.497 15.1001 110.597C15.6001 110.697 15.3001 110.497 15.5001 111.297C15.7001 112.097 15.8001 111.197 15.8001 111.497C15.8001 111.797 15.9001 111.297 15.9001 110.997C15.9001 110.697 16.2001 111.197 16.6001 110.597C17.0001 109.997 16.9001 110.797 17.3001 110.297C17.7001 109.797 17.2001 110.697 17.5001 110.297C17.8001 109.897 17.7001 109.997 17.6001 110.397C17.5001 110.797 17.8001 110.297 17.5001 110.897C17.2001 111.497 17.9001 110.597 17.5001 111.197Z" fill="#00CCCC"/>
<path fill-rule="evenodd" clip-rule="evenodd" d="M143.9 193.297C144.5 193.997 142.8 193.997 142.2 194.397C141.6 194.797 141 195.197 140.5 195.597C140 195.997 138.4 196.497 137.8 196.297C137.2 196.097 135.5 197.397 134.2 197.997L132.3 198.997C131.6 199.397 130.9 199.497 130.1 199.897C128.111 200.638 126.073 201.239 124 201.697C121.757 202.128 119.455 202.162 117.2 201.797C116.2 201.897 115.7 202.297 114.8 202.297L104.6 200.797L94.5001 199.297C92.9001 198.697 91.7001 198.997 90.8001 197.897C89.3103 197.587 88.0106 196.684 87.2001 195.397L85.5001 192.397L88.3001 194.297C88.9021 194.691 89.2458 195.378 89.2001 196.097C89.1364 196.66 88.8906 197.186 88.5001 197.597C87.7788 198.276 86.7606 198.54 85.8001 198.297C84.6097 198.697 83.3394 198.8 82.1001 198.597C80.6169 198.371 79.191 197.861 77.9001 197.097C76.4717 196.319 75.0029 195.618 73.5001 194.997C73.6001 194.997 73.5001 194.597 73.3001 194.597C73.1001 194.597 70.1001 193.497 68.8001 192.897C67.5001 192.297 63.3001 190.297 60.1001 188.597C58.4993 187.277 56.8303 186.042 55.1001 184.897C52.0001 181.997 47.9001 179.097 45.6001 175.497C45.8001 174.697 46.5001 175.697 47.0001 175.497C47.5001 175.297 45.6001 174.097 46.8001 174.697C48.0001 175.297 48.4001 175.497 48.4001 175.797C49.1354 176.354 49.8062 176.991 50.4001 177.697C53.0001 179.597 55.9001 182.297 58.7001 184.497C61.5001 186.697 61.3001 185.697 62.4001 186.897C63.5001 188.097 68.7001 189.597 72.1001 190.797C75.5001 191.997 77.0001 192.897 79.2001 194.697L84.4001 195.597C85.0496 195.81 85.7506 195.81 86.4001 195.597L86.8001 196.197C86.7375 196.086 86.6262 196.012 86.5001 195.997H87.3001L89.8001 193.997C89.9772 194.28 90.2166 194.519 90.5001 194.697C91.9001 195.997 95.3001 196.297 98.1001 196.897L106.9 198.397C108.1 198.897 110.5 198.697 111.2 199.497C111.9 200.297 115.5 199.797 117.2 199.997C118.9 200.197 118.1 199.797 118.8 199.497C122.148 199.758 125.509 199.209 128.6 197.897C131.9 196.897 133.1 196.897 135.1 195.497C137.1 194.097 137 195.397 137.9 194.597C138.8 193.797 138.6 193.897 138.9 194.197C139.2 194.497 140.5 193.397 141.2 193.897C141.9 194.397 143.6 192.597 143.9 193.297Z" fill="#592BD8"/>
<path fill-rule="evenodd" clip-rule="evenodd" d="M158.3 183.797C158.8 184.497 158.4 184.097 158.4 184.297L158.6 184.697C158.5 184.697 158.6 184.897 158.3 184.597C158 184.297 158.3 184.997 158.4 185.197C158.443 185.361 158.477 185.528 158.5 185.697C158.6 185.797 158.5 185.797 158.5 185.997C158.5 186.197 158.7 187.297 158 186.797L158.2 187.297C157.4 187.097 157 187.097 156.7 187.697C156.4 188.297 156.7 187.997 156.2 187.397C155.7 186.797 156 187.697 155.6 187.397C155.672 187.738 155.772 188.072 155.9 188.397C155.9 188.897 155.4 188.297 155.3 188.697C155.2 189.097 155.1 188.397 155.2 188.497C155.3 188.597 155.1 188.997 155.1 189.097C154.953 189.379 154.852 189.683 154.8 189.997H154.3C153.8 189.497 153.6 189.897 152.9 188.997C152.72 188.72 152.585 188.416 152.5 188.097C152.4 187.697 152.4 188.097 152.3 187.697C152.2 187.297 152.3 187.297 152.3 187.397C152.3 187.497 152.5 187.497 152.6 187.597C152.7 187.697 153.1 187.597 153.5 187.697C153.9 187.797 153.4 187.297 153.7 187.597C153.65 187.064 153.65 186.529 153.7 185.997C154.1 186.297 153.8 185.597 154.4 186.197C154.1 185.097 154.4 185.097 154.7 184.897C155 184.697 155.5 184.697 155.9 184.797C156.3 184.897 156.1 184.597 156.6 185.197C157.1 185.797 156.8 185.097 157 185.197C157.2 185.297 157 184.997 156.9 184.797C156.8 184.597 157.3 184.697 157.1 183.997C156.9 183.297 157.5 183.997 157.2 183.297C156.9 182.597 157.6 183.597 157.4 183.197C157.2 182.797 157.2 182.897 157.4 183.197C157.6 183.497 157.4 182.997 157.8 183.497C158.2 183.997 157.8 183.197 158.3 183.797Z" fill="#592BD8"/>
<path fill-rule="evenodd" clip-rule="evenodd" d="M170.2 177.697C170.7 178.497 170.3 177.997 170.4 178.197L170.6 178.597C170.5 178.597 170.6 178.797 170.3 178.497C170 178.197 170.4 178.797 170.5 178.997V179.397C170.6 179.597 170.5 179.597 170.6 179.697C170.7 179.797 170.9 180.897 170.4 180.397L170.6 180.797C170 180.397 169.7 180.297 169.6 180.797C169.5 181.297 169.7 181.097 169.2 180.497C168.7 179.897 169.1 180.697 168.8 180.497C168.975 180.74 169.11 181.01 169.2 181.297C169.3 181.797 168.9 181.197 168.9 181.497V181.297C169.2 181.897 169 181.697 168.9 181.797C168.8 181.897 169 182.297 169 182.597H168.7C168.2 182.097 168.2 182.497 167.5 181.597L167 180.797C166.8 180.397 166.9 180.697 166.7 180.397C166.5 180.097 166.6 179.897 166.7 180.097L166.9 180.297C166.9 179.997 167.3 180.297 167.5 180.497C167.7 180.697 167.4 180.097 167.7 180.397C167.486 179.922 167.351 179.415 167.3 178.897C167.6 179.197 167.3 178.497 167.8 179.197C167.4 178.197 167.6 178.097 167.8 177.997C168 177.897 168.3 177.997 168.7 178.097C169.1 178.197 168.7 177.997 169.2 178.597C169.7 179.197 169.3 178.497 169.5 178.697C169.7 178.897 169.4 178.497 169.3 178.297C169.2 178.097 169.6 178.297 169.4 177.597C169.2 176.897 169.7 177.697 169.4 177.097C169.1 176.497 169.7 177.397 169.5 176.997C169.7 177.197 169.5 176.797 169.9 177.397C170.3 177.997 169.8 177.097 170.2 177.697Z" fill="#592BD8"/>
<path fill-rule="evenodd" clip-rule="evenodd" d="M51.3999 141.597C50.5999 141.997 50.8999 141.097 50.5999 140.897C50.2999 140.697 50.0999 140.397 49.7999 140.197C49.4999 139.997 49.2999 139.297 49.5999 138.997C49.8999 138.697 48.8999 137.997 48.4999 137.497C48.0999 136.997 47.8999 137.097 47.6999 136.797C47.4999 136.497 47.2999 136.197 47.0999 135.897C46.8999 135.597 44.4999 132.797 44.3999 130.797C44.0999 130.497 43.6999 130.397 43.4999 130.097C42.8751 127.117 41.7238 124.272 40.0999 121.697C39.9999 120.897 39.2999 120.697 39.7999 119.997C38.9635 118.956 38.4121 117.715 38.1999 116.397C37.635 116.157 37.0984 115.855 36.5999 115.497C35.5999 114.497 35.6999 113.197 34.5999 112.097C33.4999 110.997 34.8999 111.797 34.6999 111.797C34.4999 111.797 33.5999 110.997 33.1999 110.597C32.3231 109.823 31.2509 109.304 30.0999 109.097C29.6039 108.58 28.9165 108.29 28.1999 108.297C27.4224 107.921 26.5622 107.749 25.6999 107.797L22.7999 107.497C22.3999 106.797 22.9999 106.897 22.9999 106.397C22.9999 105.897 22.0999 106.497 22.4999 105.997C22.8999 105.497 23.1999 105.397 23.3999 105.597C23.5999 105.797 24.2999 105.497 24.6999 105.497C26.385 105.097 28.1572 105.31 29.6999 106.097L30.7999 106.397C31.147 106.372 31.4704 106.574 31.5999 106.897C32.9999 106.797 34.7999 107.997 36.2999 109.097C37.7999 110.197 38.0999 111.097 38.0999 112.597C39.9999 113.797 40.6999 115.397 41.8999 117.897C43.0999 120.397 44.0999 122.697 44.9999 125.397C44.8999 125.997 45.7999 126.897 45.1999 127.497C44.5999 128.097 46.0999 129.297 46.0999 130.097C46.0999 130.897 46.4999 130.397 46.8999 130.597C47.206 132.124 47.974 133.52 49.0999 134.597C49.8999 135.997 49.7999 136.597 50.7999 137.397C51.7999 138.197 50.6999 138.297 51.2999 138.697C51.8999 139.097 51.7999 138.897 51.3999 139.097C50.9999 139.297 51.9999 139.797 51.3999 140.297C50.7999 140.797 52.0999 141.297 51.3999 141.597Z" fill="#83FFDE"/>
<path fill-rule="evenodd" clip-rule="evenodd" d="M53.5999 142.197C54.0999 142.797 53.6999 142.397 53.7999 142.597L54.0999 142.897C54.0999 142.897 54.1999 143.097 53.8999 142.797C53.5999 142.497 53.9999 143.097 54.0999 143.297L54.3999 143.597V143.897C54.6999 144.297 55.0999 144.897 54.5999 144.397L54.8999 144.797C54.2999 144.497 53.9999 144.497 54.1999 144.897C54.3999 145.297 54.2999 145.097 53.6999 144.697C53.0999 144.297 53.7999 144.897 53.3999 144.697L54.0999 145.297C54.3999 145.697 53.7999 145.297 53.9999 145.497H53.8999C54.3999 145.897 54.1999 145.797 54.1999 145.897L54.6999 146.397H54.3999C53.9223 146.305 53.4538 146.171 52.9999 145.997L52.1999 145.497L51.7999 145.297C50.9999 144.897 51.3999 144.997 51.5999 145.097H51.7999C51.6999 144.797 52.0999 144.997 52.3999 144.997C52.6999 144.997 52.0999 144.697 52.4999 144.897C52.1136 144.582 51.7765 144.211 51.4999 143.797C51.8999 143.997 51.2999 143.497 51.9999 143.897C51.1999 143.197 51.3999 143.097 51.4999 142.897C51.5999 142.697 51.8999 142.697 52.2999 142.697L52.8999 143.097C52.5999 142.697 52.9999 142.997 53.1999 143.097C53.3999 143.197 53.0999 142.997 52.8999 142.797C52.6999 142.597 53.1999 142.697 52.7999 142.197C52.3999 141.697 53.0999 142.197 52.6999 141.697C52.2999 141.197 52.9999 141.897 52.6999 141.597C52.3999 141.297 52.4999 141.297 52.7999 141.597C53.0999 141.897 52.6999 141.397 53.1999 141.897C53.6999 142.397 52.9999 141.597 53.5999 142.197Z" fill="#83FFDE"/>
<path fill-rule="evenodd" clip-rule="evenodd" d="M179.3 106.297C180.1 106.397 179.5 106.797 179.5 107.097C179.5 107.397 179.6 107.597 179.8 107.897C180 108.197 179.7 108.697 179.3 108.797C178.9 108.897 179.2 109.697 179.3 110.297C179.4 110.897 179.5 110.797 179.5 111.097C179.55 111.394 179.55 111.699 179.5 111.997C179.6 113.297 179.5 115.397 178.3 116.597C177.1 117.797 178.6 117.197 178.5 117.497C176.978 119.474 175.826 121.71 175.1 124.097C174.5 124.497 174.9 125.097 174.1 125.097C173.813 126.145 173.221 127.084 172.4 127.797C172.578 128.278 172.679 128.784 172.7 129.297C172.6 130.497 171.5 130.997 171.1 132.197C170.7 133.397 170.7 132.097 170.8 132.197C170.9 132.297 170.5 133.397 170.3 133.997C170.1 134.597 169.5 135.997 169.1 137.297C168.534 137.774 168.06 138.35 167.7 138.997C166.3 139.897 165.5 141.497 163.8 142.097C162.1 142.697 163.5 141.497 163.2 141.197C162.9 140.897 162.7 141.697 162.7 141.097C162.7 140.497 162.7 140.397 162.9 140.397C163.067 140.09 163.359 139.871 163.7 139.797C164.1 138.697 165.3 137.797 166.2 136.897C167.1 135.997 166.4 135.797 167.1 135.497C167.8 135.197 167.6 132.997 167.8 131.597C168 130.197 168.5 129.797 169.7 129.397C169.5 127.497 170.2 126.297 171.2 124.497C172.2 122.697 173.1 120.797 174.2 118.897C174.8 118.697 174.7 117.697 175.5 117.797C176.3 117.897 176.1 116.297 176.5 115.897C176.9 115.497 176.5 115.497 176.3 115.097C177.019 114.082 177.307 112.823 177.1 111.597C177.3 110.297 177.8 110.097 177.4 109.097C177 108.097 178 108.597 177.7 107.997C177.4 107.397 177.4 107.597 177.8 107.697C178.2 107.797 177.8 106.997 178.5 106.997C179.2 106.997 178.6 106.097 179.3 106.297Z" fill="#DAC2FF"/>
<path fill-rule="evenodd" clip-rule="evenodd" d="M187.4 102.797C187.3 103.697 187.3 103.197 187.2 103.297C187.1 103.397 187.2 103.597 187.1 103.797V103.497C187 103.997 187 103.797 186.9 103.997C186.857 104.161 186.824 104.328 186.8 104.497C186.8 104.597 186.7 104.597 186.7 104.697C186.7 104.797 186.3 105.897 186.3 105.097C186.277 105.265 186.243 105.432 186.2 105.597C186 104.997 185.9 104.697 185.7 105.097C185.5 105.497 185.6 105.297 185.6 104.597C185.6 103.897 185.5 104.697 185.4 104.297C185.418 104.609 185.348 104.921 185.2 105.197C185.1 105.697 185.1 104.997 185 105.197V104.997C184.9 105.597 184.9 105.397 184.8 105.397C184.663 105.612 184.562 105.849 184.5 106.097C184.4 105.897 184.4 105.797 184.3 105.897C184.2 105.997 184.1 105.497 184.1 104.397C184.136 104.058 184.203 103.723 184.3 103.397C184.4 102.997 184.3 103.297 184.3 102.897C184.3 102.497 184.4 102.497 184.4 102.697C184.4 102.897 184.5 102.797 184.5 102.997C184.5 103.197 184.6 103.197 184.7 103.497C184.8 103.797 184.8 103.097 184.8 103.497L185.3 102.097C185.3 102.497 185.5 101.797 185.4 102.597C185.7 101.597 185.8 101.597 185.9 101.697C186 101.797 186.2 101.897 186.4 102.197C186.6 102.497 186.5 102.197 186.4 102.997C186.3 103.797 186.5 102.997 186.5 103.197C186.5 103.397 186.6 102.997 186.6 102.797C186.6 102.597 186.8 102.897 187 102.297C187.2 101.697 187.1 102.497 187.2 101.897C187.3 101.297 187.2 102.297 187.3 101.897C187.4 102.097 187.4 101.697 187.3 102.397C187.2 103.097 187.4 102.097 187.4 102.797Z" fill="#DAC2FF"/>
<path fill-rule="evenodd" clip-rule="evenodd" d="M197.9 109.097C198.5 109.697 198.1 109.397 198.2 109.497L198.5 109.797C198.5 109.797 198.5 109.997 198.3 109.697C198.1 109.397 198.4 109.997 198.5 110.097C198.622 110.235 198.693 110.412 198.7 110.597V110.797C198.9 111.297 199 112.097 198.5 111.497V111.997C197.9 111.597 197.7 111.397 197.4 111.797C197.1 112.197 197.4 112.097 197.2 111.297C197 110.497 197 111.497 196.9 111.097C196.903 111.44 196.835 111.781 196.7 112.097C196.6 112.497 196.5 111.797 196.3 111.997C196.1 112.197 196.4 111.597 196.3 111.797C196.2 111.997 196.1 112.197 196 112.197L195.3 112.797C195.3 112.497 195.2 112.397 195.1 112.397C195 112.397 194.8 111.897 195.2 110.897C195.6 109.897 195.5 110.497 195.8 110.097C196.1 109.697 195.8 109.897 196 109.697C196.2 109.497 196.3 109.297 196.2 109.497C196.1 109.697 196.2 109.597 196.1 109.697C196 109.797 196.1 109.997 196.1 110.197C196.1 110.397 196.3 109.897 196.2 110.297C196.438 109.859 196.607 109.386 196.7 108.897C196.7 109.397 196.8 108.597 196.8 109.397V108.497C196.9 108.897 196.9 108.597 197 108.897C197.1 109.197 197 108.797 197.3 109.597C197.6 110.397 197.3 109.497 197.5 109.697L197.3 109.297C197.5 109.597 197.5 109.397 197.2 108.797H197.1L196.9 108.597H197L197.2 108.897L197.9 109.097Z" fill="#DAC2FF"/>
<path fill-rule="evenodd" clip-rule="evenodd" d="M45.8 89.4966C45.7 90.2966 44.4 88.5966 43.7 88.0966C43 87.5966 42.3 86.8966 41.8 86.3966L40.6 84.7966C40.3337 84.3612 40.1316 83.8897 40 83.3966L39.3 82.4966L38.7 81.2966C38.2899 80.4961 37.9551 79.6591 37.7 78.7966C37.307 78.0228 36.9727 77.2205 36.7 76.3966C36.4085 75.4111 36.1748 74.4094 36 73.3966C35.5081 70.6881 35.4743 67.9163 35.9 65.1966C36.3184 62.2188 37.4886 59.3967 39.3 56.9966C39.4111 56.7512 39.5451 56.5169 39.7 56.2966L40 55.5966L40.8 54.1966C41.7671 53.1624 42.967 52.3739 44.3 51.8966C44.9758 51.6717 45.6939 51.6033 46.4 51.6966C47.1965 51.7496 47.9287 52.1523 48.4 52.7966C48.8089 53.3882 49.0507 54.0791 49.1 54.7966C49.1 55.3966 49 55.8966 49 56.3966C48.9061 57.4476 48.705 58.4864 48.4 59.4966C47.7491 61.5719 46.6576 63.4822 45.2 65.0966C43.4709 66.9742 41.1327 68.1788 38.6 68.4966C37.5816 68.4709 36.5717 68.3026 35.6 67.9966L34.5 67.5966C34.1896 67.4186 33.9177 67.1806 33.7 66.8966C31.9395 65.8838 30.4344 64.4813 29.3 62.7966C28.3155 61.1668 27.6377 59.3705 27.3 57.4966C26.5884 56.1712 26.0506 54.7595 25.7 53.2966C25.4166 51.3757 25.383 49.4261 25.6 47.4966C25.9 45.5966 26.3 43.5966 26.8 41.2966C26.8 41.3966 27.2 41.0966 27.1 40.8966C27.1157 39.9653 27.3198 39.0469 27.7 38.1966C28.1 36.9966 28.6 35.7966 29 34.8966C29.6903 33.1794 30.492 31.5092 31.4 29.8966C32.4897 27.8647 33.6916 25.895 35 23.9966L40.1 17.8966C42.1656 15.7983 44.4446 13.9215 46.9 12.2966C48.2003 11.4626 49.6152 10.8225 51.1 10.3966C52.4977 10.0031 53.9613 9.90102 55.4 10.0966C55.8 10.6966 54.3 10.4966 54.2 10.8966C54.1 11.2966 56.6 10.8966 55 11.1966C55.2 11.5966 54.7 11.5966 54.1 11.6966C53.6014 11.7488 53.0987 11.7488 52.6 11.6966L49.5 12.6966C45.9 14.7966 42.3 18.2966 39.2 21.7966C37.6 23.6966 37.2 24.7966 35.8 26.1966L32.9 31.6966C31.8448 33.8175 30.9749 36.0258 30.3 38.2966C29.5029 39.9809 28.9313 41.7629 28.6 43.5966C28.3 44.9966 28.1 46.3966 27.7 47.9966C27.8136 50.626 28.182 53.2383 28.8 55.7966C29.1505 57.1813 29.6535 58.5229 30.3 59.7966C30.9429 61.257 31.8594 62.5808 33 63.6966C35.125 66.2136 38.7484 66.8456 41.6 65.1966C44.5516 63.301 46.4969 60.1812 46.9 56.6966C47.099 55.909 47.099 55.0842 46.9 54.2966C46.8192 54.0939 46.68 53.9199 46.5 53.7966L45.9 53.3966C44.8287 53.7132 43.8392 54.2592 43 54.9966C42.5 55.3966 42.1 55.9966 41.6 56.3966L41 57.0966L40.5 57.7966C40.4 58.7966 40 58.7966 39.8 59.7966C37.704 63.4958 36.9615 67.8094 37.7 71.9966C37.7542 72.9065 37.8881 73.81 38.1 74.6966C38.1165 75.4139 38.2517 76.1235 38.5 76.7966L38.7 77.6966L39 78.4966C39.2597 79.1159 39.5603 79.7173 39.9 80.2966C40.1866 80.8745 40.4209 81.4769 40.6 82.0966C40.8273 82.6062 41.1307 83.0783 41.5 83.4966C41.8 84.1966 42.4 84.1966 42.2 84.4966C42 84.7966 43.7 86.1966 43.7 86.9966L44.4 87.7966L45.1 88.3966C45.6 88.8966 45.9 89.2966 45.8 89.4966Z" fill="#CCCFDB"/>
<path fill-rule="evenodd" clip-rule="evenodd" d="M83.0999 40.9966C82.4999 41.3966 82.6999 40.9966 82.5999 40.8966C82.4999 40.7966 82.2999 40.7966 82.0999 40.7966C81.8999 40.7966 81.8999 40.5966 82.0999 40.3966C82.2999 40.1966 81.6999 40.0966 81.3999 39.9966H80.9999L80.5999 39.6966C79.9999 39.3966 79.0999 38.9966 79.2999 38.0966H78.7999C78.731 36.9753 78.271 35.9137 77.4999 35.0966C77.5999 34.6966 77.0999 34.7966 77.4999 34.3966C77.1142 34.0828 76.9239 33.588 76.9999 33.0966H76.0999C75.5999 32.7966 75.7999 32.1966 75.3999 31.7966C74.9999 31.3966 75.5999 31.5966 75.4999 31.5966C75.3999 31.5966 74.9999 31.2966 74.7999 31.1966C74.4454 30.7832 74.0425 30.4139 73.5999 30.0966C73.5932 29.7732 73.4886 29.4594 73.2999 29.1966C73.3999 28.3966 72.7999 27.7966 73.1999 26.7966C73.5999 25.7966 73.5999 26.7966 73.8999 26.5966C74.1999 26.3966 73.7999 26.2966 74.0999 26.2966C74.3999 26.2966 74.5999 26.3966 74.4999 26.4966C74.6169 26.6428 74.6169 26.8505 74.4999 26.9966C74.8999 27.3966 74.8999 28.0966 75.0999 28.6966C75.2999 29.2966 75.4999 28.8966 75.3999 29.2966C76.0286 29.5353 76.6317 29.8369 77.1999 30.1966C77.1999 30.8966 77.7999 30.7966 77.4999 31.4966C77.1999 32.1966 78.7999 32.2966 79.1999 33.0966C79.5999 33.8966 79.9999 34.7966 80.2999 35.7966C80.5999 36.7966 80.6999 36.2966 80.1999 36.6966C79.6999 37.0966 80.5999 37.2966 80.4999 37.5966C80.3999 37.8966 80.6999 37.6966 80.9999 37.6966C81.2999 37.6966 81.3999 38.5966 82.0999 38.8966C82.7999 39.1966 82.3999 39.5966 82.9999 39.6966C83.5999 39.7966 82.7999 40.0966 83.1999 40.0966C83.5999 40.0966 83.4999 40.0966 83.2999 40.2966C83.0999 40.4966 83.5999 40.4966 83.1999 40.7966C82.7999 41.0966 83.4999 40.6966 83.0999 40.9966Z" fill="#CCCFDB"/>
<path fill-rule="evenodd" clip-rule="evenodd" d="M105.6 37.1966C104.9 37.0966 105.4 36.8966 105.3 36.7966C105.2 36.6966 105.1 36.4966 105 36.2966C104.9 36.0966 104.9 35.9966 105.2 35.8966C105.5 35.7966 105.1 35.3966 105 35.1966L104.7 34.7966L104.5 34.2966C104.2 33.6966 103.9 32.6966 104.5 32.0966C105.1 31.4966 104.2 31.7966 104.2 31.5966C104.775 30.5613 105.019 29.3748 104.9 28.1966C105.2 27.8966 104.7 27.6966 105.3 27.5966C105.185 27.0767 105.294 26.5325 105.6 26.0966L104.9 25.3966C104.6 24.8966 105.2 24.4966 105 23.8966C104.8 23.2966 105.3 23.8966 105.2 23.7966C105.1 23.6966 104.9 23.1966 104.9 22.9966L104.4 21.2966C104.612 21.0096 104.685 20.6431 104.6 20.2966C105.1 19.5966 104.9 18.6966 105.8 17.9966C106.7 17.2966 106.1 18.1966 106.5 18.1966C106.9 18.1966 106.6 17.8966 106.8 18.0966C107 18.2966 107.2 18.3966 107 18.4966C106.8 18.5966 106.9 18.7966 106.8 18.8966C106.7 18.9966 106.6 20.1966 106.4 20.7966C106.2 21.3966 106.7 21.2966 106.4 21.5966C106.812 22.1851 107.148 22.8235 107.4 23.4966C107 24.0966 107.6 24.3966 107 24.8966C107.558 25.6013 107.744 26.5313 107.5 27.3966C107 28.3966 107.2 29.3966 106.8 30.4966C106.4 31.5966 106.8 31.1966 106.2 31.1966C105.6 31.1966 106.1 31.9966 105.9 32.2966C105.7 32.5966 106 32.3966 106.2 32.5966C105.915 33.1851 105.993 33.885 106.4 34.3966C106.4 35.0966 106.1 35.1966 106.5 35.6966C106.9 36.1966 106.2 35.9966 106.4 36.1966C106.6 36.3966 106.7 36.3966 106.4 36.3966C106.1 36.3966 106.5 36.6966 106 36.7966C105.5 36.8966 106.1 37.1966 105.6 37.1966Z" fill="#CCCFDB"/>
<path fill-rule="evenodd" clip-rule="evenodd" d="M125.1 40.6965C124.4 40.4965 124.9 40.3965 124.9 40.1965C124.9 39.9965 124.8 39.8965 124.6 39.6965C124.4 39.4965 124.7 39.2965 125 39.2965C125.3 39.2965 125 38.7965 124.9 38.4965C124.8 38.1965 124.7 38.0965 124.7 37.9965C124.7 37.8965 124.7 37.6965 124.7 37.4965C124.7 37.2965 124.3 35.5965 125.1 35.0965C125.9 34.5965 124.9 34.6965 124.9 34.5965C125.71 33.5774 126.259 32.376 126.5 31.0965C126.8 30.7965 126.4 30.4965 127.1 30.4965C127.076 29.9125 127.337 29.3532 127.8 28.9965C127.552 28.7906 127.376 28.51 127.3 28.1965C127.1 27.4965 127.8 27.2965 127.8 26.4965C127.8 25.6965 128.1 26.5965 128 26.4965C127.9 26.3965 127.9 25.8965 128 25.5965C128.1 25.2965 128.1 24.3965 128.1 23.6965C128.326 23.3963 128.495 23.0574 128.6 22.6965C129.3 22.0965 129.4 21.1965 130.4 20.6965C131.4 20.1965 130.7 20.9965 131 21.0965C131.3 21.1965 131.3 20.7965 131.4 21.0965C131.5 21.3965 131.6 21.4965 131.5 21.4965C131.4 21.4965 131.3 21.7965 131.1 21.8965C130.9 21.9965 130.5 23.1965 130.1 23.7965C129.7 24.3965 130.2 24.3965 129.9 24.4965C130.105 25.2459 130.205 26.0198 130.2 26.7965C129.7 27.2965 130.1 27.7965 129.4 28.0965C128.7 28.3965 129.6 29.7965 129.2 30.8965C128.8 31.9965 128.4 32.8965 127.8 33.8965C127.2 34.8965 127.6 34.5965 127 34.4965C126.4 34.3965 126.7 35.2965 126.5 35.5965C126.3 35.8965 126.6 35.7965 126.7 35.9965C126.282 36.537 126.169 37.2535 126.4 37.8965C126.3 38.5965 126 38.6965 126.3 39.2965C126.6 39.8965 125.9 39.4965 126.1 39.7965C126.3 40.0965 126.4 40.0965 126.1 39.9965C125.8 39.8965 126.1 40.3965 125.6 40.2965C125.1 40.1965 125.6 40.7965 125.1 40.6965Z" fill="#CCCFDB"/>
<path fill-rule="evenodd" clip-rule="evenodd" d="M142.8 47.4966C142.2 47.1966 142.6 47.2966 142.6 47.1966C142.6 47.0966 142.5 46.8966 142.4 46.7966C142.3 46.6966 142.4 46.5966 142.7 46.6966C143 46.7966 142.6 46.2966 142.6 46.0966C142.6 45.8966 142.4 45.8966 142.4 45.7966C142.4 45.6966 142.4 45.5966 142.3 45.4966C142.2 45.3966 142 44.2966 142.7 44.1966C143.4 44.0966 142.5 43.8966 142.5 43.7966C143.21 43.5652 143.719 42.9391 143.8 42.1966C144.1 42.1966 143.8 41.8966 144.3 42.0966C144.296 41.7459 144.553 41.4467 144.9 41.3966L144.5 40.7966C144.4 40.2966 144.9 40.3966 145 39.9966C145.1 39.5966 145.2 40.0966 145.1 39.9966C145 39.8966 145 39.5966 145.1 39.3966V38.2966C145.321 38.2518 145.508 38.1028 145.6 37.8966C146.2 37.7966 146.2 37.2966 147.2 37.2966C148.2 37.2966 147.4 37.5966 147.7 37.7966C148 37.9966 147.9 37.6966 148.1 37.8966C148.3 38.0966 148.3 38.1966 148.1 38.1966C147.9 38.1966 148 38.2966 147.8 38.2966C147.6 38.2966 147.3 38.8966 147 39.0966C146.7 39.2966 147.1 39.4966 146.7 39.3966C146.925 39.8674 147.061 40.3761 147.1 40.8966C146.7 41.0966 147.1 41.4966 146.4 41.3966C145.7 41.2966 146.6 42.4966 146.3 42.9966C146 43.4966 145.6 43.8966 145.1 44.3966C144.6 44.8966 144.9 44.6966 144.4 44.4966C143.9 44.2966 144.2 44.8966 143.9 44.8966C143.6 44.8966 144 45.0966 144.1 45.1966C144.2 45.2966 143.7 45.6966 143.9 46.2966C144.1 46.8966 143.6 46.5966 143.9 47.0966C144.2 47.5966 143.5 47.0966 143.7 47.3966C143.5 47.4966 143.7 47.6966 143.2 47.4966C142.7 47.2966 143.3 47.7966 142.8 47.4966Z" fill="#CCCFDB"/>
<path fill-rule="evenodd" clip-rule="evenodd" d="M171.5 88.0966C171.3 87.6966 171.8 87.7966 172.4 87.7966C173.073 87.8969 173.76 87.8282 174.4 87.5966C174.8 87.2966 176.3 86.7966 176.8 86.1966C177.3 85.5966 178.9 84.0966 179.5 83.6966C180.204 82.0287 180.707 80.2831 181 78.4966C181 77.6966 180.9 76.8966 180.9 75.8966C180.904 74.9309 180.699 73.9758 180.3 73.0966C179.859 72.21 178.859 71.7517 177.9 71.9966C176.726 72.406 175.711 73.1759 175 74.1966C174.609 74.727 174.273 75.2968 174 75.8966C173.768 76.3607 173.664 76.8788 173.7 77.3966C173.7 77.5966 173.8 77.6966 173.8 77.7966C173.894 77.9225 174.043 77.9966 174.2 77.9966C174.687 78.0637 175.183 77.9575 175.6 77.6966C176.004 77.442 176.345 77.1003 176.6 76.6966L177.6 75.6966C179.307 74.248 180.761 72.5242 181.9 70.5966C182.974 68.9181 183.815 67.1015 184.4 65.1966C184.931 63.2408 185.2 61.2232 185.2 59.1966C185.159 58.1204 185.025 57.0498 184.8 55.9966C184.584 54.9278 184.102 53.9305 183.4 53.0966C182.981 52.4559 182.34 51.9928 181.6 51.7966C180.958 51.6646 180.324 51.4977 179.7 51.2966C177.855 51.5667 176.085 52.2134 174.5 53.1966C173.001 54.0617 172.084 55.6664 172.1 57.3966C172.736 58.5504 173.765 59.4375 175 59.8966C175.735 60.2021 176.509 60.404 177.3 60.4966C178.046 60.5392 178.793 60.4373 179.5 60.1966C181.316 59.5564 182.888 58.3684 184 56.7966C183.9 56.8966 184.4 56.7966 184.4 56.4966C184.743 55.7015 185.144 54.9327 185.6 54.1966C186.2 53.1966 186.9 52.0966 187.3 51.2966L187.8 50.2966L188.3 49.0966C188.709 48.1919 189.043 47.2555 189.3 46.2966C190.044 44.2215 190.58 42.0776 190.9 39.8966C191.538 37.4503 191.808 34.9225 191.7 32.3966C191.842 29.6327 191.538 26.864 190.8 24.1966C190.5 23.4966 190.3 22.7966 190.1 22.1966L189.3 20.1966C189 19.2966 187.6 18.2966 187.3 18.6966H187.1C187 18.5966 187.1 18.3966 187.2 18.2966C187.3 18.1966 187.9 17.9966 188 17.8966C188.1 17.7966 188.1 17.7966 187.8 17.6966C187.487 17.6735 187.174 17.7431 186.9 17.8966L186.4 18.4966V18.1966C186.382 17.9828 186.503 17.7817 186.7 17.6966C186.5 17.6966 186.5 17.4966 186.9 17.1966C187.343 17.0113 187.835 16.9762 188.3 17.0966C188.979 17.3107 189.551 17.7756 189.9 18.3966C190.22 18.6836 190.49 19.0215 190.7 19.3966C190.8 19.6966 191 19.8966 191.1 20.1966C191.312 20.7147 191.479 21.25 191.6 21.7966C192.539 23.9596 193.146 26.2522 193.4 28.5966C193.667 31.0248 193.633 33.4766 193.3 35.8966C193.22 36.4595 193.186 37.0281 193.2 37.5966L193 38.9966C192.971 39.8941 192.767 40.7772 192.4 41.5966C192.2 44.9966 190.4 50.3966 188.1 54.7966C186.964 56.4957 185.693 58.1008 184.3 59.5966C183.141 60.9522 181.553 61.8698 179.8 62.1966C178.293 62.877 176.598 63.0183 175 62.5966C173.217 62.1048 171.683 60.9631 170.7 59.3966C170.167 58.4547 169.923 57.3763 170 56.2966C170.095 55.1696 170.511 54.0936 171.2 53.1966C172.549 51.4956 174.406 50.2695 176.5 49.6966C177.619 49.459 178.757 49.3251 179.9 49.2966C181.128 49.2597 182.342 49.5718 183.4 50.1966C184.473 50.7964 185.343 51.7013 185.9 52.7966C186.399 53.8129 186.769 54.888 187 55.9966C187.283 58.0517 187.317 60.1335 187.1 62.1966C186.828 64.3007 186.255 66.3549 185.4 68.2966L184.7 69.6966L183.9 71.1966C183.514 72.0549 182.889 72.784 182.1 73.2966C181.464 74.5331 180.618 75.6497 179.6 76.5966C178.53 77.4823 177.393 78.2846 176.2 78.9966C175.908 79.3312 175.526 79.5743 175.1 79.6966C174.628 79.8997 174.109 79.9689 173.6 79.8966C173.187 79.7975 172.807 79.5905 172.5 79.2966C172.144 79.024 171.896 78.6344 171.8 78.1966C171.597 77.5113 171.597 76.7819 171.8 76.0966C172.143 74.9555 172.722 73.8994 173.5 72.9966C174.203 71.9988 175.127 71.1773 176.2 70.5966C176.843 70.2345 177.563 70.0289 178.3 69.9966C179.164 70.0036 180.004 70.2836 180.7 70.7966C181.298 71.3 181.747 71.9569 182 72.6966C182.17 73.2541 182.303 73.8219 182.4 74.3966C182.45 75.1958 182.45 75.9974 182.4 76.7966C182.31 78.271 182.143 79.7396 181.9 81.1966C181.644 81.9628 181.309 82.7001 180.9 83.3966L179.9 85.1966C179.4 85.8966 179.2 86.4966 178.9 86.3966L176.9 87.7966C176.499 88.0008 176.044 88.0709 175.6 87.9966C174.779 88.3591 173.897 88.5627 173 88.5966C172.1 88.5966 171.5 88.2966 171.5 88.0966Z" fill="#CCCFDB"/>
<path fill-rule="evenodd" clip-rule="evenodd" d="M62.7 142.797C63.4 142.997 59.6999 146.197 58.0999 147.897C56.4999 149.597 54.7999 151.397 53.5 152.897C52.2 154.397 48.5999 157.997 47.2999 158.797C44.7999 161.897 41.6 164.897 38.4 168.397C36.9 169.997 35.8 171.397 34.2 173.297L34 173.497V172.797L36.4 175.397C37.2713 176.236 38.2076 177.005 39.2 177.697C40.2767 178.635 41.4124 179.503 42.5999 180.297L46.4 183.097L50.7 185.797C52.1 186.797 53.7 187.597 55.2 188.597C61.3179 191.994 67.6286 195.033 74.0999 197.697C76.8999 198.697 78.5 198.597 81.3 199.397C86.6796 200.869 92.1614 201.939 97.7 202.597C102.651 203.077 107.63 203.21 112.6 202.997L119.9 202.397L123.7 201.897L125.6 201.597L127.5 201.297C133.117 200.22 138.636 198.681 144 196.697C146.091 196.053 148.131 195.25 150.1 194.297C151.622 193.507 153.234 192.903 154.9 192.497C163.022 188.087 170.606 182.751 177.5 176.597C178.187 175.876 178.822 175.107 179.4 174.297L181.2 171.997V173.497L177.5 170.297C170.5 163.897 165.4 157.897 157 149.797C157.2 149.997 156.9 149.097 156.4 148.897C154.725 147.695 153.153 146.357 151.7 144.897H153.9L147 150.497C143.417 153.341 139.604 155.883 135.6 158.097C130.494 160.839 125.046 162.89 119.4 164.197C112.783 165.259 106.046 165.36 99.3999 164.497C92.3257 163.227 85.4825 160.901 79.0999 157.597C75.8724 155.855 72.7951 153.848 69.9 151.597L65.9 148.197L64.2 146.397C63.7119 145.874 63.2765 145.305 62.9 144.697C62.3 143.297 64.8 145.997 65.4 145.997C66 145.997 65.5999 145.797 65.1999 145.497C64.7813 145.014 64.3119 144.578 63.7999 144.197L62.7999 143.297C62.6999 143.197 63 143.297 63.9 143.997C64.8 144.697 64 143.597 64.5999 143.997L65.5 144.697L66.4 145.497L69.1999 148.197C72.0999 150.297 73.9 151.797 76 153.197C80.7899 156.037 85.8899 158.319 91.1999 159.997C93.9952 160.816 96.8326 161.484 99.7 161.997C102.545 162.457 105.419 162.724 108.3 162.797L112.4 162.597L115.7 162.097L122.1 160.997C126.873 159.297 131.49 157.189 135.9 154.697C138.401 153.18 140.805 151.51 143.1 149.697L144.9 148.297L146.6 146.797L149.9 143.897C150.571 143.446 151.206 142.945 151.8 142.397L153 141.497L154 142.497C161.1 149.997 165.1 153.097 170.3 159.297C174.7 163.097 178.9 166.997 183.4 171.297L184.8 172.597L183.5 174.197C177.234 181.112 169.99 187.075 162 191.897C157.783 194.266 153.406 196.338 148.9 198.097C144.48 199.893 139.934 201.363 135.3 202.497C125.86 204.905 116.141 206.048 106.4 205.897L98.7 205.397C96.5626 205.292 94.4464 204.922 92.4 204.297L87.8 203.697L85.3 203.197L82.6999 202.597C80.9999 202.197 79.2999 201.597 77.6999 201.097C76.0999 200.597 74.7 199.997 73.5 199.497C72.2999 198.997 70.6999 198.697 68.1999 197.997C63.2939 195.847 58.5189 193.409 53.9 190.697L50.5 188.697L47.0999 186.497L43.7 184.197L40.0999 181.697L35.5 177.797C34.3426 176.716 33.2726 175.546 32.2999 174.297L31.2 173.097L32.4 171.897C35.5999 168.697 37.8 166.397 41 162.697C44.2 158.997 45.7 158.697 48.2 155.697C49.6 154.397 50.2 153.297 50.7 153.397C54.2 150.197 55.1 148.897 56.4 148.397C58.8 146.197 62.5 142.297 62.7 142.797Z" fill="#2E316A"/>
<path fill-rule="evenodd" clip-rule="evenodd" d="M64 143.897C63.7 144.197 63.3 143.597 62.6 142.697C62.039 141.932 61.4382 141.198 60.8 140.497C60.1 140.297 58.9 138.597 58.1 137.797C57.3 136.997 55.6 134.397 55.4 133.497C55.2 132.597 52.6 129.397 51.2 126.997L49.1 123.697C48.4218 122.366 47.8208 120.997 47.3 119.597C46.6333 118.13 45.9333 116.43 45.2 114.497C44.65 112.596 43.8425 110.779 42.8 109.097C41.8411 107.333 40.5508 105.771 39 104.497C37.612 103.216 35.9792 102.23 34.2 101.597L33.1 101.397H30C24.8 100.797 20.4 100.697 16.1 100.597H2.8L3.8 99.4966C3.86667 101.03 3.96667 102.73 4.1 104.597C4.3 106.397 4.5 108.497 4.8 110.597C5.1 112.697 5.7 115.497 5.4 117.597C6.6 123.197 7.9 128.697 9.2 133.697C9.7 134.697 10.3 135.497 10.8 136.397L12.4 139.297C13 140.597 13.6 141.797 14.1 142.997C14.6 144.197 15.3 145.397 15.8 146.597C16.3 147.797 17.1 149.097 17.8 150.397L18.9 152.397L20.3 154.397C20.2 154.297 20.1 154.897 20.4 155.097C20.8506 155.404 21.2547 155.774 21.6 156.197L23 158.097L24.5 160.197L26 161.997L27.6 163.897C28.2 164.597 29 165.297 29.7 166.197C30.4 167.097 33.1 169.497 35.1 171.397H32.1L35.1 168.197C37.6 165.997 40.3 163.397 43.2 160.497C46.1 157.597 49.2 155.097 52.4 152.297C55.6 149.497 58.7 146.497 62.1 143.797C63.2 143.397 61.4 144.997 61.7 145.197C62 145.397 64.4 142.597 63 144.297C64.3 143.897 61.1 146.797 60.6 147.097C60.1 147.397 57.9 149.697 56.7 150.797C52.5 155.397 46.7 160.697 41.6 165.297C38.9 167.897 38.2 169.397 35.7 171.197L34 173.297L33.7 173.697L33.2 173.297C28.7902 169.552 24.7087 165.437 21 160.997C17.1 154.797 14.9 152.497 13.2 147.397C8.7 140.597 5.7 133.197 3.3 121.997C1.99983 114.662 1.23117 107.242 1 99.7966V97.8966H14.7C17.1 98.1966 21.7 97.6966 23.1 98.4966C25.0317 98.334 26.975 98.3675 28.9 98.5966L32 98.9966L33.5 99.2966L34.7 99.7966C36.4 99.6966 36.5 100.097 38.1 100.597C41.007 102.375 43.3886 104.894 45 107.897C45.819 109.303 46.5214 110.775 47.1 112.297L48 114.697C48.2 115.397 48.6 116.197 48.9 116.997C50.1 120.197 50.9 122.197 51.7 123.897C52.5007 125.623 53.4722 127.264 54.6 128.797C55.9 131.097 55.9 132.097 57.5 133.597C59.1 135.097 58.7 134.697 58.5 135.097C59.9 137.497 60.8 137.797 60.8 138.897L61.8 140.097C62.1105 140.605 62.4797 141.075 62.9 141.497C63.3577 141.98 63.6996 142.562 63.9 143.197C64.1 143.597 64.1 143.897 64 143.897Z" fill="#2E316A"/>
<path fill-rule="evenodd" clip-rule="evenodd" d="M182 173.897C181.8 173.697 182.3 173.197 183 172.597C183.7 171.997 184.6 171.197 185.1 170.597C185.6 169.997 185.8 169.597 186.2 168.997C186.669 168.493 187.103 167.959 187.5 167.397L189.4 165.197C189.851 164.62 190.353 164.084 190.9 163.597C191.4 162.597 192.2 161.597 192.9 160.497C193.6 159.397 194.4 158.397 195.1 157.197C195.8 155.997 196.1 154.997 196.8 153.797L198.8 149.797C200.2 146.997 201.7 143.197 203.2 139.297C204.7 135.397 206.1 131.197 207.3 127.597C207.8 125.897 207.6 124.897 208 123.197C209.968 115.809 211.141 108.233 211.5 100.597L212.5 101.597L197.6 101.897C194.4 101.597 192.7 102.097 190.6 101.297C187.827 101.228 185.053 101.362 182.3 101.697C181.002 101.842 179.726 102.144 178.5 102.597C177.321 103.028 176.183 103.563 175.1 104.197C173.862 105.801 172.884 107.589 172.2 109.497C171.7 110.697 171.4 111.897 171 113.097C170.6 114.297 170.2 115.697 169.7 116.897C169.2 118.097 167.6 122.197 166.2 125.497C166.3 125.297 165.7 125.597 165.7 125.897C165.7 126.197 163.3 131.697 161.9 134.097C159.678 137.922 157.206 141.597 154.5 145.097V142.197L157.9 145.297C160.1 147.797 162.6 150.497 165.5 153.297C168.4 156.097 170.8 159.297 173.6 162.397C176.4 165.497 179.3 168.697 182 171.997C182.4 173.197 180.8 171.297 180.6 171.597C180.4 171.897 183.2 174.297 181.5 172.997C182 174.297 179.1 171.097 178.8 170.497C177.489 169.308 176.253 168.039 175.1 166.697C170.6 162.597 165.4 156.797 160.7 151.797C158.1 149.097 156.7 148.397 154.9 145.997C154.081 145.429 153.312 144.794 152.6 144.097L152.2 143.797L152.5 143.297C155.762 138.833 158.607 134.08 161 129.097C162.443 126.791 163.649 124.345 164.6 121.797C165.5 119.797 166.2 117.897 167.4 115.597C167.518 114.655 167.685 113.721 167.9 112.797C168.072 111.741 168.34 110.704 168.7 109.697C169.423 107.511 170.542 105.478 172 103.697C172.875 102.763 173.847 101.924 174.9 101.197C176.075 100.511 177.314 99.9415 178.6 99.4966C181.308 98.6152 184.156 98.2423 187 98.3966C195.7 98.9966 203.8 98.6966 212.6 98.7966H214.6V100.697C214.4 103.197 214.2 105.997 213.9 108.697C213.7 109.382 213.566 110.085 213.5 110.797C213.415 111.604 213.282 112.405 213.1 113.197C213.046 114.489 212.704 115.753 212.1 116.897C212.1 120.097 210.5 125.197 209.4 128.097C208.3 130.997 209.2 129.797 209 131.297C206.7 137.697 204.8 142.697 202.1 149.297C201.3 150.797 200.6 152.097 199.9 153.197C199.2 154.297 198.7 155.097 198.2 155.997L196.8 158.397L195.2 161.097C194.604 161.953 193.935 162.756 193.2 163.497C192.604 164.183 192.069 164.919 191.6 165.697C190.9 166.497 190.9 167.197 190.4 167.197C188.4 169.197 188.2 169.997 187 170.297L184 172.997C182.8 173.797 182.1 174.197 182 173.897Z" fill="#2E316A"/>
</svg>
