<svg width="216" height="216" viewBox="0 0 216 216" fill="none" xmlns="http://www.w3.org/2000/svg">
<path d="M59.6523 90.0001C57.0523 87.0001 52.3523 86.3001 48.7523 87.9001C45.1523 89.5001 42.6523 93.3001 42.1523 97.2001C41.6523 101.1 42.9523 105.2 45.3523 108.3C47.7523 111.5 51.1523 113.8 54.7523 115.3C56.7523 116.1 58.7523 116.8 60.7523 117.4" fill="#3C437D"/>
<path fill-rule="evenodd" clip-rule="evenodd" d="M61.4522 115.3C61.1522 116.8 60.6522 115.7 60.2522 115.8C59.8522 116.4 59.4522 116 59.0522 116.3C58.6522 116.1 57.9522 116.2 57.9522 115.5C57.1522 116.2 56.6522 115.5 55.8522 115.6C55.4522 115.6 55.0522 115.9 54.5522 116C54.0522 116.1 53.7522 115.9 53.2522 115.9C52.2522 115.9 51.0522 115.9 49.8522 115.4C48.6522 115 47.5522 114.2 47.1522 113C46.7522 112.7 46.0522 113.1 45.6522 112.8C44.4522 110.9 43.6522 109.4 42.9522 107.8C42.2522 106.3 41.4522 104.8 40.5522 102.7C40.8522 101.7 39.7522 101.3 41.0522 100.5C40.4522 99 40.6522 97.2 41.6522 95.9C41.0522 95.2 40.5522 94.4 40.5522 93.6C40.4522 92.6 40.9522 91.9 41.4522 91.2C41.9522 90.5 42.6522 89.9 43.1522 88.9C43.1522 89 43.7522 89.3 43.6522 89C43.0522 87.9 44.4522 87.1 45.1522 86.4C45.6522 85.9 46.2522 85.2 47.1522 84.6C48.0522 83.9 49.1522 83.3 50.3522 82.8C51.6522 83 53.0522 83 54.5522 83.1C55.8522 83.8 57.2522 84.4 58.4522 85.2C59.6522 86.1 60.6522 87.3 60.6522 88.8C59.7522 89.8 59.6522 89.1 59.0522 89.6C58.4522 90.1 59.4522 90.4 58.6522 90.4C57.5522 91.5 57.6522 90.5 57.7522 90.2C57.2522 90.1 57.2522 89.6 57.1522 89.2C56.4522 89 55.8522 88.7 55.1522 88.2C54.4522 87.7 53.6522 87.4 52.7522 87.2C51.7522 87 51.5522 88 50.7522 87.4C49.8522 88.7 48.5522 90 48.2522 91.6C47.4522 91.8 47.2522 92.3 47.0522 92.7C46.8522 93.1 46.6522 93.4 45.7522 93.6C46.1522 94.8 46.3522 95.6 46.3522 96.4C46.3522 97.2 46.2522 98 46.2522 99.1C45.8522 100.2 46.0522 101.4 46.3522 102.4C46.7522 103.5 47.2522 104.5 47.7522 105.7C47.4522 106.5 48.7522 106.8 47.9522 108C49.1522 107.9 49.3522 109.4 49.6522 110.2C50.5522 109.7 50.2522 110.2 50.7522 110C51.6522 111.4 53.0522 111.9 54.9522 111.6C56.5522 112 56.7522 112.7 58.1522 112C58.7522 112.2 58.6522 113 59.4522 112.5C59.6522 112.7 60.0522 111.9 59.8522 112.6C60.3522 113.2 60.7522 112.5 60.6522 113.8C60.8522 114.4 61.8522 114.1 61.4522 115.3Z" fill="#3C437D"/>
<path d="M53.5522 100.8C53.7522 100.9 53.9522 100.9 54.0522 101C53.9522 100.9 53.7522 100.9 53.6522 100.8C54.3522 101.1 55.0522 101.5 55.7522 102C55.6522 101.9 55.5522 101.8 55.3522 101.7C56.0522 102.2 56.5522 102.8 57.1522 103.4C57.0522 103.3 56.9522 103.2 56.8522 103C57.2522 103.6 57.6522 104.2 57.9522 104.8C58.1522 105.2 58.6522 105.5 59.0522 105.6C59.4522 105.7 60.0522 105.7 60.4522 105.4C60.8522 105.2 61.1522 104.8 61.2522 104.3C61.3522 103.8 61.2522 103.4 61.0522 102.9C59.7522 100.2 57.3522 98.1 54.5522 97.1C54.1522 97 53.5522 97.1 53.1522 97.3C52.7522 97.5 52.4522 97.9 52.3522 98.4C52.0522 99.6 52.6522 100.5 53.5522 100.8Z" fill="#3C437D"/>
<path d="M154.352 91.3999C156.452 88.4999 160.552 87.3999 163.952 88.5999C167.352 89.7999 169.852 92.8999 170.652 96.3999C171.452 99.8999 170.552 103.6 168.752 106.7C166.852 109.7 164.052 112.1 160.952 113.8C159.252 114.7 157.452 115.5 155.752 116.2" fill="#3C437D"/>
<path fill-rule="evenodd" clip-rule="evenodd" d="M156.452 118.2C155.752 116.8 156.752 117.4 156.952 117.1C156.852 116.4 157.352 116.4 157.452 116C157.852 115.9 158.252 115.4 158.752 115.9C158.852 114.9 159.652 115 160.052 114.4C160.252 114.1 160.252 113.6 160.452 113.2C160.652 112.8 160.952 112.7 161.152 112.3C161.552 111.5 161.952 110.6 162.552 109.9C163.152 109.2 163.752 108.6 164.752 108.5C164.952 108.2 164.552 107.6 164.752 107.3C166.152 106.6 167.052 105.7 167.752 104.7C168.452 103.7 168.852 102.5 168.752 100.9C169.352 100.3 168.352 99.9 169.752 99.5C169.352 98.3 169.352 97.2 169.752 95.9C168.952 95.7 168.152 95.6 167.752 95.3C167.152 95 167.052 94.6 166.952 94.1C166.852 93.6 166.652 93 166.052 92.8C166.052 92.8 166.452 92.3 166.252 92.4C165.252 93.1 164.952 92.2 164.452 92.1C164.152 92 163.652 91.9 163.152 92C162.652 92.1 162.152 92.2 161.752 92.5C161.352 92.1 160.752 92 160.252 92.2C159.552 91.8 158.952 91.9 158.252 92C157.552 92.1 156.852 92.3 155.652 92.3C154.452 91.6 155.152 91.5 154.552 90.9C154.052 90.3 153.752 91.5 153.652 90.6C152.252 89.8 153.752 89.3 154.052 89.5C154.352 88.9 154.952 88.9 155.452 88.9C156.052 88.2 156.952 87.8 157.852 87.7C158.852 87.6 159.752 87.7 160.652 87.9C161.552 88 162.052 87.1 162.652 87.9C163.352 87.4 164.252 87.2 165.352 87.2C166.452 87.2 167.552 87.5 168.652 87.7C169.252 88.7 169.852 89.1 170.352 89.5C170.852 89.9 171.252 90.5 171.052 91.5C173.852 92.3 174.952 95 175.052 98.5C174.652 100.3 174.452 101.8 173.952 103.4C173.552 104.9 172.952 106.4 171.852 107.8C170.952 108 170.952 109.5 169.552 109C169.852 110.2 168.152 110.7 167.352 110.9C167.752 111.8 167.352 111.5 167.352 112.1C165.652 112.9 164.852 113.9 163.852 115.8C162.452 117 161.752 116.7 161.152 118.2C160.552 118.6 160.052 117.9 159.852 118.8C159.552 118.8 159.752 119.6 159.452 119C158.652 118.9 158.752 119.7 158.152 118.6C157.452 118.5 156.952 119.4 156.452 118.2Z" fill="#3C437D"/>
<path d="M160.052 98.8C157.352 100.1 155.252 102.5 154.252 105.4C153.952 106.3 154.652 107.4 155.452 107.6C156.452 107.8 157.252 107.3 157.652 106.4C157.752 106.2 157.752 106 157.852 105.9C157.752 106 157.752 106.2 157.652 106.3C157.952 105.6 158.352 104.9 158.852 104.2C158.752 104.3 158.652 104.4 158.552 104.6C159.052 103.9 159.652 103.3 160.352 102.8C160.252 102.9 160.152 103 159.952 103.1C160.552 102.7 161.052 102.3 161.752 102C162.152 101.8 162.452 101.3 162.552 100.9C162.652 100.5 162.652 99.9 162.352 99.5C162.152 99.1 161.752 98.8 161.252 98.7C160.952 98.5 160.452 98.6 160.052 98.8Z" fill="#3C437D"/>
<path d="M153.552 154.7C152.352 133.3 153.852 128.6 153.452 95.2001C153.252 74.9001 149.152 51.3001 134.852 35.5001C122.352 21.7001 103.252 18.2001 87.2522 28.4001C70.6522 39.1001 62.6522 59.9001 59.6522 78.4001C55.1522 106 57.9522 135.5 57.9522 161.7L30.7522 180.1C30.7522 180.1 55.0522 215.8 107.252 212.8C159.452 209.8 185.552 179.8 185.552 179.8L153.552 154.7Z" fill="#3C437D"/>
<path fill-rule="evenodd" clip-rule="evenodd" d="M61.4522 115.3C61.1522 116.8 60.6522 115.7 60.2522 115.8C59.8522 116.4 59.4522 116 59.0522 116.3C58.6522 116.1 57.9522 116.2 57.9522 115.5C57.1522 116.2 56.6522 115.5 55.8522 115.6C55.4522 115.6 55.0522 115.9 54.5522 116C54.0522 116.1 53.7522 115.9 53.2522 115.9C52.2522 115.9 51.0522 115.9 49.8522 115.4C48.6522 115 47.5522 114.2 47.1522 113C46.7522 112.7 46.0522 113.1 45.6522 112.8C44.4522 110.9 43.6522 109.4 42.9522 107.8C42.2522 106.3 41.4522 104.8 40.5522 102.7C40.8522 101.7 39.7522 101.3 41.0522 100.5C40.4522 99 40.6522 97.2 41.6522 95.9C41.0522 95.2 40.5522 94.4 40.5522 93.6C40.4522 92.6 40.9522 91.9 41.4522 91.2C41.9522 90.5 42.6522 89.9 43.1522 88.9C43.1522 89 43.7522 89.3 43.6522 89C43.0522 87.9 44.4522 87.1 45.1522 86.4C45.6522 85.9 46.2522 85.2 47.1522 84.6C48.0522 83.9 49.1522 83.3 50.3522 82.8C51.6522 83 53.0522 83 54.5522 83.1C55.8522 83.8 57.2522 84.4 58.4522 85.2C59.6522 86.1 60.6522 87.3 60.6522 88.8C59.7522 89.8 59.6522 89.1 59.0522 89.6C58.4522 90.1 59.4522 90.4 58.6522 90.4C57.5522 91.5 57.6522 90.5 57.7522 90.2C57.2522 90.1 57.2522 89.6 57.1522 89.2C56.4522 89 55.8522 88.7 55.1522 88.2C54.4522 87.7 53.6522 87.4 52.7522 87.2C51.7522 87 51.5522 88 50.7522 87.4C49.8522 88.7 48.5522 90 48.2522 91.6C47.4522 91.8 47.2522 92.3 47.0522 92.7C46.8522 93.1 46.6522 93.4 45.7522 93.6C46.1522 94.8 46.3522 95.6 46.3522 96.4C46.3522 97.2 46.2522 98 46.2522 99.1C45.8522 100.2 46.0522 101.4 46.3522 102.4C46.7522 103.5 47.2522 104.5 47.7522 105.7C47.4522 106.5 48.7522 106.8 47.9522 108C49.1522 107.9 49.3522 109.4 49.6522 110.2C50.5522 109.7 50.2522 110.2 50.7522 110C51.6522 111.4 53.0522 111.9 54.9522 111.6C56.5522 112 56.7522 112.7 58.1522 112C58.7522 112.2 58.6522 113 59.4522 112.5C59.6522 112.7 60.0522 111.9 59.8522 112.6C60.3522 113.2 60.7522 112.5 60.6522 113.8C60.8522 114.4 61.8522 114.1 61.4522 115.3Z" fill="#3C437D"/>
<path d="M83.1523 75.5C83.5523 75.5 83.9523 75.5 84.2523 75.6C84.4523 75.6 84.6523 75.6 84.7523 75.7C84.8523 75.7 85.1523 75.7 84.8523 75.7C84.5523 75.7 84.8523 75.7 84.9523 75.7C85.5523 75.8 86.2523 75.9 86.8523 76.2C86.9523 76.2 86.9523 76.3 87.0523 76.3C86.5523 76.2 86.8523 76.2 86.9523 76.3C87.0523 76.4 87.2523 76.4 87.3523 76.5C87.6523 76.6 87.8523 76.8 88.1523 77C88.3523 77.2 88.1523 77 88.0523 76.9C88.1523 77 88.1523 77 88.2523 77.1C88.3523 77.2 88.5523 77.3 88.6523 77.5C88.9523 77.8 89.1523 78.1 89.4523 78.4C90.0523 79.1 91.3523 79.1 91.9523 78.4C92.6523 77.6 92.5523 76.7 91.9523 75.9C90.8523 74.6 89.4523 73.6 87.8523 73C86.3523 72.4 84.7523 72.3 83.1523 72.2C82.2523 72.2 81.3523 73 81.3523 74C81.4523 74.7 82.1523 75.4 83.1523 75.5Z" fill="#3C437D"/>
<path d="M123.052 78.2C123.152 78.1 123.252 78.1 123.252 78C123.052 78.1 123.052 78.1 123.252 78C123.452 77.9 123.552 77.8 123.752 77.7C124.052 77.5 124.452 77.3 124.752 77.1C124.952 77 125.152 76.9 125.252 76.8C125.352 76.8 125.452 76.7 125.552 76.7C125.352 76.8 125.352 76.8 125.552 76.7C125.952 76.6 126.252 76.4 126.652 76.3C127.052 76.2 127.352 76.1 127.752 76C127.952 76 128.152 75.9 128.352 75.9C127.952 76 128.552 75.9 128.652 75.9C129.452 75.8 130.252 75.9 131.052 75.9C131.952 76 132.852 75 132.852 74.1C132.852 73 132.052 72.4 131.052 72.3C127.252 71.9 123.452 73.1 120.652 75.5C119.952 76.1 119.952 77.4 120.652 78C121.352 78.9 122.352 78.8 123.052 78.2Z" fill="#3C437D"/>
<path d="M90.0522 97C91.6522 97 92.8522 95.7 92.8522 94.2C92.8522 92.6 91.5522 91.4 90.0522 91.4C88.5522 91.4 87.2522 92.7 87.2522 94.2C87.1522 95.8 88.4522 97 90.0522 97Z" fill="#3C437D"/>
<path d="M107.252 197.4C72.7522 199.4 50.4522 184.5 39.2522 174.2L30.7522 180C30.7522 180 55.0522 215.7 107.252 212.7C159.452 209.7 185.552 179.7 185.552 179.7L176.452 172.7C164.852 181.7 141.752 195.4 107.252 197.4Z" fill="#3C437D"/>
<path fill-rule="evenodd" clip-rule="evenodd" d="M107.552 199.6C106.452 198.2 111.752 198.7 113.952 198.2C114.952 197.4 118.452 197.2 120.152 196.5C121.652 196.3 123.352 195.9 124.952 195.7C126.452 195.4 127.852 195.2 128.652 195.4C129.552 195 130.452 194.6 131.452 194.3C132.452 194 133.452 193.7 134.452 193.4C136.552 192.9 138.652 192.1 140.852 191.3C142.852 190.5 144.352 189.5 146.552 188.4C147.652 187.8 148.752 187.4 149.852 186.9C150.952 186.4 152.052 185.8 153.252 185.2C159.552 181.8 167.752 176.3 175.152 170.5C176.152 169.8 177.452 169.8 178.352 170.5C181.452 172.9 184.452 175.4 187.152 177.8L187.452 178C188.252 178.8 188.352 180.1 187.552 180.9L187.452 181C186.852 181.6 186.452 182 185.852 182.4C185.352 183 184.852 183.5 184.452 184C184.052 184.5 183.652 184.9 183.352 185.4C182.652 186.3 181.852 187.2 180.752 188.2C170.652 195.7 161.752 200.1 152.652 203.9C151.552 204.4 150.352 204.8 149.252 205.3C148.052 205.7 146.952 206.1 145.752 206.6C144.552 207 143.352 207.5 142.152 207.9C140.952 208.3 139.652 208.6 138.452 209C137.152 209.4 135.852 209.8 134.552 210.2C133.252 210.5 131.852 210.9 130.452 211.2C129.052 211.5 127.652 211.9 126.152 212.3C124.652 212.6 123.152 212.9 121.552 213.1C118.852 213.3 116.752 213.7 114.952 213.9C113.152 214.1 111.552 214.2 109.752 213.7C107.352 214.1 104.952 214.2 102.552 214.3C100.152 214.3 97.7523 214.3 95.4523 214.1C90.7523 213.8 86.2523 213 82.0523 211.8C81.6523 211.8 81.1523 211.8 80.7523 211.8H79.4523C78.5523 211.8 77.6523 211.7 76.7523 211.7C74.9523 211.5 73.1523 211.3 71.2523 210.8C66.5523 209.7 62.4523 207.9 58.3523 205.7C54.2523 203.4 50.0523 200.8 45.1523 197.5C45.4523 197.7 45.1523 196.6 44.5523 196.5C43.2523 196.2 41.0523 194.8 38.8523 192.8C36.6523 190.9 34.3523 188.5 32.7523 186.8C32.2523 186.3 31.7523 185.7 31.0523 185C30.7523 184.6 30.3523 184.2 29.9523 183.7C29.5523 183.2 29.0523 182.7 28.5523 181.9C27.6523 180.6 27.8523 178.8 29.1523 177.8L29.3523 177.6C30.7523 176.5 33.8523 174.2 37.6523 171.5C38.8523 170.6 40.5523 170.7 41.6523 171.6L41.9523 171.8C44.3523 173.7 48.2523 176.7 52.2523 179.1C56.5523 182.5 61.9523 185.6 68.1523 187.9C73.7523 190.7 80.4523 192.7 87.1523 193.9C93.9523 195.2 100.752 195.7 107.252 196.4C108.252 197.7 104.552 197.4 104.152 198.2C103.152 199 110.252 198.3 106.352 199C106.852 199.8 105.452 200 103.852 200C103.052 200 102.152 199.9 101.452 199.9C100.752 199.8 100.152 199.7 99.9523 199.6C98.0523 199.6 96.5523 199.6 95.2523 199.4C93.8523 199.2 92.6523 198.9 91.4523 198.7C90.7523 198.7 90.1523 198.6 89.4523 198.6C88.7523 198.5 88.1523 198.4 87.4523 198.3C86.1523 198.1 84.7523 197.9 83.3523 197.7C81.9523 197.4 80.5523 197.1 79.1523 196.7C77.7523 196.4 76.3523 195.9 74.9523 195.5C69.3523 193.7 63.8523 191.2 58.9523 188.4C57.5523 187.7 56.3523 187 55.3523 186.5C54.2523 185.9 53.3523 185.5 52.4523 185C51.5523 184.5 50.7523 184 49.8523 183.4C49.0523 182.8 48.1523 182.1 47.2523 181.2C44.7523 179.8 41.8523 178 38.7523 175.5L40.5523 175.6C38.0523 177.6 35.2523 179.7 32.3523 181.9L32.9523 178.9C34.1523 180.3 35.5523 181.9 37.0523 183.2C38.5523 184.6 40.0523 185.9 41.5523 187.1C45.4523 191.3 48.9523 193.6 51.9523 195.6C55.0523 197.6 57.8523 199.3 61.2523 201.7C67.4523 203.7 73.4523 205.4 80.1523 206.7C86.8523 208.1 94.3523 209 103.352 208.9C104.452 208.9 105.652 208.9 106.752 208.9C107.852 208.9 109.052 208.8 110.152 208.7C112.452 208.5 114.652 208.4 116.952 208.2C119.152 207.9 121.452 207.5 123.652 207.2L125.352 206.9L126.952 206.5L130.252 205.8C139.052 203.8 147.652 200.8 156.252 196.8C157.152 196.5 158.252 196.1 159.452 195.5C160.552 194.9 161.752 194.2 162.952 193.6C165.252 192.4 167.352 191.2 168.652 191.2C169.652 190.3 170.752 189.4 172.052 188.4C173.352 187.5 174.752 186.4 176.152 185.5C178.952 183.5 181.752 181.5 183.652 179.9C183.952 179.1 184.252 178.6 184.552 178.2L184.852 180.9C183.952 180.4 183.452 179.8 182.052 179.1C179.852 177.3 177.852 175.5 175.852 173.9H178.252C175.052 176.3 172.052 178.5 168.752 180.7C165.552 182.9 162.152 185.2 158.252 187.5C153.052 190.2 149.452 191.5 146.452 192.6C143.352 193.8 140.752 194.7 137.152 196.3C134.952 196.9 133.452 197.1 132.052 197.3C130.652 197.5 129.352 197.8 127.652 198.5C125.852 198.8 125.052 199.7 124.452 199.1C119.752 199.6 118.552 200.4 116.752 199.4C115.952 199.5 115.052 199.6 114.052 199.7C113.152 199.8 112.152 199.9 111.252 200C109.052 200.3 107.652 200.3 107.552 199.6Z" fill="#3C437D"/>
<path fill-rule="evenodd" clip-rule="evenodd" d="M151.752 155.8C151.752 154.1 157.752 159.8 160.852 162C162.852 162.7 167.152 166.3 169.852 168C173.752 171.1 179.052 174.9 180.652 176.9C182.252 177.8 183.752 178.8 185.352 179.9L185.252 179.3C182.252 182.9 178.052 186.2 173.952 189.6C172.552 190.7 171.352 191.8 170.052 192.8C168.752 193.8 167.352 195 165.652 196C163.952 197.1 162.352 198.2 160.552 199.1C158.752 200.1 156.952 201 154.952 202.1C152.952 203.1 150.852 204.2 148.552 205.2C146.252 206.1 143.852 207.2 141.252 208.2C139.952 208.6 138.652 209.1 137.352 209.5C136.652 209.7 136.052 209.9 135.352 210.2L134.352 210.5L133.352 210.8C131.952 211.2 130.552 211.5 129.152 211.9C127.752 212.3 126.252 212.7 124.852 212.9C123.352 213.2 121.952 213.4 120.452 213.7L118.252 214.1L117.152 214.3L116.052 214.4C113.052 214.7 110.052 215 107.052 215.2C101.052 215.5 95.2522 215.1 89.8522 214.2C88.5522 214.1 87.5522 214 86.4522 213.9C85.4522 213.8 84.4522 213.8 83.5522 213.7C82.6522 213.6 81.6522 213.5 80.6522 213.4C79.6522 213.3 78.5522 213.1 77.3522 212.8C66.4522 209.8 57.4522 205.3 49.6522 200C45.7522 197.3 42.1522 194.4 38.7522 191.3C37.0522 189.7 35.4522 188.1 33.8522 186.4C32.2522 184.7 30.7522 182.9 29.3522 180.9L28.2522 179.4L29.7522 178.4C37.9522 173.1 46.8522 167 56.9522 160.1L56.1522 161.6C56.0522 158.1 55.9522 152.7 55.7522 147C56.0522 138.2 54.8522 133.5 56.0522 127.8C55.6522 120 55.5522 112.2 55.8522 104.5C56.1522 96.8 56.9522 89.4 58.2522 82.4C58.2522 76.7 58.6522 71.1 60.1522 64.8C61.0522 61 62.2522 57.3 63.7522 53.9C65.2522 50.4 66.9522 47.1 69.0522 43.8C71.1522 40.6 73.5522 37.3 76.5522 34.2C79.5522 31.1 82.9522 28.1 87.2522 25.4C86.7522 25.7 88.4522 25.5 89.0522 24.9C89.4522 24.5 89.9522 24.2 90.6522 23.7C90.9522 23.5 91.3522 23.3 91.7522 23C92.1522 22.8 92.5522 22.5 93.0522 22.4C93.9522 22 94.9522 21.6 96.0522 21.2C97.1522 20.9 98.3522 20.5 99.5522 20.3C102.052 19.8 104.652 19.5 107.252 19.6C107.852 19.6 108.552 19.6 109.152 19.6C109.752 19.6 110.352 19.7 110.952 19.8C111.552 19.9 112.152 19.9 112.652 20C113.152 20.1 113.752 20.2 114.252 20.3C117.152 20.8 120.552 21.8 124.152 23.5C127.752 25.2 131.452 27.6 134.952 30.7C141.852 36.9 147.352 45.6 150.952 54.4C154.052 63.8 156.052 74.5 156.952 86.3C157.052 89.1 156.952 91.9 156.952 94.7C156.852 97.5 156.852 100.4 156.752 103.2C156.652 108.9 156.452 114.8 156.252 120.6C156.052 126.4 155.652 132.2 155.352 137.9C155.252 140.7 155.052 143.5 155.052 146.3C155.052 147.7 154.952 149 154.952 150.4V151.3L154.852 152.2C154.752 152.8 154.752 153.4 154.652 154C154.052 155 153.852 154.1 153.652 152.7C153.452 151.4 153.252 149.6 152.852 149.3C152.452 148.5 152.452 150.9 152.552 153.1C152.652 154.2 152.652 155 152.652 155.2C152.652 155.4 152.452 154.9 152.252 153.1C151.952 153.7 151.652 153.3 151.452 152.3C151.352 152.1 151.352 151.8 151.352 151.5C151.352 151.3 151.352 151.2 151.252 151C151.252 150.9 151.252 150.7 151.252 150.6C151.252 150 151.152 149.4 151.152 148.7C151.052 146 151.352 143 151.452 142.3C151.152 136.3 151.652 132.5 152.052 128.3C152.052 119.8 152.352 110.5 152.452 101C152.552 96.2 152.652 91.5 152.452 86.7C152.252 82 151.852 77.3 151.152 72.7C150.952 71.4 150.752 70.3 150.452 69.2C150.352 68.7 150.252 68.1 150.152 67.6C150.052 67.1 149.852 66.6 149.752 66.1C149.452 65.2 149.252 64.3 148.952 63.4C148.652 62.6 148.452 61.8 148.152 61C147.852 60.2 147.652 59.4 147.352 58.7C147.052 57.9 146.752 57.2 146.552 56.4C146.252 55.6 145.952 54.8 145.652 53.9C145.352 53 145.052 52.1 144.652 51.2C144.252 50.5 143.852 49.7 143.352 49C142.852 48.3 142.352 47.5 141.852 46.7C141.552 46.3 141.352 45.9 141.052 45.5C140.752 45.1 140.452 44.7 140.152 44.3C139.552 43.5 139.052 42.6 138.352 41.9C137.752 41.1 137.052 40.3 136.352 39.5C135.652 38.7 134.852 37.9 134.152 37.1C133.452 36.3 132.552 35.6 131.752 34.8C131.352 34.4 130.952 34.1 130.452 33.7C130.052 33.3 129.552 33 129.152 32.6C128.252 31.9 127.252 31.3 126.352 30.7C125.352 30.1 124.352 29.6 123.352 29C122.252 28.5 121.252 28 120.152 27.6L118.552 27L117.752 26.7L116.952 26.5C112.552 25.3 107.952 25 103.652 25.7C99.2522 26 95.4522 27.2 92.3522 28.8C91.5522 29.1 90.8522 29.6 90.1522 30C89.4522 30.4 88.7522 30.8 88.1522 31.3C87.5522 31.8 86.8522 32.2 86.2522 32.6C85.6522 33.1 85.0522 33.6 84.5522 34C80.0522 37.8 76.7522 41.9 72.5522 47.4C70.2522 52.1 68.4522 57 66.9522 62.1C65.4522 67.2 64.3522 72.5 63.4522 78.1C61.7522 89.4 60.9522 102.1 60.9522 117.3C60.5522 132.2 61.2522 146.8 61.2522 161.6V163.4L59.7522 164.4C50.7522 170.4 41.7522 176.4 32.4522 182.6L33.3522 178.1C33.5522 178.5 33.9522 179 34.3522 179.4C34.7522 179.9 35.0522 180.3 35.4522 180.8C36.2522 181.7 37.0522 182.6 37.8522 183.5C39.5522 185.3 41.2522 187 43.1522 188.7C45.2522 191 48.9522 193.8 52.5522 196.2C56.0522 198.6 59.5522 200.5 60.7522 201.9C64.6522 203.3 69.8522 205.4 75.1522 207.1C80.4522 208.8 85.9522 210.1 90.0522 210.8C94.0522 210.3 94.6522 210.8 98.6522 210.5C103.152 210.8 107.452 210.6 111.652 210.2C112.652 210.1 113.752 210 114.752 209.9L116.252 209.8C116.752 209.7 117.252 209.6 117.752 209.6C119.752 209.2 121.852 208.9 123.852 208.6C131.852 206.9 139.852 204.4 148.352 200.3C156.752 196.7 161.852 193.7 166.152 191C170.452 188.3 173.952 185.6 178.052 181.3C179.052 180.4 179.952 179.7 180.652 179C181.052 178.7 181.452 178.3 181.752 178C182.052 177.7 182.352 177.4 182.652 177.2L183.152 182.6C180.752 180.6 178.952 179 175.652 177C173.252 175 171.452 174.6 171.352 173.6C165.452 168.5 163.152 167.6 162.052 165.2C158.152 161.7 150.952 156.7 151.752 155.8Z" fill="#3C437D"/>
<path fill-rule="evenodd" clip-rule="evenodd" d="M57.4524 150.3C58.9524 150.3 58.0524 150.6 58.2524 150.8C58.9524 150.9 58.6524 151.1 59.0524 151.3C58.9524 151.5 59.2524 151.8 58.5524 151.8C59.4524 152.1 58.9524 152.4 59.3524 152.7C59.5524 152.9 59.9524 153 60.1524 153.2C60.3524 153.4 60.3524 153.5 60.5524 153.7C61.4524 154.5 62.5524 155.7 61.2524 156.5C61.3524 156.7 62.0524 156.9 62.0524 157.1C60.8524 158.7 60.4524 159.6 60.9524 161.4C60.3524 161.7 61.4524 162 60.0524 162.1C60.4524 162.8 60.2524 163.4 59.5524 164C60.2524 164.3 60.8524 164.5 61.1524 164.8C61.9524 165.5 60.6524 165.9 61.0524 166.8C61.0524 166.8 60.3524 166.8 60.6524 166.8C61.8524 167 61.3524 167.5 61.4524 167.9C61.6524 168.4 62.0524 169.2 62.6524 170C62.2524 170.4 62.0524 170.8 62.1524 171.3C60.9524 172.1 61.4524 173.2 59.4524 174C58.0524 174 58.5524 173.8 57.7524 173.7C56.9524 173.6 57.4524 174.1 56.8524 173.8C55.2524 173.8 56.1524 173.4 56.4524 173.3C56.2524 173 56.6524 172.9 56.9524 172.8C56.5524 172.1 57.4524 171.3 57.9524 170.5C58.1524 170.1 57.2524 169.9 58.0524 169.6C56.9524 169 56.5524 168 55.6524 167.2C56.4524 166.4 55.1524 166 56.6524 165.5C54.8524 164.5 55.0524 163.6 55.1524 162.4C56.0524 161.2 55.6524 159.9 56.2524 158.6C56.9524 158.4 56.1524 157.8 57.5524 157.7C56.6524 157.3 57.5524 156.7 58.0524 156.4C57.1524 156.2 57.6524 156.2 57.2524 156C57.8524 155.3 57.6524 154.6 56.5524 153.8C56.2524 153 56.8524 152.8 55.7524 152.2C55.7524 151.9 56.5524 151.8 55.7524 151.6C55.8524 151.5 55.0524 151.4 55.7524 151.4C56.1524 151.1 55.4524 151 56.6524 150.9C56.7524 150.6 56.1524 150.2 57.4524 150.3Z" fill="#3C437D"/>
<path fill-rule="evenodd" clip-rule="evenodd" d="M154.952 169.1C153.952 169.2 154.552 168.9 154.352 168.7C153.852 168.6 154.052 168.4 153.752 168.3C153.752 168.1 153.552 167.9 154.052 167.8C153.452 167.6 153.752 167.3 153.452 167.1C153.352 167 153.052 166.9 152.852 166.7C152.652 166.6 152.752 166.4 152.552 166.3C151.952 165.7 151.152 164.7 151.952 163.9C151.852 163.7 151.452 163.6 151.352 163.5C152.052 162 152.252 161.2 151.852 159.7C152.252 159.4 151.552 159.2 152.352 159C152.052 158.4 152.152 157.9 152.552 157.4C152.052 157.2 151.652 157 151.452 156.8C150.952 156.3 151.752 155.8 151.452 155.1C151.452 155.1 151.852 155.1 151.752 155C150.952 154.9 151.252 154.4 151.152 154.1C151.052 153.7 150.652 153 150.252 152.4C150.552 152.1 150.552 151.7 150.552 151.3C151.252 150.5 150.952 149.6 152.152 148.8C153.052 148.7 152.752 149 153.252 149C153.752 149 153.452 148.6 153.852 148.9C154.852 148.8 154.352 149.2 154.152 149.3C154.252 149.5 154.052 149.7 153.852 149.8C154.152 150.4 153.652 151.2 153.352 151.8C153.252 152.2 153.852 152.3 153.352 152.6C154.152 153.1 154.452 153.8 155.052 154.5C154.552 155.2 155.452 155.5 154.552 156C155.852 156.8 155.752 157.5 155.752 158.6C155.252 159.7 155.552 160.8 155.252 161.9C154.852 162.1 155.352 162.6 154.452 162.7C155.052 163 154.452 163.5 154.152 163.8C154.752 163.9 154.452 164 154.752 164.1C154.352 164.8 154.552 165.3 155.352 166C155.552 166.7 155.152 166.9 155.952 167.3C155.952 167.6 155.452 167.7 155.952 167.9C155.852 168 156.452 168.1 155.952 168.1C155.752 168.4 156.252 168.4 155.352 168.5C155.452 168.8 155.852 169 154.952 169.1Z" fill="#3C437D"/>
<path d="M107.552 123.9C113.952 123.5 120.052 120.9 124.652 116.4C125.652 115.4 125.752 113.6 124.652 112.6C123.552 111.6 121.952 111.6 120.852 112.6C120.352 113.1 119.852 113.5 119.352 113.9C119.252 114 119.052 114.1 118.952 114.2C118.352 114.7 119.152 114.1 118.852 114.3C118.552 114.5 118.352 114.7 118.052 114.9C116.952 115.7 115.752 116.3 114.452 116.9C114.252 117 114.152 117 114.452 116.9C114.252 117 114.152 117 113.952 117.1C113.652 117.2 113.352 117.3 113.052 117.4C112.452 117.6 111.752 117.8 111.152 118C110.452 118.2 109.752 118.3 109.052 118.4C108.652 118.5 109.452 118.4 109.052 118.4C108.852 118.4 108.752 118.4 108.552 118.5C108.152 118.5 107.852 118.6 107.452 118.6C106.052 118.7 104.752 119.8 104.752 121.3C104.952 122.7 106.052 124 107.552 123.9Z" fill="#3C437D"/>
<path d="M55.5522 86.1C61.2522 86.3 66.9522 86.4 72.6522 86.6C70.8522 86.5 71.9522 92.4 72.2522 93.3C74.1522 99.8 80.6522 103.1 87.1522 102.1C90.7522 101.6 93.2522 99.7 94.3522 96.2C95.0522 93.8 95.1522 91.1 95.5522 88.5C95.6522 88.1 95.6522 87.7 95.8522 87.4C96.2522 86.9 97.1522 86.6 98.2522 86.5L55.5522 86.1Z" fill="#3C437D"/>
<path d="M55.5522 88.7C61.2522 88.9 66.9522 89 72.6522 89.2C72.6522 87.4 72.6522 85.7 72.6522 83.9C68.4522 84.1 68.8522 89.1 69.3522 92.1C69.8522 95.3 71.2522 98.3 73.6522 100.6C76.5522 103.4 80.4522 104.8 84.3522 105C88.1522 105.1 92.2522 104.1 94.7522 101C96.3522 99 97.0522 96.6 97.4522 94.1C97.6522 92.7 97.8522 91.3 97.9522 89.9C97.9522 89.5 98.3522 88.2 97.7522 89.2C97.6522 89.4 97.2522 89.3 97.8522 89.2C98.1522 89.2 98.5522 89.1 98.8522 89C100.152 88.8 100.952 87.3 100.752 86.1C100.552 84.8 99.4522 83.8 98.1522 83.8C93.3522 83.8 88.5522 83.7 83.7522 83.7C76.0522 83.6 68.4522 83.5 60.7522 83.5C59.0522 83.5 57.2522 83.5 55.5522 83.4C52.1522 83.4 52.1522 88.7 55.5522 88.7C60.3522 88.7 65.1522 88.8 69.9522 88.8C77.6522 88.9 85.2522 89 92.9522 89C94.6522 89 96.4522 89 98.1522 89.1C97.9522 87.4 97.6522 85.6 97.4522 83.9C95.3522 84.2 93.4522 85.2 92.9522 87.4C92.4522 89.4 92.5522 91.5 92.1522 93.5C91.9522 94.4 91.7522 95.4 91.4522 96.2C91.4522 96.3 91.2522 96.5 91.1522 96.8C90.9522 97.1 90.6522 97.5 90.6522 97.5C89.7522 98.5 89.0522 98.9 87.7522 99.2C82.4522 100.6 76.2522 98 74.7522 92.5C74.6522 92.2 74.5522 91.8 74.5522 91.5C74.5522 91.4 74.3522 90.6 74.4522 90.9C74.5522 91.2 74.3522 90.4 74.3522 90.2C74.2522 89.6 74.3522 88.9 74.2522 88.3C74.2522 88.1 74.3522 87.8 74.2522 88.4C74.2522 88.3 74.2522 88.2 74.3522 88.1C74.5522 87.7 74.2522 88.3 74.2522 88.3C73.8522 88.8 73.4522 89.1 72.6522 89.2C76.0522 89 76.0522 84 72.6522 83.9C66.9522 83.7 61.2522 83.6 55.5522 83.4C52.1522 83.3 52.1522 88.6 55.5522 88.7Z" fill="#3C437D"/>
<path d="M98.1523 89.2C100.052 89.2 102.052 89.2 103.952 89.3C104.252 89.3 104.552 89.3 104.752 89.3C106.152 89.3 107.452 88.1 107.452 86.6C107.452 85.9 107.152 85.2 106.652 84.7C106.152 84.2 105.552 84 104.752 83.9C102.552 83.7 100.252 83.5 98.0523 83.8C97.6523 83.8 97.3523 83.9 97.0523 84C96.7523 84.1 96.4523 84.3 96.1523 84.5C95.6523 85 95.3523 85.7 95.3523 86.4C95.3523 87.1 95.6523 87.8 96.1523 88.3C96.7523 88.8 97.5523 89.2 98.1523 89.2C100.352 88.9 102.652 89 104.852 89.3C104.852 87.5 104.852 85.8 104.852 84C102.952 84 100.952 84 99.0523 83.9C98.7523 83.9 98.4523 83.9 98.2523 83.9C96.8523 83.9 95.5523 85.1 95.5523 86.6C95.5523 87.9 96.6523 89.1 98.1523 89.2Z" fill="#3C437D"/>
<path d="M155.052 86.1C149.352 86.3 143.652 86.4 137.952 86.6C139.752 86.5 138.652 92.4 138.352 93.3C136.452 99.8 129.952 103.1 123.452 102.1C119.852 101.6 117.352 99.7 116.252 96.2C115.552 93.8 115.452 91.1 115.052 88.5C114.952 88.1 114.952 87.7 114.752 87.4C114.352 86.9 113.452 86.6 112.352 86.5L155.052 86.1Z" fill="#3C437D"/>
<path d="M155.052 83.4C149.352 83.6 143.652 83.7 137.952 83.9C134.552 84 134.552 89 137.952 89.2C137.552 89.2 136.952 89 136.552 88.7C136.452 88.6 136.052 88.1 136.152 88C136.152 88 136.352 88.8 136.252 88.3C136.152 87.9 136.252 88.6 136.252 88.8C136.252 89.1 136.252 89.4 136.252 89.7C136.252 90 136.252 90.3 136.152 90.6C136.152 90.7 136.152 90.8 136.152 90.9C136.152 91.3 136.252 90.5 136.152 90.8C136.052 91.2 136.052 91.7 135.952 92.1C135.352 94.6 133.752 96.7 131.752 97.9C129.452 99.3 126.652 99.8 124.052 99.4C123.352 99.3 122.552 99.1 121.852 98.8C122.052 98.9 121.452 98.6 121.352 98.5C121.252 98.4 121.152 98.4 120.952 98.3C120.252 97.9 121.052 98.4 120.752 98.1C119.652 97.2 119.152 96.3 118.852 94.9C118.252 92.8 118.152 90.7 117.952 88.5C117.752 87.2 117.552 86 116.552 85C115.652 84.2 114.452 83.9 113.252 83.7C113.052 85.4 112.752 87.2 112.552 88.9C117.352 88.9 122.152 88.8 126.952 88.8C134.652 88.7 142.252 88.6 149.952 88.6C151.652 88.6 153.452 88.6 155.152 88.5C158.452 88.7 158.452 83.4 155.052 83.4C150.252 83.4 145.452 83.5 140.652 83.5C132.952 83.6 125.352 83.7 117.652 83.7C115.952 83.7 114.152 83.7 112.452 83.8C111.152 83.8 110.052 84.8 109.852 86.1C109.752 87.3 110.452 88.8 111.752 89C112.052 89 113.052 89.2 113.052 89.3L112.752 89C112.552 88.9 112.552 88.7 112.652 89.3C112.852 90.5 112.952 91.7 113.052 93C113.352 95.3 113.752 97.6 114.952 99.6C117.052 103.2 120.952 104.7 124.952 104.9C132.352 105.3 139.852 100.5 141.252 92.9C141.852 89.8 142.552 84.1 138.052 83.8C138.052 85.6 138.052 87.3 138.052 89.1C143.752 88.9 149.452 88.8 155.152 88.6C158.452 88.6 158.452 83.3 155.052 83.4Z" fill="#3C437D"/>
<path d="M112.452 83.7999C110.552 83.7999 108.552 83.7999 106.652 83.8999C106.352 83.8999 106.052 83.8999 105.852 83.8999C105.852 85.6999 105.852 87.3999 105.852 89.1999C108.052 88.9999 110.352 88.7999 112.552 89.0999C113.152 89.1999 114.052 88.6999 114.452 88.2999C114.952 87.7999 115.252 87.0999 115.252 86.3999C115.252 85.6999 114.952 84.9999 114.452 84.4999C114.252 84.3999 114.052 84.1999 113.952 84.0999C113.352 83.9999 112.852 83.7999 112.452 83.7999C110.252 83.4999 107.952 83.5999 105.752 83.8999C105.052 83.9999 104.452 84.0999 103.852 84.6999C103.352 85.1999 103.052 85.8999 103.052 86.5999C103.152 87.9999 104.252 89.2999 105.752 89.2999C107.652 89.2999 109.652 89.2999 111.552 89.1999C111.852 89.1999 112.152 89.1999 112.352 89.1999C113.052 89.1999 113.752 88.8999 114.252 88.3999C114.752 87.8999 115.052 87.1999 115.052 86.4999C115.052 85.0999 113.952 83.7999 112.452 83.7999Z" fill="#3C437D"/>
<path d="M108.852 85.9999L108.952 85.8999C108.952 85.7999 108.852 85.7999 108.752 85.7999L108.852 85.9999C108.752 85.9999 108.752 85.9999 108.852 85.9999Z" fill="#5D6393"/>
<path d="M98.1523 86.5L104.852 86.5999C104.852 86.5999 100.952 86.1 98.1523 86.5Z" fill="#3C437D"/>
<path d="M112.452 86.5L105.752 86.5999C105.752 86.5999 109.652 86.1 112.452 86.5Z" fill="#3C437D"/>
<path d="M55.3521 89.3C57.5521 77.5 50.0521 66.3 47.1521 54.6C46.5521 52.2 46.1521 49.7 47.1521 47.5C48.1521 45.3 50.8521 43.7 53.0521 44.8C49.9521 41.2 48.1521 36.5 48.3521 31.8C48.3521 30.5 48.5521 29.2 49.2521 28.2C50.2521 26.6 52.1521 25.9 53.9521 25.5C58.7521 24.5 63.9521 25.2 68.2521 27.5C66.6521 23.8 65.9521 19.6 66.9521 15.7C67.9521 11.8 70.8521 8.29998 74.7521 7.09998C80.5521 5.39998 86.5521 9.09998 91.2521 13C90.4521 10.7 91.4521 7.99998 93.2521 6.29998C95.0521 4.59998 97.4521 3.69998 99.8521 3.29998C106.852 2.29998 114.052 5.29998 119.352 9.99998C124.652 14.7 128.452 20.9 131.652 27.3C131.852 27.7 132.052 28 132.452 28.1C132.752 28.2 133.052 28.1 133.452 27.9C135.352 27.1 137.252 26.3 139.052 25.5C139.852 28 139.752 30.7 138.752 33.1C141.052 31.6 143.952 31.2 146.752 31.4C151.852 31.8 157.152 34.1 159.652 38.6C162.152 43.1 160.952 49.7 156.252 51.9C159.052 49.9 163.452 51.5 165.052 54.6C166.652 57.7 165.652 61.6 163.452 64.3C161.252 67 157.952 68.5 154.652 69.5C157.052 68.1 160.052 71.1 159.952 73.9C159.752 76.7 157.752 78.9 155.852 81C153.952 83.1 151.952 85.4 152.052 88.2C146.652 76.8 142.452 64.7 139.652 52.4C131.552 53.8 123.352 55 115.152 54.3C106.952 53.6 98.7521 50.8 92.7521 45.2C95.6521 46.2 95.4521 51 92.8521 52.7C90.2521 54.4 86.8521 53.9 83.8521 52.9C80.2521 51.7 76.7521 50.1 73.6521 48C76.3521 54.7 73.4521 62.3 69.5521 68.4C65.6521 74.5 60.7521 80.2 59.1521 87.3" fill="#3C437D"/>
<path fill-rule="evenodd" clip-rule="evenodd" d="M60.4522 87.1C60.1522 87.3 60.0522 87.2 60.0522 86.7C60.0522 86.2 60.2522 85.4 60.5522 84.5C61.1522 82.7 62.3522 80.6 62.9522 79.4C63.0522 78.7 63.7522 77.4 64.6522 76C65.4522 74.6 66.4522 73.1 67.0522 72C68.2522 70.3 69.4522 68.4 70.5522 66.6C71.6522 64.8 72.4522 63.2 73.0522 62.3C73.6522 60.2 74.2522 57.9 74.5522 55.4C74.6522 54.1 74.6522 52.9 74.5522 51.6C74.3522 50.3 74.0522 49 73.5522 47.8L73.3522 47.9C73.9522 48.3 74.6522 48.7 75.3522 49C77.8522 50.3 80.2522 51.1 83.2522 52C84.7522 52.4 86.3522 52.8 87.8522 52.9C89.3522 53 90.9522 52.7 92.2522 51.8C93.1522 51.2 93.6522 50 93.7522 48.7C93.7522 48.1 93.6522 47.5 93.4522 47C93.1522 46.5 92.8522 46.2 92.3522 46.1L93.5522 44.2C95.9522 46.3 98.9522 48.2 102.352 49.5C105.652 50.8 109.352 51.7 113.052 52.2C120.552 53.1 128.152 52.3 135.052 51.6C136.752 51.3 138.052 51 139.352 50.6C140.152 50.4 140.852 50.8 141.152 51.6L141.252 51.9C141.752 53.5 142.252 55 142.852 57.1C145.652 68.8 149.152 78.4 153.252 87.5L150.752 88.1C150.752 86.8 151.052 85.6 151.552 84.6C152.052 83.5 152.652 82.6 153.352 81.8C154.752 80.1 156.252 78.8 157.352 77.3C157.852 76.5 158.352 75.7 158.552 74.9C158.652 74.5 158.752 74.1 158.752 73.7C158.752 73.3 158.652 73 158.552 72.6C158.252 71.9 157.752 71.1 157.152 70.7C156.452 70.3 155.852 70.2 155.252 70.5L154.352 68.3C156.052 67.8 157.852 67.1 159.552 66.1C161.152 65.1 162.752 63.7 163.652 61.8C164.552 60 164.952 57.7 164.152 55.8C163.752 54.8 163.152 54 162.252 53.4C161.352 52.8 160.352 52.4 159.252 52.4C158.352 52.3 157.552 52.6 156.952 52.9L155.652 50.7C157.652 49.8 158.552 48 159.152 46.5C159.652 44.9 159.852 43.3 159.852 41.5C159.352 39.5 158.152 37.7 156.552 36.3C154.952 34.9 153.052 33.9 151.052 33.3C149.052 32.7 146.952 32.3 144.852 32.4C142.752 32.4 140.752 32.8 139.152 33.9C138.752 34.2 138.252 34 137.952 33.6C137.752 33.4 137.752 33.1 137.852 32.8C138.852 30.5 138.952 28 138.352 25.7L139.152 26.1C138.352 26.4 137.552 26.7 136.852 27C135.852 27.6 134.852 28.1 133.852 28.7C133.652 28.8 133.352 29 132.852 29.1C132.552 29.1 132.252 29.1 131.952 29C131.652 28.9 131.352 28.7 131.252 28.5C130.952 28.1 130.752 27.8 130.552 27.6L130.052 26.9C128.852 25 127.552 23 126.052 20.9C122.552 15.9 119.052 11.6 114.252 8.5C111.852 7 109.152 5.7 106.052 5.1C104.552 4.8 102.952 4.7 101.352 4.8C99.7522 4.9 98.0522 5.2 96.5522 6C96.9522 5.8 95.7522 5.8 95.3522 6.3C94.8522 6.8 94.0522 7.6 93.4522 8.7C92.8522 9.8 92.5522 11.3 92.9522 12.5C93.2522 13.5 92.7522 14.6 91.7522 14.9C91.1522 15.1 90.4522 15 89.9522 14.6C87.2522 12.4 84.1522 10.3 81.5522 9.5C80.0522 9 78.2522 8.6 76.4522 9C74.6522 9.3 72.7522 10.3 71.3522 12C70.6522 12.9 70.0522 13.9 69.5522 15C69.1522 16.1 68.8522 17.3 68.8522 18.6C68.7522 21.2 69.3522 24 70.5522 26.6C71.1522 27.9 70.6522 29.4 69.3522 30C68.6522 30.3 67.8522 30.3 67.1522 30L67.0522 29.9C65.5522 29.1 62.9522 28.3 60.4522 28.1C58.8522 27.8 57.0522 27.8 55.3522 28.1C54.4522 28.2 53.6522 28.4 52.9522 28.7C52.2522 29 51.7522 29.3 51.4522 29.7C51.1522 30 50.9522 30.6 50.9522 31.4C50.8522 32.2 50.8522 33.3 50.9522 34.2C51.1522 36.1 51.7522 38.1 52.6522 39.9C53.1522 41.2 53.9522 42.4 54.8522 43.5L55.0522 43.7C55.8522 44.7 55.6522 46.1 54.6522 46.9C53.8522 47.5 52.8522 47.6 52.0522 47.1C51.8522 47 51.4522 46.9 50.9522 47C50.4522 47.2 49.8522 47.6 49.5522 48.1C49.2522 48.5 48.9522 49.3 48.8522 50C48.7522 50.8 48.7522 51.7 48.9522 52.6C49.0522 53.5 49.3522 54.5 49.5522 55.5C49.7522 56.5 50.1522 57.5 50.3522 58.5C50.9522 60.5 51.6522 62.5 52.4522 64.5C53.8522 68.5 55.4522 72.6 56.2522 76.9C56.7522 79 56.9522 81.2 57.0522 83.3C57.0522 85.4 56.8522 87.5 56.3522 89.5C55.8522 90 55.8522 89.1 55.8522 87.9C55.9522 87.3 55.8522 86.7 55.8522 86.2C55.8522 85.7 55.7522 85.3 55.6522 85.1C55.3522 84.4 55.3522 86.4 55.1522 87.9C54.9522 89.4 54.7522 90.4 54.9522 87.8C54.6522 88.1 54.5522 87.8 54.5522 87.2C54.4522 86.6 54.5522 85.6 54.5522 84.6C54.5522 82.6 54.3522 80.2 54.3522 79.7C53.8522 77.4 53.3522 75.5 52.8522 73.8C52.3522 72.1 51.9522 70.6 51.4522 68.9C49.8522 64.8 47.9522 60.3 46.7522 55.5C46.4522 54.3 46.1522 53 46.0522 51.7C45.9522 50.4 46.0522 49 46.5522 47.7C47.0522 46.3 48.0522 45.2 49.3522 44.5C50.5522 43.8 52.2522 43.6 53.6522 44.3L52.5522 45.1C48.9522 40.7 47.2522 34.9 48.2522 29.5C48.5522 28.4 49.0522 27.5 49.7522 26.8C50.4522 26.2 51.2522 25.7 52.0522 25.4C53.5522 24.8 55.0522 24.6 56.3522 24.4C59.1522 24.1 61.7522 24.3 64.9522 25.5C65.9522 25.8 67.0522 26.1 68.4522 26.7L67.7522 27.4C66.5522 25 65.5522 22 65.5522 18.6C65.4522 15.2 66.7522 11.4 69.4522 8.6C70.7522 7.2 72.5522 6 74.4522 5.4C76.4522 4.8 78.5522 4.7 80.5522 5.1C84.5522 5.9 87.9522 7.9 90.8522 9.9C91.4522 10.4 91.9522 10.8 92.4522 11.2L89.3522 13.3C88.6522 10.9 89.2522 8.6 90.1522 6.9C90.6522 6 91.2522 5.3 91.8522 4.6C92.4522 4.1 93.1522 3.6 93.9522 3.2C96.8522 1.5 99.7522 1.2 102.352 1C104.952 1 107.552 1.4 109.952 2.2C112.352 3 114.752 4.3 116.952 6.1C121.852 9 125.752 13.2 129.052 17.9C130.652 20.2 132.152 22.7 133.552 25.3L133.852 25.8L133.952 26C133.952 26 134.052 26 133.852 26.1C133.052 26.6 132.852 26.9 132.652 27.1C132.552 27.3 132.652 27.2 132.652 26.9C132.652 26.7 132.552 26.5 132.452 26L132.352 25.6C132.352 25.5 132.352 25.5 132.352 25.5L132.852 25.3L133.852 24.8C135.252 24.2 136.652 23.6 138.052 22.9C139.352 22.3 140.852 22.9 141.452 24.2C141.452 24.3 141.552 24.4 141.552 24.5C142.452 27.4 142.452 30.7 141.252 33.9L137.352 30.8C138.852 29.8 140.552 29.2 142.252 28.9C143.952 28.6 145.652 28.6 147.352 28.7C150.752 29 154.252 30 157.452 32.2C159.152 33.4 160.652 35 161.752 36.8C162.852 38.7 163.452 40.9 163.452 43C163.452 45.1 163.052 47.2 162.052 49.1C161.052 51 159.452 52.7 157.352 53.7C156.252 54.2 154.852 53.7 154.352 52.6C153.852 51.6 154.252 50.4 155.152 49.7C155.952 49.2 156.852 48.8 157.752 48.6C158.652 48.4 159.552 48.4 160.452 48.5C162.152 48.7 163.752 49.5 165.052 50.6C165.752 51.1 166.252 51.8 166.752 52.6C167.252 53.4 167.552 54.1 167.752 55C168.252 56.6 168.252 58.3 167.952 59.9C167.652 61.5 167.052 62.9 166.252 64.2C165.352 65.5 164.352 66.6 163.152 67.6C160.752 69.5 158.052 70.6 155.352 71.4C154.152 71.7 152.952 71.1 152.652 69.9C152.352 68.9 152.852 67.9 153.752 67.4C154.452 67 155.352 66.8 156.252 66.8C157.152 66.8 157.852 67.1 158.552 67.4C159.852 68.1 160.852 69.1 161.452 70.3C161.752 70.9 161.952 71.6 162.152 72.3C162.252 73 162.252 73.8 162.152 74.4C161.952 75.7 161.452 76.9 160.852 77.9C159.652 79.9 158.152 81.4 156.852 82.8C155.652 84.1 154.552 85.6 154.252 86.9C154.152 87.2 154.052 87.6 154.052 87.9V88.2C153.952 89.2 153.052 90 152.052 90C151.352 90 150.652 89.5 150.452 88.8C149.352 86.2 147.952 83 146.752 80C145.552 77 144.752 74.3 144.652 72.9C143.452 70.3 142.252 66.9 141.252 63.3C140.252 59.7 139.352 55.8 138.752 52.5L140.052 53.3C138.452 53.5 136.952 53.7 135.652 53.8C132.452 54.9 131.952 54.6 128.652 55.3C121.852 55.8 115.552 55.8 109.452 54.5C106.352 53.9 103.352 53 100.352 51.7C97.3522 50.4 94.4522 48.6 91.7522 46.3C91.0522 45.7 90.9522 44.5 91.5522 43.8C92.0522 43.3 92.7522 43.1 93.3522 43.3H93.5522C94.6522 43.6 95.7522 44.5 96.3522 45.6C96.9522 46.7 97.1522 47.9 97.0522 49C96.9522 50.1 96.6522 51.1 96.1522 52C95.6522 52.9 94.9522 53.7 94.0522 54.2C92.5522 55.2 90.8522 55.5 89.4522 55.6C86.5522 55.7 84.3522 54.9 82.5522 54.3C78.7522 53 75.8522 51.5 72.5522 49.6L75.9522 46.8C76.6522 48.3 77.2522 50.1 77.4522 52.2C77.5522 53.9 77.4522 55.4 77.1522 56.5C76.9522 57.7 76.6522 58.7 76.3522 59.7C75.7522 61.6 75.0522 63.3 74.1522 65.7C72.9522 67.9 72.6522 69.3 71.9522 69.6C70.1522 72.2 69.0522 73.8 68.2522 75C67.4522 76.2 66.8522 76.9 65.9522 77.5C64.7522 79.2 63.5522 81.6 62.7522 83.5C61.3522 85.5 60.9522 87 60.4522 87.1Z" fill="#3C437D"/>
<path d="M102.752 107.8C102.652 107.5 102.552 107.3 102.552 107C102.552 107.2 102.652 107.5 102.652 107.7C102.652 107.3 102.652 107 102.652 106.6C102.652 106.8 102.552 107.1 102.552 107.3C102.552 107.1 102.652 106.8 102.752 106.6C102.752 106.5 102.852 106.4 102.852 106.2C102.652 106.9 102.652 106.6 102.752 106.4C102.852 106.2 103.052 106 103.152 105.8C103.452 105.4 102.752 106.3 103.052 105.9C103.152 105.8 103.252 105.7 103.352 105.6C103.452 105.5 103.552 105.4 103.652 105.3C103.952 105 103.152 105.7 103.552 105.4C103.752 105.3 103.952 105.1 104.252 105C104.652 104.8 103.652 105.2 104.152 105C104.252 105 104.352 104.9 104.552 104.9C104.852 104.8 105.152 104.7 105.452 104.7C105.252 104.7 104.952 104.8 104.752 104.8C105.452 104.7 106.152 104.7 106.852 104.8C106.652 104.8 106.352 104.7 106.152 104.7C106.552 104.8 106.952 104.8 107.352 105C107.552 105.1 107.752 105.1 107.952 105.2C108.152 105.3 108.852 105.5 108.052 105.2C108.752 105.5 109.352 105.7 110.052 105.5C110.652 105.3 111.352 104.9 111.652 104.3C111.952 103.7 112.152 102.9 111.952 102.3C111.752 101.7 111.352 101 110.752 100.7C109.152 100 107.552 99.5 105.752 99.6C104.152 99.6 102.352 100 100.952 101C98.3523 102.8 96.6523 106.2 97.8523 109.4C98.1523 110.1 98.4523 110.6 99.0523 111C99.6523 111.3 100.452 111.5 101.052 111.3C102.152 110.6 103.252 109.2 102.752 107.8Z" fill="#3C437D"/>
<path d="M97.6433 78.0175C99.8759 77.9552 102.205 78.0678 104.632 78.2182L105.392 78.2663C108.987 78.4987 112.531 78.8439 112.909 79.0058C114.945 80.0218 116.81 81.1275 118.459 82.6665C119.293 83.4989 119.98 84.3085 120.555 85.3447C120.851 85.9349 121.21 86.5742 121.576 87.0407C122.062 87.5511 122.359 88.2213 122.371 88.8799C122.416 89.5758 122.54 90.2524 122.661 90.9272C122.834 91.8916 123 92.8527 123 93.8475C122.887 95.4767 122.66 97.1366 122.217 98.5757C121.753 100.083 120.945 101.477 119.903 102.639C118.056 104.917 115.987 106.974 113.481 108.609C113.329 108.705 113.136 108.83 112.912 108.976C111.344 109.995 108.317 111.924 106.786 112.307C106.173 112.709 105.958 112.854 105.746 112.96C105.538 113.064 105.313 113.136 105.075 113.19C104.128 116.068 103.872 123.725 103.582 124.79C103.537 124.954 103.411 125.254 103.228 125.654C102.974 125.644 102.701 125.62 102.407 125.581C100.565 125.335 99.6966 124.724 98.8371 123.99C98.2156 123.514 97.7714 122.874 97.6152 122.096C97.5747 121.894 97.5556 121.693 97.5563 121.494C97.5272 121.098 97.4918 120.533 97.4526 119.876C97.4181 119.297 97.394 118.616 97.3727 117.921L97.3571 117.397C97.3035 115.565 97.2559 113.777 97.0766 113.598C96.5429 113.064 96.579 111.031 96.7982 109.789C97.8992 108.261 98.4306 108.127 99.1123 107.949C101.608 107.298 106.96 105.914 111.312 103.004C114.394 100.944 117.359 98.6273 117.359 93.8475C117.359 89.7342 115.904 87.2976 113.758 85.9383C110.199 83.6845 105.034 84.2102 102.006 84.4738C100.696 84.5878 99.7195 84.6386 99.2712 84.5364C98.7465 84.4167 98.2886 84.3249 97.8857 84.2441C96.3232 83.9306 95.4685 83.675 94.7953 83.0173C94.1658 82.4561 93.9165 81.6366 94.0243 80.8473C94.1338 80.0455 94.6153 79.3014 95.3632 78.9276C96.0466 78.5856 96.8456 78.2455 97.6433 78.0175Z" fill="white"/>
<path d="M100.379 131.448C101.078 131.448 101.785 131.601 102.203 132.21C102.629 132.666 103.047 133.123 103.328 133.579C103.61 134.036 103.755 134.493 103.61 134.949C103.192 135.863 102.911 136.776 102.484 137.537C102.348 137.994 101.641 138.146 101.359 137.842C99.9526 136.928 99.1087 135.558 98.4097 134.036C97.9834 133.123 98.8274 131.601 99.8162 131.601C99.8162 131.448 100.098 131.448 100.379 131.448Z" fill="white"/>
</svg>
